<?xml version="1.0" encoding="UTF-8"?>
<svg id="uuid-fa637944-9df4-4343-955d-8f7f3485b1f6" data-name="Layer 2" xmlns="http://www.w3.org/2000/svg" viewBox="0 0 95.2 72.42">
  <g id="uuid-f553bf15-be7e-4593-837a-e6e0d7eb40e9" data-name="Layer 1">
    <path d="M9.58,4.09H86.15l-.19,.19L47.31,40.25l-.08,.08-.08-.08L8.2,4.41l-.16-.11,.19-.05c.21-.05,.45-.11,.66-.13,.24-.03,.45-.03,.69-.03h0Zm-5.34,4.14c.11-.45,.27-.88,.48-1.27l.08-.11,.08,.08,31.49,29.23,.08,.08-.08,.05L4.51,64.59l-.13,.11-.03-.13c-.11-.29-.16-.56-.21-.85-.05-.29-.08-.58-.08-.88h0V9.58h0c0-.45,.08-.9,.19-1.35h0Zm4.11,60c-.4-.11-.8-.24-1.14-.42l-.13-.05,.11-.11,31.88-28.33h0c.05-.03,.13-.08,.19-.16h0c.05-.05,.11-.11,.13-.16l.08-.11,.08,.08,6.29,5.55h0c.16,.16,.37,.29,.58,.37h0c.27,.11,.53,.16,.77,.16h.05c.24,0,.5-.05,.77-.16,.21-.08,.42-.21,.58-.37h0l6.29-5.55,.08-.08,.08,.11c.03,.05,.08,.11,.13,.16,.05,.08,.11,.13,.19,.16h0l32.26,28.49,.11,.11-.13,.08c-.32,.11-.64,.21-.98,.27-.32,.08-.66,.11-1.01,.11H9.58c-.42,0-.82-.05-1.22-.13h0Zm82.67-4.33c-.08,.35-.19,.69-.32,1.01l-.05,.13-.11-.08-32.47-28.67-.08-.05,.08-.08L89.84,6.21l.08-.05,.05,.08c.37,.48,.66,1.01,.85,1.59,.21,.56,.32,1.14,.32,1.75h0V62.84h0c0,.37-.05,.72-.11,1.06h0ZM85.62,0H9.58c-1.3,0-2.52,.27-3.66,.74-1.17,.48-2.23,1.19-3.11,2.07-.9,.88-1.59,1.94-2.1,3.13-.45,1.12-.72,2.36-.72,3.64H0V62.84H0c0,1.3,.27,2.52,.72,3.66,.5,1.17,1.19,2.23,2.1,3.11,.88,.88,1.94,1.59,3.11,2.1,1.14,.45,2.36,.72,3.66,.72H85.62c1.3,0,2.52-.27,3.66-.72,1.17-.5,2.23-1.22,3.11-2.1h0c.88-.88,1.59-1.94,2.07-3.11,.48-1.11,.74-2.36,.74-3.66h0V9.58h0c0-1.27-.27-2.52-.74-3.66-.48-1.17-1.2-2.23-2.07-3.11-.88-.88-1.94-1.59-3.11-2.07-1.14-.48-2.36-.74-3.66-.74h0Z" fill="#fff" fill-rule="evenodd"/>
  </g>
</svg>