<?xml version="1.0" encoding="UTF-8"?>
<svg id="uuid-1a754075-8575-4751-87e5-c940fde78602" data-name="Layer 1" xmlns="http://www.w3.org/2000/svg" viewBox="0 0 500 500">
  <path d="M358.86,77.56c1.97.35,3.82.92,5.78,1.12,2.03.26,4.08.95,6.32,1.64,2.27.63,4.5,1.37,6.61,2.31,1.02.43,2.05.84,3.41,1.44,1.37.61,3.06,1.42,4.45,2.12,1.39.69,2.48,1.28,3.55,1.87,1.08.6,2.15,1.2,2.9,1.72.75.51,1.19.93,1.68,1.29.49.36,1.02.65,2.1,1.39,1.07.72,2.68,1.88,4.48,3.35,1.81,1.47,3.8,3.26,5.08,4.36s1.84,1.51,2.38,1.96c1.18.91,2.18,2.28,3.31,3.65.61.71,1.27,1.38,2.06,2.33.8.96,1.74,2.2,2.68,3.44s1.89,2.49,3.08,4.17c1.2,1.68,2.65,3.79,3.82,5.58,1.16,1.8,2.06,3.27,3.36,5.6,1.3,2.33,3.01,5.51,5.25,11.28,2.24,5.76,5.03,14.09,7.17,22.51,2.14,8.41,3.65,16.9,3.93,29.2.28,12.31-.66,28.45-6.33,43.63-5.66,15.19-16.06,29.42-22.88,38.15-6.81,8.74-10.05,11.99-12.52,14.3s-4.17,3.71-5.97,4.95h-31.49c1.81-1.87,3.61-3.73,5.22-5.36,3.23-3.18,5.56-5.87,7.96-8.79,1.2-1.43,2.45-2.8,9.34-13.84,6.89-11.04,19.42-31.72,23.23-49.96,3.81-18.23-1.1-34.02-6.02-45.48-4.93-11.46-9.87-18.59-13.76-23.76-3.89-5.15-6.73-8.34-8.8-10.46-2.06-2.13-3.34-3.2-4.66-4.3-1.32-1.09-2.68-2.22-4.58-3.65-1.9-1.44-4.33-3.21-6.68-4.58s-4.58-2.35-6.53-3.19c-1.94-.85-3.6-1.57-5.58-2.29-1.99-.73-4.31-1.46-7.22-2.17-2.91-.7-6.4-1.37-9.92-1.87h-12.09c-3.84.68-7.66,1.46-10.34,2.07-2.66.61-4.19,1.03-7.55,2.43-3.37,1.41-8.58,3.78-11.84,5.43-3.25,1.64-4.56,2.55-6.59,4.09s-4.79,3.71-7.75,6.39c-2.96,2.68-6.1,5.89-8.83,8.93-2.72,3.06-5.03,5.96-7.82,10.33-2.79,4.36-6.08,10.18-7.95,13.77-1.87,3.58-2.33,4.93-2.58,6.32-1.18-1.98-2.34-3.97-3.45-6-1.11-2.03-2.18-4.09-4.35-7.59-2.17-3.5-5.45-8.46-7.92-11.81-2.47-3.36-4.12-5.11-7.93-8.95-3.82-3.84-9.79-9.75-17.27-14.3-7.48-4.55-16.45-7.73-24.54-9.11-8.08-1.37-15.28-.92-20.26-.41-4.98.51-7.75,1.07-10.21,1.74s-4.61,1.43-7.22,2.45c-2.63,1.02-5.72,2.26-8.21,3.47s-4.37,2.36-5.94,3.36c-2.97,1.94-5.16,3.35-7.66,5.47-1.17,1.02-2.29,2.21-3.47,3.36-1.16,1.15-2.36,2.27-3.94,3.98-1.57,1.71-3.52,4-5.42,6.56-1.89,2.57-3.72,5.41-5.06,7.61-1.33,2.21-2.17,3.79-2.75,4.93-.59,1.15-.92,1.87-1.26,2.58-.35.71-.7,1.41-1.22,2.69-.52,1.3-1.19,3.19-1.93,5.07-.74,1.88-1.54,3.75-2.1,7.32-.55,3.57-.85,8.84-1.07,11.66-.22,2.82-.36,3.18-.49,3.54-.2,1.03-1.08,2.01-2.01,3.02-11.42,2.55-22.88,5.01-28.75,6.21-5.87,1.2-6.14,1.14-6.37,1.03-.65-.25-.72-.8-.7-1.38.03-.35.13-.72.28-4.74s.36-11.69.64-16.14c.27-4.45.62-5.67,1.02-7.55s.82-4.43,1.28-6.56c.45-2.13.92-3.85,1.34-5.58s.79-3.49,1.18-4.91.81-2.51,1.21-3.6c.4-1.1.78-2.22,1.23-3.59s.97-3.02,1.54-4.46c.57-1.44,1.18-2.69,2.01-4.46.83-1.78,1.87-4.08,2.81-5.94s1.77-3.3,2.89-5.13c1.12-1.84,2.54-4.07,3.82-6.04,1.29-1.98,2.44-3.7,3.98-5.65,1.53-1.95,3.46-4.13,5.84-6.58,2.38-2.45,5.24-5.17,7.25-7.03,2.01-1.86,3.17-2.87,4.36-3.83,2.24-1.46,4.5-2.9,6.7-4.28s4.33-2.69,7.18-4.1,6.41-2.89,9.34-3.98c2.94-1.1,5.25-1.82,7.91-2.54s5.65-1.45,8.93-1.85,6.84-.46,12.35-.15c5.51.3,12.97.97,18.26,1.87,5.29.91,8.39,2.05,10.85,2.94,2.45.89,4.25,1.5,7.91,3.52,3.66,2.02,9.18,5.43,15.29,9.83s12.79,9.79,18.29,14.76,9.84,9.52,13.99,15.14c4.16,5.62,8.13,12.33,11.44,19.35,3.17-6.05,6.72-11.91,10.49-17.37,3.78-5.47,7.79-10.54,12.93-16.24,5.14-5.7,11.42-12.02,18.7-17.18s15.57-9.18,19.96-11.29c4.38-2.11,4.87-2.32,5.37-2.54,1.51-.81,3.68-.73,5.42-1.5.64-.22,1.36-.48,2.08-.69.72-.22,1.45-.42,2.63-.63,1.16-.21,2.75-.45,4.36-.69,1.62-.23,3.26-.48,4.49-.61s2.05-.14,2.86-.13c1.57.11,2.92-.14,4.18-.51,1.63-.21,3.24-.04,4.87-.02.44.06.83.2,1.23.31.4.12.8.22,1.59.3,1.49.2,4.19-.02,6.32.19" fill="#fff" fill-rule="evenodd"/>
  <path d="M178.75,204.96c16.96,4.13,32.11,9.15,40.81,12.4,8.7,3.24,10.95,4.7,13.44,6.32,2.48,1.61,5.2,3.38,8.77,5.85s7.97,5.63,10.38,7.22c2.4,1.58,2.79,1.58,3.11,1.4,2.69-1.7,5.37-3.45,7.43-4.86s3.5-2.51,5.2-3.65,3.65-2.33,5.92-3.72c2.28-1.39,4.9-2.97,8-4.68,3.09-1.71,6.69-3.53,9.68-5.02,3.01-1.49,5.43-2.65,7.89-3.77,2.46-1.11,4.95-2.2,11.83-3.98s18.15-4.28,31.2-5.95c13.07-1.66,27.94-2.49,38.5-2.67,10.56-.19,16.81.26,22.97,1.31l-1.98,20.2c-12.79-.58-25.59-.47-38.22.33-12.62.8-25.06,2.28-34.24,3.96-9.19,1.68-15.14,3.54-19.52,4.99-4.39,1.44-7.21,2.45-9.91,3.55-5.3,2.17-10.43,4.74-15.65,7.65-2.55,1.43-5.05,2.92-6.72,3.98-3.19,2.02-3.7,2.73-3.96,3.92,1.3,1.32,2.63,2.61,3.56,3.48s1.49,1.35,2.06,1.81c.97.81,1.95,1.47,2.8,1.8.35.17.67.36,1.35.95,1.36,1.2,3.9,3.63,5.98,5.06,2.28,1.51,3.84,2.51,5.72,3.97,1.03.76,2.23,1.6,3.82,2.65,1.59,1.04,3.58,2.3,4.89,3.13,1.32.83,1.95,1.24,2.57,1.67.62.43,1.22.87,2.12,1.43.91.56,2.1,1.22,3.31,1.86,1.21.65,2.43,1.29,4.2,2.24s4.08,2.23,7.15,3.65,6.92,3.02,11.43,4.72,9.68,3.53,17.32,5c7.63,1.47,17.73,2.59,26.24,3.12,8.52.53,15.45.47,22.66-.08,7.2-.56,14.68-1.6,20.89-2.86s11.16-2.71,15.57-4.28c4.4-1.55,8.27-3.2,11.75-5.06,3.47-1.85,6.56-3.93,8.97-5.88,2.41-1.95,4.13-3.78,5.12-4.9s1.26-1.54,1.54-1.94c.28-.4.6-.79,1.06-1.65.48-.87,1.12-2.22,1.58-3.53.47-1.32.75-2.61.81-4.74s-.12-5.12-.27-6.85-.29-2.19-.72-3.19-1.16-2.56-1.93-3.82c-.76-1.26-1.56-2.22-3.04-3.69-1.47-1.47-3.63-3.46-5.88-5.35-2.44-1.37-4.88-2.73-6.56-3.7-1.67-.97-2.59-1.52-3.5-2.08l2.91-24.04c3.18.74,6.33,1.64,8.74,2.48,2.4.84,4.07,1.61,5.29,2.22,2.58,1.33,3.57,1.86,5.41,2.94.95.58,2.01,1.3,3.1,1.98,2.23,1.33,4.62,2.94,7.02,4.92,1.23.98,2.45,1.96,4.07,3.49s3.64,3.61,5.58,5.77c1.97,3.06,3.78,6.25,4.94,8.58s1.67,3.83,2.15,5.4c.48,1.56.92,3.19,1.25,5.19.33,1.99.56,4.34.54,6.39-.03,2.05-.3,3.8-.5,5-.19,1.2-.29,1.86-.56,2.82-.25.97-.67,2.23-1.11,3.47s-.9,2.47-1.69,3.99-1.91,3.36-2.66,4.56c-.75,1.2-1.13,1.76-1.51,2.31-.38.55-.76,1.08-1.57,1.91-.8.83-2.03,1.95-3.23,3.08-1.2,1.14-2.39,2.3-4.06,3.71-1.68,1.42-3.85,3.07-7.12,5.19-3.28,2.12-7.65,4.7-13.83,7.49-6.18,2.78-14.16,5.78-21.4,7.97-7.24,2.21-13.74,3.61-20.92,4.94-7.16,1.33-15,2.56-23.15,3.18s-16.61.62-25.6.45c-8.98-.18-18.51-.53-27.52-1.58-9.02-1.04-17.53-2.78-25.4-4.94s-15.11-4.73-19.71-6.42c-4.61-1.69-6.57-2.5-8.28-3.23-1.7-.73-3.13-1.38-4.61-2.1-2.8-1.37-5.7-2.93-8.38-4.28-1.27-.64-2.5-1.25-4.5-2.38s-4.76-2.79-7.14-4.29c-2.37-1.5-4.35-2.86-5.77-3.82s-2.25-1.52-3.12-2.14c-1.59-1.17-3.3-2.32-4.82-3.35-1.23-.91-2.22-1.78-3.06-1.65-.38,0-.8.06-1.21.16-1.84,1.18-3.66,2.38-5.47,3.6s-3.58,2.45-5.62,3.75-4.32,2.66-6.63,4.02-4.61,2.71-7.82,4.44-7.32,3.84-10.12,5.23-4.29,2.07-5.74,2.69c-1.44.62-2.85,1.19-4.11,1.72-1.25.53-2.35,1.01-3.38,1.4s-1.96.7-3.13,1.14-2.57,1-4,1.55c-1.43.57-2.92,1.12-5.31,1.8-2.4.67-5.72,1.46-7.82,1.91s-2.98.56-3.57.61c-.61.06-.93.06-1.22.03s-.56-.1-4.84-3.02-12.6-8.69-20.86-14.51c2.43-.66,4.89-1.22,8.62-1.83s8.74-1.28,13.1-2.03,8.07-1.6,10.68-2.21c2.62-.61,4.12-.99,7.29-2.01,3.16-1.03,7.99-2.72,11.03-3.79s4.29-1.51,5.56-2.03c1.26-.52,2.54-1.1,3.82-1.66,1.29-.56,2.59-1.08,4.11-1.87,2.94-1.58,6.74-3.89,10.17-5.88,1.66-.99,3.21-1.96,4.25-2.68,1.03-.72,1.54-1.2,1.98-1.74,0-.6.06-.63-.13-1.14-.13-.32-.37-.8-.67-1.22s-.67-.77-2.05-1.87-3.78-2.95-6.02-4.7c-2.25-1.77-4.36-3.46-6.16-4.78-3.77-2.7-6.19-4.39-9.27-6.64-1.61-1.13-3.38-2.29-5.43-3.58-2.05-1.29-4.39-2.69-5.87-3.58s-2.07-1.25-3.33-1.92c-1.26-.67-3.17-1.66-4.78-2.49s-2.91-1.49-4.87-2.51c-1.96-1.02-4.58-2.38-15.5-5.38-10.92-3-30.14-7.62-48.99-7.66-18.85-.05-37.32,4.49-46.96,6.97-9.63,2.48-10.41,2.9-11.22,3.26-1.73.67-3.61,1.65-5.59,2.88-1.05.62-2.13,1.21-3.83,2.37-1.69,1.16-4,2.89-5.53,4.18-1.53,1.3-2.29,2.16-3.3,3.53-2.09,2.78-4.73,7.53-5.1,11.59-.21,2.04.02,3.94.31,5.7.28,1.76.61,3.37,1.38,5.08s1.97,3.51,2.84,4.69c.86,1.17,1.37,1.71,2.37,2.68,1,.98,2.49,2.4,3.66,3.42s2.01,1.63,3.53,2.53c1.52.9,3.71,2.09,5.69,3.17,1.98,1.07,3.77,2.04,8.14,3.59,4.37,1.56,11.33,3.72,16.87,5.11,5.53,1.4,9.61,2.03,12.35,2.4s4.1.48,4.97.63,1.24.35,1.61.54c.37.19.73.36,5.98,4.13,5.25,3.76,15.37,11.11,25.47,18.5-.09.49.48.85-.8,1.49-.26.11-.54.17-2.39.16-1.85,0-5.29-.1-8.71-.07-3.42.02-6.83.15-14.12-.43-7.29-.58-18.47-1.85-29.68-4.53-11.22-2.66-22.46-6.73-28.69-9.09-6.23-2.36-7.44-3.03-8.7-3.74s-2.58-1.48-4.27-2.53-3.74-2.38-5.47-3.62c-1.74-1.24-3.15-2.39-5.24-4.24-2.09-1.84-4.86-4.38-7.16-7.26-2.29-2.88-4.12-6.09-5.52-9.8-1.41-3.71-2.39-7.92-2.71-12.28-.32-4.36.03-8.89,1-12.43s2.55-6.07,3.64-7.86c1.09-1.78,1.7-2.79,2.6-3.93.9-1.13,2.1-2.39,3.28-3.68s2.33-2.63,9.48-7.62c7.14-5,20.28-13.66,38.17-19.33s40.56-8.36,61.27-8.09c20.71.27,39.48,3.52,56.45,7.65" fill="#fff" fill-rule="evenodd"/>
  <path d="M94.35,228.09c.05.43,0,1.12.04,1.77s.18,1.25.38,2.85.49,4.22.78,6.12.6,3.11,1.02,4.88.98,4.1,1.53,5.97c1.17,3.74,2.28,5.93,3.63,8.83.7,1.44,1.49,2.96,2.3,4.45,1.6,3.08,3.78,6.21,6.27,9.49,1.26,1.7,2.51,3.4,3.76,5.1,1.32,1.37,2.63,2.73,3.92,4.12,2.53,2.77,5,5.17,7.44,7.14,1.18,1.01,2.35,2.02,3.74,3.15s2.98,2.37,4.61,3.62c1.64,1.24,3.31,2.49,4.69,3.5,1.38,1.02,2.44,1.82,4.61,3.27s5.44,3.57,8.09,5.29c2.66,1.72,4.71,3.05,6.71,4.32s3.91,2.53,5.22,3.35c1.31.82,2.01,1.23,2.67,1.67,1.23.89,2.53,1.57,3.79,2.17.58.32,1.08.73,2.37,1.58,1.29.85,3.36,2.14,5.29,3.39,1.93,1.24,3.72,2.44,6.32,4.28s6,4.3,9.02,6.6c3.02,2.28,5.63,4.39,7.57,5.95,1.95,1.56,3.23,2.59,4.5,3.62s2.52,2.07,3.47,2.94,1.62,1.57,2.33,2.24c.7.66,1.45,1.3,2.74,2.46,1.29,1.16,3.1,2.85,7.84,8.35,4.73,5.51,12.38,14.82,17.85,21.57,5.48,6.75,8.77,10.96,11.99,15.23,3.06-4.52,6.34-8.89,12.41-16.26,6.06-7.36,14.89-17.72,20.89-24.2s9.18-9.09,12.46-11.75c3.29-2.67,6.7-5.41,12.4-9.28,5.7-3.87,13.7-8.9,21.85-13.66l24.53,2.94c-10.25,6.29-20.41,12.72-26.39,16.64-5.98,3.93-7.77,5.37-9.47,6.65-1.7,1.28-3.31,2.4-5.73,4.26-2.41,1.85-5.63,4.44-8.08,6.42-2.44,1.98-4.1,3.36-7.45,6.35-3.35,2.99-8.38,7.59-13.45,12.76-5.07,5.15-10.15,10.86-13.46,14.65-3.3,3.79-4.82,5.65-6.03,7.22s-2.1,2.86-3.1,4.26c-1,1.39-2.11,2.88-4.01,6.04-1.9,3.16-4.61,8-7.18,12.91-2.38-4.41-4.86-8.77-6.53-11.55s-2.54-3.97-3.62-5.44c-1.09-1.46-2.4-3.19-3.47-4.59-1.07-1.4-1.91-2.45-2.99-3.78-1.07-1.32-2.38-2.9-4.24-5s-4.26-4.72-6.4-7.07c-2.16-2.34-4.06-4.39-6.69-7.07s-5.97-5.95-8.71-8.55-4.86-4.5-6.47-5.99c-1.61-1.48-2.72-2.55-3.85-3.6-1.12-1.04-2.27-2.07-3.27-2.87-1.01-.8-1.85-1.37-2.67-1.99-.82-.61-1.59-1.28-3.35-2.72-1.75-1.44-4.48-3.68-6.39-5.19-1.91-1.51-3.01-2.3-4.08-3.13-2.2-1.79-4.58-3.47-7.08-5.12-1.29-.88-2.55-1.8-4.45-3.06-1.9-1.27-4.46-2.88-6.38-4.13-1.92-1.25-3.22-2.15-4.96-3.23s-3.88-2.37-6.68-4.11-6.22-3.92-8.99-5.65c-2.77-1.73-4.9-3-6.68-4.12-1.78-1.12-3.2-2.1-4.58-3-1.39-.9-2.73-1.71-4.42-2.83-1.69-1.12-3.72-2.55-5.51-3.79-1.8-1.23-3.37-2.27-5.45-3.8-2.08-1.52-4.67-3.54-6.44-4.9s-2.74-2.06-4.11-3.22c-1.36-1.16-3.11-2.78-4.92-4.4-1.82-1.62-3.68-3.26-5.03-4.47-1.34-1.21-2.15-2.01-2.96-2.82-.8-.8-1.59-1.62-2.57-2.74s-2.12-2.55-3.32-3.93-2.45-2.72-3.27-3.74c-.81-1.02-1.19-1.73-1.6-2.4-.42-.67-.88-1.31-1.71-2.48s-2.03-2.88-3.05-4.42c-1.01-1.54-1.82-2.93-2.92-5-1.1-2.08-2.49-4.85-3.59-7.41-1.1-2.55-1.9-4.88-2.43-6.35-.52-1.46-.75-2.07-.98-2.69-.5-1.22-.74-2.74-.95-4.24-.13-.74-.28-1.43-.27-1.92,0-.5.2-.81.41-1.08.21-.27.47-.51,5.3-1.67,4.83-1.16,14.24-3.25,19.14-4.27s5.29-.94,5.56-.83.44.24.6.4c.15.16.28.31.33.74" fill="#fff" fill-rule="evenodd"/>
  <path d="M223.49,305.89c-.11.67-.11,1.27-.02,1.79.15.88.48,1.51.64,2.05.08.4.42,1.02,1.63,1.58.53.25,1.12.45,1.85.41.72-.04,1.56-.29,2.09-.51.95-.43,1.04-.61,1.5-1.26.19-.32.36-.76.52-1.21.49-1.36.7-3.76-.28-5.97-.28-.65-.62-1.25-.91-1.63-.71-.87-.89-1.05-1.41-1.27-.61-.08-1.49-.1-2.25.05-.71.27-1.34.77-1.93,1.82-.53.99-1.17,2.71-1.43,4.15" fill="#fff" fill-rule="evenodd"/>
  <path d="M262.89,321.79c-.11.67-.11,1.27-.02,1.79.15.88.48,1.51.64,2.06.08.4.42,1.02,1.63,1.58.53.25,1.12.45,1.84.41.72-.04,1.57-.29,2.09-.51.95-.43,1.05-.61,1.51-1.26.19-.32.36-.76.51-1.21.49-1.36.71-3.76-.28-5.97-.28-.65-.62-1.25-.9-1.63-.71-.87-.89-1.05-1.41-1.27-.61-.08-1.49-.1-2.25.05-.7.27-1.33.77-1.93,1.82-.53.99-1.17,2.71-1.43,4.15" fill="#fff" fill-rule="evenodd"/>
  <path d="M233.4,307.86c-.17,1.14-.2,2.01,0,2.97.5,1.16,2.07,2.2,3.22,2.35.87.44,2.32.03,3.64-.71.76-1.34,1.53-2.56,1.81-3.9.14-.73.08-1.54.07-2.34,0-.8.04-1.6-.06-2.22-.1-.61-.35-1.04-.65-1.42-.63-.9-1.49-.97-2.33-.9-.83-.06-1.77.07-2.66.91-1,.82-1.63,1.96-2.24,3.2-.35.7-.67,1.43-.81,2.05" fill="#fff" fill-rule="evenodd"/>
  <path d="M272.8,323.76c-.17,1.14-.2,2.01,0,2.97.5,1.16,2.08,2.2,3.22,2.35.88.44,2.32.03,3.65-.71.75-1.34,1.52-2.56,1.81-3.9.13-.73.07-1.54.07-2.34s.04-1.6-.06-2.22c-.1-.61-.35-1.04-.64-1.42-.64-.9-1.5-.97-2.33-.9-.83-.06-1.77.07-2.66.91-1.01.82-1.63,1.96-2.24,3.2-.35.71-.67,1.44-.81,2.05" fill="#fff" fill-rule="evenodd"/>
  <path d="M214.35,310.11c-.04,1.03-.15,2.3.05,3.49.14.64.45,1.34.77,2.01.31.68.63,1.35,1.01,1.79.64.82,1.8.94,2.84.77,1.09-.29,1.33-.46,2.01-1.5.39-.63.91-1.65,1.15-2.38s.2-1.17.18-1.59c.04-.86-.5-2.04-1.51-3.26-1.11-1.38-2.3-2.28-3.48-2.63-.73.33-1.43.76-1.87,1.13-.98.97-.96,1.36-1.13,2.16" fill="#fff" fill-rule="evenodd"/>
  <path d="M253.76,326.02c-.04,1.03-.15,2.3.05,3.49.14.64.45,1.34.77,2.01.31.68.62,1.35,1.01,1.8.64.82,1.8.94,2.84.77,1.09-.29,1.33-.46,2.01-1.5.39-.63.91-1.65,1.15-2.38s.2-1.17.18-1.59c.04-.86-.51-2.04-1.51-3.26-1.11-1.38-2.3-2.28-3.48-2.63-.73.33-1.43.76-1.87,1.13-.98.97-.96,1.36-1.13,2.16" fill="#fff" fill-rule="evenodd"/>
  <path d="M238.72,316.46c-.19,1.35-.02,2.76.45,3.87,1.02,2.38,2.84,2.89,4.34,1.87.8-.48,1.63-1.26,2.25-2.2s1.07-2.04,1.34-2.78c.49-1.39.5-1.82.39-2.65-.07-.37-.2-.73-.39-1.05-.36-.62-.79-.99-1.14-1.22-.34-.44-1.64-.12-2.88.36-.74.28-1.43.62-1.99,1.01-1.2.84-1.82,1.79-2.36,2.78" fill="#fff" fill-rule="evenodd"/>
  <path d="M278.12,332.36c-.19,1.35-.02,2.76.44,3.87,1.02,2.38,2.84,2.89,4.34,1.87.81-.48,1.63-1.26,2.26-2.2.62-.94,1.06-2.04,1.33-2.78.49-1.4.5-1.82.4-2.65-.07-.37-.21-.73-.39-1.05-.36-.62-.79-.99-1.15-1.22-.33-.44-1.64-.11-2.88.36-.74.28-1.43.62-1.99,1.01-1.21.84-1.82,1.79-2.36,2.78" fill="#fff" fill-rule="evenodd"/>
  <path d="M223.75,317.44c-1.03,1.09-1,1.48-1.97,2.22-1.12.75-3.08,1.36-4.78,1.56-1.02,1-1.94,2.78-1.76,4.21-.06,1.02.15,2.12,1.01,3.35.29.32.72.6,1.17.85.45.25.91.5,1.67.58,1.61.11,3.95-.22,5.95-.1,1.03.04,2.1.14,3.07.53s1.85,1.07,2.75,1.72c.9.64,1.83,1.26,2.44,1.57.61.31.92.31,1.19.38.56.27,1.34.21,2.2-.05.84-.2,1.65-.55,2.43-1.41,1.6-1.8,2.05-3.81,1.46-5.93-.15-.56-.35-1.09-.5-1.45-.42-.88-.34-.97-.84-1.52-.69-.69-2-1.54-3.09-2.1-.2-1.04-.46-2.08-.74-3.06s-.6-1.94-.95-2.57c-.35-.63-.75-.95-1.17-1.24-.7-.5-1.44-.85-2.02-.92-.21-.06-.43-.17-.97-.11-1.08.19-3.04.55-4.55,1.59-.76.55-1.5,1.37-2,1.92" fill="#fff" fill-rule="evenodd"/>
  <path d="M263.16,333.35c-1.03,1.09-1,1.48-1.97,2.22-1.12.75-3.08,1.36-4.78,1.56-1.02,1-1.94,2.78-1.75,4.21-.07,1.02.15,2.12,1.01,3.35.29.32.72.6,1.17.85.45.25.91.5,1.67.58,1.61.11,3.95-.22,5.94-.1,1.03.04,2.11.14,3.07.53.98.39,1.85,1.07,2.76,1.72.9.64,1.83,1.26,2.43,1.57.61.31.92.31,1.19.38.56.26,1.34.21,2.2-.05.84-.2,1.65-.55,2.42-1.41,1.6-1.8,2.06-3.81,1.46-5.93-.15-.56-.34-1.09-.5-1.45-.42-.88-.34-.97-.84-1.52-.69-.68-2-1.54-3.09-2.1-.2-1.04-.45-2.08-.73-3.06-.29-.99-.6-1.94-.96-2.57-.35-.63-.74-.95-1.17-1.24-.7-.5-1.43-.85-2.02-.92-.22-.06-.43-.17-.97-.11-1.08.19-3.04.55-4.55,1.59-.76.55-1.5,1.37-2,1.92" fill="#fff" fill-rule="evenodd"/>
  <path d="M302.42,135.47c-.66.46-1.3,1.25-1.77,1.86v1.4c-1.1,1.28-2.4,1.65-3.58,2.05-.88.28-1.43.37-2.4,1.18-.31.44-.24.44-.26.79.06.8.38,2.09,1.47,3.12.52.47,1.03.77,1.62.88.34.06.74.04.97.02.48-.04.61-.26.78.33-.61.76-1.26,1.5-1.71,1.96-.44.46-.67.62-.89.82-.69.59-.89,1.3-.02,1.57,1.05-.34,2.11-.74,3.16-.57,1.17.23,2.39.15,3.39-.6.3-.09.53-.36.91.18.07.3-.12.82.22,1.15.27.6.07,1.58.12,2.56.22.35.84.78.76,1.15-.08.3.39.67.77,1.04-.02.29-.05.65.09,1.02.33.43.8.18,1.35.22.25.41.53.81.7,1.04.4.46.36.41.37.62-.15.37.49.71.58,1.02.1.34.25,1.11-.22,1.61-.22.22.04.61.32.58.2.03.54,0,.85.22.31.2,0,.45-.05.7-.16.42.2.47.42,1.01.08.2.18.53.28.85.16.48.39.89.28,1.23-.07.2.16.92.41,1.62.26.65.4,1.24,1.25,1.8.53.47.9,1.06,1.25,1.71.2.36.4.74.61,1.29s.42,1.27.62,2.35c.2,1.08.39,2.54.49,3.7s.1,2.02.1,3.05-.02,2.2-.02,2.87,0,.84,0,1c-.03.33-.41,1-.82,1.7-.25.41-.52.8-.7,1.03-.61.65-.74.66-1.17.69-.3-.03-.77.03-1.2.39-.99.87-.78,1.15-.78,1.88.09.43.11.76.67,1.02.69.11,1.85.71,2.74.57.62.04,1.3-.09,2-.33.57-.2,1.08-.22,1.55-.75.48-.5.35-.79.69-1.09.38-.4,1.6-.75,2.65-1.05.38-.16.53-.45.67-.71.49-.57.08-1.77.4-2.84.41-.48.79-.94,1.12-1.3.03-.52.09-1.03.15-1.38.15-.87.46-1.04.91-1.5.6-.61.41-1.95.8-3.06.13-.08.26-.16.42-.21.82-.19.33-1.01.22-1.6.08-.72.28-1.36.2-2.11.21-.36.89-.59.83-1.02.15-.55-.33-1.11-.07-1.65.33-.39.95-.31,1.5.5.59-.65.86-.39,1.75-.77.46-.43.69-1.03,1.31-.06.09.21.13.48.11.73.4.1.97-.36,1.77-.96.2-.17.33-.34.48-.52.38-.65.78-.38,1.1-.32.46-.16.77-.62,1.16-.51.38.05.77-.37,1.19.2.58.92,1.08-.08,1.77-.4.45.17.89.32,1.28.45.27-.43.89-1.38,1.36-1.47.64-.22,1.16-.19,1.81.58.57-.25,1.05-.61,1.43-1.08.83-.84,1.14-.58,1.87-.45.38.11.73.25,1.07.56.39-.37.52-.72.65-1.03.33-.44,1.28-.09,1.51,1.13.11.31.2.62.31,1.08.17,1.01.61,2.49,1.48,3.89.82,1.36,1.82,2.67,2.58,3.78.7.98,1.26,1.91,1.64,2.85.3.73.55,1.42.73,1.96.17.35.18.9.17,1.45.06.64-.16,1.45-.5,2.36-.36,1.02-.67,1.71-1.15,2.49-.7.67-1.57,0-2.73,1.16-.2.17-.4.91-.42,1.57-.03.69.5,1.03,1.19,1.23.97.47,2.19-.03,3.27-.13.51-.05,1.11-.05,1.72,0,.42-.32.82-.66,1.08-.91.84-.67.5-1.03,1.23-1.67.51-.24.92-.16,1.51-.19.38-.02.87-.09,1.2-.21.84-.37.78-.96,1.05-1.62.31-1.03,1.14-2.61.98-3.83.02-.68-.04-1.38-.26-2.04-.1-.32-.2-.64-.37-1.24s-.44-1.45-.55-2.11-.07-1.09-.06-1.51c.04-.62-.11-1.07.2-1.53.15-.2.49-.97.98-.4.42.67-.35,1.46.48,2.58.24.11.71.06.9-.34.09-.09.2-.16.34-.19.68.45.28,1.27.36,2.21.21.55.46,1.08.68,1.53.22.44.43.79.61,1,.47.74.81-.22,1.22-.2.39.06.82-.3,1.34.81.11.23.2.5.29.76.11.26.23.53.33.68.26.27.28.51.67,0,.05-.2-.04-.49.11-.72.64-.77,1.22.92,2.04.61.35-.05.55.48.9.86.61.11,1.15-.93,1.85.2l.74-.43,1.26.86c.61-.44.63-1.73.53-2.88-.06-.61-.17-1.14-.46-1.79-.28-.64-.76-1.42-1.16-1.99s-.73-.98-1.11-1.33c-.33-.91-.7-1.8-.96-2.34-.46-.97-.7-1.05-.94-1.52-.18-.36-.12-.74,0-1.16-.29-.12-.59-.25-.96-.48-.37-.22-.82-.53-1.07-.73-.24-.2-.3-.31-.36-.41-.2-.21-.25-.95-.38-1.67-.08-.44-.19-.87-.33-1.49-.14-.63-.31-1.47-.46-2.04-.16-.58-.29-.88-.48-1.16-.18-.28-.4-.56-.48-1.09-.09-.54-.03-1.35-.05-2.14s-.12-1.57-.22-2.11c-.24-1.06-.48-1.44-.53-2.18-.06-.7,0-1.43-.02-2.15-.42-.5-.82-1.02-1.04-1.39s-.28-.55-.35-.71c-.17-.41-.73-1.09-1.22-1.91-.29-.5-.57-1.02-.83-1.41-.64-.87-1.13-1.09-1.77-1.54-1.07-.72-2.48-1.57-3.68-2.04-1.47-.61-3.71-1.19-5.8-1.75-2.17-.16-4.29.07-6.36.39-1.83.26-3.56.48-5.1.9-1.76.02-3.52.04-4.78.05-1.26,0-2.02,0-2.74.02-1.79.09-3.27-.14-4.69-.58-.81-.2-1.6-.3-2.38-.22-.96-.57-1.91-1.07-2.86-1.53-.76-.36-1.44-.7-1.91-1.17-.46-.25-.61-.44-1.24-1.09-.44-.23-.59-.2-1.32-.97-.21-.11-.38-.07-.58-.07-.21-.31-.39-.72-.73-1.16-.34-.31-.8-.44-1.05-.24-.51.08-.72-.08-1.34-.61-.41-.37-.97-.96-1.62-1.48-.64-.52-1.38-.97-1.86-1.25-1.17-.68-1.22-.67-1.92-.91-1.19-.33-2.88-.75-4.35-.61-.96-.05-1.84.11-2.78.37-1.17.2-2.22.57-3.25,1.3" fill="#fff" fill-rule="evenodd"/>
  <path d="M201.93,133.21s.09.02.12,0l-.18-.81c.52.35,1.2.89,1.83,1.51l.1-.2c.28.08.57.2.76.32.42.3.4.43.63.83.39-.04,1.15,1.02,1.24,1.56l.63.12v1.78l.4.31-.23.7c.41.02.97-.03,1.58-.1l-1.16,1.19.24.08c-.15.33-.61,1.15-1.09,1.19-.17.05-.4.1-.62.14.72.47,2.65.49,4.01.65.59.13,1.02.18,1.66.81.07.09.12.27.12.45.02.21-.27.82-.54,1.45-.17.39-.33.78-.52,1.1-.74,1.38-1.82,1.84-2.68,1.96-.3.13-1.13.1-1.91.13-.34.04-.54.14-.63.2-.11.07-.13.1-.12.13.46.59.72,1.3.92,2.07l-.4-.2c-.05.7.08,1.13-.1,1.85-.33.27-.25.93-.24,1.5l-.39.05c-.16.61-.4,1.75-1,2.27-.35.28-.99.87-1.43,1.35-.2.22-.45.41-.61.37l-.96,1.05-.08-.31-.95,1.1c-.06-.27-.1-.56-.12-.78v-.5c0-.1-.03-.11-.06-.11-.21.45-.35.93-.39,1.68-.04.74.03,1.76-.03,2.43-.05.67-.21,1.02-.41,1.45-.36.81-.73,1.79-.72,2.51-.08.71.1,2.13-.2,2.88-.02.28-.2.47-.37.3-.17.83-.04,1.53-.47,2.16-.12.2-1.06,1.12-1.1,1.76l.48,1.59c-.28-.03-.56-.07-.81-.12.19.43.35.88.43,1.15.19.72,0,.79.2,1.18.13.27.18.69.12,1.13l-.62-.06c.1.63.26,1.34,0,1.97.09.39.22.9.22,1.3l-.53-.15c.11.48.56,1.52-.4,1.93-.11.07-.18.09-.23.11l.61,1.02h-.54c.02.36.04.88-.54,1.28-.06.56.06,1.19.11,1.8.06,1.05-.79,1.66.13,2.4.33.22,1.36,1.04,1.23,1.51.18.39-.43,1.33-.95,1.36-.97.18-1.84.07-3.11-.34-.24-.07-.47-.13-.68-.18-.06.4,1.34.53,1.51,1.59.02.24.24.5-.18.64-1.1.45-2.65.72-3.97.68-.78.05-1.56.26-2.02.19-.49-.1-.64-.2-1.04-.43-.25-.15-.61-.36-.95-.58l-1.51.48c-.07-.37-.09-.8-.08-1.11l-.64.5c-.1-.24-.2-.65-.26-1.07-.04-.51-.25-.18-.42,0-.2.47-.44-.86-.38-1.7l-.57.08c-.11-.63-.18-1.24-.14-1.78l-.38.19c-.31-.71-.46-1.25-.36-1.96-.41-.15-.51-1.17-.21-2.05.05-.17.09-.3.12-.45l-.36.07v-.83c-.38.12-.44.49-.73.8-.44-1.19-.3-2.4.29-3.63-.19-.45-.41-1-.33-1.46-.04-.23.13-1.13.36-1.93.11-.4.2-.67.29-.95-.59-.61-.35-1.81-.39-2.71-.27.06-.73,0-1.02.31l-.52-.68c-.26.15-.87.85-1.17.2-.06-.08-.13-.18-.19-.27l-.57.17c-.53-.36-.74-.78-.81-1.24-.41.03-.85-.31-.93-.61-.13-.29-.26-.73-.37-1.11-.49.25-.98.47-1.18.39-.59.03-1.13-.87-1.13-1.54-.94.33-1.24-.41-1.41-.97-.62.15-1.36-.6-1.84-1.35l-.75-.37c.03.28.03.61.03.96l-.61.32c-.02.26.03.6,0,.97-.03.11-.1.16-.17.16,0,.59.08,1.1-.1,1.54l-.45-.21c-.03.78-.13,1.27-.57,1.68-.58.69-.95,2.04-2.23,3.2l-.04-.31c-.61.13-.93.99-1.56,1.43-.05.51-.15.99-.37,1.43l-.29-.18-.2.95-.53-.35c0,.56-.31,1.43-1.1,1.71-.2.37-.41.74-.55.97-.42.63-.49.63-.55.99,0,.41-.08.69.16.91.22.33,1.36,1.42,1.26,1.88.04.41-.44.93-.78,1.06-.48.23-1.3.54-1.9.61-.96.19-2.1-.13-3.28-.67-.54-.23-1.15-.51-1.58-.67-.42-.17-.66-.21-.9-.24-.79.52-1.46.93-2.14,1.2-.1,0-.15-.07-.15-.14-.93.45-1.52.96-2.13.98-.53.44-1.02.77-1.49.89-.48.52-.73.67-1.38.99-.26.26-.26.74.45,1.06.62.29.71,1.12.23,1.86-.12.17-.43.2-.73.27-.25.06-1.02.33-1.75.53-.86.2-1.01.12-1.55.05-.29-.06-.7-.17-1.09-.52-.41-.44-.49-.71-.59-1.31-.22-.23-.52-.11-.85-.03-.04-.44.05-1.01-.07-1.47l-.68.23c-.12-.55-.09-1.06-.12-1.6-.06-.69-.27-1.54-.18-1.84.05-.4.62-1.11.24-1.69-.14-.74.29-1.41.87-2.41-.61-.68-.25-1.34.3-2.13-.62-.98.74-2.04,1.64-3.1.61-.47.96-.64,1.59-1,.41-.22.96-.52,1.37-.79.64-.43.97-.74,1.34-1.18.28-.88.43-1.24.57-1.73.15-.47.29-1.2.61-1.72-.31-.2-.14-.87-.08-1.33.13-.59.32-1.09.69-1.82.03-.1.02-.13,0-.17-.07-.33.44-1.68.78-2.55.51-1.05.15-1.89,1.11-2.67.24-.67.27-1.46.27-2.19.02-.7.12-1.18.4-1.73-.15-.3.1-1.03.48-1.63.16-.26.58-.65,1.02-1.09.25-.25.5-.52.63-.67.26-.29.2-.31.25-.47.11-.15-.04-.51-.21-.89-.11-.23-.21-.47-.41-.79s-.46-.71-.62-.95c-.17-.22-.24-.29-.32-.33-1.18-.24-2.28,0-3.46-.31-.33-.11-.99-.46-1.68-.85l.38-.11c-.24-.34-.39-.69-.44-1.03-1.25-.93-1.37-1.44-1.84-2.37l.84.3c-.27-.95-.35-1.88-.14-3.08,0-.11.03-.22.06-.26.06-.08.1.12.21-.02.04-.75-.15-1.83.99-3.02l.45.67c.23-.52.48-1.03.66-1.42.29-.6.44-.87.63-1.18.13.22.05.43.54.72.17.12.34.22.53.33.32-.54,1.05-.72,1.7-.34.37-.18,1.11-.13,1.97.68.64-.15,1.58.22,1.8.97.16.4.25.9.32,1.24.66-.27,1.07-.18,1.29.51.02.13.15.17.27.17-.04.69-.04,1.39,0,1.84.11.91.22,1.19.16,1.83-.2.59-.51,1.17-.9,1.77-.26.22-.53.46-.77.66-.41.36-.76.64-.71.9.36.4.67.84.85,1.16.24.49.2.69.19.94.23,0-.1-.18.61-.24.46.09,1.87-.62,2.82-1.02,1.31-.52,1.8-.66,2.87-.31.53-.21,1.07-.39,1.68-.53s1.27-.25,2.24-.37c.97-.12,2.24-.25,3.23-.32,1.01-.07,1.74-.08,2.36,0,1.02.11,1.75.36,2.39.5.54.16,1.49.2,2.51.2,1.15-.04,2.96.07,4.77.3.94.12,1.76.23,2.29.29.93.1,1.24.02,1.84.03.51.02.88-.03,1.33-.23.23-.12.54-.37.91-.95.6-.95.96-2.16,1.43-3.02.48-.88,1.23-1.79,1.85-2.63.38-.53.74-1.05.89-1.45-.32-.15-.61-.35-.82-.54-.4-.3-.4-.87-.28-1.16-.24-.32-.13-.85.29-1.29-.24-.28.24-1.64,1.04-1.97-.33-.43-.25-1.4.82-1.66l-.33-.48c.52-.78,1.29-.89,1.93-.91l-.17-.38c.53-.2,1.01-.44,1.4-.36l-.25-.7h1.85c-.04-.26-.43-.4-.75-.68.35-.02.7-.02,1.08,0,.37.03.77.08,1.02.12s.34.05.44.07l-.17-.48c.86-.08,1.73.1,2.53.57v-1.11c.56.29,1.05.5,1.47.87.03-.21.06-.55,0-.85.41.2.81.42,1.04.56.39.22.38.28.54.37" fill="#fff" fill-rule="evenodd"/>
</svg>