<?xml version="1.0" encoding="UTF-8"?>
<svg xmlns="http://www.w3.org/2000/svg" xmlns:xlink="http://www.w3.org/1999/xlink" viewBox="0 0 500 500">
  <defs>
    <clipPath id="uuid-eebd0580-c2fa-4b3f-bdfb-3287ca8307db">
      <rect x="-589.44" y="56.96" width="953.78" height="187.6" fill="none" stroke-width="0"/>
    </clipPath>
  </defs>
  <g id="uuid-d9af2822-cda6-429f-97d7-7b35102d9c96" data-name="Layer 1">
    <circle cx="250" cy="250" r="243.28" fill="none" stroke="#fff" stroke-miterlimit="10" stroke-width="6"/>
    <g>
      <g>
        <path d="M104.36,268.67c2.22,0,4,.41,5.28,1.34,1.22.91,2.06,2.37,2.06,4.43,0,4.56-3.9,6.4-6.87,6.4-.34,0-.66-.03-.84-.06l-2.15-.56v4.87c0,2.62.22,2.68,3.09,3v.87h-8.62v-.87c2.69-.28,2.81-.47,2.81-3.06v-12.39c0-2.78-.34-2.84-2.81-3.09v-.87h8.05ZM101.83,279.13c.37.19,1.22.41,2.28.41,2.09,0,4.68-1.06,4.68-5,0-3.43-2.25-4.81-4.87-4.81-.91,0-1.56.16-1.75.38-.25.22-.34.59-.34,1.44v7.59Z" fill="#fff" stroke-width="0"/>
        <path d="M130.49,284c-.19.81-1.03,4.03-1.34,4.96h-15.17v-.87c2.9-.22,3.12-.5,3.12-3.06v-12.33c0-2.78-.34-2.93-2.69-3.15v-.87h9.55c2.93,0,4.15-.03,4.53-.06.03.78.16,3.12.28,4.78l-.94.16c-.28-1.06-.59-1.72-.94-2.37-.5-1.03-1.22-1.25-3.09-1.25h-2.97c-.97,0-1.03.09-1.03,1v6.9h3.47c2.34,0,2.5-.47,2.87-2.59h.97v6.43h-.97c-.41-2.25-.66-2.56-2.9-2.56h-3.43v6.21c0,2.18.69,2.37,2.25,2.4h2.9c1.9,0,2.22-.28,2.9-1.09.59-.66,1.25-1.94,1.69-2.87l.94.25Z" fill="#fff" stroke-width="0"/>
        <path d="M143.19,288.96v-.87c2.03-.25,2.28-.56,1.84-1.75-.41-1.22-1.03-2.78-1.69-4.75h-6.74c-.5,1.41-.97,2.62-1.4,3.9-.69,2.03-.25,2.28,2.31,2.59v.87h-7.21v-.87c1.97-.25,2.47-.47,3.56-3.28l6.46-16.39,1-.19c1.97,5.34,4.12,11.24,6.09,16.64,1,2.72,1.28,2.97,3.5,3.22v.87h-7.71ZM140.07,272.32c-1,2.68-2.06,5.53-3,7.99h5.84l-2.84-7.99Z" fill="#fff" stroke-width="0"/>
        <path d="M170.7,283.96c-.44,1.5-1.25,3.75-1.72,4.71-.91.19-3.34.75-5.71.75-7.46,0-11.27-4.96-11.27-10.43,0-6.37,4.84-10.77,11.83-10.77,2.69,0,4.87.56,5.9.72.12,1.41.34,3.28.59,4.84l-.97.22c-.62-2.09-1.37-3.37-2.97-4.03-.81-.38-2.09-.59-3.28-.59-5.15,0-7.87,3.81-7.87,8.96,0,6.03,3.12,9.9,8.18,9.9,3.18,0,4.75-1.47,6.34-4.59l.94.31Z" fill="#fff" stroke-width="0"/>
        <path d="M189.89,284c-.19.81-1.03,4.03-1.34,4.96h-15.17v-.87c2.9-.22,3.12-.5,3.12-3.06v-12.33c0-2.78-.34-2.93-2.69-3.15v-.87h9.55c2.93,0,4.15-.03,4.53-.06.03.78.16,3.12.28,4.78l-.94.16c-.28-1.06-.59-1.72-.94-2.37-.5-1.03-1.22-1.25-3.09-1.25h-2.97c-.97,0-1.03.09-1.03,1v6.9h3.47c2.34,0,2.5-.47,2.87-2.59h.97v6.43h-.97c-.41-2.25-.66-2.56-2.9-2.56h-3.43v6.21c0,2.18.69,2.37,2.25,2.4h2.9c1.9,0,2.22-.28,2.9-1.09.59-.66,1.25-1.94,1.69-2.87l.94.25Z" fill="#fff" stroke-width="0"/>
        <path d="M205.72,273.54c-.28-.87-.53-1.62-.97-2.31-.59-1.06-1.06-1.31-2.81-1.31h-3.34c-.91,0-1,.09-1,1v7.21h3.87c2.25,0,2.4-.38,2.87-2.56h.94v6.53h-.97c-.41-2.19-.62-2.68-2.84-2.68h-3.87v5.59c0,2.72.31,2.84,3.15,3.09v.87h-8.68v-.87c2.53-.19,2.81-.41,2.81-3.09v-12.36c0-2.72-.31-2.84-2.81-3.09v-.87h9.9c2.81,0,3.87-.03,4.4-.06.03,1.12.16,3.31.31,4.81l-.97.12Z" fill="#fff" stroke-width="0"/>
        <path d="M230.66,269.54c-1.97.12-2.68.62-2.75,2.06-.03.72-.09,2.03-.09,4.9v3.37c0,3.18-.37,5.62-2.19,7.52-1.47,1.53-3.59,2-5.74,2-1.81,0-3.75-.38-5.12-1.44-1.87-1.44-2.78-3.59-2.78-7.24v-7.96c0-2.81-.25-3-2.75-3.22v-.87h8.21v.87c-2.5.16-2.75.41-2.75,3.22v7.8c0,4.56,2.15,7.06,5.9,7.06,4.43,0,5.84-2.75,5.84-7.93v-3.18c0-2.87-.09-4.06-.16-4.9-.09-1.4-.81-1.94-3.12-2.06v-.87h7.49v.87Z" fill="#fff" stroke-width="0"/>
        <path d="M248.08,283.78c-.19.97-1.12,4.21-1.44,5.18h-14.52v-.87c2.84-.28,3.09-.44,3.09-3.09v-12.39c0-2.65-.31-2.81-2.81-3.06v-.87h8.37v.87c-2.5.25-2.84.38-2.84,3.06v12.71c0,1.9.25,2.34,2.03,2.37.03,0,2.28.03,2.47.03,1.59,0,2.06-.19,2.78-.97.78-.81,1.44-2.06,1.9-3.22l.97.25Z" fill="#fff" stroke-width="0"/>
        <path d="M276.14,283.96c-.44,1.5-1.25,3.75-1.72,4.71-.91.19-3.34.75-5.71.75-7.46,0-11.27-4.96-11.27-10.43,0-6.37,4.84-10.77,11.83-10.77,2.68,0,4.87.56,5.9.72.12,1.41.34,3.28.59,4.84l-.97.22c-.62-2.09-1.37-3.37-2.97-4.03-.81-.38-2.09-.59-3.28-.59-5.15,0-7.87,3.81-7.87,8.96,0,6.03,3.12,9.9,8.18,9.9,3.18,0,4.75-1.47,6.34-4.59l.94.31Z" fill="#fff" stroke-width="0"/>
        <path d="M289.75,268.23c5.34,0,10.12,4.09,10.12,10.3,0,6.71-4.56,10.9-10.3,10.9s-10.36-4.56-10.36-10.43,3.96-10.77,10.55-10.77ZM289.13,269.39c-3.5,0-6.68,2.93-6.68,8.77s3.18,10.08,7.62,10.08c3.78,0,6.62-2.81,6.62-8.83,0-6.56-3.46-10.02-7.55-10.02Z" fill="#fff" stroke-width="0"/>
        <path d="M324.19,269.54c-1.97.12-2.68.62-2.75,2.06-.03.72-.09,2.03-.09,4.9v3.37c0,3.18-.38,5.62-2.19,7.52-1.47,1.53-3.59,2-5.74,2-1.81,0-3.75-.38-5.12-1.44-1.87-1.44-2.78-3.59-2.78-7.24v-7.96c0-2.81-.25-3-2.75-3.22v-.87h8.21v.87c-2.5.16-2.75.41-2.75,3.22v7.8c0,4.56,2.15,7.06,5.9,7.06,4.43,0,5.84-2.75,5.84-7.93v-3.18c0-2.87-.09-4.06-.16-4.9-.09-1.4-.81-1.94-3.12-2.06v-.87h7.49v.87Z" fill="#fff" stroke-width="0"/>
        <path d="M347.5,269.54c-2,.22-2.65.53-2.75,1.97-.03,1-.09,2.31-.09,5.21v12.52h-1.19l-13.36-16.33v7.8c0,2.81.09,4.21.16,5.12.06,1.59.84,2.06,3.09,2.25v.87h-7.59v-.87c1.94-.16,2.68-.62,2.81-2.15.09-1,.16-2.4.16-5.25v-7.96c0-.87-.06-1.37-.62-2.06-.59-.78-1.25-.97-2.78-1.12v-.87h4.68l13.24,15.7v-7.65c0-2.9-.06-4.25-.16-5.18-.09-1.4-.81-1.84-3.31-2v-.87h7.71v.87Z" fill="#fff" stroke-width="0"/>
        <path d="M366.67,273.57c-.28-1-.66-2.03-1-2.59-.5-.84-.81-1.06-2.53-1.06h-3.12v15.2c0,2.43.25,2.78,3.22,2.97v.87h-9.08v-.87c2.9-.19,3.15-.5,3.15-2.97v-15.2h-2.84c-1.72,0-2.22.19-2.75,1.12-.38.62-.62,1.37-1.03,2.53h-.94c.19-1.9.38-3.87.47-5.62h.72c.47.75.81.72,1.69.72h12.36c.87,0,1.12-.12,1.59-.72h.75c0,1.47.12,3.71.28,5.53l-.94.09Z" fill="#fff" stroke-width="0"/>
        <path d="M388.68,289.21c-.41,0-.75-.03-1.16-.06-2.28-.16-3.5-.75-4.87-2.68-1.16-1.59-2.28-3.56-3.28-5.15-.62-1-1.03-1.19-2.62-1.19h-1.09v4.9c0,2.65.34,2.81,2.84,3.06v.87h-8.33v-.87c2.59-.28,2.81-.41,2.81-3.06v-12.46c0-2.65-.34-2.75-2.81-3.03v-.87h7.96c2.28,0,3.81.28,5,1.06,1.28.81,2.12,2.22,2.12,4.12,0,2.68-1.72,4.37-4.03,5.37.56.97,1.9,3.06,2.84,4.46,1.16,1.66,1.75,2.44,2.47,3.22.84.91,1.56,1.25,2.28,1.44l-.12.87ZM377.16,279.06c1.62,0,2.65-.25,3.43-.91,1.22-.91,1.72-2.15,1.72-3.84,0-3.34-2.22-4.56-4.62-4.56-.91,0-1.44.12-1.65.31-.28.22-.38.53-.38,1.34v7.65h1.5Z" fill="#fff" stroke-width="0"/>
        <path d="M406.75,269.54c-2.19.25-2.56.59-3.81,2.59-1.41,2.28-2.56,4.43-4.09,7.21-.38.72-.47,1.09-.47,1.84v3.84c0,2.59.28,2.78,3.18,3.06v.87h-8.96v-.87c2.84-.38,3.06-.44,3.06-3.06v-4.03c0-.62-.12-.91-.62-1.81-1.09-2.03-2.15-4-3.84-6.93-1.22-2.12-1.53-2.5-3.65-2.72v-.87h7.68v.87c-2.25.31-2.12.72-1.56,1.78,1.31,2.4,2.78,5.21,4.09,7.55,1.12-2.09,2.9-5.49,3.78-7.21.72-1.56.62-1.87-1.84-2.12v-.87h7.06v.87Z" fill="#fff" stroke-width="0"/>
      </g>
      <g>
        <path d="M129.62,302.65c10.08,0,18.17,1.85,23.99,6.1,5.54,4.12,9.37,10.79,9.37,20.16,0,20.72-17.74,29.1-31.23,29.1-1.56,0-2.98-.14-3.83-.28l-9.79-2.56v22.14c0,11.92.99,12.21,14.05,13.63v3.97h-39.18v-3.97c12.21-1.28,12.78-2.13,12.78-13.91v-56.36c0-12.63-1.56-12.92-12.78-14.05v-3.97h36.62ZM118.12,350.21c1.7.85,5.54,1.84,10.36,1.84,9.51,0,21.29-4.83,21.29-22.71,0-15.62-10.22-21.86-22.14-21.86-4.12,0-7.1.71-7.95,1.7-1.14.99-1.56,2.7-1.56,6.53v34.5Z" fill="#fff" stroke-width="0"/>
        <path d="M248.44,372.35c-.85,3.69-4.68,18.31-6.1,22.57h-68.99v-3.97c13.2-.99,14.2-2.27,14.2-13.91v-56.07c0-12.63-1.56-13.34-12.21-14.34v-3.97h43.44c13.34,0,18.88-.14,20.58-.28.14,3.55.71,14.2,1.28,21.72l-4.26.71c-1.28-4.83-2.7-7.81-4.26-10.79-2.27-4.68-5.54-5.68-14.05-5.68h-13.49c-4.4,0-4.68.43-4.68,4.54v31.37h15.76c10.65,0,11.36-2.13,13.06-11.78h4.4v29.24h-4.4c-1.85-10.22-2.98-11.64-13.2-11.64h-15.61v28.25c0,9.94,3.12,10.79,10.22,10.93h13.2c8.66,0,10.08-1.28,13.2-4.97,2.7-2.98,5.68-8.8,7.67-13.06l4.26,1.14Z" fill="#fff" stroke-width="0"/>
        <path d="M333.18,324.94c-1.28-4.54-2.98-9.23-4.54-11.78-2.27-3.83-3.69-4.83-11.5-4.83h-14.2v69.13c0,11.07,1.14,12.63,14.62,13.49v3.97h-41.31v-3.97c13.2-.85,14.34-2.27,14.34-13.49v-69.13h-12.92c-7.81,0-10.08.85-12.49,5.11-1.7,2.84-2.84,6.25-4.68,11.5h-4.26c.85-8.66,1.7-17.6,2.13-25.55h3.26c2.13,3.41,3.69,3.26,7.67,3.26h56.21c3.97,0,5.11-.57,7.24-3.26h3.41c0,6.67.57,16.89,1.28,25.13l-4.26.43Z" fill="#fff" stroke-width="0"/>
        <path d="M399.19,324.23c-2.41-9.37-6.39-18.6-19.73-18.6-11.07,0-14.91,8.09-14.91,15.47,0,9.79,6.25,14.76,18.03,20.87,17.03,8.8,24.42,15.33,24.42,28.82,0,14.91-12.92,26.26-31.23,26.26-8.52,0-15.9-2.41-21.72-4.68-1.14-3.98-2.84-13.63-3.83-21.29l4.4-1.14c2.84,9.51,9.08,21.86,23.85,21.86,10.22,0,16.47-7.1,16.47-16.32,0-10.93-5.82-15.33-18.31-22.14-14.91-8.09-23.28-14.91-23.28-28.11s10.5-24.56,29.24-24.56c7.95,0,15.76,2.13,18.74,2.7.57,5.11,1.14,10.79,2.27,20.02l-4.4.85Z" fill="#fff" stroke-width="0"/>
      </g>
    </g>
  </g>
  <g id="uuid-9d03cac6-0d49-4948-8d0a-dad34cc38904" data-name="Layer 2">
    <g clip-path="url(#uuid-eebd0580-c2fa-4b3f-bdfb-3287ca8307db)">
      <path d="M161.42,112.34c-2.27-2.22-4.03-4.8-5.29-7.75-.85-2-.52-4.76-.64-6.43-.06-.88-.21-1.74-.45-2.59,0-.02-.02-.03-.05-.03s-.05.02-.05.05h0c.19,2.02-.11,4.32-2.16,5.4-.09.05-.13.02-.14-.09-.02-1.55.63-3.11.4-4.57-.23-1.49-.88-3.15-1.41-4.5-.25-.63-.31-.61-.19.05.4,2.09.34,4.14-.4,6.28,0,.02-.02.04-.04.05-.05.05-.14.04-.19-.02-.02-.02-.02-.04-.03-.05-.88-4.1-1.97-8.32-4.22-11.94-.02-.02-.04-.03-.07-.02-.02,0-.05.02-.07.02,0,0-.02.02-.02.02h0c.3.68.52,1.38.68,2.1.18.84.05.89-.38.15-1.41-2.42-4.34-5.39-7.28-6.37h-.04s-.04.04-.03.07c0,.02.02.02.02.03.94.6,1.68,1.4,2.22,2.38.12.21.09.23-.09.07-3.55-3.24-6.55-4.26-11.44-3.22-2.75.59-5.82,1.45-7.86,3.46,0,0-.02.02-.02.04,0,.03.02.05.05.05h.02l1.69-.62s.05-.02.09-.02c.12,0,.22.1.22.22,0,.08-.05.16-.12.2-.81.48-1.45,1.12-1.94,1.92-.09.13-.05.16.08.09,1.2-.68,2.22-.53,3.38.15.1.06.14.15.11.26l-.22.84h0c-.02.05.02.12.08.13h0c.53.1.91.38,1.12.87,0,.02,0,.04,0,.05,0,.06-.04.11-.1.13l-.37.09c-.05,0-.09.05-.09.11s.04.09.09.11l.4.11c.06.02.11.08.11.14,0,.02,0,.04-.02.06-.44.98-2.23,1.32-3.17,1.66-.13.05-.13.09,0,.11,1.52.27,2.98.73,4.36,1.39,2,.95,3.27,1.4,5.17,1.72.06,0,.12.06.12.13,0,.06-.04.11-.09.13-1.39.4-3.63,0-5.01-.38-.14-.04-.16,0-.05.09.45.45.95.81,1.48,1.13,2.2,1.28,7.36,4.04,5.64,7.36-.03.07-.12.09-.19.07-1.2-.45-2.43-.73-3.7-.87-.03,0-.05,0-.06.04-.02.03-.02.06-.02.08s.02.02.03.03c1.34.33,2.5.91,3.48,1.72.03.03.05.07.05.11,0,.08-.06.14-.15.14-.02,0-.04,0-.05,0-1.79-.72-3.65-1.1-5.59-1.14-.54,0-.55.03-.02.13,2.23.43,4.16,1.43,5.79,3,.02.02.02.04.02.05,0,.05-.04.09-.09.09h-.03c-2.61-1.24-5.38-1.83-8.3-1.74-.05,0-.08.03-.1.08-.02.06,0,.09.06.1,4.52.3,6.88,3.26,10.51,5.39.03.02.05.05.05.08,0,.05-.04.09-.09.09h-.02c-3.16-.33-6.53-.22-9.79-.59-.66-.08-1.28,0-1.85.27-.02,0-.04.03-.04.06,0,.04.03.06.07.06,2.65.08,4.97.98,6.96,2.7.02.02.04.05.04.09,0,.06-.05.12-.12.12h-.03c-2.13-.66-4.31-.96-6.53-.92h0s-.06.02-.06.05.02.05.05.06c3.41.66,5.21,1.87,8.32,4.03,1.7,1.18,3.53,2.16,5.46,2.93.02,0,.03.02.03.05s-.02.05-.05.05h0c-2.36-.16-4.27-1.36-6.31-2.42-2.22-1.15-4.45-1.77-6.69-1.86-.68-.03-.69.04-.03.2,2.89.73,5.49,2.04,7.79,3.94.02,0,.02.02.02.04,0,.03-.02.05-.05.05h0c-2.29-.33-4.5-.05-6.63.82-.03,0-.05.04-.05.07,0,.04.03.07.07.07h0c2.16-.15,3.84-.36,5.8.78,1.05.61,2.1,1.29,3.17,2.05.03.02.05.05.05.09,0,.06-.05.11-.11.11h-.02c-3.13-.61-6.22-.5-9.29.32-.05,0-.08.05-.08.1,0,.05.05.1.1.1h0c2.42-.02,6.57-.13,8.32,1.63.1.11.09.15-.06.13-1.39-.26-2.77-.16-4.12.27-.4.13-.39.19.03.17,4.17-.16,6.57,1.43,10.33,3,.2.09.2.15-.02.18-1.42.2-3.38.02-4.68.5-.16.05-.16.1,0,.13,1.68.33,3.13.88,4.34,1.65,2.56,1.63,4.67,2.56,7.64,1.19.02,0,.04-.02.06-.02.09,0,.16.08.16.16,0,.05-.02.09-.05.13-2.38,1.94-4.67,3.98-6.88,6.12v.02s0,.03.02.03h.02c1.34-.84,2.76-1.92,4.21-2.54.02,0,.04-.02.06,0,.05,0,.09.07.09.13,0,.02-.02.04-.03.05-.81.83-1.6,1.65-2.36,2.46-.03.03-.05.06-.05.09s0,.05.02.07c0,0,.02.02.03.02,0,0,.02,0,.02,0,.9-.71,1.81-1.41,2.73-2.11,1.39-1.04,4.38-.56,6-.11.12.03.12.08.02.14-.95.55-2.42.5-3.51.64-1.05.13-1.9.49-2.78,1.01-.02,0-.02.02-.02.05,0,.03.02.05.05.05,1.36.03,2.72.06,4.08.08.98.02,1.77.06,2.56-.5.02-.02.06-.03.09-.03.09,0,.16.07.16.16,0,.02,0,.04-.02.06-.34.84-.13,1.52.59,2.01.09.07.23.05.31-.03l1.19-1.29s.08-.05.13-.02c1.58,1,.93,3.11.14,4.48,0,0,0,.02,0,.04,0,.04.03.07.07.07h.03l.26-.11s.03,0,.05,0c.06,0,.13.05.13.12v.05c-1.47,4.57-1.74,8.35-2.24,12.71-.34,2.99-1.46,3.63-3.71,5.27-.82.59-1.45,1.37-1.92,2.32,0,0,0,.02,0,.03,0,.03.03.06.06.06.02,0,.04,0,.05-.02,1.17-1.54,3.2-2.35,5.02-2.88h.02s.05.02.05.05c0,.02,0,.03-.02.04-2.49,1.95-3.96,3.99-4.6,7.23v.02c0,.06.05.12.12.12.05,0,.09-.03.11-.07.5-1.11,1.24-2.02,2.22-2.75h.02s.05.02.05.05v.02c-.77,1.16-1.65,2.78-1.7,4.16,0,.17.03.18.11.03.55-1.03,1.15-2.42,2.13-3.1.16-.11.18-.09.08.07-.78,1.2-.91,2.71-1.2,4.09h0s.02.06.05.06c.02,0,.04-.02.05-.03.33-.7.67-1.38,1.02-2.07.11-.21.23-.26.37-.13.05.04.07.11.05.17-.78,2.42-1.76,4.77-2.92,7.04,0,.02-.02.03-.02.05,0,.06.05.11.11.11.02,0,.03,0,.05-.02.87-.41,1.63-.95,2.28-1.64.03-.03.08-.05.13-.05.07,0,.13.04.16.1,1.52,3.64-.21,6.46-3.43,8.11-1.14.59-1.11.66.1.23,1.43-.51,2.75-1.22,3.96-2.13.02-.02.04-.02.06-.02.05,0,.1.05.1.1v.03c-.47,1.66-1.74,3.26-3.37,3.85-1.34.48-1.31.57.09.27.96-.2,1.91-.56,2.82-1.06.55-.3.63-.2.27.3-.56.76-1.24,1.41-2.02,1.93-.02.02-.03.04-.03.06,0,.04.03.08.08.08h.02c1.28-.33,2.32-1.01,3.11-2.06.02-.02.04-.03.06-.03.04,0,.08.03.08.08v.02c-.4,1.45-1.22,2.6-2.45,3.46-.03.02-.05.05-.05.09,0,.06.05.12.12.12h0c1.15-.13,2.17-.56,3.04-1.31.1-.09.14-.06.13.07-.14,1.81-4.69,3.71-6.18,4.12-.03,0-.05.04-.05.08s.03.08.07.08c1.49.02,2.93-.25,4.31-.81.12-.05.15-.02.08.09-.89,1.46-1.61,2.29-1.61,4.12h0s.03.08.08.08c.03,0,.06-.02.08-.05.63-1.79,1.77-3.14,3.42-4.08,0,0,.02,0,.03,0,.03,0,.05.02.05.05v.03c-1.37,2.55-.99,5.03-1.7,7.82-.18.71-.41,1.42-.66,2.13v.02s.02.05.05.05c.02,0,.04,0,.05-.03,1.28-1.82,2.29-3.78,3.02-5.89.03-.09.09-.17.16-.23.84-.78,1.81-1.08,2.63-1.99.02-.02.04-.03.05-.03.04,0,.08.03.08.08v.02c-.9,3.03-2.29,5.66-4.46,7.97-1.87,1.99-3.57,4.1-5.11,6.36-.07.1-.27.23-.58.39-.16.08-.38.15-.66.2-1.41.3-2.51,1.06-3.29,2.28,0,0,0,.02,0,.03,0,.04.03.07.07.07.02,0,.02,0,.04,0l1.73-1.16s.05-.02.08-.02c.08,0,.14.06.14.14,0,.03,0,.06-.03.09-1.36,1.8-2.37,3.02-2.88,5.38-.09.43-.03.45.19.07.42-.74.92-1.42,1.51-2.05.02-.02.04-.03.07-.04.07-.02.13.03.15.1,0,.02,0,.05,0,.08-.88,1.78-1.5,3.65-1.88,5.59-.02.05,0,.1.06.13l.07.04s.05,0,.06-.02l.92-2.05s.06-.07.1-.07c.06,0,.12.05.12.12h0l-.13,3.95c0,.1.02.11.07.02.3-.55.5-1.13.6-1.74,0-.03.03-.06.06-.06s.06.03.06.06h0c.06,1.18.23,3.45,1.45,4.03.08.04.13.09.17.17.19.41.35.89.48,1.46.78,3.29,1.12,3.37,1.49,6.6.38,3.24,1.79,9.52,3.34,9.01.07-.02.1,0,.09.07-.25,2.69,1.39,3.6,3.77,3.71,5.53.23,10.4.19,14.62-.13,1.99-.16,3.57-1.74,3.06-3.84-.09-.36-.41-.95-.98-1.79-.63-.94-1.06-2.11-1.82-2.82-1.06-.98-2.38-1.52-3.85-1.24-.63.13-1.31.34-1.93.19-4.78-1.2-2.5-14.41-1.92-17.84.32-1.92,1.31-3.29,2.94-4.14.03-.02.06-.02.1-.02.13,0,.22.1.22.22,0,.03,0,.06-.02.09-.37.84-1.47,2.49-1.02,3.31.05.08.06.16.05.24-.1.66,0,1.29.3,1.89.05.1.09.09.11-.02.05-.23.09-.51.12-.81,0-.09.04-.15.1-.2.08-.06.13-.04.13.06l.26,5.73s.05.09.09.09c.03,0,.06-.02.08-.05l.88-1.95c.05-.11.09-.11.13,0,.44,1.23.85,2.18,1.25,2.86.84,1.44,2.38,3.39,3.15,4.98,1.02,2.09,1.4,4.29,1.81,6.57.18.99.7,1.97,1.56,2.92,1.39,1.54.97,3.33,3.21,4.09.87.29,2.26.45,4.19.46,3.35.02,6.69-.02,10.04-.13,1.68-.05,4.33,0,6.15-.41,2.13-.49,1.52-3.73.62-4.89-1.12-1.43-2.15-3.13-4.1-3.37-2.23-.27-4.92,1.78-6.56-.69-1.79-2.71-3.24-5.28-4.35-7.69-.44-.95-.66-2.22-.65-3.34.06-6.14,3.46-11.23,8.03-15.05,2.39-2,5.47-4.16,7.57-6.29,3.42-3.49,6.38-7.72,8.07-12.36.02-.06.08-.09.14-.09.03,0,.06,0,.09.03,1.59,1.18,1.95,2.58,2.56,4.35,0,.02.02.03.04.03.02,0,.05-.02.05-.05h0c-.2-1.71-.67-3.34-1.43-4.87v-.03s.04-.09.08-.09c.02,0,.04,0,.05.02,1.95,1.81,3.99,3.96,4.68,6.62.02.05.06.09.13.09s.12-.05.13-.11c.21-1.81-.09-3.53-.92-5.15v-.02s.03-.06.06-.06c.02,0,.03,0,.04.02,1.92,1.78,3.89,3.37,5.14,5.77.04.08.09.08.13,0,.04-.07.05-.14.02-.21-.62-1.66-1.31-3.31-2.09-4.91-.02-.05-.03-.09-.02-.14,0-.03.02-.05.03-.07.02-.03.03-.03.05,0l4.11,5.72c.14.2.19.18.14-.06-.07-.35-.21-.71-.41-1.08-1.54-2.79-2.4-4.26-2.75-7.05-.2-1.54-.27-3.63-.2-6.29.02-.7-.13-1.45-.13-2.09,0-.48.09-.51.28-.05,1.2,2.87,2.33,5.82,3.33,8.84.41,1.24.92,2.44,1.55,3.6.34.64.41.62.2-.09-.88-3-1.14-6.19-1.66-9.28v-.02s.03-.08.08-.08c.02,0,.05.02.06.03,1.19,1.6,1.93,3.84,2.22,5.6.02.09.04.09.07,0,1.03-2.46.23-7.22-.53-9.7v-.03s.04-.09.09-.09c.03,0,.05.02.07.04,1.92,2.69,3.03,5.75,5.01,8.4.97,1.3,2.31,2.78,2.87,4.25.39,1.05.51,1.02.35-.08-.2-1.41-.44-2.81-.7-4.21,0-.02,0-.05,0-.07.02-.05.09-.09.15-.06.02,0,.04.02.05.05,1.27,2.06,2.39,4.21,3.37,6.42.07.16.11.15.13-.02.07-.63-.13-1.64-.3-2.21v-.03s.03-.08.08-.08c.03,0,.05.02.07.04.9,1.27,1.67,2.62,2.32,4.03,0,.02.02.02.03.03.04.02.09,0,.11-.02,0-.02.02-.02.02-.04-.04-2.33-1.42-4.35-2.32-6.3-1.16-2.5-1.33-5.19-.47-7.81.12-.34.18-.34.18.02.04,1.9.5,3.69,1.38,5.37.09.18.12.17.05-.02-.62-2.16-1.04-4.32-.48-6.57,0-.02.02-.03.02-.04.03-.02.07-.02.1.02,0,0,.02.02.02.04.15,3.21.98,6.24,2.49,9.08,0,.02.03.04.05.04.03,0,.05-.02.05-.05v-.02c-.98-3.65-1.28-7.75.13-11.19.02-.05.06-.07.11-.07.05,0,.1.04.12.09.33,1.95.75,3.63,1.83,5.05,2.3,3.05,4.09,5.78,5.18,9.33.03.11.08.11.13.02.03-.05.04-.1.02-.16-.33-1.77-.74-3.49-1.24-5.14v-.03c0-.06.05-.12.12-.12.05,0,.08.02.1.06,1.68,3.11,3.68,5.95,6.03,8.5.66.73,1.29,1.29,1.87,1.69.16.12.2.08.11-.09-2.31-4.54-3.59-8.61-3.29-13.77,0-.04.04-.07.08-.07.03,0,.06.02.07.05,1.33,4.11,3.43,9.65,6.55,12.62.02.02.04.02.06.02.05,0,.1-.05.1-.1,0-.02,0-.03-.02-.05-1.62-2.73-2.13-6.12-2.11-9.22h0c0-.06.05-.1.09-.1s.09.04.09.09c.54,2.66,1.63,4.68,3.5,6.7,2.22,2.38,3.48,3.9,3.18,7.34,0,.12.03.14.13.06.06-.05.11-.16.14-.3.66-3.35.74-6.64.92-10.03,0-.05.05-.09.09-.09.04,0,.07.02.09.05.95,2.34,1.87,4.82,1.87,7.36,0,.07.06.12.13.12.05,0,.1-.04.12-.09.39-1.67.5-3.36.31-5.09h0s.02-.05.05-.05c.02,0,.02,0,.03.02.7,1.27,1.18,2.61,1.45,4.03,0,.03.02.05.05.05s.05-.02.05-.05h0c.15-1.87-.02-3.71-.5-5.51v-.04c0-.05.05-.1.1-.1.04,0,.08.02.09.06.71,1.36,1.25,2.79,1.63,4.28,0,.03.04.05.07.05.04,0,.07-.03.07-.07.21-2.63.09-5.27-.35-7.9,0-.05.02-.08.06-.11h0s.05,0,.07.02h0c1.95,3.94,2.76,8.11,2.42,12.5h0s.02.05.05.05.05-.02.05-.04c.7-2.27,1.21-4.59,1.56-6.93.02-.13.09-.16.19-.1.02.02.05.05.07.1.02.04.03.08.03.13,0,.54,0,1.06,0,1.56,0,.05.04.08.09.08.04,0,.07-.02.08-.06.48-2.11,1.07-3.48,2.95-4.65.02,0,.04-.02.05-.02.06,0,.11.05.11.11,0,.02,0,.04-.02.06-2.32,3.29-2.33,8.17-.86,11.73.24.59.3.58.18-.05-.7-3.4-.09-6.42,2.25-9.08l.02-.02s.11,0,.14.04c0,0,0,.02.02.03.63,2.88.89,5.8.79,8.78-.09,2.58-1.54,5.05-2.52,7.44,0,0,0,.02,0,.03,0,.04.03.07.07.07.02,0,.05-.02.06-.04,1.85-2.86,4.24-5.32,6.34-8.04.16-.2.27-.34.35-.41.23-.21.32-.16.27.16-.57,2.96-2.26,5.21-3.63,7.9-.07.14-.04.17.09.09,1.49-.91,3.25-1.77,4.44-3.03.02-.02.04-.02.06-.02.05,0,.08.04.08.08h0c-.26,2.91-1.49,5.59-3.95,7.24,0,0-.02.02-.02.03,0,.02.02.04.04.04h0c1.47-.55,2.75-1.37,3.85-2.47.02-.02.05-.03.07-.03.05,0,.09.05.09.09v.02c-.26,2.13-2.6,4.1-4.44,4.99-.04.02-.06.05-.06.09,0,.05.05.1.1.1h.02c1.82-.26,3.51-.85,5.07-1.78h.02s.05.02.05.05c0,0,0,.02,0,.03-.73,1-1.7,1.7-2.88,2.09-.1.03-.12.09-.05.17.04.04.08.05.13.05,1.77-.38,3.31-.95,4.59-1.74.57-.35.73-.22.45.4-1.09,2.51-2.47,3.37-4.72,4.68-.16.09-.15.14.04.15,2.42.06,4.87-1.56,6.36-3.35.05-.06.08-.05.09.03.41,3.11.22,6.88-1.66,9.4-.07.09-.05.12.05.06.7-.38,1.23-1.31,1.72-1.93,0-.02.02-.02.04-.02.05-.02.09,0,.12.05,0,.02,0,.03,0,.05-.2,1.53-.74,3.16-1.34,4.57v.02s.02.05.05.05c.02,0,.03,0,.05-.02,1-1.1,1.83-2.32,2.48-3.67.15-.3.25-.29.3.05.45,3.06-.29,5.82-.54,8.83-.02.15.02.16.12.05.2-.27.35-.56.45-.88.02-.06.07-.1.14-.1s.13.05.14.12c.27,1.53.85,2.93,1.74,4.2,0,.02.02.02.04.02.04,0,.08,0,.09-.05v-.05c-.61-1.48-.92-2.91.48-4.07,3.61-3,8.15,8.61,9.06,10.58.61,1.31,1.76,1.81,3.25,1.85,3.44.12,7.57.12,12.4,0,1.9-.05,3.55-.35,4.94-1.63.84-.77,1.5-1.51,2.7-1.88.52-.16.82-.62.88-1.37.19-2.19-.84-3.55-2.2-5.08-.58-.65-1.13-1.09-1.65-1.31-2.84-1.22-6.17,2.28-7.82-1.93-1.67-4.27-3.8-8.4-3.35-13.09.56-5.78.91-11.58,1.08-17.4.09-3.33.41-6.67.95-10.01,0-.05.05-.09.11-.09s.1.04.11.09c.05.45.13.93.23,1.43.02.07.05.13.09.17.08.07.11.05.09-.05-.13-1.3-.16-3.37.5-4.53.04-.06.11-.11.19-.11.07,0,.13.03.17.09.63.89,1.44,1.61,2.4,2.15.02,0,.02,0,.04,0,.05,0,.09-.04.09-.09,0-.02,0-.04-.02-.05-1.74-1.94-2.92-5.29-1.18-7.62.02-.02.04-.03.06-.03.05,0,.08.04.08.08v.02c-.22,1.76.05,3.45.81,5.07.03.06.05.06.05,0,.3-3.01,1.81-5.52,1.8-8.46h0c0-.05.04-.09.09-.09.03,0,.06.02.08.05,1.03,1.69,1.63,3.53,1.77,5.53,0,.14.05.16.13.02,1.5-2.69,1.36-4.8.59-7.66v-.05s.06-.08.11-.07c.02,0,.03,0,.04.02.95.79,1.77,1.69,2.48,2.7.05.06.07.05.08-.02.17-1.72.15-3.99-.95-5.44-.02-.02-.02-.04-.02-.06,0-.05.05-.11.11-.11h.02c1.77.34,3.17,1.16,4.09,2.74.02.02.03.03.05.03.04,0,.06-.03.06-.06h0c-.09-1.4-1.01-3.05-1.64-4.21-.36-.66-.22-.79.41-.39,1.45.91,2.98,1.61,4.6,2.11.26.08.28.03.08-.15-1.86-1.63-2.86-4.96-.33-6.52.02,0,.03-.02.05-.02.05,0,.1.05.1.1,0,.02,0,.02,0,.04-.45,1.06-.57,2.16-.38,3.28.02.15.08.16.16.04,2.77-3.74,3.27-7.29,4.11-11.87.02-.05.03-.09.06-.12.02-.02.05-.02.09-.02.05,0,.07.03.07.09-.06,1.41.3,2.7,1.09,3.86.02.02.03.03.05.03.04,0,.06-.03.06-.06v-.02c-.39-1.73-.38-3.46,0-5.17.04-.17.09-.17.14,0,.23.65.47,1.67,1,2.13.13.12.17.09.11-.08-.73-1.95-1.15-3.97-1.27-6.05,0-.02,0-.03,0-.05.02-.03.07-.05.1-.02.02,0,.02.02.03.03l.74,1.94s.04.04.07.04c.05,0,.08-.04.08-.08v-.02c-.19-.63-.45-1.24-.52-1.89-.2-1.81-.38-3.56-.84-5.35-.3-1.16-.62-2.37-.95-3.61-.09-.34,0-.41.3-.21,1.47,1.03,2.49,2.4,3.07,4.09.02.05.05.07.1.07.09,0,.13-.04.12-.12-.21-1.2-.63-2.48-1.25-3.81-.03-.06-.02-.13,0-.19.71-1.45.99-2.98.83-4.59h0s.04-.08.08-.08c.03,0,.05.02.07.05l1.78,4.5c.2.52.3.49.28-.05-.06-2.37-.4-4.7-1.01-6.98v-.04c0-.09.07-.16.16-.16.04,0,.08.02.11.05l1.31,1.19s.05.03.07.03c.05,0,.09-.05.09-.09,0-.02,0-.04-.02-.05-1.38-2.5-2.81-4.63-1.38-7.58.06-.13.1-.13.1.02.09,2.58.59,4.28,1.76,6.53,0,.03.04.05.06.05.04,0,.07-.03.07-.07v-.02c-.57-3.03-.62-6.32.64-9.17,0,0,.02-.02.02-.03.04-.03.09-.03.13,0,0,0,.02.02.02.03.75,2.19,2.02,4.01,3.81,5.46.02.02.04.02.06.02.05,0,.09-.05.09-.09,0-.02,0-.05-.02-.06-2.25-2.78-2.28-4.99-2.17-8.9.06-2.05.05-4.1-.03-6.14-.03-.81-.34-1.84-.37-2.8,0-.05.04-.08.08-.08.02,0,.05,0,.06.03l1.24,1.62s.02.02.03.02c.04.02.09,0,.1-.04v-.04c-.32-1.99-1.88-4.18-2.77-6.02-1.2-2.45-1.47-6.82,1.48-8.23.76-.36,1.68-.34,2.54-.35,1.83-.04,3.65-.19,5.46-.45,2.04-.29,6.03-1.77,5.06-4.41-.12-.31-.43-2.05,0-1.7.93.76,2.11,1.13,3.1,1.11.74-.02,1.16-.43,1.27-.91,1.11-4.97-5.78-5.66-9.43-6.91-.53-.18-.93-.49-1.2-.93-.02-.04-.03-.08-.03-.13,0-.12.09-.21.2-.23,3.97-.66,7.61-1.26,9.94-4.78,1.57-2.35,1.98-4.81,2.77-7.49.02-.08.02-.16,0-.25-.44-1.68.3-2.49.45-3.81.15-1.31-.49-2.06-1.94-2.26-2.81-.38-6.46-.14-9.39-.33-2.3-.16-3.85-.25-4.64-.28-2.81-.13-3.28-2.13-3.29-4.49,0-.09-.05-.17-.13-.21l-.31-.16c-.08-.04-.15-.1-.2-.16-1.99-2.41-4.6-4.05-7.83-4.92-9.64-2.61-19.5-2.09-27.39,4.43-.07.05-.14.06-.22,0-1.85-1.34-3.94-1.98-6.25-1.92h0l2.63.86s.05.03.05.05c0,.03-.02.05-.05.05h-.02c-1.45-.19-2.88-.09-4.28.27-.05.02-.09.06-.09.11,0,.05.05.11.1.12.84.09,1.66.27,2.47.54.09.03.09.05,0,.08-2.24.55-5.55,1.81-7.09,3.63-.26.3-.22.35.13.14,1.56-.97,3.28-1.43,5.13-1.38.05,0,.09.04.09.09,0,.04-.02.07-.06.08-1.31.38-4.23,1.13-3.41,3.11.09.23,0,.49-.22.6-2.2,1.14-3.78,1.67-5.45,3.67,0,0,0,.02,0,.03,0,.02.02.05.05.05h.02c1.03-.68,2.25-1.58,3.5-1.77h.02c.05,0,.1.05.1.1,0,.04-.02.07-.05.09-2.52,1.53-5.03,3.17-6.51,5.93-.05.09-.03.11.05.05l1.94-1.44s.03-.02.05-.02c.05,0,.09.04.09.09,0,.02,0,.04-.02.05-.74,1.06-1.39,2.17-1.96,3.32-.2.4-.15.42.14.09.87-1.02,1.77-2,2.73-2.94.59-.58.7-.5.33.23-1.36,2.74-2.66,5.82-4.42,8.59-.02.03-.02.05,0,.09.02.03.05.03.07,0l2.6-2.64s.04-.03.07-.03c.05,0,.09.04.09.09v.03c-.24.66-.69,2.09-.45,2.79.05.16.09.16.09-.02.05-.74.24-1.45.59-2.12.09-.17.13-.16.13.03,0,1.53-.47,4.03-1.52,5.2-.16.19-.27.34-.3.45-.09.27-.03.3.16.11,1.03-1.06,1.68-2.31,1.95-3.77,0-.02.02-.05.05-.05.03,0,.05.02.05.05h0c.18,2.12-.89,4.85-1.67,6.57-.05.1-.14.15-.27.14-.08,0-.15.02-.2.09-1.07,1.24-1.81,2.44-2.2,3.6-.77,2.28-2.01,4-4.7,4.35-4.48.59-12.62,6.26-16.87,6.53-1.71.11-2.92.38-4.57,1.18-1.18.57-2.25.91-3.64.88-3.67-.07-7.35-.09-11.03-.05-6.5.08-13.15,1.48-19.55.81-11.07-1.16-22.5-2.07-33.43.13-4.49.9-8.22,2.9-12.29,4.9-3.9,1.92-8.64,1.74-12.92.53-4.07-1.16-7.02-2.52-7.59-6.9-.04-.3-.09-.3-.14,0-.25,1.32-.15,2.62.32,3.88.06.17.03.2-.1.07h0l-.07-.03Z" fill="#fff" stroke-width="0"/>
    </g>
  </g>
</svg>