<?xml version="1.0" encoding="UTF-8"?>
<svg id="uuid-f9cf0eed-f2f4-42cc-be14-0c635b7a6feb" data-name="Layer 1" xmlns="http://www.w3.org/2000/svg" viewBox="0 0 250 250">
  <path d="M80.68,99.04l-6.2,29.95c2.57-.11,4.39,.21,6.63,0-.11-9.95,.43-20.21-.43-29.95" fill="#243e8b"/>
  <path d="M188.7,162.57c-4.39,7.81-10.7,15.29-17.97,21.6-2.78-1.07-3.85-4.39-5.35-6.63-14.22-26.85-13.48-65.35-2.14-93.16,1.82-3.64,3.42-7.49,6.31-10.7,2.57,.53,4.81,3.32,6.74,5.45,4.71,5.99,7.06,13.16,10.16,19.79,1.18,.43,1.39-.86,2.35-.64-2.35,7.17-2.99,15.08-4.6,22.67-2.99-14.22-3.96-29.31-12.94-41.07-.64-.11-1.07,.21-1.5,.75-4.71,28.66-5.35,60.11-1.07,89.2,.86,2.89,.75,6.42,2.57,8.77,8.45-7.27,13.16-16.9,16.9-26.52,1.07-1.5,3.32-.75,4.81-.64-.32,4.06-2.67,7.49-4.28,11.12m-33.8,32.73c-4.92,0-8.56-2.67-12.51-5.24-3.42,1.93-4.6,6.95-8.77,8.02,1.28-20.54,2.03-42.78-4.6-61.29-1.6-2.99-2.89-6.74-6.42-8.34-1.6-.64-3.32,.86-3.96,2.35-1.71,6.31-1.07,14.12-.64,20.86l6.52,47.27c.53,1.18,.75,2.46,.64,3.74-5.45-2.89-6.95-8.88-10.91-13.16h-.86c-2.35,2.57-3.96,5.67-7.27,6.85l-.32-.64,4.92-50.16c.11-24.81,1.82-51.98-6.2-74.23-1.07-3.96-2.89-7.59-3.32-11.77,3.53,.21,6.1,4.17,9.41,5.67l1.82-.43,11.44-10.91h.75c-.43,8.13-2.14,16.04-2.99,24.28-1.39,14.01-3.1,28.02-3.32,42.46,.43,.64,.21,2.03,1.39,1.71,4.81-7.17,6.74-15.4,9.84-23.21,4.39-13.16,6.2-27.49,6.52-42.25,2.99,.64,4.06,4.06,5.78,6.2,1.07,1.6,1.6,3.21,3.1,4.6,2.35,.11,3.96-1.6,5.99-2.03,2.78-.64,5.78-1.28,8.56-1.07-13.48,17.86-24.81,36.58-33.16,56.47l.21,1.5c15.62,16.58,12.73,40.86,22.46,59.89,1.93,3.96,3.64,8.02,6.42,11.66,.21,.43,.11,1.18-.53,1.18m-57.54-.86l-10.05-12.3c-3.1-1.18-4.49,3.74-7.49,2.99l-.43-1.28c3.1-14.55,2.03-31.23,1.6-46.63-1.71-1.82-4.92-.86-7.27-.86l-1.18,1.28c-1.93,10.7-3.96,21.28-5.35,32.09-.86,.11-1.07-.86-1.28-1.39-1.28-4.39-1.39-9.2-3.85-12.94-2.14-.11-5.78,1.28-6.74-1.28,1.39-3.53,4.6-6.31,6.1-9.73,10.91-22.57,15.29-47.81,18.72-73.37,1.82-.53,2.14,2.03,3.42,2.89h.64c2.57-3.96,3.42-8.98,8.13-11.77,.21,2.25-1.18,4.39-1.5,6.63l-1.5,15.94-.43,44.17c1.07,22.89,5.78,44.6,9.63,66.31l-1.18-.75Zm104.07-87.7c-6.52-27.49-34.01-53.05-61.93-57.11-33.9-5.88-65.78,9.09-83,38.61-13.58,22.46-13.26,56.69,.64,78.83,5.78,10.59,15.94,20.54,25.99,27.06,24.17,16.47,63.42,16.36,86.95-1.18,28.02-19.68,39.89-53.05,31.34-86.21" fill="#243e8b"/>
  <path d="M123.57,241.51c-.11-.43-.21-.96,.32-.96,3.64-.86,6.74,1.71,8.77,4.49,.32,.53,.75,.96,.53,1.6-1.6,1.5-3.85,.11-5.56-.21-1.82-1.18-2.99-3.1-4.06-4.92" fill="#243e8b"/>
  <path d="M115.97,242.36c-.11-.75-.75-1.28-.75-2.14,2.35-.64,4.92,.32,6.74,2.14,1.39,1.07,2.03,2.57,2.78,3.96-.75,1.5-2.99,.86-4.17,.53-2.03-.43-3.42-2.78-4.6-4.49" fill="#243e8b"/>
  <path d="M110.84,245.36c-1.6-1.82-3.21-3.64-3.32-6.1,3.32-.75,6.1,1.6,7.91,4.28,.11,.96,2.14,2.35,.32,3.1-1.93,.43-3.53-.21-4.92-1.28" fill="#243e8b"/>
  <path d="M131.7,240.87v-.32c2.89-1.07,5.56,.21,7.81,1.82,.96,1.07,2.57,2.14,2.25,3.42-1.5,1.28-3.85,.53-5.56,0-1.93-.96-3.64-2.89-4.49-4.92" fill="#243e8b"/>
  <path d="M101.96,243.33c-.96-1.71-2.25-3.21-2.25-5.35,1.82-.32,3.85,.21,5.13,1.5,1.71,1.6,2.89,3.42,3.42,5.56-.11,.53-.75,.75-1.18,.86-1.93-.21-3.64-1.07-5.13-2.57" fill="#243e8b"/>
  <path d="M140.25,240.54c-.21-1.39,1.71-.86,2.57-1.18,3.21,0,5.67,1.82,7.81,4.28,.32,.96-.86,1.18-1.39,1.5-4.17,1.07-6.85-2.03-8.98-4.6" fill="#243e8b"/>
  <path d="M93.51,240.33c-.43-1.39-1.39-2.67-1.18-4.28,1.5-.43,2.99,.32,4.06,1.07,2.35,1.6,3.21,4.06,4.06,6.52-.43,1.18-2.14,.75-2.99,.32-1.5-.64-3.32-2.03-3.96-3.64" fill="#243e8b"/>
  <path d="M148.17,238.62c1.6-1.18,3.85-.75,5.67-.32,1.93,.86,4.28,1.93,5.03,4.17-1.6,1.18-4.39,1.39-6.31,.53-1.5-1.28-3.74-2.25-4.39-4.39" fill="#243e8b"/>
  <path d="M85.39,237.55c-.53-1.39-.96-3.21-.53-4.49,2.35,.32,4.39,1.93,5.67,4.06,.64,1.5,1.39,2.99,1.5,4.6-.96,.86-2.57,.21-3.64-.32-1.39-.75-2.35-2.35-2.99-3.85" fill="#243e8b"/>
  <path d="M156.08,237.23c0-1.07,1.39-.86,2.14-1.39,3.64-.43,6.42,1.07,8.88,3.42-.11,1.6-1.82,1.39-2.99,1.93-3.42,.53-5.88-1.82-8.02-3.96" fill="#243e8b"/>
  <path d="M78.11,235.62c-.53-1.71-1.07-3.42-.86-5.45,2.25-.21,4.39,1.93,5.56,3.96,.53,1.6,1.71,3.64,.96,5.35-2.46,.21-4.49-1.71-5.67-3.85" fill="#243e8b"/>
  <path d="M163.78,234.66c.32-.86,1.39-.96,2.14-1.39,3.42-.75,6.52,.86,8.98,2.99-.11,1.18-1.6,1.82-2.78,2.03-3.53,.64-6.2-1.39-8.34-3.64" fill="#243e8b"/>
  <path d="M70.73,232.2c-.11-1.82-1.18-3.64-.53-5.67,2.25,.32,4.28,2.25,5.13,4.28,.53,1.71,1.6,3.85,.64,5.56-2.46,.11-4.17-2.14-5.24-4.17" fill="#243e8b"/>
  <path d="M171.48,231.67c.11-1.28,1.82-.96,2.57-1.71,3.32-.64,6.31,.86,8.66,2.78-.64,2.03-2.89,1.71-4.49,2.25-2.67-.11-5.03-1.5-6.74-3.32" fill="#243e8b"/>
  <path d="M65.17,230.81c-1.93-2.14-2.14-5.35-1.5-8.13,1.93,.21,4.17,2.35,4.81,4.28,.32,1.82,1.39,3.85,.53,5.78-1.6,.21-2.78-.75-3.85-1.93" fill="#243e8b"/>
  <path d="M179.08,228.14c.11-1.18,1.6-1.28,2.57-1.93,3.1-.75,5.88,.43,8.45,1.71,.64,1.18-1.07,2.14-1.82,2.46-3.42,1.5-6.74-.53-9.2-2.25" fill="#243e8b"/>
  <path d="M57.26,225.25c-.96-2.03-1.18-4.81-.53-7.06,1.18-.21,2.35,.96,3.21,1.82,1.6,2.35,2.46,5.35,1.6,8.34-1.93,.32-3.21-1.6-4.28-3.1" fill="#243e8b"/>
  <path d="M186.03,223.97c1.82-2.46,5.24-2.57,8.02-1.82,1.18,.53,3.85,.43,2.99,2.35-1.93,1.93-4.81,2.35-7.38,1.6-1.39-.53-2.78-1.07-3.64-2.14" fill="#243e8b"/>
  <path d="M50.41,220.33c-.64-2.14-1.07-5.56,.32-7.38,3.42,1.71,4.28,5.35,4.28,8.88l-.53,1.71c-1.93,.43-3.32-1.93-4.06-3.21" fill="#243e8b"/>
  <path d="M192.66,219.58c1.39-2.35,4.06-2.78,6.74-2.78,1.6,.11,2.99,.43,4.28,1.18,.53,1.07-.86,2.14-1.71,2.57-2.78,1.82-6.74,.75-9.31-.96" fill="#243e8b"/>
  <path d="M43.57,214.02c-.32-2.14-.11-4.49,.75-6.31,1.39-.32,2.78,1.6,3.21,2.78,.86,2.35,1.39,5.56,.21,7.91-2.14-.43-3.53-2.46-4.17-4.39" fill="#243e8b"/>
  <path d="M199.08,214.66c.75-1.71,2.57-2.35,3.96-2.99,2.35-.21,5.13-.53,7.17,.86-.32,2.57-3.21,3.21-5.13,3.85-2.14-.43-4.28-.43-5.99-1.71" fill="#243e8b"/>
  <path d="M38.11,209.74c-1.18-2.67-.53-5.78,.86-8.02,1.28,.32,2.14,1.6,2.57,2.78,1.07,2.35,1.07,5.88,0,8.13-1.71,.32-2.78-1.71-3.42-2.89" fill="#243e8b"/>
  <path d="M205.17,209.1c.86-1.82,2.78-2.57,4.28-3.32,2.03-.11,4.6-.53,6.42,.32,.64,1.5-1.18,2.78-2.25,3.42-2.57,1.71-6.31,.75-8.45-.43" fill="#243e8b"/>
  <path d="M31.69,201.29c-.11-2.46,.43-4.92,2.03-6.42,1.93,1.6,2.67,3.85,2.78,6.2-.11,1.93-.43,4.06-1.6,5.13-2.03-.64-2.89-2.89-3.21-4.92" fill="#243e8b"/>
  <path d="M211.06,203.22c.96-2.78,3.85-3.64,6.31-4.06,1.6-.11,3.1-.11,4.28,.64-.11,2.35-2.67,3.74-4.6,4.28-2.14,0-4.39,.21-5.99-.86" fill="#243e8b"/>
  <path d="M26.56,194.88c-.21-2.57,.86-4.71,2.25-6.74,1.82,1.39,2.46,3.64,2.57,5.88-.11,2.03-.53,3.85-1.6,5.56-2.25-.32-2.89-2.78-3.21-4.71" fill="#243e8b"/>
  <path d="M215.98,197.12c.86-2.78,4.06-4.39,6.95-4.71,1.18,.21,2.78-.43,3.42,.53,.21,2.14-1.6,2.89-3.1,4.06-2.03,1.18-5.24,1.18-7.27,.11" fill="#243e8b"/>
  <path d="M21.96,189.42c-.53-3.1,.75-6.2,2.78-8.13,2.35,2.67,2.14,6.85,.86,9.84-.43,.53-.53,1.39-1.18,1.6-1.39-.53-1.93-2.14-2.46-3.32" fill="#243e8b"/>
  <path d="M220.79,190.7c.11-1.82,1.93-3.64,3.85-4.49,1.93-.53,3.74-1.07,5.88-.86,.53,.53,.43,1.6,0,2.14-1.82,3.64-6.42,3.74-9.73,3.21" fill="#243e8b"/>
  <path d="M17.9,182.47c-.86-3.32,.75-6.31,2.89-8.45,2.03,1.6,1.93,4.92,1.39,7.38-.53,1.39-.96,3.21-2.35,3.96-1.28-.32-1.5-1.82-1.93-2.89" fill="#243e8b"/>
  <path d="M224.96,183.86c.21-1.82,1.82-3.64,3.42-4.6,1.93-.75,3.85-1.39,6.1-1.39,.75,.75,.11,1.82-.11,2.57-1.93,3.42-5.88,3.74-9.41,3.42" fill="#243e8b"/>
  <path d="M14.26,175.52c-1.18-3.64,.96-6.52,3.1-8.77,1.18,.32,1.39,1.93,1.71,3.1,.32,3.21-.96,5.56-2.78,7.91-1.28,.11-1.5-1.39-2.03-2.25" fill="#243e8b"/>
  <path d="M228.81,176.37c.64-3.42,4.06-5.67,7.27-6.2h2.03c.32,1.39-.32,2.89-1.39,3.96-2.03,2.25-5.13,2.89-7.91,2.25" fill="#243e8b"/>
  <path d="M11.16,168.46c-1.39-3.85,.75-6.95,3.1-9.63l.53-.21c1.5,1.5,1.39,4.39,.86,6.42-.96,1.39-2.14,6.95-4.49,3.42" fill="#243e8b"/>
  <path d="M232.23,168.99c-.11-1.39,.64-2.99,1.71-4.06,1.93-1.82,4.17-2.89,6.74-3.21,.96,.53,.43,2.03,.21,2.78-1.5,3.53-5.35,4.39-8.66,4.49" fill="#243e8b"/>
  <path d="M8.16,159.69c-.75-3.85,1.71-7.06,4.49-8.98,2.25,3.85-.21,7.91-2.57,10.91-1.28,.43-1.5-1.18-1.93-1.93" fill="#243e8b"/>
  <path d="M234.91,160.86c.11-3.74,3.85-6.31,7.06-7.38,.53-.32,1.71-.21,1.71,.75,.11,2.57-2.03,4.92-4.28,6.1-1.5,.21-3.1,1.18-4.49,.53" fill="#243e8b"/>
  <path d="M237.05,153.27c-.11-3.21,2.35-5.99,5.03-7.38,.86-.43,1.93-.96,2.89-.75,.53,1.82-.11,3.42-.96,4.81-1.82,2.03-4.39,3.32-6.95,3.32" fill="#243e8b"/>
  <path d="M6.13,151.99c-.75-3.85,1.5-7.17,4.71-9.2,.75,.11,.86,1.18,1.07,1.93,.43,3.64-1.82,6.52-4.17,8.66-1.07,.32-1.18-.96-1.6-1.39" fill="#243e8b"/>
  <path d="M238.87,142.9c.96-2.99,3.85-5.45,6.74-6.42,1.39,.53,.86,2.67,.53,3.64-.86,3.32-4.49,4.71-7.27,5.13v-2.35Z" fill="#243e8b"/>
  <path d="M4.63,143.75c-.11-1.93-.11-4.17,1.18-5.67,1.28-1.28,2.57-2.99,4.28-3.32,1.07,2.57,.32,5.56-1.39,7.59-.96,.96-3.1,4.49-4.06,1.39" fill="#243e8b"/>
  <path d="M239.72,136.91c-.21-2.57,.86-4.49,2.46-6.31,1.18-1.18,2.67-2.25,4.28-2.57,1.18,2.14,.11,4.49-1.07,6.31-1.6,1.39-3.32,2.67-5.35,3.1l-.32-.53Z" fill="#243e8b"/>
  <path d="M3.57,135.52c-.53-4.06,2.67-6.95,5.78-8.66,.75-.11,.53,.75,.86,1.18,.43,3.85-2.46,6.74-5.13,8.88-.96,0-1.5-.64-1.5-1.39" fill="#243e8b"/>
  <path d="M240.36,128.88c-1.07-3.85,1.39-6.95,4.28-9.09,.43-.32,.96-.53,1.71-.53,1.07,2.14,.21,4.6-.86,6.42-1.6,1.18-2.89,3.21-5.13,3.21" fill="#243e8b"/>
  <path d="M3.03,126.53c.11-2.03,.53-3.96,2.14-5.35,1.39-1.07,2.78-2.25,4.49-2.78,1.39,2.14-.11,4.71-1.39,6.52-1.18,1.28-2.35,2.35-3.85,3.1-1.07,.21-1.18-.86-1.39-1.5" fill="#243e8b"/>
  <path d="M239.83,118.51c.11-3.42,2.14-6.2,5.03-8.02,.75-.11,1.39,.53,1.39,1.39,.11,1.93,0,3.85-1.18,5.35-1.5,.96-5.35,6.1-5.24,1.28" fill="#243e8b"/>
  <path d="M3.24,118.08c.11-2.14,.75-4.06,2.57-5.56,1.5-.96,2.89-2.25,4.81-2.25,.21,2.03-.32,4.06-1.6,5.67-1.6,1.6-3.42,3.21-5.35,3.32l-.43-1.18Z" fill="#243e8b"/>
  <path d="M238.97,110.17c.11-3.32,2.14-5.99,4.71-8.13,.96-.21,.96,.96,1.39,1.39,.75,3.74-1.5,6.95-4.6,8.98-1.39,.53-1.28-1.39-1.5-2.25" fill="#243e8b"/>
  <path d="M4.1,109.74c0-2.67,1.5-5.35,4.06-6.42,1.18-.43,2.57-1.5,3.85-.86,.21,3.42-2.57,6.2-5.35,7.81-.96,.32-2.67,1.39-2.57-.53" fill="#243e8b"/>
  <path d="M237.58,101.61c.32-3.21,1.82-6.74,4.71-7.91,1.18,1.28,1.39,3.21,.96,4.92-.43,1.82-5.56,10.05-5.67,2.99" fill="#243e8b"/>
  <path d="M5.6,102.36c-.53-1.71,.32-3.32,1.07-4.71,1.93-2.03,4.39-3.42,7.06-3.32,.21,3.32-2.67,6.1-5.35,7.49-.86,.11-1.82,1.07-2.78,.53" fill="#243e8b"/>
  <path d="M236.08,90.27c.75-1.71,1.5-3.42,3.1-4.81,1.39-.11,1.5,1.5,1.82,2.35,.75,3.74-1.5,6.42-4.06,8.66-1.6-1.28-1.39-4.28-.86-6.2" fill="#243e8b"/>
  <path d="M7.52,91.66c.96-3.64,4.92-4.81,8.45-5.13,.32,2.57-1.6,4.92-3.96,6.2-1.28,.64-6.42,3.32-4.49-1.07" fill="#243e8b"/>
  <path d="M233.09,82.57c.86-1.93,1.18-4.17,3.1-5.56,.96,.32,1.5,1.28,1.71,2.14,1.07,3.85-1.18,6.95-3.64,9.09-1.18-1.28-1.6-3.53-1.18-5.67" fill="#243e8b"/>
  <path d="M9.77,84.71c.32-2.03,1.71-3.85,3.64-5.03,1.82-.64,3.74-1.28,5.67-.96,.11,2.89-2.57,5.13-4.92,6.1-1.18,.64-4.06,1.5-4.39-.11" fill="#243e8b"/>
  <path d="M229.99,78.19c-.75-3.21,.75-5.99,2.25-8.45,1.18-.64,1.82,1.18,2.25,1.93,1.39,3.53-.64,6.74-2.99,9.09-.75-.53-1.28-1.71-1.5-2.57" fill="#243e8b"/>
  <path d="M12.87,76.8c.32-2.03,1.93-3.96,3.85-4.92,1.82-.43,4.06-1.39,6.1-.53-.43,1.93-1.71,3.64-3.42,4.71-1.82,.86-3.64,1.6-5.88,1.6l-.64-.86Z" fill="#243e8b"/>
  <path d="M226.24,70.06c-.53-2.99,.64-5.45,1.82-7.81,1.82-.64,2.25,1.82,2.78,2.99,.64,3.1-.96,5.67-2.57,8.13-1.07-.53-1.82-2.14-2.03-3.32" fill="#243e8b"/>
  <path d="M16.51,69.2c.43-1.71,1.71-3.64,3.42-4.28,1.93-.96,4.6-1.18,6.74-.53-.75,3.32-4.28,5.13-7.38,5.56-1.07-.53-2.57,.96-2.78-.75" fill="#243e8b"/>
  <path d="M222.07,63c-.75-2.99,.43-5.56,1.39-8.02,1.5-.75,2.25,1.39,2.78,2.25,1.39,3.21-.21,6.42-1.93,8.98-1.28-.53-1.82-2.14-2.25-3.21" fill="#243e8b"/>
  <path d="M20.68,61.93c.32-1.82,2.03-3.53,3.64-4.28,2.14-.53,4.92-1.28,6.95,0-1.6,4.06-5.88,5.13-10.05,5.03l-.53-.75Z" fill="#243e8b"/>
  <path d="M217.05,53.48c0-2.14,.53-4.06,1.5-5.56,1.39,.11,2.25,1.6,2.78,2.78,1.28,2.99,0,6.2-1.6,8.66-1.82-1.28-2.46-3.64-2.67-5.88" fill="#243e8b"/>
  <path d="M25.49,55.51c-.86-1.93,1.5-3.32,2.78-4.28,2.14-.96,5.45-.96,7.59,0-1.5,4.28-6.31,4.71-10.37,4.28" fill="#243e8b"/>
  <path d="M212.23,42.25c.21-.53,.32-.96,.86-.86,1.6,.11,2.35,1.82,2.99,3.1,.86,2.78,.11,5.99-1.39,8.13-3.21-2.35-3.53-6.85-2.46-10.37" fill="#243e8b"/>
  <path d="M30.52,47.92c.53-2.35,2.99-3.64,5.13-3.96,2.03,0,4.06-.21,5.67,.86-.53,2.67-3.53,3.42-5.67,3.96-1.71,.21-3.32,.11-4.81-.32l-.32-.53Z" fill="#243e8b"/>
  <path d="M205.6,39.04c.32-1.28-.11-3.1,1.07-3.96,1.39,.11,2.78,1.71,3.21,2.99,1.39,2.57,.53,5.99-.64,8.13-2.67-1.28-3.42-4.28-3.64-7.17" fill="#243e8b"/>
  <path d="M36.19,41.72c.11-2.14,2.35-2.78,3.85-3.64,2.57-.43,5.13-.11,7.27,.96-.32,1.28-1.71,2.25-2.78,2.78-2.35,.96-6.1,1.18-8.34-.11" fill="#243e8b"/>
  <path d="M199.61,34.66c-.21-1.6-.43-4.06,.86-5.03,1.82,.21,2.78,2.14,3.64,3.42,.86,2.35,.64,5.35-.53,7.49-2.57-.86-3.42-3.64-3.96-5.88" fill="#243e8b"/>
  <path d="M42.28,35.51c.96-2.14,3.32-3.1,5.56-3.32,1.82,.53,3.96,.32,5.56,1.6,.11,1.07-1.6,2.14-2.57,2.57-2.99,.64-6.52,.96-8.56-.86" fill="#243e8b"/>
  <path d="M192.87,28.24l.11-3.42c1.39-.75,2.35,.86,3.42,1.6,2.14,2.35,1.71,5.78,.96,8.77-2.99-.75-4.06-4.17-4.49-6.95" fill="#243e8b"/>
  <path d="M48.81,30.27c.43-2.25,2.99-2.99,5.03-3.32,2.25,.21,4.39,.75,6.2,2.14-.43,1.18-1.93,2.03-3.1,2.46-2.78,.75-5.99,0-8.13-1.28" fill="#243e8b"/>
  <path d="M185.82,23.21c.21-1.18-.43-2.67,.53-3.32,1.82-.11,3.21,1.71,4.17,3.1,.96,2.14,1.5,4.92,.53,7.27-3.42-.64-4.71-4.17-5.24-7.06" fill="#243e8b"/>
  <path d="M55.55,25.57c-.53-1.28,.96-1.93,1.82-2.57,3.21-1.6,6.74,0,9.31,1.93-.75,1.07-2.35,1.82-3.64,2.25-2.78,.43-5.13-.43-7.49-1.6" fill="#243e8b"/>
  <path d="M179.18,21.82c-.75-1.82-1.39-3.64-1.18-5.78,.75-.75,1.71-.11,2.46,.11,3.32,1.93,3.64,5.56,3.85,8.98-.64,1.39-2.03-.32-2.99-.53l-2.14-2.78Z" fill="#243e8b"/>
  <path d="M62.92,20.75c-.53-.86,.53-1.6,1.18-2.14,3.21-1.5,7.06-.32,9.63,1.71l.32,.53c-2.78,3.21-7.91,1.71-11.12-.11" fill="#243e8b"/>
  <path d="M170.95,16.47c-.53-1.28-1.39-3.85,0-4.49,1.82,.32,3.85,1.6,4.81,3.42,.75,1.82,1.39,4.06,.86,6.2-2.78-.21-4.71-2.78-5.67-5.13" fill="#243e8b"/>
  <path d="M70.41,16.47c-.11-1.39,1.39-1.6,2.25-2.14,3.21-.96,6.74,.75,8.98,3.1-.75,1.18-2.35,1.39-3.64,1.71-2.99,.11-5.35-1.07-7.59-2.67" fill="#243e8b"/>
  <path d="M162.39,11.66c.11-.96-.96-2.14,.32-2.57,1.82,0,3.32,1.07,4.71,2.35,1.39,2.03,2.46,4.49,1.71,6.95-3.42-.32-5.56-3.85-6.74-6.74" fill="#243e8b"/>
  <path d="M78.11,13.05c-.11-1.18,1.18-1.6,2.14-1.82,3.64-.96,6.52,1.18,8.98,3.42-.21,.86-1.6,.96-2.46,1.5-3.53,.43-5.99-1.28-8.66-3.1" fill="#243e8b"/>
  <path d="M155.55,11.45l-1.5-4.28c1.93-1.5,3.64,.53,5.13,1.39,1.71,1.71,2.35,4.06,2.78,6.31-.86,1.18-2.35,0-3.42-.32l-2.99-3.1Z" fill="#243e8b"/>
  <path d="M86.03,9.95c.11-1.39,1.6-1.28,2.46-1.71,3.64-.53,6.85,1.71,8.45,4.71-3.85,2.03-8.24,0-10.91-2.99" fill="#243e8b"/>
  <path d="M146.24,7.28c-.21-.96-1.28-2.03,.11-2.57,2.67,0,5.35,1.6,6.42,4.06,.43,1.39,1.5,2.99,.86,4.28-3.42,.21-5.99-2.89-7.38-5.78" fill="#243e8b"/>
  <path d="M94.58,7.7c-.21-1.28,1.18-1.39,1.93-1.71,3.74-.53,6.74,1.6,8.66,4.6-.11,.96-1.39,1.07-2.35,1.18-3.42,0-5.99-1.6-8.24-4.06" fill="#243e8b"/>
  <path d="M137.58,6.1c-.32-.96-1.39-2.67,.53-2.78,1.82,.21,3.53,.64,4.81,2.03,1.28,1.82,2.78,3.64,2.78,5.88-3.53,.53-6.52-2.25-8.13-5.13" fill="#243e8b"/>
  <path d="M103.25,5.78c-.32-.75,.53-1.28,.96-1.39,2.35-.53,4.49,.11,6.31,1.39,1.18,1.28,2.89,2.35,2.99,4.17-4.17,1.6-7.91-1.07-10.27-4.17" fill="#243e8b"/>
  <path d="M129.24,5.24c-.21-.64-.86-1.07-.64-1.82,1.82-1.18,4.28-.32,5.78,.86,1.6,1.71,3.21,3.64,3.32,5.78-2.03,.21-4.28-.11-5.88-1.71l-2.57-3.1Z" fill="#243e8b"/>
  <path d="M111.7,4.39c-.21-.75,.75-.96,1.18-1.18,4.17-.86,6.74,2.46,8.66,5.35,.11,.21,.32,.53,.21,.86-2.46,.75-5.03,.11-6.95-1.39-1.28-.96-2.46-2.25-3.1-3.64" fill="#243e8b"/>
  <path d="M120.15,4.07c-.32-.96,.75-1.28,1.39-1.39,2.03,.11,4.06,.21,5.35,1.82,1.07,1.6,2.89,3.21,2.78,5.03-4.28,.86-7.59-2.25-9.52-5.45" fill="#243e8b"/>
  <polygon points="34.37 154.13 32.12 160.44 25.49 160.44 30.84 164.29 28.49 170.81 34.37 166.75 40.36 170.81 38 164.29 43.35 160.44 36.72 160.44 34.37 154.13" fill="#243e8b"/>
  <polygon points="216.41 155.41 214.05 161.72 207.53 161.72 212.88 165.57 210.42 172.09 216.41 168.03 222.39 172.09 220.04 165.57 225.28 161.72 218.76 161.72 216.41 155.41" fill="#243e8b"/>
  <g>
    <path d="M30.95,131.77l2.67-1.39c.75-.43,1.28-.21,1.39,.21l.21,1.28,.86-.11c-.21-1.6-.32-2.89-.43-3.85-.11-.96-.21-2.14-.32-3.85l-.86,.11v.64c0,.75-.32,1.18-.96,1.5l-14.22,7.81,.21,1.71,3.85,1.07,11.23,3.42c.75,.21,1.5,.64,1.6,1.28l.11,.75,.86-.11c-.11-1.18-.32-2.03-.32-2.78-.11-.75-.11-1.6-.21-2.78l-.86,.11v1.28c0,.43-.43,.96-1.39,.75l-2.89-.75-.53-6.31Zm-7.38,3.85l5.99-3.21,.53,5.03-6.52-1.82Z" fill="#243e8b"/>
    <path d="M34.58,102.57c1.07,.11,1.71,.21,2.03,.11,.21-.11,.32-.32,.43-.96l.21-.86,.96,.11c-.21,.96-.43,2.35-.64,3.74-.21,1.5-.32,2.78-.43,3.85l-.96-.11v-.96c0-.64,0-.96-.21-1.07-.32-.21-.96-.32-1.93-.43l-10.05-1.39h0l9.73,6.42c.96,.64,2.14,1.39,2.99,1.93l-.11,.86c-.75,.11-1.39,.43-2.14,.64l-12.41,3.96h0l10.16,1.39c1.07,.11,1.71,.21,2.03,.11,.21-.11,.43-.32,.53-.96l.21-.86,.86,.11c-.11,.96-.32,1.82-.43,2.78-.11,.96-.21,1.93-.32,2.78l-.86-.11v-.96c0-.64,0-.86-.32-1.07s-.96-.32-1.93-.43l-9.95-1.39c-1.07-.11-1.71-.21-2.03-.11-.21,.11-.43,.32-.53,.96l-.21,.86-.86-.11c.11-.96,.32-1.93,.43-2.89,.11-.96,.21-1.93,.32-2.99,1.07-.32,2.99-.96,4.17-1.28l8.56-2.78-8.66-5.78c-.86-.53-1.82-1.07-2.57-1.6,.21-1.18,.32-2.14,.43-2.78,.11-.75,.21-1.6,.32-2.89l.86,.11v.96c0,.64,.11,.86,.32,1.07,.32,.21,.96,.32,1.93,.43l10.05,1.6Z" fill="#243e8b"/>
    <path d="M31.91,91.88c.21-.53,.43-1.07,.64-1.5l.53-1.5c.32-.86,.43-1.28,0-1.5l-1.28-.64,.32-.96c.86,.32,1.6,.64,2.46,.96s1.71,.53,2.57,.86l-.32,.96-1.18-.32c-.64-.21-1.07,.21-1.39,.96l-.53,1.5c-.21,.53-.32,1.07-.53,1.6l6.2,2.25c.43-.96,.75-1.93,1.18-2.99,.43-1.07,.86-2.89,.64-2.99l-2.03-1.28,.32-.86,3.53,1.6,.11,.21c-.43,1.5-1.39,4.28-2.03,5.78-.32,.96-.75,1.93-1.07,2.78-.32,.96-.64,1.93-.96,2.78l-.53-.21-.11-.86c-.11-.43-.43-.64-1.18-.96l-10.37-3.74c-.96-.32-1.6-.53-1.93-.53s-.43,.21-.75,.86l-.43,.86-.86-.32c.32-.75,.53-1.39,.75-2.03s.43-1.18,.64-1.6c.75-2.14,1.28-3.74,1.82-5.13,.43-1.28,.86-2.35,1.28-3.32l.21-.11,3.21,1.5-.32,.86-1.82-.43c-.32-.11-1.07,1.39-1.39,2.46-.32,.96-.75,2.03-.96,2.99l5.56,2.03Z" fill="#243e8b"/>
    <path d="M33.19,78.29c-.86-.53-1.5-.86-1.82-.86s-.53,.11-.86,.64l-.53,.75-.75-.43c.86-1.39,1.5-2.46,2.14-3.53,.86-1.5,1.6-2.89,2.46-4.39,1.18-2.25,3.1-3.85,5.56-2.35,1.93,1.07,2.35,3.21,1.93,5.35l8.13-.43c.32,0,.64-.11,1.07-.21,.21-.11,.53-.32,.86-.75l.86,.53c-.43,.64-.86,1.39-1.28,2.03-.32,.64-.75,1.28-1.07,1.93l-10.16,.53-.32-.43c1.28-1.82,.96-4.06-1.07-5.24-1.71-.96-3.42-.32-4.39,1.28-.21,.43-.53,1.07-.64,1.5l10.37,5.99c.86,.53,1.5,.86,1.82,.86,.21,0,.43-.21,.86-.75l.43-.64,.86,.53c-.53,.86-1.28,2.03-2.03,3.32s-1.39,2.46-1.82,3.32l-.86-.53,.43-.86c.32-.53,.32-.86,.21-1.07-.21-.32-.75-.64-1.6-1.18l-8.77-4.92Z" fill="#243e8b"/>
    <path d="M53.51,65.67c.86,.64,1.39,1.07,1.71,1.07,.21,0,.43-.11,.86-.53l.64-.64,.75,.64c-.64,.75-1.5,1.82-2.46,2.99-.96,1.18-1.71,2.25-2.35,3.1l-.75-.64,.53-.75c.32-.53,.43-.86,.32-.96-.11-.32-.64-.75-1.5-1.39l-7.91-6.31c-.86-.64-1.39-1.07-1.71-1.07-.21,0-.43,.11-.86,.53l-.64,.64-.75-.64c.64-.75,1.5-1.82,2.46-2.99,.86-1.18,1.71-2.25,2.35-2.99l.75,.64-.53,.75c-.32,.53-.43,.86-.32,.96,.11,.32,.64,.75,1.5,1.39l7.91,6.2Z" fill="#243e8b"/>
    <path d="M68.91,53.59c-.53,1.93-1.82,3.53-3.21,4.92-4.06,3.85-9.31,4.39-13.37,.11-3.85-4.17-2.46-9.41,1.39-12.94,1.5-1.39,2.78-2.35,5.24-3.32l.32,.11c.43,.86,1.5,2.25,2.14,3.1l-.75,.64-1.5-1.5c-1.71-.11-3.21,.64-4.39,1.82-2.99,2.78-2.57,6.42,.11,9.31,3.1,3.32,7.27,3.85,10.7,.75,1.07-.96,2.14-2.78,2.57-4.17h.43l.32,1.18Z" fill="#243e8b"/>
    <path d="M76.94,43.43l2.46,1.82c.64,.53,.75,1.07,.43,1.28l-1.07,.75,.53,.75c1.39-.86,2.35-1.6,3.21-2.03,.86-.53,1.82-1.07,3.32-1.93l-.53-.75-.53,.21c-.75,.32-1.18,.21-1.71-.21l-13.37-9.31-1.5,.96,.75,3.96,1.93,11.55c.11,.75,.11,1.6-.43,2.03l-.64,.43,.53,.75c.96-.64,1.71-1.18,2.35-1.5,.64-.43,1.39-.86,2.46-1.39l-.53-.75-1.07,.53c-.43,.21-1.07,.11-1.28-.86l-.53-2.89,5.24-3.42Zm-6.74-4.81l5.45,3.96-4.28,2.67-1.18-6.63Z" fill="#243e8b"/>
    <path d="M83.46,30.49c-.32-.96-.64-1.6-.86-1.82-.21-.21-.43-.21-1.07-.11l-.86,.21-.32-.86c.96-.32,1.93-.64,2.78-.96,.64-.21,1.28-.53,1.93-.75,1.18,.75,2.35,1.6,3.53,2.25l10.27,5.88-2.99-8.34c-.32-.96-.64-1.6-.86-1.82-.21-.21-.43-.21-1.07-.11l-.86,.21-.32-.86c.86-.32,1.82-.53,2.67-.86s1.71-.64,2.67-.96l.32,.86-.86,.43c-.64,.21-.75,.43-.86,.75,0,.32,.21,.96,.53,1.93l3.74,10.59c.32,.86,.64,1.6,.86,2.35l-.11,.11-2.03,.43c-1.28-.75-2.67-1.5-3.96-2.25l-10.8-6.42h0l3.21,9.09c.32,.96,.64,1.6,.86,1.82,.21,.21,.43,.21,1.07,.11l.86-.21,.32,.86c-.86,.32-1.82,.53-2.67,.86s-1.82,.64-2.67,1.07l-.32-.86,.86-.43c.64-.21,.75-.43,.86-.75,0-.32-.21-.96-.53-1.93l-3.32-9.52Z" fill="#243e8b"/>
    <path d="M111.7,22.68c-.11-1.07-.11-1.71-.32-2.03-.11-.21-.43-.32-1.07-.32h-.96l-.11-.96c1.07,0,2.35-.11,3.85-.21,1.5-.11,2.78-.21,3.85-.32l.11,.96-.86,.11c-.64,.11-.86,.21-.96,.43-.11,.32-.11,.96,0,2.03l.32,4.6c0,.11,.11,.11,.21,.11l4.39-4.81c.53-.64,1.28-1.5,1.82-2.25,.21-.32,.32-.64,.32-.96v-.64c.75,0,1.5,0,2.25-.11,.75,0,1.5-.11,2.25-.21l.11,.96c-1.07,.21-1.93,.32-2.67,.96l-5.13,5.45,7.06,7.27c.53,.53,1.28,1.18,2.35,1.07l.11,.96c-.86,0-1.6,0-2.46,.11s-1.71,.11-2.46,.21l-5.56-5.78c-.64-.64-1.5-1.6-2.03-1.82-.21,0-.21,.11-.21,.21l.32,4.49c.11,1.07,.11,1.71,.32,2.03,.11,.21,.43,.32,1.07,.32h.96l.11,.96c-.96,0-2.35,.11-3.85,.21-1.5,.11-2.78,.21-3.85,.32l-.11-.96,.86-.11c.64-.11,.86-.21,.96-.43,.11-.32,.11-.96,0-2.03l-.96-9.84Z" fill="#243e8b"/>
    <path d="M135.55,26.64c.53,.11,1.07,.21,1.6,.21l1.6,.21c.86,.11,1.39,.11,1.5-.32l.32-1.39,.96,.11c-.11,.86-.32,1.71-.43,2.57-.11,.86-.21,1.82-.21,2.67l-.96-.11v-1.18c0-.75-.43-.96-1.28-1.07l-1.6-.21c-.53-.11-1.07-.11-1.6-.11l-.75,6.52c1.07,.21,2.03,.32,3.1,.43,1.18,.11,2.99,.11,2.99-.11l.86-2.25,.96,.11-.75,3.85-.11,.21c-1.6-.11-4.49-.43-5.99-.64-.96-.11-2.03-.32-2.99-.43-1.07-.11-2.03-.21-2.99-.32l.11-.53,.86-.32c.43-.21,.53-.53,.64-1.28l1.28-11.02c.11-1.07,.21-1.71,.11-2.03-.11-.21-.32-.43-.96-.53l-.86-.21,.11-.96c.86,.11,1.5,.21,2.14,.32s1.18,.21,1.71,.21c2.35,.32,3.96,.43,5.35,.53s2.46,.32,3.53,.53l.11,.21-.75,3.42-.86-.11v-1.82c0-.43-1.6-.64-2.78-.75-1.07-.11-2.14-.21-3.1-.32l-.86,5.88Z" fill="#243e8b"/>
    <path d="M149.13,24.71c.32-.96,.53-1.6,.43-1.93,0-.32-.21-.43-.86-.75l-.86-.32,.32-.86c.96,.32,1.82,.64,2.78,.96,.64,.21,1.28,.43,2.03,.53,.43,1.28,.86,2.67,1.39,3.96l4.6,10.91,2.67-8.45c.32-.96,.53-1.6,.43-1.93,0-.32-.21-.43-.86-.75l-.86-.32,.32-.86c.86,.32,1.82,.64,2.67,.96,.86,.32,1.82,.53,2.67,.75l-.32,.86-.86-.21c-.64-.11-.86-.11-1.07,.11-.21,.21-.43,.86-.75,1.82l-3.42,10.7c-.21,.86-.53,1.71-.64,2.35h-.21l-1.82-.96c-.64-1.39-1.28-2.78-1.82-4.17l-4.71-11.66h0l-2.99,9.2c-.32,.96-.53,1.6-.43,1.93,0,.32,.21,.43,.86,.75l.86,.32-.32,.86c-.86-.32-1.82-.64-2.67-.96-.86-.32-1.82-.53-2.67-.75l.32-.86,.86,.21c.64,.11,.86,.11,1.07-.11,.21-.21,.43-.86,.75-1.82l3.1-9.52Z" fill="#243e8b"/>
    <path d="M170.31,32.41c.53-.86,.86-1.5,.86-1.82s-.11-.53-.64-.86l-.75-.53,.43-.75c.86,.53,1.71,1.07,2.57,1.6,.64,.32,1.18,.64,1.82,.96,.21,1.39,.32,2.78,.53,4.17l2.14,11.66,4.49-7.59c.53-.86,.86-1.5,.86-1.82s-.11-.53-.64-.86l-.75-.53,.43-.75c.75,.53,1.6,1.07,2.46,1.5s1.6,.96,2.46,1.39l-.43,.75-.86-.43c-.53-.32-.86-.32-1.07-.11-.32,.21-.64,.75-1.18,1.6l-5.67,9.63c-.43,.75-.86,1.5-1.18,2.25h-.21l-1.6-1.28c-.32-1.5-.64-2.99-.86-4.49l-2.03-12.41h0l-4.92,8.34c-.53,.86-.86,1.5-.86,1.82s.11,.53,.64,.86l.75,.53-.43,.75c-.75-.53-1.6-.96-2.35-1.5-.86-.43-1.71-.96-2.46-1.39l.43-.75,.86,.43c.53,.32,.86,.32,1.07,.11,.32-.21,.64-.75,1.18-1.6l4.92-8.88Z" fill="#243e8b"/>
    <path d="M188.92,49.84c.43,.43,.86,.75,1.18,1.18l1.18,1.07c.64,.53,1.07,.86,1.39,.53l1.07-.96,.75,.64c-.64,.64-1.18,1.28-1.82,1.93-.64,.64-1.18,1.39-1.71,2.03l-.75-.64,.75-1.07c.43-.53,.21-1.07-.43-1.6l-1.18-1.07c-.43-.32-.86-.75-1.28-1.07l-4.39,4.92c.75,.75,1.5,1.5,2.35,2.14,.86,.75,2.35,1.82,2.57,1.71l1.93-1.39,.75,.64-2.78,2.78-.21,.11c-1.28-.96-3.42-2.89-4.6-3.96-.75-.64-1.5-1.39-2.25-2.03-.75-.64-1.6-1.28-2.25-1.93l.43-.43,.86,.21c.43,.11,.75-.11,1.28-.75l7.27-8.34c.64-.75,1.07-1.28,1.18-1.6,.11-.21,0-.53-.53-.96l-.64-.64,.64-.64c.64,.53,1.18,1.07,1.6,1.5,.53,.43,.86,.86,1.28,1.18,1.71,1.5,2.99,2.57,4.06,3.53,1.07,.86,1.82,1.6,2.67,2.46v.21l-2.57,2.46-.64-.64,1.07-1.5c.21-.32-.96-1.5-1.82-2.25-.75-.75-1.6-1.39-2.46-2.03l-3.96,4.28Z" fill="#243e8b"/>
    <path d="M193.94,66.21c.64,.86,1.28,1.71,1.93,2.46,.75,.86,2.03,2.14,2.25,2.03l2.35-1.18,.64,.75-3.32,2.35h-.21c-1.07-1.18-2.99-3.42-3.96-4.6-.64-.75-1.28-1.6-1.93-2.35s-1.39-1.6-1.93-2.25l.43-.32,.86,.32c.43,.21,.86,0,1.39-.53l8.56-7.06c.75-.64,1.28-1.07,1.39-1.39,.11-.21,0-.43-.43-.96l-.53-.75,.75-.64c.64,.75,1.5,1.93,2.35,2.99,.96,1.18,1.82,2.14,2.46,2.89l-.75,.64-.64-.64c-.43-.43-.64-.64-.86-.53-.32,.11-.86,.43-1.6,1.18l-9.2,7.59Z" fill="#243e8b"/>
    <path d="M209.13,92.09c-1.71-1.07-2.89-2.78-3.74-4.49-2.46-5.03-1.39-10.16,3.85-12.73,5.13-2.46,9.73,.43,11.98,5.13,.86,1.82,1.5,3.42,1.6,5.99l-.21,.21c-.96,.21-2.67,.75-3.64,1.18l-.43-.86,1.82-1.07c.64-1.6,.32-3.21-.43-4.71-1.82-3.74-5.35-4.39-8.88-2.67-4.06,1.93-5.88,5.78-3.85,9.95,.64,1.28,1.93,2.89,3.21,3.74l-.11,.43-1.18-.11Z" fill="#243e8b"/>
    <path d="M211.59,98.94c.21,.96,.53,2.03,.75,3.1,.32,1.07,1.07,2.78,1.18,2.78l2.57-.11,.21,.96-4.06,.86-.21-.11c-.53-1.5-1.28-4.28-1.71-5.78-.21-.96-.43-1.93-.75-2.99-.32-.96-.64-1.93-.86-2.89l.53-.11,.64,.64c.32,.32,.75,.32,1.5,.11l10.7-2.99c.96-.32,1.6-.53,1.93-.75,.21-.11,.21-.43,.11-1.07l-.21-.86,.96-.32c.21,.96,.53,2.35,.96,3.74s.86,2.67,1.07,3.64l-.96,.32-.32-.86c-.21-.64-.43-.86-.64-.86-.32-.11-.96,.11-1.93,.43l-11.44,3.1Z" fill="#243e8b"/>
    <path d="M226.14,108.24c1.07-.11,1.71-.21,1.93-.32,.21-.11,.32-.43,.32-1.07v-.96l.96-.11c.11,.96,.11,2.35,.32,3.85,.11,1.5,.32,2.78,.43,3.85l-.96,.11-.11-.86c-.11-.64-.21-.86-.53-.96s-.96-.11-2.03,0l-6.1,.53c-3.42,.32-5.67,.75-5.24,4.92,.43,4.06,2.67,4.39,6.2,4.06l5.88-.53c1.07-.11,1.71-.21,1.93-.32,.21-.11,.32-.43,.32-1.07v-.96l.96-.11c.11,.96,.11,1.93,.21,2.89,.11,.96,.21,1.82,.32,2.78l-.96,.11-.11-.86c-.11-.64-.21-.86-.53-.96s-.96-.11-2.03,0l-7.17,.64c-4.49,.43-6.85-1.82-7.17-6.2-.43-4.6,1.39-7.17,4.17-7.49l8.98-.96Z" fill="#243e8b"/>
    <path d="M229.88,127.6l-.21,.86c-.11,.64-.21,.86-.53,.96s-.96,.11-2.03,0l-11.02-1.07c-.75-.11-1.18-.21-1.39-.64l-.32-.86-.53-.11c-.11,.96-.11,1.93-.21,2.99-.11,1.18-.32,2.35-.43,3.42-.53,3.96,1.6,7.06,4.6,7.38,2.89,.32,4.17-1.39,4.6-4.6h0c.53,2.35,1.18,4.49,3.64,4.81,2.78,.32,3.53-2.14,3.74-4.39,.21-1.93,.21-3.32,.43-5.03,.11-.96,.32-2.25,.43-3.85l-.75,.11Zm-.96,5.45v1.5c-.21,1.82-.96,2.78-2.89,2.57-2.35-.21-2.89-1.71-2.67-3.85l.11-.75,5.45,.53Zm-6.85-.64l-.11,.75c-.21,2.46-1.18,3.96-3.96,3.74-2.14-.21-3.64-1.18-3.42-3.85,0-.43,.11-.86,.21-1.28l7.27,.64Z" fill="#243e8b"/>
  </g>
  <polygon points="58.75 192.84 65.17 198.51 64.21 199.58 59.07 195.09 56.61 197.87 61.11 201.83 60.14 203 55.65 199.05 51.91 203.22 50.73 202.15 58.75 192.84" fill="#243e8b"/>
  <g>
    <path d="M69.88,213.38c1.07-.53,2.03-1.39,2.78-2.46,.75-1.18,1.07-2.35,.96-3.53-.11-1.18-.75-2.03-1.82-2.78s-2.14-.86-3.32-.64c-1.18,.32-2.14,1.18-3.1,2.57-.75,1.18-1.07,2.25-1.07,3.42,.11,1.18,.75,2.14,2.03,2.99,1.28,.75,2.46,.96,3.53,.43m5.56-5.78c.11,1.39-.32,2.78-1.28,4.17-.96,1.5-2.25,2.57-3.64,3.1-1.71,.64-3.42,.32-5.03-.75s-2.46-2.35-2.67-3.96c-.11-1.5,.32-3.1,1.28-4.6,.96-1.39,2.03-2.35,3.32-2.89,1.71-.64,3.42-.43,5.13,.64,1.82,1.07,2.78,2.57,2.89,4.28" fill="#243e8b"/>
    <path d="M82.28,209.31l-3.21,6.85c-.43,.86-.53,1.5-.53,2.25,.11,1.07,.64,1.82,1.71,2.25,1.28,.64,2.35,.53,3.21-.11,.43-.32,.86-.96,1.28-1.71l3.21-6.85,1.5,.75-2.89,6.2c-.64,1.39-1.28,2.35-2.03,2.89-1.28,1.07-2.89,1.07-4.81,.21s-2.89-2.14-2.89-3.85c0-.86,.32-2.03,.96-3.42l2.89-6.2,1.6,.75Z" fill="#243e8b"/>
  </g>
  <polygon points="93.51 214.23 95.33 214.77 98.33 226.11 101.21 216.59 102.71 217.12 99.08 228.78 97.36 228.24 94.26 216.91 91.37 226.43 89.88 225.89 93.51 214.23" fill="#243e8b"/>
  <path d="M109.88,229.42c.53,.11,.96,.11,1.39,0,.64-.11,1.18-.43,1.71-.96,.43-.43,.75-1.07,.96-1.82l.32-1.28c.21-1.5,.11-2.67-.32-3.64s-1.28-1.5-2.67-1.71l-2.89-.43-1.39,9.31,2.89,.53Zm-2.89-11.34l4.81,.75c1.6,.21,2.78,1.07,3.53,2.35,.64,1.18,.86,2.57,.53,4.28-.21,1.28-.64,2.46-1.28,3.42-1.07,1.71-2.67,2.46-4.71,2.14l-4.81-.75,1.93-12.19Z" fill="#243e8b"/>
  <polygon points="120.68 219.8 129.56 219.69 129.56 221.19 122.28 221.29 122.39 225.04 129.13 224.93 129.13 226.32 122.39 226.43 122.5 230.6 129.88 230.49 129.88 231.99 120.89 232.1 120.68 219.8" fill="#243e8b"/>
  <g>
    <path d="M139.93,229.53c.53-.11,.96-.21,1.28-.32,.64-.32,1.07-.75,1.39-1.5,.21-.53,.43-1.18,.43-1.93,0-.43,0-.86-.11-1.28-.21-1.5-.64-2.67-1.39-3.42s-1.71-1.07-2.99-.86l-2.89,.43,1.28,9.31,2.99-.43Zm-5.99-10.05l4.81-.64c1.6-.21,2.99,.21,4.06,1.28,.96,.96,1.6,2.25,1.82,3.96,.21,1.28,.11,2.46-.21,3.64-.53,1.93-1.93,3.1-3.96,3.32l-4.92,.53-1.6-12.09Z" fill="#243e8b"/>
    <path d="M156.4,218.73l-.43-1.07c.96-.43,1.6-.86,1.93-1.28,.32-.43,.43-1.07,.32-1.93l1.07-.43,3.96,11.23-1.5,.53-2.78-8.02-2.57,.96Z" fill="#243e8b"/>
    <path d="M174.91,218.41c.21-.53,.21-1.18-.11-1.82s-.86-1.07-1.39-1.28c-.64-.11-1.28-.11-1.93,.21-.64,.32-1.07,.75-1.28,1.28s-.21,1.18,.11,1.82c.32,.53,.75,.96,1.28,1.18s1.28,.11,2.03-.21c.64-.21,1.07-.64,1.28-1.18m-2.89-5.13c.21-.53,.11-.96-.11-1.39-.21-.43-.53-.64-1.07-.86-.53-.21-1.07-.11-1.71,.21-.64,.32-1.07,.75-1.18,1.18s-.11,.96,.11,1.39c.21,.53,.64,.86,1.18,.86,.53,.11,1.07,0,1.5-.21,.75-.32,1.18-.64,1.28-1.18m-3.85,2.46c-.64-.21-1.07-.64-1.39-1.28-.43-.75-.43-1.6-.11-2.46,.32-.86,.96-1.5,2.03-2.03s1.93-.64,2.78-.43,1.5,.75,1.82,1.5c.32,.64,.43,1.28,.32,1.93-.11,.32-.21,.75-.53,1.07,.53,0,.96,0,1.39,.21,.75,.32,1.28,.75,1.71,1.6,.43,.96,.53,1.93,.21,2.89-.32,.96-1.07,1.71-2.25,2.35-1.07,.53-2.03,.64-3.1,.43-.96-.21-1.71-.86-2.25-1.93-.32-.64-.43-1.28-.32-1.82,.11-.64,.32-1.18,.86-1.71-.43-.11-.86-.21-1.18-.32" fill="#243e8b"/>
    <path d="M185.82,211.99c.21-.53,.11-1.18-.32-1.82-.43-.64-.96-.96-1.6-1.07s-1.18,.11-1.82,.53c-.64,.43-.96,.86-1.18,1.5-.11,.64,0,1.18,.32,1.82,.32,.53,.86,.86,1.39,.96,.64,.11,1.28,0,1.93-.53,.75-.43,1.18-.86,1.28-1.39m-3.42-4.81c.11-.53,0-.96-.21-1.39-.21-.32-.64-.64-1.07-.75-.53-.11-1.07,0-1.71,.43s-.96,.86-.96,1.28c-.11,.53,0,.96,.32,1.39s.75,.75,1.28,.75,1.07-.11,1.5-.43c.43-.32,.75-.75,.86-1.28m-3.53,2.89c-.64-.11-1.07-.53-1.5-1.07-.53-.75-.64-1.6-.43-2.46,.21-.86,.75-1.71,1.71-2.35,.96-.64,1.82-.86,2.78-.75,.86,.11,1.5,.53,1.93,1.28,.43,.64,.53,1.18,.53,1.82,0,.32-.21,.75-.43,1.18,.53-.11,.96-.11,1.39,0,.75,.21,1.39,.64,1.82,1.39,.53,.86,.75,1.82,.53,2.78s-.86,1.82-1.93,2.57c-.96,.64-1.93,.96-2.99,.86s-1.82-.64-2.57-1.6c-.43-.64-.53-1.18-.53-1.82s.21-1.18,.64-1.82c-.32,.11-.64,.11-.96,0" fill="#243e8b"/>
  </g>
  <path d="M193.52,202.68l-3.53-4.06,.64,6.63,2.89-2.57Zm2.78,3.21l-1.93-2.25-3.96,3.42-.96-1.07-.86-9.31,.96-.86,5.03,5.88,1.28-1.18,.86,.96-1.28,1.18,1.93,2.25-1.07,.96Z" fill="#243e8b"/>
</svg>