<?xml version="1.0" encoding="UTF-8"?>
<svg id="uuid-c99928bd-d245-437b-a92f-fd898be804c9" data-name="Layer 1" xmlns="http://www.w3.org/2000/svg" viewBox="0 0 57.03 45.49">
  <path d="M3.7,19.05h45.02c2.04,0,3.7,1.65,3.7,3.7h0c0,2.04-1.65,3.7-3.7,3.7H3.7c-2.04,0-3.7-1.65-3.7-3.7h0c0-2.04,1.65-3.7,3.7-3.7Z" fill="#010101" stroke-width="0"/>
  <path d="M37.04,1.3l18.54,18.22c1.8,1.77,1.8,4.68,0,6.46l-18.54,18.22c-1.78,1.75-4.65,1.73-6.4-.06h0c-1.75-1.78-1.73-4.65.06-6.4l11.97-11.76c1.8-1.77,1.8-4.68,0-6.46l-11.97-11.76c-1.78-1.75-1.81-4.62-.06-6.4h0c1.75-1.78,4.62-1.81,6.4-.06Z" fill="#010101" stroke-width="0"/>
</svg>