<?xml version="1.0" encoding="UTF-8"?>
<svg id="uuid-abe2bb25-16b3-4f3d-81fe-1d77382fcea9" data-name="Layer 2" xmlns="http://www.w3.org/2000/svg" viewBox="0 0 110 72">
  <g id="uuid-083a3de6-7f42-48b4-95e7-988b48df29b1" data-name="Layer 2">
    <g>
      <rect x=".5" y=".5" width="109" height="71" fill="#2557d6" stroke="#959696" stroke-miterlimit="10"/>
      <g>
        <path d="m7.1,2.36h95.45c3.01,0,5.45,2.44,5.45,5.45v57.27c0,3.01-2.44,5.45-5.45,5.45H7.1c-3.01,0-5.45-2.44-5.45-5.45V7.82c0-3.01,2.44-5.45,5.45-5.45Z" fill="#2557d6"/>
        <path d="m1.68,34.5h5.11l1.15-2.66h2.58l1.15,2.66h10.04v-2.03l.9,2.04h5.21l.9-2.07v2.06h24.96v-4.37s.47,0,.47,0c.34.01.44.04.44.58v3.79h12.91v-1.02c1.04.53,2.66,1.02,4.79,1.02h5.43l1.16-2.66h2.58l1.14,2.66h10.47v-2.53l1.59,2.53h8.39v-16.7h-8.3v1.97l-1.16-1.97h-8.52v1.97l-1.07-1.97h-11.51c-1.93,0-3.62.26-4.99.98v-.98h-7.94v.98c-.87-.74-2.06-.98-3.37-.98h-29.01l-1.95,4.31-2-4.31h-9.14v1.97l-1-1.97h-7.79l-3.62,7.94v8.76h0Zm32.23-2.41h-3.06v-9.38s-4.34,9.38-4.34,9.38h-2.62l-4.34-9.39v9.39h-6.08l-1.15-2.67h-6.22l-1.16,2.67H1.68l5.35-11.98h4.44l5.08,11.34v-11.34h4.88l3.91,8.12,3.59-8.12h4.97v11.98Zm-22.62-5.16l-2.05-4.77-2.03,4.77h4.08Zm34.81,5.16h-9.98v-11.98h9.98v2.49h-6.99v2.16h6.83v2.46h-6.83v2.39h6.99v2.48Zm14.07-8.75c0,1.91-1.33,2.9-2.11,3.19.65.24,1.21.66,1.48,1.01.42.6.49,1.13.49,2.2v2.35h-3.01v-1.51c-.01-.72.06-1.76-.48-2.33-.44-.42-1.1-.51-2.18-.51h-3.21v4.36h-2.99v-11.98h6.87c1.53,0,2.65.04,3.62.57.95.54,1.51,1.32,1.51,2.65h0Zm-3.78,1.78c-.41.24-.9.25-1.48.25h-3.63v-2.66h3.68c.52,0,1.06.02,1.42.22.39.17.63.55.63,1.06s-.23.94-.62,1.14Zm8.57,6.97h-3.05v-11.98h3.05v11.98Zm35.39,0h-4.23l-5.66-8.99v8.99h-6.09l-1.16-2.67h-6.21l-1.13,2.67h-3.5c-1.45,0-3.29-.31-4.33-1.32-1.05-1.02-1.6-2.39-1.6-4.57,0-1.78.33-3.4,1.61-4.68.97-.96,2.48-1.4,4.54-1.4h2.89v2.57h-2.83c-1.09,0-1.71.16-2.3.71-.51.5-.86,1.46-.86,2.71s.27,2.21.82,2.81c.46.47,1.3.62,2.08.62h1.34l4.21-9.42h4.48l5.06,11.33v-11.33h4.55l5.25,8.34v-8.34h3.06v11.98Zm-18.16-5.16l-2.07-4.77-2.06,4.77h4.12Zm25.78,24.28c-.73,1.02-2.14,1.53-4.05,1.53h-5.77v-2.57h5.75c.57,0,.97-.07,1.21-.3.23-.2.36-.48.35-.78,0-.35-.15-.63-.37-.79-.22-.18-.53-.27-1.05-.27-2.81-.09-6.31.08-6.31-3.71,0-1.74,1.15-3.57,4.29-3.57h5.95v-2.38h-5.53c-1.67,0-2.88.38-3.74.98v-.98h-8.18c-1.31,0-2.84.31-3.57.98v-.98h-14.61v.98c-1.16-.8-3.12-.98-4.03-.98h-9.63v.98c-.92-.85-2.96-.98-4.21-.98h-10.78l-2.47,2.56-2.31-2.56h-16.11v16.72h15.8l2.54-2.6,2.4,2.6h9.74s0-3.92,0-3.92h.96c1.29.02,2.82-.03,4.16-.59v4.51h8.03v-4.36h.39c.49,0,.54.02.54.49v3.86h24.41c1.55,0,3.17-.38,4.07-1.07v1.07h7.74c1.61,0,3.18-.22,4.38-.77v-3.11s0,0,0,0Zm-48.4-6.43c0,3.33-2.59,4.01-5.2,4.01h-3.73v4.02h-5.81l-3.68-3.97-3.82,3.97h-11.84v-11.98h12.02l3.68,3.93,3.8-3.93h9.55c2.37,0,5.04.63,5.04,3.95Zm-23.76,5.51h-7.35v-2.38h6.56v-2.44h-6.56v-2.18h7.49l3.27,3.49-3.41,3.51Zm11.84,1.37l-4.59-4.88,4.59-4.72v9.6Zm6.78-5.33h-3.86v-3.05h3.9c1.08,0,1.83.42,1.83,1.47s-.71,1.58-1.86,1.58Zm20.23-5.5h9.97v2.48h-7v2.18h6.83v2.44h-6.83v2.38h7v2.5h-9.97v-11.98Zm-3.83,6.41c.67.24,1.21.66,1.46,1.01.42.59.48,1.13.5,2.19v2.37h-3v-1.5c0-.72.07-1.79-.48-2.34-.44-.43-1.1-.53-2.19-.53h-3.19v4.38h-3v-11.98h6.9c1.51,0,2.61.06,3.6.57.94.55,1.54,1.29,1.54,2.66,0,1.91-1.33,2.89-2.12,3.19h0Zm-1.69-1.51c-.4.23-.89.25-1.48.25h-3.63v-2.69h3.68c.53,0,1.06.01,1.43.22.39.19.62.57.62,1.08s-.23.93-.62,1.15h0Zm26.97.76c.58.58.89,1.31.89,2.54,0,2.58-1.68,3.78-4.69,3.78h-5.82v-2.57h5.8c.57,0,.97-.07,1.22-.3.21-.19.35-.45.35-.78,0-.35-.16-.63-.36-.79-.23-.18-.54-.27-1.06-.27-2.79-.09-6.29.08-6.29-3.71,0-1.74,1.14-3.57,4.27-3.57h5.99v2.55h-5.48c-.54,0-.9.02-1.2.22-.33.19-.45.48-.45.86,0,.45.28.76.65.89.32.1.65.14,1.16.14l1.61.04c1.62.04,2.74.31,3.41.96h0Zm11.86-3.21h-5.45c-.54,0-.91.02-1.21.22-.32.19-.44.48-.44.86,0,.45.27.76.65.89.32.11.65.14,1.15.14l1.62.04c1.63.04,2.72.31,3.39.96.12.09.19.19.28.3v-3.41h0Z" fill="#fff"/>
      </g>
    </g>
  </g>
</svg>