<?xml version="1.0" encoding="UTF-8"?>
<svg id="uuid-73b9177b-02fa-4bb4-bf96-a807cd88a547" data-name="Layer 2" xmlns="http://www.w3.org/2000/svg" viewBox="0 0 110 72">
  <g id="uuid-bdc58418-8dba-46c2-a91f-1e3b9e7e536f" data-name="Layer 2">
    <g>
      <rect x=".5" y=".5" width="109" height="71" fill="none" stroke="#959696" stroke-miterlimit="10"/>
      <rect x=".93" y="1" width="108.07" height="46" fill="#4d4d4d"/>
      <rect x="1" y="39" width="52" height="32" fill="#4d4d4d"/>
      <g>
        <path d="m9.32,1.75C5.15,1.75,1.76,5.16,1.76,9.36v54.04c0,4.2,3.38,7.6,7.56,7.6h92.12c4.17,0,7.56-3.4,7.56-7.6V9.36c0-4.2-3.38-7.6-7.56-7.6H9.32Z" fill="#4d4d4d" fill-rule="evenodd"/>
        <path d="m46.74,24.01c1.21,0,2.23.25,3.47.84v3.13c-1.17-1.08-2.19-1.53-3.54-1.53-2.65,0-4.73,2.06-4.73,4.68,0,2.76,2.02,4.7,4.86,4.7,1.28,0,2.28-.43,3.41-1.49v3.13c-1.28.57-2.33.79-3.54.79-4.3,0-7.64-3.11-7.64-7.11s3.43-7.13,7.71-7.13h0Zm-13.35.09c1.59,0,3.04.51,4.25,1.51l-1.48,1.82c-.74-.78-1.43-1.1-2.28-1.1-1.22,0-2.1.65-2.1,1.51,0,.74.5,1.13,2.19,1.72,3.21,1.11,4.16,2.09,4.16,4.25,0,2.64-2.06,4.48-4.99,4.48-2.15,0-3.71-.8-5.01-2.59l1.82-1.65c.65,1.18,1.74,1.82,3.08,1.82,1.26,0,2.19-.82,2.19-1.92,0-.57-.28-1.06-.85-1.41-.28-.16-.85-.41-1.95-.78-2.65-.9-3.56-1.86-3.56-3.74,0-2.23,1.95-3.91,4.52-3.91Zm32.27.24h3.08l3.86,9.16,3.91-9.16h3.06l-6.25,13.98h-1.52l-6.14-13.98Zm-54.63.02h4.15c4.58,0,7.77,2.8,7.77,6.82,0,2.01-.98,3.95-2.63,5.23-1.39,1.09-2.97,1.57-5.17,1.57h-4.12v-13.63Zm13.22,0h2.82v13.63h-2.82v-13.63Zm56.61,0h8.01v2.31h-5.19v3.03h5v2.31h-5v3.68h5.19v2.31h-8.01v-13.63h0Zm9.88,0h4.19c3.26,0,5.12,1.47,5.12,4.02,0,2.09-1.17,3.46-3.3,3.86l4.56,5.74h-3.47l-3.91-5.48h-.37v5.48h-2.82v-13.63Zm2.82,2.15v4.13h.83c1.8,0,2.76-.74,2.76-2.11s-.96-2.02-2.71-2.02h-.87Zm-79.7.16v9.01h.76c1.82,0,2.98-.33,3.86-1.08.98-.82,1.56-2.13,1.56-3.43s-.59-2.57-1.56-3.39c-.93-.79-2.04-1.1-3.86-1.1h-.76Z" fill="#fff" fill-rule="evenodd"/>
        <path d="m58.84,23.92c4.25,0,7.7,3.27,7.7,7.3h0c0,4.04-3.45,7.31-7.7,7.31s-7.7-3.27-7.7-7.31h0c0-4.04,3.45-7.31,7.7-7.31h0Zm50.16,17.62c-3.58,2.54-30.4,20.69-76.82,29.46h69.26c4.17,0,7.56-3.41,7.56-7.62v-21.84h0Z" fill="#f47216" fill-rule="evenodd"/>
      </g>
      <rect x="77" y="59" width="32" height="12" fill="#f47216"/>
    </g>
  </g>
</svg>