<?xml version="1.0" encoding="UTF-8"?>
<svg id="uuid-d2933ad9-91d9-42eb-a2ac-2946c6f0876d" data-name="Layer 2" xmlns="http://www.w3.org/2000/svg" viewBox="0 0 126 72">
  <g id="uuid-4ddd8c0e-ce90-41bf-a96f-d60b17f31443" data-name="Layer 2">
    <g>
      <rect x=".5" y=".5" width="125" height="71" fill="#ffb3c7" stroke="#959696" stroke-miterlimit="10"/>
      <g>
        <g>
          <path d="m109.27,30.3c-4.11-2.8-9.7-1.74-12.5,2.37-2.8,4.11-1.74,9.7,2.37,12.5,3.06,2.08,7.08,2.08,10.13,0v1.09h5.11v-17.05h-5.11v1.09Zm-4.64,11.82c-2.42-.13-4.28-2.2-4.15-4.62.13-2.42,2.2-4.28,4.62-4.15,2.33.12,4.16,2.05,4.16,4.39-.07,2.49-2.14,4.45-4.63,4.39Z"/>
          <rect x="33.91" y="21.61" width="5.34" height="24.65"/>
          <path d="m86.14,28.75c-2.04-.12-4,.77-5.26,2.38v-1.92h-5.08v17.05h5.15v-8.96c-.15-1.98,1.33-3.71,3.31-3.86.17-.01.35-.01.52,0,2.24,0,3.53,1.34,3.53,3.83v9h5.1v-10.84c0-3.97-3.16-6.67-7.27-6.67Z"/>
          <path d="m55.41,30.3c-4.11-2.8-9.7-1.74-12.5,2.37-2.8,4.11-1.74,9.7,2.37,12.5,3.06,2.08,7.08,2.08,10.13,0v1.09h5.11v-17.05h-5.11v1.09Zm-4.64,11.82c-2.42-.13-4.28-2.2-4.15-4.62.13-2.42,2.2-4.28,4.62-4.15,2.33.12,4.16,2.05,4.16,4.39-.07,2.49-2.14,4.45-4.63,4.39h0Z"/>
          <path d="m68.41,31.43v-2.22h-5.23v17.05h5.24v-7.96c0-2.69,2.91-4.13,4.93-4.13.02,0,.04,0,.06,0v-4.96c-1.92-.05-3.76.76-5,2.22Z"/>
          <path d="m119.8,40.22c-1.77,0-3.2,1.43-3.2,3.2,0,1.77,1.43,3.2,3.2,3.2,1.77,0,3.2-1.43,3.2-3.2,0-1.77-1.43-3.2-3.2-3.2h0Z"/>
          <path d="m30.23,21.61h-5.54c.02,4.5-2.11,8.75-5.73,11.43l-2.19,1.64,8.5,11.59h6.99l-7.82-10.67c3.73-3.7,5.81-8.75,5.79-14Z"/>
        </g>
        <rect x="10.55" y="21.61" width="5.55" height="24.66"/>
      </g>
    </g>
  </g>
</svg>