<?xml version="1.0" encoding="UTF-8"?>
<svg id="uuid-9bdba464-e13f-4336-8c76-ef9be5078084" data-name="Layer 2" xmlns="http://www.w3.org/2000/svg" viewBox="0 0 126 72">
  <g id="uuid-053f75a0-1790-4a78-a051-d0352cdc44ee" data-name="Layer 2">
    <g>
      <rect x=".5" y=".5" width="125" height="71" fill="none" stroke="#959696" stroke-miterlimit="10"/>
      <g>
        <path d="m72.1,33.98c0,16-12.97,28.97-28.97,28.97s-28.97-12.97-28.97-28.97S27.13,5.01,43.13,5.01s28.97,12.97,28.97,28.97" fill="#d9222a"/>
        <path d="m82.03,5.01c-7.49,0-14.31,2.84-19.45,7.5-1.05.95-2.03,1.98-2.93,3.07h5.85c.8.97,1.54,2,2.21,3.07h-10.27c-.62.99-1.18,2.01-1.67,3.07h13.61c.47,1,.88,2.02,1.23,3.07h-16.06c-.34,1.01-.62,2.03-.84,3.07h17.74c.43,2.02.65,4.07.65,6.13,0,3.22-.53,6.31-1.49,9.2h-16.06c.35,1.05.76,2.07,1.23,3.07h13.61c-.49,1.06-1.05,2.08-1.67,3.07h-10.27c.67,1.07,1.41,2.09,2.21,3.07h5.85c-.9,1.09-1.88,2.12-2.93,3.07,5.14,4.66,11.96,7.5,19.45,7.5,16,0,28.97-12.97,28.97-28.97s-12.97-28.97-28.97-28.97" fill="#ee9f2d"/>
        <path d="m107.14,50.13c0-.52.42-.94.94-.94s.94.42.94.94-.42.94-.94.94-.94-.42-.94-.94Zm.94.71c.39,0,.71-.32.71-.71,0-.39-.32-.71-.71-.71h0c-.39,0-.71.32-.71.71h0c0,.39.32.71.71.71,0,0,0,0,0,0h0Zm-.13-.3h-.19v-.82h.35c.07,0,.15,0,.21.04.07.05.1.12.1.21,0,.09-.05.18-.14.21l.15.36h-.21l-.13-.33h-.14v.33Zm0-.47h.11s.08,0,.12-.02c.03-.02.05-.06.05-.09,0-.03-.02-.06-.05-.08-.03-.02-.09-.02-.12-.02h-.1v.21Zm-71.58-12.92c-.33-.04-.48-.05-.7-.05-1.78,0-2.69.61-2.69,1.82,0,.74.44,1.22,1.13,1.22,1.28,0,2.2-1.22,2.26-2.99h0Zm2.29,5.33h-2.61l.06-1.24c-.8.98-1.86,1.44-3.3,1.44-1.7,0-2.87-1.33-2.87-3.26,0-2.91,2.03-4.61,5.52-4.61.36,0,.81.03,1.28.09.1-.39.12-.56.12-.77,0-.79-.55-1.09-2.02-1.09-1.54-.02-2.81.37-3.33.54.03-.2.44-2.69.44-2.69,1.57-.46,2.6-.63,3.76-.63,2.7,0,4.13,1.21,4.13,3.5,0,.61-.1,1.37-.25,2.37-.27,1.73-.86,5.44-.94,6.35h0Zm-10.03,0h-3.15l1.8-11.3-4.02,11.3h-2.14l-.27-11.23-1.89,11.23h-2.94l2.46-14.7h4.52l.27,8.23,2.76-8.23h5.03l-2.43,14.7Zm57.29-5.33c-.33-.04-.47-.05-.7-.05-1.78,0-2.68.61-2.68,1.82,0,.74.44,1.22,1.13,1.22,1.28,0,2.21-1.22,2.26-2.99h0Zm2.29,5.33h-2.61l.06-1.24c-.8.98-1.86,1.44-3.3,1.44-1.71,0-2.87-1.33-2.87-3.26,0-2.91,2.03-4.61,5.52-4.61.36,0,.81.03,1.28.09.1-.39.12-.56.12-.77,0-.79-.55-1.09-2.02-1.09-1.54-.02-2.81.37-3.33.54.03-.2.44-2.69.44-2.69,1.57-.46,2.6-.63,3.76-.63,2.7,0,4.13,1.21,4.13,3.5,0,.61-.1,1.37-.25,2.37-.27,1.73-.86,5.44-.94,6.35h0Zm-35.57-.18c-.86.27-1.53.39-2.26.39-1.61,0-2.49-.92-2.49-2.63-.02-.53.23-1.92.43-3.19.18-1.12,1.36-8.16,1.36-8.16h3.13l-.37,1.81h1.89l-.43,2.87h-1.9c-.36,2.27-.88,5.1-.89,5.48,0,.62.33.88,1.08.88.36,0,.64-.04.85-.11l-.42,2.65Zm9.59-.1c-1.07.33-2.11.49-3.21.48-3.5,0-5.32-1.83-5.32-5.33,0-4.09,2.32-7.09,5.47-7.09,2.58,0,4.22,1.68,4.22,4.32,0,.88-.11,1.73-.39,2.94h-6.23c-.21,1.73.9,2.46,2.72,2.46,1.12,0,2.13-.23,3.25-.75l-.52,2.97Zm-1.76-7.09c.02-.25.33-2.13-1.45-2.13-1,0-1.71.76-2,2.13h3.45Zm-19.92-.81c0,1.51.73,2.55,2.4,3.34,1.27.6,1.47.78,1.47,1.32,0,.75-.56,1.08-1.81,1.08-.94,0-1.81-.15-2.82-.47,0,0-.41,2.63-.43,2.76.71.16,1.35.3,3.27.35,3.32,0,4.85-1.26,4.85-3.99,0-1.64-.64-2.61-2.22-3.33-1.32-.61-1.47-.74-1.47-1.3,0-.65.52-.98,1.54-.98.62,0,1.46.07,2.26.18l.45-2.77c-.81-.13-2.05-.23-2.77-.23-3.52,0-4.74,1.84-4.73,4.05m36.98-3.73c.87,0,1.69.23,2.81.79l.51-3.19c-.46-.18-2.08-1.24-3.46-1.24-2.1,0-3.88,1.04-5.14,2.77-1.83-.6-2.58.62-3.5,1.83l-.82.19c.06-.4.12-.8.1-1.2h-2.89c-.39,3.7-1.09,7.45-1.64,11.15l-.14.8h3.15c.53-3.41.81-5.6.99-7.08l1.18-.66c.18-.66.73-.88,1.84-.85-.15.81-.22,1.63-.22,2.45,0,3.91,2.11,6.34,5.5,6.34.87,0,1.62-.11,2.78-.43l.55-3.35c-1.04.51-1.9.75-2.67.75-1.83,0-2.93-1.35-2.93-3.58,0-3.24,1.65-5.51,3.99-5.51"/>
        <path d="m29.53,41.61h-3.15l1.8-11.3-4.02,11.3h-2.14l-.27-11.23-1.89,11.23h-2.94l2.46-14.69h4.52l.13,9.1,3.05-9.1h4.89l-2.43,14.69Z" fill="#fff"/>
        <path d="m104.14,27.79l-.7,4.25c-.86-1.13-1.78-1.95-3-1.95-1.59,0-3.03,1.2-3.98,2.97-1.32-.27-2.68-.74-2.68-.74h0c.11-.98.15-1.58.14-1.79h-2.89c-.39,3.7-1.09,7.45-1.64,11.15l-.14.8h3.15c.42-2.76.75-5.05.99-6.87,1.07-.97,1.61-1.82,2.7-1.76-.48,1.16-.76,2.5-.76,3.88,0,2.99,1.51,4.96,3.8,4.96,1.15,0,2.04-.4,2.9-1.32l-.15,1.11h2.98l2.4-14.69h-3.1Zm-3.93,11.93c-1.07,0-1.61-.79-1.61-2.36,0-2.35,1.01-4.01,2.44-4.01,1.08,0,1.67.82,1.67,2.34,0,2.37-1.03,4.03-2.49,4.03h0Z"/>
        <path d="m37.27,36.29c-.33-.04-.48-.05-.7-.05-1.78,0-2.68.61-2.68,1.82,0,.74.44,1.22,1.13,1.22,1.28,0,2.21-1.22,2.26-2.99h0Zm2.29,5.32h-2.61l.06-1.24c-.79.98-1.86,1.44-3.3,1.44-1.71,0-2.87-1.33-2.87-3.26,0-2.91,2.03-4.61,5.52-4.61.36,0,.81.03,1.28.09.1-.39.12-.56.12-.78,0-.79-.55-1.09-2.02-1.09-1.54-.02-2.81.37-3.33.54.03-.2.44-2.69.44-2.69,1.57-.46,2.6-.63,3.76-.63,2.7,0,4.13,1.21,4.13,3.5,0,.62-.1,1.37-.26,2.37-.27,1.73-.86,5.44-.94,6.35h0Zm42.19-14.3l-.52,3.19c-1.12-.56-1.94-.79-2.81-.79-2.35,0-3.99,2.27-3.99,5.5,0,2.23,1.11,3.58,2.93,3.58.77,0,1.63-.24,2.67-.75l-.55,3.35c-1.16.32-1.91.43-2.78.43-3.39,0-5.5-2.43-5.5-6.34,0-5.25,2.91-8.93,7.08-8.93,1.37,0,3,.58,3.46.76m5.07,8.98c-.33-.04-.47-.05-.7-.05-1.78,0-2.68.61-2.68,1.82,0,.74.44,1.22,1.13,1.22,1.28,0,2.21-1.22,2.26-2.99h0Zm2.29,5.32h-2.61l.06-1.24c-.79.98-1.86,1.44-3.3,1.44-1.7,0-2.87-1.33-2.87-3.26,0-2.91,2.03-4.61,5.52-4.61.36,0,.81.03,1.28.09.1-.39.12-.56.12-.78,0-.79-.55-1.09-2.02-1.09-1.54-.02-2.81.37-3.33.54.03-.2.44-2.69.44-2.69,1.57-.46,2.6-.63,3.76-.63,2.7,0,4.13,1.21,4.13,3.5,0,.62-.1,1.37-.25,2.37-.27,1.73-.86,5.44-.94,6.35h0Zm-35.57-.18c-.86.27-1.53.39-2.26.39-1.61,0-2.49-.92-2.49-2.63-.02-.53.23-1.92.43-3.19.18-1.12,1.36-8.16,1.36-8.16h3.13l-.36,1.81h1.6l-.43,2.87h-1.61c-.36,2.27-.88,5.1-.89,5.48,0,.62.33.88,1.08.88.36,0,.64-.03.85-.11l-.42,2.65Zm9.59-.1c-1.07.33-2.11.49-3.21.48-3.5,0-5.32-1.83-5.32-5.33,0-4.09,2.32-7.09,5.47-7.09,2.58,0,4.22,1.68,4.22,4.33,0,.88-.11,1.73-.38,2.94h-6.23c-.21,1.73.9,2.46,2.72,2.46,1.12,0,2.13-.23,3.25-.75l-.52,2.97Zm-1.76-7.09c.02-.25.33-2.13-1.45-2.13-1,0-1.71.76-2,2.13h3.45Zm-19.92-.81c0,1.51.73,2.55,2.4,3.34,1.27.6,1.47.78,1.47,1.32,0,.75-.56,1.08-1.81,1.08-.94,0-1.81-.15-2.82-.47,0,0-.41,2.63-.43,2.76.71.16,1.35.3,3.27.35,3.32,0,4.85-1.26,4.85-3.99,0-1.64-.64-2.61-2.22-3.33-1.32-.61-1.47-.74-1.47-1.3,0-.65.52-.98,1.54-.98.62,0,1.46.07,2.26.18l.45-2.77c-.81-.13-2.05-.23-2.77-.23-3.52,0-4.74,1.84-4.73,4.05m64.31,8.17h-2.98l.15-1.11c-.86.92-1.75,1.32-2.9,1.32-2.29,0-3.8-1.97-3.8-4.96,0-3.98,2.34-7.33,5.12-7.33,1.22,0,2.14.5,3,1.63l.7-4.25h3.1l-2.4,14.69Zm-4.64-2.76c1.46,0,2.49-1.66,2.49-4.03,0-1.52-.59-2.34-1.67-2.34-1.43,0-2.44,1.66-2.44,4.01,0,1.56.54,2.35,1.61,2.35Zm-9.17-9.19c-.39,3.7-1.09,7.45-1.64,11.15l-.14.8h3.15c1.13-7.31,1.4-8.73,3.16-8.56.28-1.5.8-2.81,1.19-3.47-1.32-.27-2.05.47-3.02,1.88.08-.61.22-1.21.19-1.81h-2.89Zm-25.89,0c-.39,3.7-1.09,7.45-1.64,11.15l-.14.8h3.15c1.12-7.31,1.4-8.73,3.16-8.56.28-1.5.81-2.81,1.19-3.47-1.32-.27-2.05.47-3.01,1.88.08-.61.21-1.21.19-1.81h-2.89Zm41.09,11.01c0-.52.42-.94.93-.94h0c.52,0,.93.42.94.93h0c0,.52-.42.94-.94.94-.52,0-.94-.42-.94-.94h0Zm.94.71c.39,0,.71-.32.71-.71h0c0-.39-.32-.71-.71-.71h0c-.39,0-.71.32-.71.71,0,.39.32.71.71.71h0Zm-.13-.3h-.19v-.82h.35c.07,0,.15,0,.21.04.07.05.11.12.11.21,0,.09-.05.18-.14.21l.15.36h-.21l-.13-.32h-.14v.32Zm0-.46h.11s.08,0,.12-.02c.03-.02.05-.06.05-.09,0-.03-.02-.07-.05-.08-.03-.02-.09-.01-.12-.01h-.1v.21Z" fill="#fff"/>
      </g>
    </g>
  </g>
</svg>