<?xml version="1.0" encoding="UTF-8"?>
<svg id="uuid-6dd3e37a-c90e-490c-a5f9-766f7489cb86" data-name="Layer 2" xmlns="http://www.w3.org/2000/svg" viewBox="0 0 126 72">
  <g id="uuid-ca0aad53-c87a-4dd1-a57d-cfd25f71bd92" data-name="Layer 2">
    <g>
      <g>
        <path d="m43.2,52.61l5.61-32.94h8.98l-5.62,32.94h-8.97Zm41.41-32.23c-1.78-.67-4.57-1.38-8.05-1.38-8.87,0-15.12,4.47-15.17,10.87-.05,4.73,4.46,7.37,7.87,8.95,3.49,1.61,4.67,2.64,4.65,4.09-.02,2.21-2.79,3.22-5.37,3.22-3.59,0-5.5-.5-8.45-1.73l-1.16-.52-1.26,7.37c2.1.92,5.97,1.72,10,1.76,9.44,0,15.56-4.42,15.63-11.25.03-3.75-2.36-6.6-7.54-8.95-3.14-1.52-5.06-2.54-5.04-4.08,0-1.37,1.63-2.83,5.14-2.83,2.94-.05,5.06.59,6.72,1.26l.8.38,1.22-7.14Zm23.1-.71h-6.94c-2.15,0-3.76.59-4.7,2.73l-13.33,30.19h9.43s1.54-4.06,1.89-4.95c1.03,0,10.19.01,11.5.01.27,1.15,1.09,4.94,1.09,4.94h8.33l-7.27-32.92h0Zm-11.01,21.27c.74-1.9,3.58-9.21,3.58-9.21-.05.09.74-1.91,1.19-3.14l.61,2.84s1.72,7.86,2.08,9.51h-7.45Zm-61.13-21.27l-8.79,22.46-.94-4.56c-1.64-5.26-6.73-10.96-12.43-13.82l8.04,28.81h9.5s14.13-32.89,14.13-32.89h-9.51" fill="#0e4595"/>
        <path d="m18.59,19.67H4.11l-.11.69c11.26,2.73,18.72,9.32,21.81,17.23l-3.15-15.14c-.54-2.09-2.12-2.71-4.07-2.78" fill="#f2ae14"/>
      </g>
      <rect x=".5" y=".5" width="125" height="71" fill="none" stroke="#959696" stroke-miterlimit="10"/>
    </g>
  </g>
</svg>