<?xml version="1.0" encoding="UTF-8"?>
<svg id="uuid-54726046-ae30-482a-9e21-86d803982506" data-name="uuid-37429c5f-fd36-4471-a7b7-7eca750a86d6" xmlns="http://www.w3.org/2000/svg" xmlns:xlink="http://www.w3.org/1999/xlink" viewBox="0 0 508.86 369">
  <defs>
    <clipPath id="uuid-6ea26c44-37e6-4f94-a8f8-5d399e62eeb8">
      <rect y="-124" width="508.86" height="576.21" fill="none" stroke-width="0"/>
    </clipPath>
  </defs>
  <g clip-path="url(#uuid-6ea26c44-37e6-4f94-a8f8-5d399e62eeb8)">
    <path d="m365.96,7.63c2.02.36,3.91.94,5.92,1.15,2.08.27,4.18.97,6.47,1.68,2.33.65,4.61,1.4,6.77,2.37,1.04.44,2.1.86,3.49,1.48,1.4.62,3.13,1.45,4.56,2.17,1.42.71,2.54,1.31,3.64,1.92,1.11.61,2.2,1.23,2.97,1.76.77.52,1.22.95,1.72,1.32.5.37,1.05.67,2.15,1.42,1.1.74,2.75,1.93,4.59,3.43,1.85,1.51,3.89,3.34,5.2,4.47s1.89,1.55,2.44,2.01c1.21.93,2.23,2.34,3.39,3.74.62.73,1.3,1.41,2.11,2.39.82.98,1.78,2.25,2.75,3.52s1.94,2.55,3.16,4.27c1.23,1.72,2.71,3.88,3.91,5.72,1.19,1.84,2.11,3.35,3.44,5.74,1.33,2.39,3.08,5.65,5.38,11.56,2.3,5.9,5.15,14.44,7.35,23.06,2.19,8.62,3.74,17.31,4.03,29.92.29,12.61-.68,29.15-6.49,44.7-5.8,15.56-16.45,30.14-23.44,39.09-6.98,8.95-10.3,12.28-12.83,14.65s-4.27,3.8-6.12,5.07h-32.26c1.85-1.92,3.7-3.82,5.35-5.49,3.31-3.26,5.7-6.01,8.16-9.01,1.23-1.46,2.51-2.87,9.57-14.18s19.9-32.5,23.8-51.18-1.13-34.85-6.17-46.59c-5.05-11.74-10.11-19.05-14.1-24.34-3.99-5.28-6.9-8.54-9.02-10.72-2.11-2.18-3.42-3.28-4.77-4.41-1.35-1.12-2.75-2.27-4.69-3.74-1.95-1.48-4.44-3.29-6.84-4.69s-4.69-2.41-6.69-3.27c-1.99-.87-3.69-1.61-5.72-2.35-2.04-.75-4.42-1.5-7.4-2.22-2.98-.72-6.56-1.4-10.16-1.92h-12.39c-3.93.7-7.85,1.5-10.59,2.12-2.73.62-4.29,1.06-7.74,2.49-3.45,1.44-8.79,3.87-12.13,5.56-3.33,1.68-4.67,2.61-6.75,4.19s-4.91,3.8-7.94,6.55-6.25,6.03-9.05,9.15c-2.79,3.13-5.15,6.11-8.01,10.58-2.86,4.47-6.23,10.43-8.15,14.11-1.92,3.67-2.39,5.05-2.64,6.48-1.21-2.03-2.4-4.07-3.53-6.15-1.14-2.08-2.23-4.19-4.46-7.78-2.22-3.59-5.58-8.67-8.11-12.1-2.53-3.44-4.22-5.24-8.12-9.17-3.91-3.93-10.03-9.99-17.69-14.65-7.66-4.66-16.85-7.92-25.14-9.33-8.28-1.4-15.65-.94-20.76-.42-5.1.52-7.94,1.1-10.46,1.78s-4.72,1.47-7.4,2.51c-2.69,1.04-5.86,2.32-8.41,3.55s-4.48,2.42-6.09,3.44c-3.04,1.99-5.29,3.43-7.85,5.6-1.2,1.05-2.35,2.26-3.55,3.44-1.19,1.18-2.42,2.33-4.04,4.08-1.61,1.75-3.61,4.1-5.55,6.72-1.94,2.63-3.81,5.54-5.18,7.8-1.36,2.26-2.22,3.88-2.82,5.05-.6,1.18-.94,1.92-1.29,2.64-.36.73-.72,1.44-1.25,2.76-.53,1.33-1.22,3.27-1.98,5.19-.76,1.93-1.58,3.84-2.15,7.5-.56,3.66-.87,9.06-1.1,11.95-.23,2.89-.37,3.26-.5,3.63-.21,1.06-1.11,2.06-2.06,3.09-11.7,2.61-23.44,5.13-29.45,6.36-6.01,1.23-6.29,1.17-6.53,1.06-.67-.26-.74-.82-.72-1.41.03-.36.13-.74.29-4.86s.37-11.98.66-16.54c.28-4.56.64-5.81,1.04-7.74.4-1.93.84-4.54,1.31-6.72.46-2.18.94-3.94,1.37-5.72s.81-3.58,1.21-5.03.83-2.57,1.24-3.69c.41-1.13.8-2.27,1.26-3.68.46-1.41.99-3.09,1.58-4.57.58-1.48,1.21-2.76,2.06-4.57.85-1.82,1.92-4.18,2.88-6.09s1.81-3.38,2.96-5.26c1.15-1.88,2.6-4.17,3.91-6.19,1.32-2.03,2.5-3.79,4.08-5.79,1.57-2,3.54-4.23,5.98-6.74,2.44-2.51,5.37-5.3,7.43-7.2,2.06-1.91,3.25-2.94,4.47-3.92,2.29-1.5,4.61-2.97,6.86-4.38s4.44-2.76,7.36-4.2,6.57-2.96,9.57-4.08c3.01-1.13,5.38-1.86,8.1-2.6s5.79-1.49,9.15-1.9c3.36-.41,7.01-.47,12.65-.15,5.65.31,13.29.99,18.71,1.92s8.6,2.1,11.12,3.01c2.51.91,4.35,1.54,8.1,3.61s9.41,5.56,15.66,10.07,13.1,10.03,18.74,15.12,10.08,9.75,14.33,15.51c4.26,5.76,8.33,12.63,11.72,19.82,3.25-6.2,6.88-12.2,10.75-17.8s7.98-10.8,13.25-16.64,11.7-12.31,19.16-17.6,15.95-9.4,20.45-11.57c4.49-2.16,4.99-2.38,5.5-2.6,1.55-.83,3.77-.75,5.55-1.54.66-.23,1.39-.49,2.13-.71.74-.23,1.49-.43,2.69-.65,1.19-.22,2.82-.46,4.47-.71,1.66-.24,3.34-.49,4.6-.62,1.26-.13,2.1-.14,2.93-.13,1.61.11,2.99-.14,4.28-.52,1.67-.22,3.32-.04,4.99-.02.45.06.85.2,1.26.32.41.12.82.23,1.63.31,1.53.2,4.29-.02,6.48.19" fill="#f03" fill-rule="evenodd" stroke-width="0"/>
    <path d="m181.43,138.15c17.38,4.23,32.9,9.37,41.81,12.7,8.91,3.32,11.22,4.82,13.77,6.48,2.54,1.65,5.33,3.46,8.98,5.99s8.17,5.77,10.63,7.4c2.46,1.62,2.86,1.62,3.19,1.43,2.76-1.74,5.5-3.53,7.61-4.98s3.59-2.57,5.33-3.74c1.74-1.17,3.74-2.39,6.07-3.81,2.34-1.42,5.02-3.04,8.2-4.79,3.17-1.75,6.85-3.62,9.92-5.14,3.08-1.53,5.56-2.71,8.08-3.86,2.52-1.14,5.07-2.25,12.12-4.08s18.59-4.39,31.97-6.1c13.39-1.7,28.63-2.55,39.44-2.74,10.82-.19,17.22.27,23.53,1.34l-2.03,20.7c-13.1-.59-26.22-.48-39.16.34-12.93.82-25.67,2.34-35.08,4.06-9.42,1.72-15.51,3.63-20,5.11-4.5,1.48-7.39,2.51-10.15,3.64-5.43,2.22-10.69,4.86-16.03,7.84-2.61,1.47-5.17,2.99-6.88,4.08-3.27,2.07-3.79,2.8-4.06,4.02,1.33,1.35,2.69,2.67,3.65,3.57s1.53,1.38,2.11,1.85c.99.83,2,1.51,2.87,1.84.36.17.69.37,1.38.97,1.39,1.23,4,3.72,6.13,5.18,2.34,1.55,3.93,2.57,5.86,4.07,1.06.78,2.28,1.64,3.91,2.72,1.63,1.07,3.67,2.36,5.01,3.21,1.35.85,2,1.27,2.63,1.71.64.44,1.25.89,2.17,1.46.93.57,2.15,1.25,3.39,1.91,1.24.67,2.49,1.32,4.3,2.3,1.81.98,4.18,2.28,7.33,3.74s7.09,3.09,11.71,4.84,9.92,3.62,17.74,5.12c7.82,1.51,18.16,2.65,26.88,3.2,8.73.54,15.83.48,23.22-.08,7.38-.57,15.04-1.64,21.4-2.93,6.36-1.29,11.43-2.78,15.95-4.38,4.51-1.59,8.47-3.28,12.04-5.18,3.56-1.9,6.72-4.03,9.19-6.02,2.47-2,4.23-3.87,5.25-5.02s1.29-1.58,1.58-1.99c.29-.41.61-.81,1.09-1.69.49-.89,1.15-2.27,1.62-3.62.48-1.35.77-2.67.83-4.86.06-2.19-.12-5.25-.28-7.02s-.3-2.24-.74-3.27-1.19-2.62-1.98-3.91c-.78-1.29-1.6-2.27-3.11-3.78-1.51-1.51-3.72-3.54-6.02-5.48-2.5-1.4-5-2.8-6.72-3.79-1.71-.99-2.65-1.56-3.59-2.13l2.98-24.63c3.26.76,6.49,1.68,8.95,2.54,2.46.86,4.17,1.65,5.42,2.27,2.64,1.36,3.66,1.91,5.54,3.01.97.59,2.06,1.33,3.18,2.03,2.28,1.36,4.73,3.01,7.19,5.04,1.26,1,2.51,2.01,4.17,3.58,1.66,1.57,3.73,3.7,5.72,5.91,2.02,3.14,3.87,6.4,5.06,8.79s1.71,3.92,2.2,5.53c.49,1.6.94,3.27,1.28,5.32.34,2.04.57,4.45.55,6.55-.03,2.1-.31,3.89-.51,5.12-.19,1.23-.3,1.91-.57,2.89-.26.99-.69,2.28-1.14,3.55s-.92,2.53-1.73,4.09-1.96,3.44-2.73,4.67c-.77,1.23-1.16,1.8-1.55,2.37-.39.56-.78,1.11-1.61,1.96-.82.85-2.08,2-3.31,3.16-1.23,1.17-2.45,2.36-4.16,3.8-1.72,1.45-3.94,3.15-7.29,5.32-3.36,2.17-7.84,4.82-14.17,7.67-6.33,2.85-14.51,5.92-21.92,8.17-7.42,2.26-14.08,3.7-21.43,5.06-7.34,1.36-15.37,2.62-23.72,3.26s-17.02.64-26.23.46c-9.2-.18-18.96-.54-28.19-1.62-9.24-1.07-17.96-2.85-26.02-5.06s-15.48-4.85-20.19-6.58c-4.72-1.73-6.73-2.56-8.48-3.31-1.74-.75-3.21-1.41-4.72-2.15-2.87-1.4-5.84-3-8.59-4.38-1.3-.66-2.56-1.28-4.61-2.44s-4.88-2.86-7.32-4.4c-2.43-1.54-4.46-2.93-5.91-3.91s-2.31-1.56-3.2-2.19c-1.63-1.2-3.38-2.38-4.94-3.43-1.26-.93-2.27-1.82-3.14-1.69-.39,0-.82.06-1.24.16-1.88,1.21-3.75,2.44-5.6,3.69s-3.67,2.51-5.76,3.84-4.43,2.73-6.79,4.12c-2.36,1.39-4.72,2.78-8.01,4.55s-7.5,3.93-10.37,5.36-4.4,2.12-5.88,2.76c-1.48.64-2.92,1.22-4.21,1.76-1.28.54-2.41,1.03-3.46,1.43s-2.01.72-3.21,1.17-2.63,1.02-4.1,1.59c-1.47.58-2.99,1.15-5.44,1.84-2.46.69-5.86,1.5-8.01,1.96s-3.05.57-3.66.63c-.62.06-.95.06-1.25.03s-.57-.1-4.96-3.09-12.91-8.9-21.37-14.87c2.49-.68,5.01-1.25,8.83-1.87s8.95-1.31,13.42-2.08,8.27-1.64,10.94-2.26c2.68-.62,4.22-1.01,7.47-2.06,3.24-1.06,8.19-2.79,11.3-3.88s4.4-1.55,5.7-2.08c1.29-.53,2.6-1.13,3.91-1.7,1.32-.57,2.65-1.11,4.21-1.92,3.01-1.62,6.91-3.99,10.42-6.02,1.7-1.01,3.29-2.01,4.35-2.75,1.06-.74,1.58-1.23,2.03-1.78,0-.61.06-.65-.13-1.17-.13-.33-.38-.82-.69-1.25s-.69-.79-2.1-1.92-3.87-3.02-6.17-4.82c-2.31-1.81-4.47-3.54-6.31-4.9-3.86-2.77-6.34-4.5-9.5-6.8-1.65-1.16-3.46-2.35-5.56-3.67-2.1-1.32-4.5-2.76-6.01-3.67s-2.12-1.28-3.41-1.97c-1.29-.69-3.25-1.7-4.9-2.55-1.65-.85-2.98-1.53-4.99-2.57-2.01-1.04-4.69-2.44-15.88-5.51s-30.88-7.81-50.19-7.85c-19.31-.05-38.24,4.6-48.11,7.14-9.87,2.54-10.67,2.97-11.5,3.34-1.77.69-3.7,1.69-5.73,2.95-1.08.64-2.18,1.24-3.92,2.43-1.73,1.19-4.1,2.96-5.67,4.28-1.57,1.33-2.35,2.21-3.38,3.62-2.14,2.85-4.85,7.71-5.22,11.87-.22,2.09.02,4.04.32,5.84.29,1.8.62,3.45,1.41,5.2s2.02,3.6,2.91,4.8c.88,1.2,1.4,1.75,2.43,2.75,1.02,1,2.55,2.46,3.75,3.5s2.06,1.67,3.62,2.59c1.56.92,3.8,2.14,5.83,3.25,2.03,1.1,3.86,2.09,8.34,3.68,4.48,1.6,11.61,3.81,17.28,5.24s9.85,2.08,12.65,2.46,4.2.49,5.09.65,1.27.36,1.65.55c.38.19.75.37,6.13,4.23,5.38,3.85,15.75,11.38,26.09,18.95-.09.5.49.87-.82,1.53-.27.11-.55.17-2.45.16-1.9-.01-5.42-.1-8.92-.07-3.5.02-7,.15-14.47-.44s-18.92-1.9-30.41-4.64c-11.49-2.73-23.01-6.89-29.39-9.31-6.38-2.42-7.62-3.1-8.91-3.83-1.29-.73-2.64-1.52-4.37-2.59s-3.83-2.44-5.6-3.71c-1.78-1.27-3.23-2.45-5.37-4.34-2.14-1.89-4.98-4.49-7.34-7.44-2.35-2.95-4.22-6.24-5.66-10.04-1.44-3.8-2.45-8.11-2.78-12.58-.33-4.47.03-9.11,1.02-12.73.99-3.62,2.61-6.22,3.73-8.05,1.12-1.82,1.74-2.86,2.66-4.03.92-1.16,2.15-2.45,3.36-3.77s2.39-2.69,9.71-7.81c7.32-5.12,20.78-13.99,39.11-19.8s41.55-8.57,62.77-8.29c21.22.28,40.45,3.61,57.83,7.84" fill="#f03" fill-rule="evenodd" stroke-width="0"/>
    <path d="m94.96,161.85c.05.44,0,1.15.04,1.81s.18,1.28.39,2.92.5,4.32.8,6.27c.3,1.95.61,3.19,1.04,5s1,4.2,1.57,6.12c1.2,3.83,2.34,6.08,3.72,9.05.72,1.48,1.53,3.03,2.36,4.56,1.64,3.16,3.87,6.36,6.42,9.72,1.29,1.74,2.57,3.48,3.85,5.23,1.35,1.4,2.69,2.8,4.02,4.22,2.59,2.84,5.12,5.3,7.62,7.31,1.21,1.03,2.41,2.07,3.83,3.23s3.05,2.43,4.72,3.71c1.68,1.27,3.39,2.55,4.8,3.59,1.41,1.05,2.5,1.86,4.72,3.35,2.22,1.49,5.57,3.66,8.29,5.42,2.73,1.76,4.83,3.12,6.87,4.43s4.01,2.59,5.35,3.43c1.34.84,2.06,1.26,2.74,1.71,1.26.91,2.59,1.61,3.88,2.22.59.33,1.11.75,2.43,1.62,1.32.87,3.44,2.19,5.42,3.47,1.98,1.27,3.81,2.5,6.47,4.38s6.15,4.41,9.24,6.76c3.09,2.34,5.77,4.5,7.76,6.1,2,1.6,3.31,2.65,4.61,3.71s2.58,2.12,3.56,3.01,1.66,1.61,2.39,2.3c.72.68,1.49,1.33,2.81,2.52,1.32,1.19,3.18,2.92,8.03,8.55,4.85,5.64,12.68,15.18,18.29,22.1,5.61,6.92,8.98,11.23,12.28,15.6,3.14-4.63,6.5-9.11,12.71-16.66,6.21-7.54,15.25-18.15,21.4-24.79s9.4-9.31,12.77-12.04c3.37-2.74,6.86-5.54,12.7-9.51,5.84-3.97,14.04-9.12,22.39-14l25.13,3.01c-10.5,6.44-20.91,13.03-27.04,17.05-6.13,4.03-7.96,5.5-9.7,6.81-1.74,1.31-3.39,2.46-5.87,4.36-2.47,1.9-5.77,4.55-8.28,6.58-2.5,2.03-4.2,3.44-7.63,6.51-3.43,3.06-8.59,7.78-13.78,13.07-5.19,5.28-10.4,11.13-13.79,15.01-3.38,3.88-4.94,5.79-6.18,7.4s-2.15,2.93-3.18,4.36c-1.02,1.42-2.16,2.95-4.11,6.19-1.95,3.24-4.72,8.2-7.36,13.23-2.44-4.52-4.98-8.99-6.69-11.83s-2.6-4.07-3.71-5.57c-1.12-1.5-2.46-3.27-3.56-4.7-1.1-1.43-1.96-2.51-3.06-3.87-1.1-1.35-2.44-2.97-4.34-5.12s-4.36-4.84-6.56-7.24c-2.21-2.4-4.16-4.5-6.85-7.24s-6.12-6.1-8.92-8.76-4.98-4.61-6.63-6.14c-1.65-1.52-2.79-2.61-3.94-3.69-1.15-1.07-2.33-2.12-3.35-2.94-1.03-.82-1.9-1.4-2.74-2.04-.84-.63-1.63-1.31-3.43-2.79-1.79-1.48-4.59-3.77-6.55-5.32-1.96-1.55-3.08-2.36-4.18-3.21-2.25-1.83-4.69-3.56-7.25-5.25-1.32-.9-2.61-1.84-4.56-3.14-1.95-1.3-4.57-2.95-6.54-4.23-1.97-1.28-3.3-2.2-5.08-3.31s-3.98-2.43-6.84-4.21-6.37-4.02-9.21-5.79c-2.84-1.77-5.02-3.07-6.84-4.22-1.82-1.15-3.28-2.15-4.69-3.07-1.42-.92-2.8-1.75-4.53-2.9-1.73-1.15-3.81-2.61-5.65-3.88-1.84-1.26-3.45-2.33-5.58-3.89-2.13-1.56-4.78-3.63-6.6-5.02-1.82-1.39-2.81-2.11-4.21-3.3-1.39-1.19-3.19-2.85-5.04-4.51-1.86-1.66-3.77-3.34-5.15-4.58-1.37-1.24-2.2-2.06-3.03-2.89-.82-.82-1.63-1.66-2.63-2.81s-2.17-2.61-3.4-4.03-2.51-2.79-3.35-3.83c-.83-1.05-1.22-1.77-1.64-2.46-.43-.69-.9-1.34-1.75-2.54s-2.08-2.95-3.12-4.53c-1.03-1.58-1.86-3-2.99-5.12-1.13-2.13-2.55-4.97-3.68-7.59-1.13-2.61-1.95-5-2.49-6.51-.53-1.5-.77-2.12-1-2.76-.51-1.25-.76-2.81-.97-4.34-.13-.76-.29-1.46-.28-1.97,0-.51.2-.83.42-1.11.22-.28.48-.52,5.43-1.71,4.95-1.19,14.59-3.33,19.61-4.37s5.42-.96,5.7-.85.45.25.61.41c.15.16.29.32.34.76" fill="#f03" fill-rule="evenodd" stroke-width="0"/>
    <path d="m227.27,241.56c-.11.69-.11,1.3-.02,1.83.15.9.49,1.55.66,2.1.08.41.43,1.04,1.67,1.62.54.26,1.15.46,1.9.42.74-.04,1.6-.3,2.14-.52.97-.44,1.07-.63,1.54-1.29.19-.33.37-.78.53-1.24.5-1.39.72-3.85-.29-6.12-.29-.67-.64-1.28-.93-1.67-.73-.89-.91-1.08-1.44-1.3-.62-.08-1.53-.1-2.31.05-.73.28-1.37.79-1.98,1.86-.54,1.01-1.2,2.78-1.47,4.25" fill-rule="evenodd" stroke-width="0"/>
    <path d="m267.64,257.85c-.11.69-.11,1.3-.02,1.83.15.9.49,1.55.66,2.11.08.41.43,1.04,1.67,1.62.54.26,1.15.46,1.89.42.74-.04,1.61-.3,2.14-.52.97-.44,1.08-.63,1.55-1.29.19-.33.37-.78.52-1.24.5-1.39.73-3.85-.29-6.12-.29-.67-.64-1.28-.92-1.67-.73-.89-.91-1.08-1.44-1.3-.62-.08-1.53-.1-2.31.05-.72.28-1.36.79-1.98,1.86-.54,1.01-1.2,2.78-1.46,4.25" fill-rule="evenodd" stroke-width="0"/>
    <path d="m237.42,243.57c-.17,1.17-.2,2.06,0,3.04.51,1.19,2.12,2.25,3.3,2.41.89.45,2.38.03,3.73-.73.78-1.37,1.57-2.62,1.85-4,.14-.75.08-1.58.07-2.4,0-.82.04-1.64-.06-2.27-.1-.63-.36-1.07-.67-1.45-.65-.92-1.53-.99-2.39-.92-.85-.06-1.81.07-2.73.93-1.02.84-1.67,2.01-2.3,3.28-.36.72-.69,1.47-.83,2.1" fill-rule="evenodd" stroke-width="0"/>
    <path d="m277.79,259.86c-.17,1.17-.2,2.06,0,3.04.51,1.19,2.13,2.25,3.3,2.41.9.45,2.38.03,3.74-.73.77-1.37,1.56-2.62,1.85-4,.13-.75.07-1.58.07-2.4s.04-1.64-.06-2.27c-.1-.63-.36-1.07-.66-1.45-.66-.92-1.54-.99-2.39-.92-.85-.06-1.81.07-2.73.93-1.03.84-1.67,2.01-2.3,3.28-.36.73-.69,1.48-.83,2.1" fill-rule="evenodd" stroke-width="0"/>
    <path d="m217.91,245.88c-.04,1.06-.15,2.36.05,3.58.14.66.46,1.37.79,2.06.32.7.65,1.38,1.03,1.83.66.84,1.84.96,2.91.79,1.12-.3,1.36-.47,2.06-1.54.4-.65.93-1.69,1.18-2.44s.21-1.2.18-1.63c.04-.88-.51-2.09-1.55-3.34-1.14-1.41-2.36-2.34-3.57-2.69-.75.34-1.47.78-1.92,1.16-1,.99-.98,1.39-1.16,2.21" fill-rule="evenodd" stroke-width="0"/>
    <path d="m258.28,262.18c-.04,1.06-.15,2.36.05,3.58.14.66.46,1.37.79,2.06.32.7.64,1.38,1.03,1.84.66.84,1.84.96,2.91.79,1.12-.3,1.36-.47,2.06-1.54.4-.65.93-1.69,1.18-2.44s.21-1.2.18-1.63c.04-.88-.52-2.09-1.55-3.34-1.14-1.41-2.36-2.34-3.57-2.69-.75.34-1.47.78-1.92,1.16-1,.99-.98,1.39-1.16,2.21" fill-rule="evenodd" stroke-width="0"/>
    <path d="m242.87,252.39c-.19,1.38-.02,2.83.46,3.97,1.04,2.44,2.91,2.96,4.45,1.92.82-.49,1.67-1.29,2.31-2.25s1.1-2.09,1.37-2.85c.5-1.42.51-1.86.4-2.71-.07-.38-.21-.75-.4-1.08-.37-.64-.81-1.01-1.17-1.25-.35-.45-1.68-.12-2.95.37-.76.29-1.47.64-2.04,1.03-1.23.86-1.86,1.83-2.42,2.85" fill-rule="evenodd" stroke-width="0"/>
    <path d="m283.24,268.68c-.19,1.38-.02,2.83.45,3.97,1.04,2.44,2.91,2.96,4.45,1.92.83-.49,1.67-1.29,2.32-2.25.64-.96,1.09-2.09,1.36-2.85.5-1.43.51-1.86.41-2.71-.07-.38-.22-.75-.4-1.08-.37-.64-.81-1.01-1.18-1.25-.34-.45-1.68-.11-2.95.37-.76.29-1.47.64-2.04,1.03-1.24.86-1.86,1.83-2.42,2.85" fill-rule="evenodd" stroke-width="0"/>
    <path d="m227.54,253.39c-1.06,1.12-1.02,1.52-2.02,2.27-1.15.77-3.16,1.39-4.9,1.6-1.04,1.02-1.99,2.85-1.8,4.31-.06,1.04.15,2.17,1.03,3.43.3.33.74.61,1.2.87.46.26.93.51,1.71.59,1.65.11,4.05-.23,6.1-.1,1.06.04,2.15.14,3.15.54s1.9,1.1,2.82,1.76c.92.66,1.87,1.29,2.5,1.61.63.32.94.32,1.22.39.57.28,1.37.22,2.25-.05.86-.21,1.69-.56,2.49-1.44,1.64-1.84,2.1-3.9,1.5-6.08-.15-.57-.36-1.12-.51-1.49-.43-.9-.35-.99-.86-1.56-.71-.71-2.05-1.58-3.17-2.15-.21-1.07-.47-2.13-.76-3.14s-.61-1.99-.97-2.63c-.36-.65-.77-.97-1.2-1.27-.72-.51-1.48-.87-2.07-.94-.22-.06-.44-.17-.99-.11-1.11.19-3.11.56-4.66,1.63-.78.56-1.54,1.4-2.05,1.97" fill-rule="evenodd" stroke-width="0"/>
    <path d="m267.91,269.69c-1.06,1.12-1.02,1.52-2.02,2.27-1.15.77-3.16,1.39-4.9,1.6-1.04,1.02-1.99,2.85-1.79,4.31-.07,1.04.15,2.17,1.03,3.43.3.33.74.61,1.2.87.46.26.93.51,1.71.59,1.65.11,4.05-.23,6.09-.1,1.06.04,2.16.14,3.15.54,1,.4,1.9,1.1,2.83,1.76.92.66,1.87,1.29,2.49,1.61.63.32.94.32,1.22.39.57.27,1.37.22,2.25-.05.86-.21,1.69-.56,2.48-1.44,1.64-1.84,2.11-3.9,1.5-6.08-.15-.57-.35-1.12-.51-1.49-.43-.9-.35-.99-.86-1.56-.71-.7-2.05-1.58-3.17-2.15-.2-1.07-.46-2.13-.75-3.14-.3-1.01-.61-1.99-.98-2.63-.36-.65-.76-.97-1.2-1.27-.72-.51-1.47-.87-2.07-.94-.23-.06-.44-.17-.99-.11-1.11.19-3.11.56-4.66,1.63-.78.56-1.54,1.4-2.05,1.97" fill-rule="evenodd" stroke-width="0"/>
    <path d="m308.14,66.96c-.68.47-1.33,1.28-1.81,1.91v1.43c-1.13,1.31-2.46,1.69-3.67,2.1-.9.29-1.47.38-2.46,1.21-.32.45-.25.45-.27.81.06.82.39,2.14,1.51,3.2.53.48,1.06.79,1.66.9.35.06.76.04.99.02.49-.04.62-.27.8.34-.63.78-1.29,1.54-1.75,2.01-.45.47-.69.64-.91.84-.71.6-.91,1.33-.02,1.61,1.08-.35,2.16-.76,3.24-.58,1.2.24,2.45.15,3.47-.61.31-.09.54-.37.93.18.07.31-.12.84.23,1.18.28.61.07,1.62.12,2.62.23.36.86.8.78,1.18-.08.31.4.69.79,1.07-.02.3-.05.67.09,1.05.34.44.82.18,1.38.23.26.42.54.83.72,1.07.41.47.37.42.38.64-.15.38.5.73.59,1.05.1.35.26,1.14-.23,1.65-.23.23.04.63.33.59.21.03.55,0,.87.23.32.21-.01.46-.05.72-.16.43.21.48.43,1.03.08.21.18.54.29.87.16.49.4.91.29,1.26-.07.2.16.94.42,1.66.27.67.41,1.27,1.28,1.84.54.48.92,1.09,1.28,1.75.21.37.41.76.62,1.32s.43,1.3.64,2.41c.21,1.11.4,2.6.5,3.79.1,1.19.1,2.07.1,3.12s-.02,2.25-.02,2.94.01.86-.01,1.02c-.03.34-.42,1.02-.84,1.74-.26.42-.53.82-.72,1.06-.62.67-.76.68-1.2.71-.31-.03-.79.03-1.23.4-1.01.89-.8,1.18-.8,1.93.09.44.11.78.69,1.04.71.11,1.9.73,2.81.58.64.04,1.33-.09,2.05-.34.58-.2,1.11-.23,1.59-.77.49-.51.36-.81.71-1.12.39-.41,1.64-.77,2.72-1.08.39-.16.54-.46.69-.73.5-.58.08-1.81.41-2.91.42-.49.81-.96,1.15-1.33.03-.53.09-1.06.15-1.41.15-.89.47-1.07.93-1.54.61-.62.42-2,.82-3.14.13-.08.27-.16.43-.22.84-.19.34-1.03.23-1.64.08-.74.29-1.39.21-2.16.22-.37.91-.6.85-1.04.15-.56-.34-1.14-.07-1.69.34-.4.97-.32,1.54.51.6-.67.88-.4,1.79-.79.47-.44.71-1.06,1.34-.06.09.22.13.49.11.75.41.1.99-.37,1.81-.98.2-.17.34-.35.49-.53.39-.67.8-.39,1.13-.33.47-.16.79-.64,1.19-.52.39.05.79-.38,1.22.2.59.94,1.11-.08,1.81-.41.46.17.91.33,1.31.46.28-.44.91-1.41,1.39-1.51.66-.23,1.19-.19,1.85.59.58-.26,1.08-.62,1.46-1.11.85-.86,1.17-.59,1.92-.46.39.11.75.26,1.1.57.4-.38.53-.74.67-1.06.34-.45,1.31-.09,1.55,1.16.11.32.21.64.32,1.11.17,1.03.63,2.55,1.52,3.99.84,1.39,1.86,2.74,2.64,3.87.72,1,1.29,1.96,1.68,2.92.31.75.56,1.45.75,2.01.17.36.18.92.17,1.49.06.66-.16,1.49-.51,2.42-.37,1.04-.69,1.75-1.18,2.55-.72.69-1.61,0-2.8,1.19-.2.17-.41.93-.43,1.61-.03.71.51,1.06,1.22,1.26.99.48,2.24-.03,3.35-.13.52-.05,1.14-.05,1.76,0,.43-.33.84-.68,1.11-.93.86-.69.51-1.06,1.26-1.71.52-.25.94-.16,1.55-.19.39-.02.89-.09,1.23-.22.86-.38.8-.98,1.08-1.66.32-1.06,1.17-2.67,1-3.92.02-.7-.04-1.41-.27-2.09-.1-.33-.2-.66-.38-1.27s-.45-1.49-.56-2.16-.07-1.12-.06-1.55c.04-.64-.11-1.1.2-1.57.15-.2.5-.99,1-.41.43.69-.36,1.5.49,2.64.25.11.73.06.92-.35.09-.09.21-.16.35-.19.7.46.29,1.3.37,2.26.22.56.47,1.11.7,1.57.23.45.44.81.62,1.02.48.76.83-.23,1.25-.21.4.06.84-.31,1.37.83.11.24.2.51.3.78.11.27.24.54.34.7.27.28.29.52.69,0,.05-.2-.04-.5.11-.74.66-.79,1.25.94,2.09.63.36-.05.56.49.92.88.62.11,1.18-.95,1.9.21l.76-.44,1.29.88c.62-.45.65-1.77.54-2.95-.06-.63-.17-1.17-.47-1.83-.29-.66-.78-1.45-1.19-2.04s-.75-1-1.14-1.36c-.34-.93-.72-1.84-.98-2.4-.47-.99-.72-1.08-.96-1.56-.18-.37-.12-.76-.01-1.19-.3-.12-.6-.26-.98-.49-.38-.23-.84-.54-1.1-.75-.25-.21-.31-.32-.37-.42-.2-.22-.26-.97-.39-1.71-.08-.45-.19-.89-.34-1.53-.14-.65-.32-1.51-.47-2.09-.16-.59-.3-.9-.49-1.19-.18-.29-.41-.57-.49-1.12-.09-.55-.03-1.38-.05-2.19s-.12-1.61-.23-2.16c-.25-1.09-.49-1.48-.54-2.23-.06-.72,0-1.47-.02-2.2-.43-.51-.84-1.05-1.07-1.42s-.29-.56-.36-.73c-.17-.42-.75-1.12-1.25-1.96-.3-.51-.58-1.05-.85-1.44-.66-.89-1.16-1.12-1.81-1.58-1.1-.74-2.54-1.61-3.77-2.09-1.51-.63-3.8-1.22-5.94-1.79-2.22-.16-4.4.07-6.52.4-1.87.27-3.65.49-5.23.92-1.8.02-3.61.04-4.9.05-1.29,0-2.07,0-2.81.02-1.83.09-3.35-.14-4.8-.59-.83-.21-1.64-.31-2.44-.23-.98-.58-1.96-1.1-2.93-1.57-.78-.37-1.48-.72-1.96-1.2-.47-.26-.62-.45-1.27-1.12-.45-.24-.6-.2-1.35-.99-.22-.11-.39-.07-.59-.07-.22-.32-.4-.74-.75-1.19-.35-.32-.82-.45-1.08-.25-.52.08-.74-.08-1.37-.62-.42-.38-.99-.98-1.66-1.52-.66-.53-1.41-.99-1.91-1.28-1.2-.7-1.25-.69-1.97-.93-1.22-.34-2.95-.77-4.46-.63-.98-.05-1.89.11-2.85.38-1.2.2-2.27.58-3.33,1.33" fill-rule="evenodd" stroke-width="0"/>
    <path d="m205.18,64.64c.05.02.09.02.12,0l-.18-.83c.53.36,1.23.91,1.87,1.55l.1-.2c.29.08.58.2.78.33.43.31.41.44.65.85.4-.04,1.18,1.05,1.27,1.6l.65.12v1.82l.41.32-.24.72c.42.02.99-.03,1.62-.1l-1.19,1.22.25.08c-.15.34-.63,1.18-1.12,1.22-.17.05-.41.1-.64.14.74.48,2.72.5,4.11.67.6.13,1.05.18,1.7.83.07.09.12.28.12.46.02.22-.28.84-.55,1.49-.17.4-.34.8-.53,1.13-.76,1.41-1.86,1.88-2.75,2.01-.31.13-1.16.1-1.96.13-.35.04-.55.14-.65.21-.11.07-.13.1-.12.13.47.6.74,1.33.94,2.12l-.41-.2c-.05.72.08,1.16-.1,1.9-.34.28-.26.95-.25,1.54l-.4.05c-.16.62-.41,1.79-1.02,2.33-.36.29-1.01.89-1.47,1.38-.21.23-.46.42-.62.38l-.98,1.08-.08-.32-.97,1.13c-.06-.28-.1-.57-.12-.8,0-.23,0-.41,0-.51,0-.1-.03-.11-.06-.11-.22.46-.36.95-.4,1.72-.04.76.03,1.8-.03,2.49-.05.69-.22,1.04-.42,1.49-.37.83-.75,1.83-.74,2.57-.08.73.1,2.18-.21,2.95-.02.29-.2.48-.38.31-.17.85-.04,1.57-.48,2.21-.12.2-1.09,1.15-1.13,1.8l.49,1.63c-.29-.03-.57-.07-.83-.12.19.44.36.9.44,1.18.19.74,0,.81.21,1.21.13.28.18.71.12,1.16l-.64-.06c.1.65.27,1.37,0,2.02.09.4.23.92.23,1.33l-.54-.15c.11.49.57,1.56-.41,1.98-.11.07-.18.09-.24.11l.62,1.04h-.55c.02.37.04.9-.55,1.31-.06.57.06,1.22.11,1.84.06,1.08-.81,1.7.13,2.46.34.23,1.39,1.07,1.26,1.55.18.4-.44,1.36-.97,1.39-.99.18-1.88.07-3.19-.35-.25-.07-.48-.13-.7-.18-.06.41,1.37.54,1.55,1.63.02.25.25.51-.18.66-1.13.46-2.72.74-4.07.7-.8.05-1.6.27-2.07.19-.5-.1-.66-.21-1.07-.44-.26-.15-.62-.37-.97-.59l-1.55.49c-.07-.38-.09-.82-.08-1.14l-.66.51c-.1-.25-.2-.67-.27-1.1-.04-.52-.26-.18-.43,0-.2.48-.45-.88-.39-1.74l-.58.08c-.11-.65-.18-1.27-.14-1.82l-.39.19c-.32-.73-.47-1.28-.37-2.01-.42-.15-.52-1.2-.22-2.1.05-.17.09-.31.12-.46l-.37.07v-.85c-.39.12-.45.5-.75.82-.45-1.22-.31-2.46.3-3.72-.19-.46-.42-1.02-.34-1.5-.04-.24.13-1.16.37-1.98.11-.41.2-.69.3-.97-.6-.62-.36-1.85-.4-2.78-.28.06-.75,0-1.05.32l-.53-.7c-.27.15-.89.87-1.2.21-.06-.08-.13-.18-.19-.28l-.58.17c-.54-.37-.76-.8-.83-1.27-.42.03-.87-.32-.95-.62-.13-.3-.27-.75-.38-1.14-.5.26-1,.48-1.21.4-.6.03-1.16-.89-1.16-1.58-.96.34-1.27-.42-1.44-.99-.64.15-1.39-.61-1.88-1.38l-.77-.38c.03.29.03.62.03.98l-.63.33c-.02.27.03.61,0,.99-.03.11-.1.16-.17.16,0,.6.08,1.13-.1,1.58l-.46-.22c-.03.8-.13,1.3-.58,1.72-.59.71-.97,2.09-2.28,3.28l-.04-.32c-.63.13-.95,1.01-1.6,1.47-.05.52-.15,1.01-.38,1.46l-.3-.18-.21.97-.54-.36c0,.57-.32,1.46-1.13,1.75-.21.38-.42.76-.56.99-.43.65-.5.65-.56,1.01,0,.42-.08.71.16.93.23.34,1.39,1.45,1.29,1.93.04.42-.45.95-.8,1.09-.49.24-1.33.55-1.95.62-.98.19-2.15-.13-3.36-.69-.55-.24-1.18-.52-1.62-.69-.43-.17-.68-.22-.92-.25-.81.53-1.5.95-2.19,1.23-.1,0-.15-.07-.15-.14-.95.46-1.56.98-2.18,1-.54.45-1.05.79-1.53.91-.49.53-.75.69-1.41,1.01-.27.27-.27.76.46,1.09.64.3.73,1.15.24,1.91-.12.17-.44.2-.75.28-.26.06-1.04.34-1.79.54-.88.21-1.03.12-1.59.05-.3-.06-.72-.17-1.12-.53-.42-.45-.5-.73-.6-1.34-.23-.24-.53-.11-.87-.03-.04-.45.05-1.03-.07-1.51l-.7.24c-.12-.56-.09-1.09-.12-1.64-.06-.71-.28-1.58-.18-1.88.05-.41.64-1.14.25-1.73-.14-.76.3-1.44.89-2.47-.62-.7-.26-1.37.31-2.18-.64-1,.76-2.09,1.68-3.18.63-.48.98-.66,1.63-1.02.42-.23.98-.53,1.4-.81.66-.44.99-.76,1.37-1.21.29-.9.44-1.27.58-1.77.15-.48.3-1.23.63-1.76-.32-.2-.14-.89-.08-1.36.13-.6.33-1.12.71-1.86.03-.1.02-.13,0-.17-.07-.34.45-1.72.8-2.61.52-1.08.15-1.94,1.14-2.74.25-.69.28-1.5.28-2.24.02-.72.12-1.21.41-1.77-.15-.31.1-1.06.49-1.67.16-.27.59-.67,1.04-1.12.26-.26.51-.53.65-.69.27-.3.2-.32.26-.48.11-.15-.04-.52-.22-.91-.11-.24-.22-.48-.42-.81s-.47-.73-.64-.97c-.17-.23-.25-.3-.33-.34-1.21-.25-2.34,0-3.54-.32-.34-.11-1.01-.47-1.72-.87l.39-.11c-.25-.35-.4-.71-.45-1.06-1.28-.95-1.4-1.48-1.89-2.43l.86.31c-.28-.97-.36-1.93-.14-3.16,0-.11.03-.23.06-.27.06-.08.1.12.22-.02.04-.77-.15-1.87,1.01-3.09l.46.69c.24-.53.49-1.06.68-1.45.3-.61.45-.89.65-1.21.13.23.05.44.55.74.17.12.35.23.54.34.33-.55,1.08-.74,1.74-.35.38-.18,1.14-.13,2.02.7.66-.15,1.62.23,1.84.99.16.41.26.92.33,1.27.68-.28,1.1-.18,1.32.52.02.13.15.17.28.17-.04.71-.04,1.42,0,1.89.11.93.23,1.22.16,1.87-.21.6-.52,1.2-.92,1.81-.27.23-.54.47-.79.68-.42.37-.78.66-.73.92.37.41.69.86.87,1.19.25.5.2.71.19.96.24,0-.1-.18.63-.25.47.09,1.92-.64,2.89-1.05,1.34-.53,1.84-.68,2.94-.32.54-.22,1.1-.4,1.72-.54s1.3-.26,2.29-.38c.99-.12,2.29-.26,3.31-.33,1.03-.07,1.78-.08,2.42,0,1.05.11,1.79.37,2.45.51.55.16,1.53.2,2.57.2,1.18-.04,3.03.07,4.89.31.96.12,1.8.24,2.35.3.95.1,1.27.02,1.88.03.52.02.9-.03,1.36-.24.24-.12.55-.38.93-.97.61-.97.98-2.21,1.46-3.09.49-.9,1.26-1.83,1.9-2.69.39-.54.76-1.08.91-1.49-.33-.15-.63-.36-.84-.55-.41-.31-.41-.89-.29-1.19-.25-.33-.13-.87.3-1.32-.25-.29.25-1.68,1.07-2.02-.34-.44-.26-1.43.84-1.7l-.34-.49c.53-.8,1.32-.91,1.98-.93l-.17-.39c.54-.21,1.03-.45,1.43-.37l-.26-.72h1.9c-.04-.27-.44-.41-.77-.7.36-.02.72-.02,1.11,0,.38.03.79.08,1.04.12s.35.05.45.07l-.17-.49c.88-.08,1.77.1,2.59.58v-1.14c.57.3,1.08.51,1.51.89.03-.22.06-.56,0-.87.42.21.83.43,1.07.57.4.23.39.29.55.38" fill-rule="evenodd" stroke-width="0"/>
  </g>
</svg>