<?xml version="1.0" encoding="UTF-8"?>
<svg id="uuid-dc80d98a-29a3-4600-a225-1fe2a99b7bbd" data-name="Layer 1" xmlns="http://www.w3.org/2000/svg" xmlns:xlink="http://www.w3.org/1999/xlink" viewBox="0 0 654.82 1056.45">
  <defs>
    <clipPath id="uuid-53975230-7470-4e6a-8fb4-8cc9a2549646">
      <polygon points="743.58 1942.85 743.59 716.52 -73.97 716.52 -73.97 1942.85 743.58 1942.85 743.58 1942.85" clip-rule="evenodd" fill="none" stroke="#e5d2bf" stroke-miterlimit="10"/>
    </clipPath>
    <clipPath id="uuid-d77756b1-bbf7-43bb-976c-c16f596d09f1">
      <rect x="-74.02" y="716.52" width="817.52" height="1226.33" clip-path="url(#uuid-53975230-7470-4e6a-8fb4-8cc9a2549646)" fill="none" stroke="#e5d2bf" stroke-miterlimit="10"/>
    </clipPath>
    <clipPath id="uuid-59c40f60-8eef-47ed-b790-1f6b2b457594">
      <polygon points="-250.49 363.99 -250.48 -267.99 -2315.27 -267.99 -2315.27 363.99 -250.49 363.99 -250.49 363.99" clip-rule="evenodd" fill="none" stroke="#e5d2bf" stroke-miterlimit="10"/>
    </clipPath>
    <clipPath id="uuid-0d5cd647-1aa6-46d6-a9c3-47959b2878f4">
      <rect x="-2315.39" y="-267.99" width="2064.7" height="631.97" clip-path="url(#uuid-59c40f60-8eef-47ed-b790-1f6b2b457594)" fill="none" stroke="#e5d2bf" stroke-miterlimit="10"/>
    </clipPath>
  </defs>
  <g opacity=".32">
    <g>
      <g clip-path="url(#uuid-d77756b1-bbf7-43bb-976c-c16f596d09f1)">
        <path d="M-97.55,1069.94c52.7-3.63,105.71-5.18,158.87-5.64,44.46-.39,89.02.03,133.57.69,29.7.44,59.4.99,89.07,1.48,19.82.33,39.62.64,59.39.86,29.77.34,59.49.49,89.12.39,29.54-.13,59.66,1.12,89.52.84,12.88-.12,25.72-.53,38.44-1.44,3.71-.27,7.34-.88,10.93-1.66,8.24-1.8,16.25-4.51,24.52-5.83,16.78-2.68,34.15-3.78,51.67-4.17,26.16-.57,52.66.45,78.05.3.34,0,.62-.28.62-.62s-.28-.62-.62-.62c-25.4-.15-51.9-1.51-78.08-1.24-17.64.18-35.14,1.1-52.06,3.61-8.34,1.23-16.43,3.86-24.73,5.58-3.45.71-6.94,1.27-10.5,1.49-12.66.78-25.43,1.05-38.24,1.04-29.86,0-59.96-1.51-89.5-1.64-42.26-.11-84.7-.85-127.22-1.56-31.78-.53-63.61-1.05-95.45-1.43-31.83-.39-63.67-.62-95.48-.52-70.99.22-141.82,2.09-212.06,7.53-.71.05-1.24.67-1.18,1.37.05.71.67,1.24,1.37,1.18h0Z" fill="#9d6e2f" fill-rule="evenodd" stroke="#e5d2bf" stroke-miterlimit="10"/>
        <path d="M-76.82,1025.24c49.02-1.36,98.74-1.46,148.17-4.11,33.04-1.77,65.95-4.69,98.44-9.86,38.03-6.05,74.97-15.83,112.6-23.21,15.98-3.14,32.09-5.84,48.45-7.63,50.54-5.55,100.68-6.55,149.64-14.37,32.77-5.24,65.01-13.53,96.48-28.19,8.96-4.18,18.79-10.31,23.4-18.83,3.12-5.77,3.98-12.63.74-20.74-.89-2.21-2.74-4.03-5.39-5.4-2.48-1.28-5.7-2.19-9.33-2.81-12.08-2.06-28.94-.92-35.12-1.64-40.19-4.67-79.3-11.44-118.87-15-26.35-2.37-52.9-3.32-80.11-1.32-20.44,1.51-40.6,4.29-60.59,7.79-46.77,8.18-92.63,20.3-139.13,29.14-26.6,5.07-53.3,8.14-80.09,10.01-40.24,2.81-80.68,2.93-121.26,3.06-21.85.07-44.94,1.48-67.59.72-15.2-.51-30.21-1.99-44.52-5.52-.33-.08-.67.12-.75.45-.08.33.12.67.45.75,14.37,3.65,29.47,5.25,44.76,5.86,22.66.91,45.78-.34,67.65-.27,40.64.13,81.13.27,121.45-2.3,26.92-1.72,53.76-4.64,80.5-9.57,46.52-8.59,92.42-20.45,139.21-28.39,19.87-3.37,39.91-6.04,60.22-7.44,26.96-1.87,53.27-.81,79.37,1.62,39.52,3.69,78.57,10.54,118.71,15.32,6.14.72,22.87-.42,34.86,1.64,3.06.52,5.8,1.25,7.88,2.33,1.44.74,2.56,1.61,3.04,2.81,2.58,6.45,1.99,11.91-.5,16.5-4.12,7.63-13.08,12.94-21.1,16.69-31.02,14.5-62.82,22.69-95.14,27.93-48.86,7.91-98.92,9.07-149.36,14.75-16.49,1.86-32.7,4.64-48.79,7.86-37.56,7.52-74.41,17.46-112.37,23.67-32.34,5.29-65.12,8.33-98.03,10.26-49.39,2.89-99.07,3.27-148.06,4.88-.71.02-1.26.61-1.24,1.32.02.71.61,1.26,1.32,1.24h0Z" fill="#9d6e2f" fill-rule="evenodd" stroke="#e5d2bf" stroke-miterlimit="10"/>
        <path d="M-92.73,1055.69c28.67-.86,57.43-.27,86.14-.47,12.34-.09,24.67-.32,36.98-.88,14.74-.67,29.43-1.82,44.1-3.23,34.19-3.28,68.24-7.93,102.4-10.97,3.42-.3,6.86-.44,10.31-.48,13.95-.15,28.06,1.37,41.93.58,62.77-3.59,127.52-5.11,190.47-14.53,42.27-6.33,83.74-16.23,123.27-32.65,35.48-14.75,101.66-26.71,145.23-53.29,21.33-13.02,37.28-29.55,42.12-51.34.92-4.15,3.78-16.23,3.84-25.23.02-3.31-.36-6.24-1.22-8.36-.69-1.69-1.7-2.93-2.97-3.69-2.76-1.65-6.34-2.44-10.28-2.69-7.56-.47-16.5,1.06-22.24.75-11.87-.65-23.35-4.31-35.08-6.18-3.03-.48-6.08-.85-9.16-1.03-10.67-.62-21.34-.8-32.02-.72-42.46.33-84.94,4.84-127.29,2.56-7.7-.42-15.4-2-23.06-4.19-17.95-5.11-35.71-13.46-52.94-18.12-9.12-2.47-18.5-4.29-27.97-5.66-14.12-2.05-28.46-3.12-42.45-3.92-16.62-.94-35.18-2.05-53.29-1.82-12.33.16-24.44.95-35.59,2.84-16.46,2.78-33.25,8.4-49.94,12.11-7.19,1.6-14.36,2.84-21.48,3.33-32.31,2.24-64.51,1.98-96.65.21-48.26-2.66-96.38-8.72-144.46-14.86-20.98-2.68-42.3-4.4-63.26-7.75-13.97-2.23-27.79-5.18-41.24-9.62-.32-.11-.68.07-.78.39-.11.32.07.68.39.78,13.5,4.54,27.37,7.59,41.4,9.91,20.95,3.47,42.27,5.31,63.26,8.11,48.11,6.4,96.25,12.72,144.55,15.63,32.25,1.94,64.57,2.37,97.01.29,7.27-.47,14.61-1.7,21.96-3.3,16.65-3.62,33.4-9.14,49.82-11.84,10.99-1.81,22.92-2.52,35.07-2.63,18.02-.16,36.5,1.03,53.03,2.04,13.87.84,28.09,1.96,42.09,4.05,9.3,1.39,18.52,3.21,27.47,5.67,17.19,4.73,34.91,13.14,52.83,18.32,7.98,2.3,15.99,3.97,24.02,4.43,42.43,2.42,85.01-1.95,127.56-2.16,10.57-.05,21.14.15,31.7.78,11.9.71,23.37,4.39,35.08,6.25,3.04.48,6.09.85,9.17,1.02,5.73.32,14.66-1.2,22.2-.72,3.06.2,5.88.71,8.03,2,.87.52,1.18,1.74,1.44,3.21.4,2.22.39,4.99.17,7.93-.6,8.05-2.81,17.3-3.58,20.77-4.56,20.51-19.77,35.9-39.84,48.17-43.33,26.49-109.19,38.41-144.47,53.14-39.14,16.36-80.22,26.24-122.1,32.63-62.8,9.58-127.4,11.33-190.03,15.12-13.81.84-27.87-.63-41.75-.43-3.54.05-7.08.21-10.59.53-34.16,3.17-68.2,7.94-102.39,11.36-14.61,1.46-29.25,2.68-43.93,3.41-12.27.61-24.56.9-36.86,1.03-28.72.32-57.51-.15-86.19.84-.71.02-1.26.62-1.24,1.32.02.71.62,1.26,1.32,1.24h0Z" fill="#9d6e2f" fill-rule="evenodd" stroke="#e5d2bf" stroke-miterlimit="10"/>
        <path d="M-102.64,954.82c11.18-1.51,21.78-1.91,32.38-1.53,10.59.38,21.18,1.54,32.34,3.18,13.77,2.01,27.25,3.27,40.77,4.04,13.5.77,27.03,1.05,40.91,1.13l43.04.16c6.23.01,28.89-2.54,44.2-.23,4.03.61,7.53,1.53,9.94,3.03,1.63,1.02,2.71,2.3,2.71,4.07,0,1.37-.09,2.11-.69,2.63-.86.74-2.14,1.25-3.83,2.2-20.07,11.31-53.07,16.72-88.8,19.43-49.88,3.78-105.08,2.15-138.6,2.46-.34,0-.62.28-.62.62s.28.62.62.62c24.39.24,60.22,1.78,97.17,1.44,21.94-.2,44.27-1.06,64.84-3.24,27.35-2.89,51.59-8.15,67.79-17.04,2.84-1.57,4.66-2.42,5.74-3.91.84-1.16,1.36-2.7,1.37-5.22,0-3.52-1.8-6.28-5.03-8.31-2.88-1.81-7.02-3.03-11.84-3.75-15.57-2.34-38.61.31-44.94.32l-43.04.16c-13.8.08-27.26-.06-40.7-.67-13.42-.6-26.81-1.66-40.49-3.47-11.31-1.49-22.03-2.51-32.74-2.74-10.76-.23-21.51.35-32.83,2.06-.7.1-1.19.75-1.09,1.45.1.7.75,1.19,1.45,1.09h0Z" fill="#9d6e2f" fill-rule="evenodd" stroke="#e5d2bf" stroke-miterlimit="10"/>
        <path d="M767.02,811.18c-30.18.88-73.92,3.06-114.9,3.35-28.64.2-55.93-.52-76.25-3.31-46.68-6.35-93.28-14.33-140.12-21.12-20.05-2.9-40.15-5.57-60.3-7.83-21.5-2.38-43.2-3.21-64.97-3.23-50.36-.04-101.15,4.14-151.12,2.14-41.56-1.6-83.25-4.36-124.87-8.02-41.63-3.66-83.18-8.2-124.44-13.47-.34-.05-.65.19-.7.53-.05.34.19.65.53.7,41.23,5.73,82.75,10.78,124.36,14.88,41.63,4.1,83.35,7.24,124.94,9.26,50,2.35,100.87-1.34,151.28-1.1,21.6.1,43.11.89,64.43,3.28,20.11,2.21,40.16,4.86,60.17,7.68,46.87,6.61,93.53,14.29,140.26,20.4,20.49,2.65,47.98,3.19,76.83,2.76,41-.62,84.75-3.2,114.94-4.34.71-.02,1.26-.62,1.24-1.32-.02-.71-.62-1.26-1.32-1.24h0Z" fill="#9d6e2f" fill-rule="evenodd" stroke="#e5d2bf" stroke-miterlimit="10"/>
        <path d="M-95.19,737.11c22.21-3.72,43.12-4.13,63.73-3.07,31.51,1.63,62.31,6.74,95.92,8.98,23.48,1.55,47.04,2.34,70.64,2.64,35.25.44,70.6-.16,105.94-.74,19.6-.32,39.21-.65,58.79-.79,19.61-.14,39.2-.11,58.75.31,24.49.52,48.93,1.63,73.28,3.74,25.36,2.17,50.56,7.68,75.85,10.95,6.38.83,12.77,1.51,19.17,1.97,19.07,1.35,38.25,1.86,57.46,1.96,28.72.15,57.51-.61,86.13-.79.34,0,.62-.28.62-.62s-.28-.62-.62-.62c-28.61-.18-57.4.2-86.1-.31-19.15-.34-38.26-1.08-57.25-2.65-6.33-.52-12.66-1.27-18.97-2.16-25.32-3.55-50.52-9.32-75.92-11.76-36.6-3.47-73.42-4.76-110.34-4.98-17.15-.1-34.33.03-51.51.27-25.73.36-51.47.94-77.19,1.33-42.94.64-85.83.74-128.47-1.79-33.63-1.95-64.48-6.81-96.02-8.14-20.81-.88-41.92-.24-64.31,3.74-.7.12-1.17.78-1.05,1.48.12.7.78,1.17,1.48,1.05h0Z" fill="#9d6e2f" fill-rule="evenodd" stroke="#e5d2bf" stroke-miterlimit="10"/>
        <path d="M776.61,951.25c-15.13,2.04-28.33,6.04-40.58,11.14-15.31,6.38-29.16,14.44-43.48,22.52-13.47,7.6-27.35,15.23-43.4,21.32-7.81,3.02-15.71,5.5-23.66,7.66-8.05,2.18-16.16,4-24.33,5.56-19.14,3.65-38.55,5.86-57.95,8.2-19.47,2.35-38.91,4.85-58.07,9-.34.07-.55.39-.49.73.07.34.39.55.73.49,19.22-3.53,38.68-5.36,58.15-7.16,19.56-1.81,39.12-3.55,58.43-6.83,8.32-1.41,16.59-3.11,24.79-5.24,8.15-2.12,16.21-4.68,24.2-7.74,16.23-6.33,30.3-14.14,43.86-22.05,14.07-8.21,27.61-16.52,42.64-23.17,11.91-5.27,24.75-9.53,39.55-11.88.7-.1,1.18-.75,1.08-1.45-.1-.7-.75-1.18-1.45-1.08h0Z" fill="#9d6e2f" fill-rule="evenodd" stroke="#e5d2bf" stroke-miterlimit="10"/>
      </g>
      <polygon points="743.58 1942.85 743.59 716.52 -73.97 716.52 -73.97 1942.85 743.58 1942.85 743.58 1942.85" fill="none" fill-rule="evenodd" stroke="#e5d2bf" stroke-miterlimit="10"/>
      <rect x="-74.02" y="716.52" width="817.52" height="1226.33" fill="none" stroke="#e5d2bf" stroke-miterlimit="10"/>
    </g>
    <g>
      <path d="M-81.22,1907.87c11.37-1.44,22.74-2.08,34.13-2.49,6.39-.23,12.78-.35,19.17-.47,4.26-.08,8.53-.19,12.8-.29,6.41-.15,12.82-.33,19.24-.5,9.64-.26,19.26-.58,28.9-.97.34,0,.62-.28.62-.62s-.28-.62-.62-.62c-6.88-.29-13.74-.67-20.62-.99-6.89-.32-13.76-.64-20.64-.84-4.6-.14-9.19-.24-13.79-.23-4.61,0-9.21.13-13.81.32-6.14.26-12.27.68-18.39,1.27-9.17.89-18.28,2.19-27.38,3.9-.7.11-1.18.77-1.07,1.46.11.7.77,1.18,1.46,1.07h0Z" fill="none" fill-rule="evenodd" stroke="#e5d2bf" stroke-miterlimit="10"/>
      <polygon points="743.58 1942.85 743.59 716.52 -73.97 716.52 -73.97 1942.85 743.58 1942.85 743.58 1942.85" fill="none" fill-rule="evenodd" stroke="#e5d2bf" stroke-miterlimit="10"/>
    </g>
  </g>
  <g opacity=".1">
    <g>
      <g clip-path="url(#uuid-0d5cd647-1aa6-46d6-a9c3-47959b2878f4)">
        <path d="M-2399.35,261.54c54.14.04,109.55.54,164.45.54,23.7,0,47.3-.09,70.67-.35,14.25-.16,28.46-.45,42.66-.82,55.96-1.46,111.68-4.17,168.14-4.85,94.05-1.14,187.36-2.3,280.73-3.61,62.25-.88,124.51-1.82,187.04-2.86,51.89-.87,103.87-2.23,155.86-3.86,60.09-1.88,120.2-4.1,180.23-6.29,60.12-2.18,120.16-4.34,180.05-6.03,62.75-1.79,125.59-3.65,188.45-5.57,146.37-4.48,292.9-9.23,439.06-13.74,48.06-1.49,96.07-3.29,144.33-4.63,32.1-.9,64.32-1.6,96.73-1.87,18.35-.16,46.47-1.09,71.61-.85,17.47.16,33.51.88,43.56,2.87.62.12,1.61.12,2.22,0,.6-.13.6-.33-.02-.45-8.11-1.64-19.99-2.51-33.48-2.91-27.82-.83-62.59.31-84.04.45-32.58.21-64.97.85-97.27,1.69-48.35,1.25-96.47,2.95-144.61,4.35-146.34,4.26-293.08,8.73-439.6,12.98-62.9,1.83-125.75,3.62-188.52,5.33-60.08,1.65-120.34,3.73-180.64,5.89-59.97,2.15-119.98,4.37-179.97,6.26-51.7,1.63-103.36,3.03-154.96,3.92-62.46,1.09-124.67,2.07-186.84,3.01-93.3,1.41-186.54,2.7-280.53,3.95-56.66.76-112.51,3.55-168.65,5.1-13.98.39-27.99.69-42.02.87-23.21.3-46.67.43-70.21.47-54.89.09-110.3-.32-164.42-.28-1.79,0-3.24.3-3.24.66s1.45.66,3.24.66h0Z" fill="#9d6e2f" fill-rule="evenodd" stroke="#e5d2bf" stroke-miterlimit="10"/>
      </g>
      <polygon points="-250.49 363.99 -250.48 -267.99 -2315.27 -267.99 -2315.27 363.99 -250.49 363.99 -250.49 363.99" fill="none" fill-rule="evenodd" stroke="#e5d2bf" stroke-miterlimit="10"/>
      <rect x="-2315.39" y="-267.99" width="2064.7" height="631.97" fill="none" stroke="#e5d2bf" stroke-miterlimit="10"/>
    </g>
  </g>
  <path d="M332.95,41.65c-1.35.75-2.55,1.68-3.58,2.8-.57.62-.72.54-.45-.24.98-2.78,3.65-4.34,6.21-5.78.2-.11.36-.26.48-.44.07-.11.04-.14-.08-.09-2.81,1.05-5.22,1.81-7.4,3.91-.02.02-.03.02-.04-.02,0,0,0-.02,0-.03,0-.02,0-.04,0-.06,1.18-1.32,2.51-2.49,3.98-3.49,1.9-1.3,3.14-2.74,4.85-3.97,1.7-1.21,3.59-2.05,5.68-2.5.02,0,.03-.02.03-.03,0-.02-.01-.03-.03-.03h0c-2.3.02-4.54.4-6.72,1.15-.08.03-.15.03-.19,0-.06-.05-.06-.09.01-.12,2.13-1.01,4.39-1.55,6.77-1.63h0c.09,0,.17-.07.17-.16,0-.08-.06-.14-.14-.16-1.3-.28-2.6-.35-3.92-.21-.5.05-.52-.02-.06-.22,2.89-1.27,6.14-.09,9.03.85.81.27.92.11.32-.48l-1.43-1.41s-.04-.07-.04-.1c0-.09.07-.16.16-.16.03,0,.05,0,.08.02,1.66.97,3.49,1.2,5.5.7,5.29-1.33,10.05-2.58,15.89-3.01,8.39-.62,15.82,1.52,22.31,6.4.92.69,2.24.67,2.94,1.49.8.94,1.66,1.59,2.42,2.53.01.01.02.02.03.03.14.13.37.13.51,0,.01-.01.02-.02.03-.03l.32-.41c.13-.17.2-.15.21.07.07,2.67-.71,5.24,1.92,7.2,3.21,2.39,7.88,2.61,11.88,3.03,4.27.45,8.48,1.48,12.83,1.89,6.43.6,2.88,7.05,2.19,10.36-.87,4.14-2.93,7.67-6.19,10.59-.47.42-.93.86-1.37,1.31-.08.08-.11.17-.11.28.2,3.44-1.09,5.96-3.88,7.56-2.39,1.37-5.5,1.08-8.05,2.29-.87.41-1.71.92-2.62,1.17-2.58.73-5.13.79-7.79.89-1.76.06-4.61.52-5.17,2.47-1.88,6.63,3.67,8.24,6.92,12.37,1.33,1.69,2.32,3.55,2.97,5.56.05.16.03.17-.06.03-.67-1.02-1.52-1.87-2.56-2.55-.02-.01-.05-.02-.07-.02-.07,0-.13.05-.13.12,0,.02,0,.05.02.07,2.03,2.79,4.34,5.77,4.6,9.1.1,1.31-.04,1.33-.43.07-.35-1.12-.99-2.08-1.9-2.87-.02-.02-.04-.03-.07-.03-.06,0-.11.05-.11.1,0,.02,0,.03.01.05.68,1.4,1.17,2.86,1.48,4.38,0,0,0,.01,0,.02,0,.05-.04.09-.09.09-.03,0-.06-.01-.07-.04-1.58-1.91-3.47-3.48-5.69-4.71-.02,0-.04-.02-.06-.02-.06,0-.11.05-.11.11,0,.02,0,.03.01.05,1.06,1.93,3.18,3.31,4.53,5.11.12.16.08.19-.1.11-1.65-.72-3.17-1.63-4.56-2.73-.03-.02-.06-.03-.09-.03-.08,0-.14.06-.14.13,0,.02,0,.04.01.05,1.5,3.51,5.09,6.38,8.64,8.23.2.1.19.14-.04.12-2.61-.24-5.07-.97-7.37-2.17-.02,0-.04-.01-.06-.01-.08,0-.14.06-.14.14,0,.03.01.06.03.08,3.39,3.64,6.67,6.05,11.93,6.56.05,0,.09.02.1.05.02.03.02.06.01.09,0,.01,0,.02-.02.02l-2.56.31c-.06,0-.11.06-.11.12,0,.04.02.08.06.1.92.58,2.62.39,3.68.39,0,0,0,0,0,0,.06,0,.1.04.1.1,0,.04-.03.08-.07.09-2.73,1.22-5.83,1-8.7.63-.02,0-.03,0-.05,0-.03.02-.04.07-.02.1,0,.01.02.02.04.03l1.84.47c.19.05.19.09,0,.12-1.15.2-3.34-.17-4.74-.27-.04,0-.07,0-.1.02-.08.04-.11.15-.06.23.02.03.04.05.08.07,2.2,1.03,4.49,1.15,6.9,1.64.03,0,.07.03.09.05.05.06.04.16-.02.21-.03.02-.06.03-.1.03l-3.67-.05c-.14,0-.16.04-.04.12,2.1,1.54,5.09,4.22,5.24,6.88.13,2.32,1.11,3.29,2.37,5.11.01.02.02.03.02.05,0,.05-.04.09-.1.09-.02,0-.04,0-.06-.02-2.11-1.54-4.16-1.37-6.66-1.04-.05,0-.08.04-.08.09,0,.02,0,.05.03.07,1.79,1.67,3.72,3.16,5.8,4.47.05.03.1.08.14.13.04.06.08.11.12.14.01.01.02.03.02.05,0,.04-.03.07-.08.07,0,0-.02,0-.02,0l-4.98-2.03s-.04-.01-.06-.01c-.1,0-.18.08-.18.17,0,.05.02.1.06.13,1.47,1.17,3.06,2.16,4.78,2.98.04.01.06.05.06.09,0,.05-.04.09-.1.09-.01,0-.02,0-.03,0-2.35-.54-4.49-1.51-6.41-2.91-.03-.02-.06-.03-.1-.04-.1,0-.19.07-.2.16,0,.03,0,.07.02.1,1.92,3.51,4.29,6.71,7.1,9.62,0,0,.01.02.01.03,0,.02-.02.04-.04.04,0,0-.02,0-.03,0-2.67-1.62-4.77-3.93-6.92-6.1-.1-.1-.15-.09-.13.06.48,4.34,1.28,8.3,3.48,12.15,2.58,4.52,7.13,7.74,8.6,12.75.21.71.07.78-.41.2-2.47-2.96-5.74-5.44-9.78-5.67h-.01c-.09,0-.16.07-.16.15,0,.04.02.08.05.11,3.68,3.25,6.58,7.33,6.99,12.23.1,1.17-.04,1.2-.43.08-.6-1.75-2.97-5.45-5.12-6.24-.02,0-.04,0-.06,0-.1,0-.18.08-.18.17,0,.03.01.07.03.1,3.05,3.97,4.03,9.16,4.06,13.95,0,.03-.01.06-.03.08-.05.06-.14.07-.2.02-.02-.02-.04-.05-.05-.08-.75-3.58-2.86-8.78-5.8-11.17-.01,0-.02-.02-.04-.02-.06-.02-.11.01-.13.07,0,.01,0,.03,0,.04.38,2.3.42,4.6.12,6.9-.57,4.28,1.91,10.73,3.93,14.54,0,0,0,0,0,.02,0,.01,0,.03-.02.03-.03,0-.06.02-.09.03-.02,0-.04,0-.06-.03-2.16-2.86-3.94-5.92-5.36-9.17-.02-.05-.08-.08-.13-.08-.07,0-.14.05-.15.12-.32,2.59.67,4.99,1.86,7.48,1.32,2.77,2.52,5.6,3.6,8.48.21.55.13.59-.23.11-2.22-2.92-4.38-5.89-6.47-8.9-.09-.13-.14-.12-.15.04-.03.62.04,1.13.22,1.55,1.49,3.62,3.38,7.37,3.95,11.21.2,1.38.06,1.42-.43.1-1.08-2.88-2.7-5.45-4.83-7.73-.02-.02-.05-.03-.08-.03-.06,0-.11.05-.11.1,0,.01,0,.02,0,.03,1.32,3.06,2.2,5.89,2.62,8.49.61,3.76.47,3.79-.44.1-.91-3.72-3.94-8.14-5.85-11.69-.03-.05-.09-.09-.15-.09-.1,0-.17.07-.17.17.03,4.13,1.74,7.75,3.12,11.52,0,.02.01.03.01.05,0,.06-.05.12-.12.12-.05,0-.09-.03-.11-.07l-4.39-6.82s-.07-.07-.13-.07c-.08,0-.15.06-.15.14,0,0,0,.02,0,.03.38,2.56.6,4.88.4,7.6-.6,7.98-.84,15.92-.87,21.17-.03,4.03.23,8.44.77,13.24.74,6.57,2.43,12.99,3.01,19.57.36,4.09.42,8.6,1.32,12.28.69,2.83,1.66,5.39,2.9,7.69,1.98,3.66,3.3,5.97,3.96,6.93.33.48,3.73,4.99,5.22,5.13,3.59.35,6.56.77,9.39,2.88,3.24,2.42,7.4,6.54,7.54,10.72h0c0,.11-.09.19-.19.19-.06,0-.12-.03-.16-.08l-1.7-2.28s-.07-.06-.12-.06c-.06,0-.11.04-.13.09-.92,2.46-1.66,4.2-4.7,4.51-5.15.51-10.57.25-15.75.26-5.08,0-10.24-.8-11.62-6.08-1.1-4.19-.97-7.94-4.59-10.76-.13-.1-.19-.07-.15.09.27,1.36.73,2.66,1.4,3.89.01.02.02.04.02.06,0,.06-.05.11-.12.11-.04,0-.07-.02-.1-.04-1.79-2.03-2.92-4.35-3.41-6.97-.23-1.24.05-3.19-.77-4.4-1.28-1.88-2.18-3.37-2.32-5.51,0-.05-.05-.08-.09-.08-.04,0-.07.02-.09.05-.57,1.25-1.27,2-2.49,2.87-.98.7-2.69,1.58-2.6,2.97.07,1,.27,1.96.6,2.87,0,0,0,.02,0,.03,0,.04-.04.08-.08.08-.02,0-.04,0-.06-.02-1.48-1.45-2.79-3.37-1.01-5.28,1.49-1.6,2.96-2.95,3.6-5.05,0,0,0-.02,0-.03,0-.07-.06-.13-.14-.13-.04,0-.07.02-.1.04-1.67,1.82-3.36,3.62-5.09,5.4-1.02,1.05-1.5,2.17-2.19,3.4-.03.05-.08.09-.14.09-.08,0-.15-.07-.15-.15,0-.02,0-.03,0-.04.46-1.7.58-3.06.2-4.88-.41-1.96.11-3.43.23-5.22.02-.23-.05-.26-.19-.07-1.15,1.48-1.93,3.13-2.34,4.94-.01.06-.07.09-.13.09s-.12-.04-.13-.1c-.69-3.95-1.16-9.01.88-12.51,1.11-1.91,2.23-3.42,2.41-5.65,0,0,0,0,0,0,0-.05-.04-.09-.1-.09-.03,0-.05.01-.07.03-1.37,1.45-2.99,2.58-4.85,3.39-.19.08-.23.03-.14-.14,1.24-2.29,2.27-4.08,2.62-6.62,0,0,0,0,0,0,0-.05-.04-.09-.1-.09-.04,0-.07.02-.09.05-1.01,2.36-2.44,4.46-4.28,6.3-.01.01-.03.02-.05.02-.04,0-.07-.03-.07-.07,0,0,0-.02,0-.03,1.32-2.83,2.17-5.79,2.55-8.87,0,0,0,0,0,0,0-.05-.05-.1-.11-.1-.04,0-.07.02-.09.05-1.06,1.75-2.37,3.32-3.92,4.7-.02.03-.06.04-.09.04-.07,0-.13-.05-.13-.12,0-.03.01-.06.03-.08,1.65-2.23,3.3-5.87,2.32-8.61-.02-.04-.06-.07-.11-.07-.05,0-.1.04-.12.09l-1.13,4.69c-.02.08-.09.13-.18.13-.07,0-.14-.04-.17-.1l-2.21-4.48s-.03-.04-.05-.06c-.06-.04-.15-.02-.2.04-.01.02-.02.05-.02.07,0,1.87.32,3.67.99,5.41,0,0,0,.01,0,.02,0,.04-.03.07-.08.07-.02,0-.03,0-.05-.02l-3.71-3.23c-.2-.17-.27-.13-.24.12.61,3.82,1.89,7.36,2.2,11.26.61,7.69,2.71,14.22,5.67,20.95.21.48.58.71,1.12.7,2.06-.05,4.34-.21,6.23.3,4.17,1.14,6.05,3.28,8.7,6.38,1.15,1.35,2.49,2.18,3.95,3.17.03.02.05.05.05.09,0,.05-.04.1-.09.11l-1.51.28c-.08.01-.15.06-.18.12-.79,1.34-1.96,2.22-3.51,2.64,0,0,0,0-.01,0-.08.03-.13.12-.1.2,0,0,0,0,0,0,1.07,2.33,3.27,6.91,1.87,9.07-1.82,2.8-9.84,2.71-12.89,2.7-2.82,0-5.38.45-8.1.75-1.27.14-3.22.36-4.13-.71-1.27-1.48-3.41-2.99-4.56-4.7-.93-1.38-.4-2.78-.69-4.27-.68-3.61-4.18-3.51-7.17-3.77-.12-.01-.17.04-.13.15.64,2.05,2.41,3.8,3.78,5.46,1.91,2.32,1.73,4.76-1.16,6.06-2.18.98-4.57,2.1-7.01,1.36-.1-.03-.2-.02-.29.04-2.95,2.1-8.07,1.5-11.5,1.12-4.4-.48-8.79-.35-13.2-.24-.72.02-1.66.13-2.8.35-1.93.36-4.17.32-5.8.48-3.93.37-7.52.52-11.62.03-4.37-.52-8.75-.98-13.13-1.39-.11-.01-.2.03-.27.12-1.5,2.14-4.91,2.08-7.69,2.33-2.54.23-5.61.97-9.22,2.22-4.68,1.63-9.39,3.18-14.13,4.67-.04.01-.07,0-.08-.04,0-.03-.02-.06-.03-.09-.01-.04,0-.07.04-.09,3.46-1.63,6.88-4.75,7.83-8.44,0,0,0-.02,0-.03,0-.07-.06-.12-.13-.12-.03,0-.06,0-.08.03-3.15,2.3-6.35,4.6-10.34,5.33-3.86.7-7.72,1.19-11.57,1.47-.05,0-.1-.04-.1-.09,0-.04.02-.07.06-.08l12.08-3.56s.03-.02.03-.04c0-.02-.02-.04-.04-.04h0c-5.53.58-11.05,1.31-16.56,2.21-.24.04-.43.05-.58.04-.18-.02-.2-.08-.05-.19,3.61-2.63,7.62-4.5,12.03-5.63.02,0,.04-.02.05-.03.03-.04.02-.09-.02-.12-.02-.01-.04-.02-.06-.02-3.46.09-6.79.43-9.99,1.02-3.4.63-6.76,1.34-10.08,2.14,0,0,0,0,0,0-.01,0-.03,0-.03-.02,0,0,0-.02.01-.02l4.9-2.33c.39-.19.37-.24-.05-.16-2.48.45-4.71.85-7.34,1.49-5.92,1.43-11.95,2.15-18.09,2.16-.04,0-.04,0,0-.01,1.63-.45,3.27-.82,4.94-1.11.62-.11.61-.16-.02-.16-4.48-.03-8.98-.62-13.73.25-3.75.69-7.08,1.07-10.35-.71-.46-.25-.94-.4-1.44-.44-4.65-.44-8.26-1.14-11.7-4.26-.19-.17-.15-.23.1-.19,2.56.45,5.14.64,7.74.55,2.89-.1,4.62-.96,6.37-3,.35-.41.25-.59-.3-.54l-6.86.65s0,0,0,0c-.01,0-.03-.01-.03-.02,0-.01,0-.02.02-.02,1.11-.48,2.15-1.06,3.12-1.76.2-.14.17-.18-.06-.14-.95.19-1.85.5-2.68.92-.07.04-.13.04-.16.02-.05-.03-.05-.06,0-.08,2.72-1.39,5.73-3.46,6.41-6.64.42-2,.7-3.53,2.02-5.11,1.34-1.61,2.91-2.98,4.58-3.84.03-.02.06-.05.06-.09,0-.05-.05-.1-.1-.1,0,0-.01,0-.02,0-2.09.42-4.06,1.15-5.9,2.19-.01,0-.03,0-.04,0-.04,0-.08-.03-.08-.07,0-.02,0-.04.02-.05,5.38-5.56,14.47-7.28,22.03-7.78,2.16-.14,4.35-.29,6.56-.44h0s.07-.03.07-.07-.03-.07-.07-.07l-3.49-.41c-.39-.05-.39-.09,0-.13.62-.06,1.33-.06,2.13-.01,3.97.26,7.94.33,11.91.23,1.98-.05,3.79.23,5.71.5,0,0,.01,0,.02,0,.05,0,.09-.04.09-.08,0-.04-.03-.07-.07-.08l-2.93-.97c-.45-.15-.44-.23.04-.23,4.01,0,7.05,1.5,11.05,2.88.17.06.23,0,.2-.16l-.57-2.76c-.02-.1-.09-.15-.19-.16l-2.28-.05s-.09,0-.13.02c-.08.03-.17.04-.26.03-.16-.02-.16-.05-.02-.11,4.22-1.74,4.36-4.94,5.14-8.69.52-2.53,1.43-5.4,1.79-8.22h0s-.03-.07-.06-.07c-.02,0-.04,0-.05.02l-3.06,3.61s-.06.05-.1.05c-.07,0-.13-.06-.13-.13,0-.02,0-.04.02-.06,2.64-4.45,5.38-8.57,4.88-13.94-.12-1.31-.15-2.15.13-3.25,0,0,0-.01,0-.02,0-.06-.05-.11-.12-.11-.04,0-.07.02-.09.05-.95,1.36-1.88,2.71-2.8,4.04-.02.03-.05.04-.09.02-.04-.02-.05-.05-.03-.08l3.3-6.4c.49-.94.35-1.03-.4-.27l-5.1,5.16c-.06.06-.11.05-.15-.02-.04-.08-.04-.14,0-.2,1.82-2.32,3.36-4.81,4.61-7.44,1.04-2.19,2.75-3.76,3.9-5.86,1.07-1.96,1.78-3.51,2.13-4.66,1.15-3.84,1.67-6.18,4.1-8.66,4.22-4.3,7.49-7.43,9.14-12.92,1.41-4.7,4.79-8.19,7.37-12.04.41-.61.72-1.29.92-2.04.74-2.75,1.4-5.31,2.37-8.19,1.82-5.41,2.71-10.53,3.74-15.89.15-.76.63-1.7,1.46-2.8,1.6-2.12,3.46-4.77,4.06-7.34,1.31-5.52,4.9-8.96,8.4-12.84.39-.43.68-.92.87-1.46,1.5-4.34,2.91-9.84,6.15-13.31,4.48-4.81,11.32-8.49,13.34-14.93,0,0,0-.02,0-.03,0-.06-.05-.1-.11-.1-.02,0-.04,0-.06.02l-4.29,2.61c-.31.19-.38.14-.18-.17,2.05-3.25,4.23-6.08,7.48-8.23.6-.4,1.06-.73,1.37-.99.03-.03.05-.07.05-.11,0-.08-.07-.14-.15-.14-.01,0-.03,0-.04,0l-3.26.99c-.12.03-.13,0-.05-.08l1.46-1.59c.16-.17.19-.39.08-.52-.02-.03-.1,0-.22.08-1.03.66-2.06,1.3-3.09,1.91-.01,0-.03.01-.04.01-.04,0-.08-.03-.08-.08,0-.01,0-.02,0-.03.93-2,2.37-3.54,4.32-4.65.05-.02.07-.06.07-.11,0-.06-.05-.12-.12-.12-.02,0-.03,0-.05.01l-2,.62s-.02,0-.04,0c-.06,0-.12-.05-.12-.11,0-.03.01-.06.04-.08,1.39-1.25,3.29-2.96,5.09-3.54.1-.03.13-.09.08-.19-.34-.63-2.03-.32-2.69-.33-.21,0-.23-.07-.07-.19.19-.15.4-.26.63-.32.02,0,.04-.02.06-.03l2.33-2.21c.08-.07.12-.17.12-.27,0-.16-.1-.3-.26-.35l-.46-.16c-.08-.02-.13-.09-.13-.17,0-.09.07-.17.16-.18l1.52-.2c.11-.02.16-.08.14-.18-.06-.42-.32-.65-.79-.7-1.03-.1-1.95-.36-2.76-.76-.07-.04-.12-.11-.12-.19,0-.1.07-.19.17-.21l5.29-1.21c.14-.03.18-.11.11-.23-.46-.82-1.16-1.36-2.09-1.61-.24-.06-.24-.13,0-.2.89-.26,1.81-.43,2.76-.53.99-.1,1.03-.34.12-.73-1.01-.43-2.05-.45-3.13-.05-.01,0-.02,0-.04,0-.04,0-.08-.03-.08-.08,0-.03.02-.05.04-.07,1.59-1.05,3.29-1.93,5.12-2.65.35-.13,1.14-.8,1.36-1.12.87-1.24,1.96-2.26,3.26-3.06.05-.03.09-.09.1-.15l.68-6.79s0,0,0-.01c0-.02-.02-.04-.04-.04-.02,0-.03.01-.04.03-.93,1.54-1.42,3.2-1.47,4.98,0,.04-.04.07-.08.07-.04,0-.07-.02-.08-.06-.88-3.9-.17-7,1.03-10.94.07-.21.02-.24-.14-.08-2.19,2.19-3.53,4.78-4.02,7.79,0,.02-.02.03-.04.03-.02,0-.04-.02-.04-.04h0c-.17-1.76.02-3.47.54-5.11.78-2.44,2.87-4.67,3.52-7.31,0-.01,0-.02,0-.03,0-.06-.05-.12-.12-.12-.04,0-.08.02-.1.05-1.35,1.63-2.59,3.32-3.73,5.08-.02.03-.03.03-.04,0,0-.03-.02-.06-.04-.08-.02-.02-.02-.05,0-.08,1.52-2.88,2.92-5.79,4.2-8.74,0-.01,0-.03,0-.04,0-.06-.05-.1-.11-.1-.03,0-.06.01-.08.03-1.15,1.19-2.37,2.3-3.67,3.33-.36.28-.44.23-.23-.16.1-.19.31-.5.63-.92.84-1.12,1.49-2.3,1.95-3.54.01-.03.01-.05,0-.08-.02-.08-.1-.14-.19-.13-.03,0-.05.02-.07.03-1.14.86-2.15,1.84-3.03,2.94-.03.03-.07.05-.11.05-.08,0-.14-.06-.14-.14,0-.02,0-.04.01-.06l3.11-5.55s0-.02,0-.03c0-.04-.03-.07-.07-.07-.01,0-.03,0-.04.01-1.63,1.21-2.92,2.69-3.85,4.46-.02.04-.05.05-.1.04-.03-.01-.04-.04-.02-.08.69-1.93,1.37-3.86,2.03-5.79,1.83-5.28,2.66-8.11,6.11-11.45.02-.02.04-.05.04-.09,0-.07-.06-.13-.13-.13-.02,0-.04,0-.06.01-1.43.66-2.63,1.59-3.62,2.78-.05.06-.08.14-.07.22,0,.06-.02.1-.08.13-.08.04-.1.02-.09-.06.76-3.92,3.46-5.6,5.37-9.02.57-1.02,1.05-2.12,1.45-3.28.36-1.06.23-1.11-.39-.17l-1.15,1.77s-.04.03-.06.03c-.04,0-.07-.03-.07-.07,0,0,0-.01,0-.02.47-1.38.74-2.88,1.68-4.06.92-1.17,1.78-2.37,2.58-3.62.08-.13.06-.15-.08-.08h0Z" fill="#a67b5b" stroke-width="0"/>
</svg>