<?xml version="1.0" encoding="UTF-8"?>
<svg id="uuid-a943e791-7abf-4348-90c5-b4c0c1672a40" data-name="Layer 1" xmlns="http://www.w3.org/2000/svg" xmlns:xlink="http://www.w3.org/1999/xlink" viewBox="0 0 1920 248.38">
  <defs>
    <clipPath id="uuid-1f1dc433-521b-4b3e-8b3f-d1647e1fe13e">
      <polygon points="1936.87 379.11 1936.87 -252.86 -127.91 -252.86 -127.91 379.11 1936.87 379.11 1936.87 379.11" clip-rule="evenodd" fill="none" stroke="#e5d2bf" stroke-miterlimit="10"/>
    </clipPath>
    <clipPath id="uuid-f6032e2d-f055-4569-82b9-3d345fb84f47">
      <rect x="-128.03" y="-252.86" width="2064.7" height="631.97" clip-path="url(#uuid-1f1dc433-521b-4b3e-8b3f-d1647e1fe13e)" fill="none" stroke="#e5d2bf" stroke-miterlimit="10"/>
    </clipPath>
  </defs>
  <g opacity=".1">
    <g>
      <g clip-path="url(#uuid-f6032e2d-f055-4569-82b9-3d345fb84f47)">
        <path d="M2018.21,234.09c-195.23,13.47-400.47,22.12-609.06,28.3-92.69,2.75-186.04,5-279.48,6.98-93.61,1.98-187.32,3.66-280.51,5.27-126.21,2.19-251.48,4.26-374.41,6.6-18.88.37-37.84.54-56.87.61-76.44.25-153.76-1.31-229.68.05-37.92.68-74.37,2.31-109.89,4.55-53.19,3.35-104.28,8.05-155.16,12.91-21.99,2.1-43.45,4.82-65.97,6.8-9.62.85-19.43,1.56-29.56,2.03-15.75.73-32.5,1.06-49.66,1.18-39.46.26-81.06-.63-117.73-.59-.87,0-1.57.14-1.57.32s.7.32,1.57.32c36.72.04,78.32,1.03,117.85.85,17.47-.08,34.53-.39,50.6-1.1,10.46-.46,20.6-1.18,30.55-2.03,22.65-1.94,44.28-4.62,66.41-6.68,50.82-4.72,101.84-9.3,154.88-12.53,35.08-2.14,71.03-3.68,108.4-4.28,75.79-1.23,152.84.47,229.1.34,19.3-.03,38.55-.18,57.72-.52,122.96-2.22,248.29-4.1,374.49-6.25,93.29-1.59,187.06-3.32,280.73-5.35,93.57-2.03,187.04-4.39,279.81-7.25,208.92-6.45,414.31-15.48,609.54-29.27,1.69-.12,2.59-.49,2.01-.84-.58-.34-2.42-.53-4.11-.41h0Z" fill="#9d6e2f" fill-rule="evenodd" stroke="#e5d2bf" stroke-miterlimit="10"/>
        <path d="M-211.99,276.66c54.14.04,109.55.54,164.45.54,23.7,0,47.3-.09,70.67-.35,14.25-.16,28.46-.45,42.66-.82,55.96-1.46,111.68-4.17,168.14-4.85,94.05-1.14,187.36-2.3,280.73-3.61,62.25-.88,124.51-1.82,187.04-2.86,51.89-.87,103.87-2.23,155.86-3.86,60.09-1.88,120.2-4.1,180.23-6.29,60.12-2.18,120.16-4.34,180.05-6.03,62.75-1.79,125.59-3.65,188.45-5.57,146.37-4.48,292.9-9.23,439.06-13.74,48.06-1.49,96.07-3.29,144.33-4.63,32.1-.9,64.32-1.6,96.73-1.87,18.35-.16,46.47-1.09,71.61-.85,17.47.16,33.51.88,43.56,2.87.62.12,1.61.12,2.22,0,.6-.13.6-.33-.02-.45-8.11-1.64-19.99-2.51-33.48-2.91-27.82-.83-62.59.31-84.04.45-32.58.21-64.97.85-97.27,1.69-48.35,1.25-96.47,2.95-144.61,4.35-146.34,4.26-293.08,8.73-439.6,12.98-62.9,1.83-125.75,3.62-188.52,5.33-60.08,1.65-120.34,3.73-180.64,5.89-59.97,2.15-119.98,4.37-179.97,6.26-51.7,1.63-103.36,3.03-154.96,3.92-62.46,1.09-124.67,2.07-186.84,3.01-93.3,1.41-186.54,2.7-280.53,3.95-56.66.76-112.51,3.55-168.65,5.1-13.98.39-27.99.69-42.02.87-23.21.3-46.67.43-70.21.47-54.89.09-110.3-.32-164.42-.28-1.79,0-3.24.3-3.24.66s1.45.66,3.24.66h0Z" fill="#9d6e2f" fill-rule="evenodd" stroke="#e5d2bf" stroke-miterlimit="10"/>
        <path d="M1992.91,196.88c-62.8,1.47-126.11,3.6-189.33,5.3-27.09.73-54.16,1.37-81.17,1.85-51.27.9-102.93,1.23-154.76,1.29-120.83.14-242.59-1.22-362.54-.57-81.33.51-163.01,1.02-244.8,1.74-122.23,1.07-244.73,2.52-366.8,4.63-135.98,2.34-271.39,5.54-405.32,9.99-.85.03-1.44.19-1.31.37.13.17.94.29,1.79.27,134.06-4.09,269.54-6.88,405.5-8.9,122.05-1.82,244.49-2.98,366.62-3.9,81.77-.62,163.4-1.15,244.69-1.62,119.84-.78,241.54.49,362.27.18,52.09-.14,104-.58,155.5-1.58,27.12-.53,54.3-1.23,81.48-2.01,63.11-1.82,126.27-4.1,188.95-5.7,1.77-.04,3.04-.37,2.83-.73-.21-.36-1.83-.62-3.6-.58h0Z" fill="#9d6e2f" fill-rule="evenodd" stroke="#e5d2bf" stroke-miterlimit="10"/>
        <path d="M2014.01,177.24c-31.72.17-62.54.78-92.96,1.62-71.55,1.97-140.84,5.17-214.28,6.6-73.26,1.44-146.55,2.87-219.96,4.19-48.85.88-97.74,1.71-146.73,2.45-36.97.56-74.34.77-111.87.8-87.43.06-175.77-.88-262.18-.89-114.71.07-230.62-.74-345.95-.57-49.63.07-99.16.34-148.43.91-14.15.17-28.28.41-42.4.7-56.06,1.16-111.99,3.07-168.21,3.77-79.06.99-156.75.78-235.01,1.68-33.35.38-66.79.96-100.49,1.91-.86.02-1.46.18-1.35.36.11.18.9.3,1.76.28,33.65-.86,67.03-1.35,100.3-1.65,78.34-.7,156.04-.33,235.18-1.13,56.34-.58,112.46-2.37,168.66-3.41,14.01-.26,28.02-.47,42.04-.61,49.13-.48,98.5-.64,147.98-.64,115.32,0,231.2.91,345.91.98,86.43-.01,174.8.93,262.24.82,37.82-.05,75.47-.31,112.71-.91,49.02-.8,97.95-1.68,146.82-2.63,73.39-1.42,146.65-2.98,219.88-4.53,73.51-1.57,142.78-4.89,214.37-6.99,30.14-.88,60.69-1.55,92.15-1.78,1.79-.01,3.19-.32,3.14-.68-.05-.36-1.55-.65-3.33-.64h0Z" fill="#9d6e2f" fill-rule="evenodd" stroke="#e5d2bf" stroke-miterlimit="10"/>
        <path d="M-212.18,220.02c29.75-.22,59.49-.59,89.23-1.07,23.73-.38,47.45-.82,71.16-1.31,23.66-.49,47.32-1,70.95-1.55,28.35-.66,56.64-1.36,84.98-1.95,42.58-.89,85.15-1.63,127.9-1.86.86,0,1.57-.14,1.57-.32s-.7-.32-1.57-.32c-29.81-.16-59.59-.12-89.4.11-29.76.23-59.5.63-89.23,1.13-14.24.24-28.47.5-42.69.81-21.3.45-42.57.97-63.83,1.48-21.25.52-42.48,1.05-63.72,1.55-31.9.75-63.77,1.46-95.71,1.97-1.78.02-3.15.33-3.05.7.1.36,1.63.64,3.42.62h0Z" fill="#9d6e2f" fill-rule="evenodd" stroke="#e5d2bf" stroke-miterlimit="10"/>
        <path d="M-185.77,176.86c70.1-3.96,143.33-6.01,217.49-7.12,110.89-1.65,223.87-1.18,331.66-1.73,96.8-.52,286.35-2.74,428.55-14,105.19-8.33,184.26-21.64,184.3-42.44-.01-2.22,2.27-5.27,1.58-7.97-.35-1.37-1.45-2.66-3.74-3.74-7.82-3.7-31.05-7.54-58.79-10.87-37.42-4.5-82.77-8.2-105.38-9.83-26.84-1.94-55.54-3.08-84.79-3.85-42.94-1.13-87.1-1.46-128.24-2.45-117.29-2.8-234.85-4.72-351.85-7.72-50.06-1.28-100.02-2.76-149.81-4.59-58.42-2.15-119.81-2.84-178.79-5.26-25.27-1.04-50.1-2.39-74.06-4.32-.8-.07-1.72.01-2.04.18-.32.16.07.35.87.42,24.05,1.99,49.01,3.41,74.43,4.51,58.87,2.54,120.22,3.36,178.55,5.62,49.81,1.93,99.81,3.51,149.92,4.89,116.87,3.21,234.37,5.32,351.56,8.32,41.06,1.05,85.16,1.45,128.02,2.63,28.43.79,56.31,1.91,82.37,3.83,22.12,1.63,66.48,5.3,103.06,9.75,25.01,3.04,46.54,6.39,53.55,9.74,2.32,1.11,2.85,2.49,2.82,3.94-.06,2.37-1.78,4.88-1.79,6.78.04,19.75-76.41,32.13-176.22,40.09-140.76,11.23-328.46,13.62-424.36,14.22-107.9.7-221.03.38-331.99,2.19-74.6,1.22-148.22,3.41-218.62,7.51-1.72.1-2.72.46-2.24.81.48.35,2.27.56,3.99.46h0Z" fill="#9d6e2f" fill-rule="evenodd" stroke="#e5d2bf" stroke-miterlimit="10"/>
        <path d="M-160.75,164.93c.05,0,.09-.05.11-.09,0-.01.01-.03.01-.04v.04s-.07.06-.12.09c-.01,0-.03,0-.05-.01-.94-.49,9.52.05,11.32-.01,30.08-.98,59.49-2.82,89.67-4.11,7.43-.32,14.91-.6,22.46-.83,8-.24,16.06-.39,24.16-.49,32.57-.39,65.79.09,98.11-.75,36.82-.96,73.68-1.5,110.57-1.84,86.49-.81,173.09-.54,259.53-1.92,18.5-.3,37-1.05,55.43-2.05,41.68-2.26,83.02-5.79,123.35-8,34.6-1.9,74.71-3.14,109.98-6.09,24.4-2.04,46.49-4.9,63.21-9.27,5.22-1.37,7.68-3.31,8.15-5.4.62-2.74-2.07-5.73-4.73-7.73-6.74-5.05-20.06-9.25-37.22-12.76-25.1-5.14-58.47-8.82-90.94-11.62-13.84-1.19-27.8-1.91-41.85-2.38-32.24-1.08-64.93-.8-97.55-2.03-9.24-.35-18.41-.76-27.53-1.2-36.99-1.79-73.22-4.15-110.55-5.65-20.75-.83-41.85-1.47-63.06-2-31.63-.78-63.53-1.3-94.91-1.83-50.59-.86-101.17-1.88-151.53-3.18-50.4-1.3-100.59-2.88-150.36-4.86-26.87-1.07-52.01-2.83-78.54-4.12-6.59-.32-13.26-.62-20.06-.87-1.76-.07-3.45.17-3.77.53-.32.36.84.7,2.6.77,6.67.26,13.2.56,19.65.89,26.58,1.35,51.74,3.16,78.67,4.29,49.86,2.08,100.15,3.76,150.68,5.16,50.44,1.39,101.1,2.49,151.8,3.43,31.23.58,62.97,1.15,94.45,1.97,20.93.55,41.74,1.2,62.2,2.05,37.15,1.54,73.18,3.94,109.99,5.76,9.3.46,18.65.88,28.08,1.25,32.67,1.26,65.43,1.01,97.73,2.12,13.1.45,26.12,1.12,39.02,2.24,30.98,2.68,62.88,6.19,86.83,11.1,15.62,3.21,27.85,7.02,34,11.62,2.41,1.79,4.89,4.48,4.36,6.94-.33,1.52-1.69,2.95-5.46,3.95-15.28,4.03-35.63,6.63-58,8.53-34.72,2.95-74.26,4.21-108.34,6.13-40.26,2.27-81.47,5.86-123.07,8.19-17.79,1-35.64,1.76-53.53,2.08-86.24,1.55-172.75,1.44-259.08,2.44-37.05.43-74.06,1.06-111,2.11-32.13.91-65.23.51-97.63.97-8.24.12-16.43.29-24.56.56-7.62.25-15.18.55-22.68.89-30.05,1.36-59.31,3.27-89.28,4.33-1.58.06-7.23-.09-10.32,0-2.28.07-3.44.31-3.43.57,0,.18.7.32,1.57.32.65,0,1.2-.08,1.44-.2h0Z" fill="#9d6e2f" fill-rule="evenodd" stroke="#e5d2bf" stroke-miterlimit="10"/>
        <path d="M-178.41,90.71c13.08,1.03,26.18,2.05,39.31,3.05,52.5,4,105.24,7.79,157.55,11.9,11.38.89,22.54,1.91,33.6,2.98,26.07,2.53,51.57,5.38,77.85,7.75,18.12,1.63,37.48,2.48,55.95,3.88,4.4.33,8.75.7,13.02,1.12,18.75,1.83,49.84,4.37,72.36,7.95,14.51,2.3,25.59,5.01,25.6,8.36.03,2.08-5.21,3.73-13.83,5.09-11.04,1.74-27.31,2.99-46.3,3.94-67.8,3.41-169.37,2.9-204.42,4.03-14.92.49-29.7,1.09-44.39,1.76-34.14,1.56-67.87,3.45-102.15,4.93-17.18.74-40.21.77-60.29,1.48-9.36.33-18.1.81-25.36,1.58-.77.08-1.09.27-.7.43.39.16,1.33.22,2.1.14,7.06-.7,15.52-1.12,24.56-1.39,20.25-.62,43.37-.54,60.7-1.2,34.44-1.33,68.38-3.06,102.69-4.47,14.61-.6,29.28-1.14,44.08-1.56,35.35-1.02,137.5-.14,205.92-3.38,20.96-.99,38.83-2.39,51.06-4.28,12.04-1.86,18.86-4.2,18.91-7.09,0-4.11-12.58-7.58-30.44-10.4-23.29-3.68-55.43-6.29-74.84-8.17-4.63-.45-9.34-.83-14.11-1.19-18.31-1.35-37.51-2.14-55.5-3.72-26.32-2.3-51.87-5.08-78-7.53-11.38-1.07-22.87-2.07-34.57-2.94-52.67-3.93-105.72-7.55-158.59-11.37-13.18-.95-26.35-1.92-39.49-2.9-1.67-.13-3.54.04-4.17.38-.63.34.21.72,1.89.85h0Z" fill="#9d6e2f" fill-rule="evenodd" stroke="#e5d2bf" stroke-miterlimit="10"/>
        <path d="M-151.11,150.77c17.03-.57,107.01-2.67,173.07-5.07,24.67-.9,46.03-1.85,59.2-2.74,8.84-.6,14.38-1.29,16.3-1.83,3.02-.86,5.85-2.94,6.32-4.84.37-1.52-.99-2.92-3.62-3.63-2-.54-4.32-.98-6.83-1.35-4.66-.69-10.11-1.11-14.6-1.9-21.75-3.75-45.73-9.16-71.16-13.19-11.79-1.87-23.9-3.45-36.17-4.48-16.98-1.41-36.03-2.34-55.68-2.99-28.74-.95-58.69-1.31-84.95-1.79-.86-.02-1.64.11-1.73.28-.1.18.52.33,1.38.35,26.01.7,55.71,1.32,84.1,2.49,18.91.78,37.21,1.81,53.4,3.3,11.37,1.04,22.44,2.62,33.28,4.44,24.77,4.17,48.12,9.65,69.36,13.5,4.73.84,10.41,1.32,15.33,2.06,1.51.23,2.94.48,4.15.81.61.17.76.44.95.74.33.56.26,1.21-.07,1.87-.59,1.16-1.84,2.32-3.64,2.83-.39.11-1.33.19-2.51.31-1.98.2-4.53.41-7.56.62-12.76.9-33.48,1.86-57.38,2.83-65.71,2.69-155.16,5.4-172.08,6.07-1.76.06-2.93.41-2.62.77.31.36,1.99.6,3.75.53h0Z" fill="#9d6e2f" fill-rule="evenodd" stroke="#e5d2bf" stroke-miterlimit="10"/>
        <path d="M1377.92,116.73c40.2,12.32-.12,21.91-70.72,29.5-136.03,14.62-384.83,21.62-443.51,23.44-54.74,1.71-107.24,5.67-160.87,8.31-22.77,1.12-45.73,2-69.18,2.36-85.84,1.31-171.92,2.43-258.07,3.42-86.11.99-172.28,1.85-258.33,2.61-77.12.69-153.89,3.66-230.7,5.42-33,.76-65.99,1.29-99.03,1.31-.87,0-1.57.14-1.57.32s.7.32,1.57.32c33.16.03,66.3-.46,99.45-1.16,76.74-1.64,153.49-4.5,230.5-5.08,86.11-.64,172.33-1.37,258.5-2.24,86.23-.87,172.4-1.89,258.33-3.08,23.96-.33,47.44-1.2,70.73-2.32,53.41-2.56,105.71-6.46,160.21-8.09,59.22-1.79,310.31-8.64,447.7-23.3,78.79-8.41,120.24-19.44,75.39-33.19-1.33-.41-4.84-.97-10.55-1.53-8.03-.79-21.15-1.75-37.2-2.8-60.53-3.95-163.59-9.21-185.55-11.13-74.77-6.52-137.99-16.19-208-23.82-17.64-1.92-35.7-3.72-54.47-5.31-119.23-10.08-239.34-17.32-361.61-22.85-121.89-5.51-245.92-9.31-373.31-12.58-81.1-2.07-160.07-5.36-240.2-7.67-34.33-.99-68.86-1.8-103.87-2.27-1.78-.02-3.33.25-3.45.61-.12.36,1.23.68,3.01.7,34.82.5,69.17,1.35,103.3,2.38,80.11,2.41,159.04,5.78,240.13,7.95,127.02,3.39,250.65,7.32,372.14,12.92,121.52,5.61,240.9,12.88,359.34,23.01,18.39,1.57,36.08,3.34,53.35,5.24,70.23,7.71,133.69,17.43,208.74,24.01,22.08,1.93,125.71,7.27,186.6,11.25,15.35,1,27.92,1.91,35.6,2.66,2.52.25,5.3.63,5.61.67h0Z" fill="#9d6e2f" fill-rule="evenodd" stroke="#e5d2bf" stroke-miterlimit="10"/>
        <path d="M2003.17,138.28c-55.11-.09-111.83.03-167.96.95-37.59.62-74.91,1.59-111.32,3.09-43.78,1.81-86.97,4.18-129.86,6.82-49.7,3.06-99.03,6.46-148.48,9.75-49.36,3.28-98.79,6.47-149.04,8.97-52.12,2.63-103.88,4.61-155.69,6.27-78.31,2.51-156.71,4.27-236.64,6.26-.86.02-1.48.18-1.38.35.1.18.87.3,1.73.28,80.2-1.64,158.87-3.03,237.49-5.24,52.23-1.46,104.42-3.29,157.03-5.75,57.86-2.75,114.85-6.33,171.57-10.1,56.43-3.76,112.61-7.7,169.5-11.01,28.46-1.66,57.06-3.18,85.96-4.44,35.92-1.58,72.78-2.65,109.92-3.37,55.82-1.09,112.27-1.42,167.15-1.51,1.79,0,3.24-.3,3.24-.66s-1.45-.66-3.24-.66h0Z" fill="#9d6e2f" fill-rule="evenodd" stroke="#e5d2bf" stroke-miterlimit="10"/>
        <path d="M1961.24,106.66c-62.69.72-129.42,1.5-195.36,1.56-44.12.04-87.88-.25-129.83-1.11-25.29-.52-50.58-1.35-75.84-2.34-59-2.33-117.79-5.57-175.8-7.98-33.49-1.38-70.37-2.42-105.92-3.98-23.64-1.04-46.68-2.32-67.69-4.11-17.46-1.48-34.54-3.17-51.42-4.97-67.6-7.21-131.73-16.36-201.07-22.83-20.59-1.91-41.79-3.41-63.29-4.72-31.95-1.94-64.55-3.46-96.73-5.29-79.13-4.49-154.67-9.59-232.24-13.71-51.32-2.72-103.53-5.01-158.24-6.41-.86-.02-1.65.1-1.76.27-.11.18.49.34,1.35.36,54.41,1.57,106.25,4.01,157.2,6.88,77.25,4.34,152.43,9.65,231.22,14.36,32.01,1.91,64.46,3.5,96.24,5.51,20.96,1.33,41.63,2.84,61.67,4.75,68.95,6.56,132.5,15.82,199.79,23.08,17.18,1.85,34.61,3.56,52.41,5.08,21.71,1.84,45.5,3.16,69.93,4.22,35.63,1.55,72.61,2.55,106.18,3.91,58.12,2.33,117.04,5.5,176.17,7.73,25.61.96,51.26,1.75,76.89,2.22,42.31.78,86.42.98,130.87.85,66.08-.2,132.91-1.15,195.68-2.02,1.78-.02,3.14-.34,3.03-.7-.11-.36-1.65-.64-3.43-.62h0Z" fill="#9d6e2f" fill-rule="evenodd" stroke="#e5d2bf" stroke-miterlimit="10"/>
        <path d="M1957.72,69.81c-165.56,1.11-328.36,1.59-490.38-.97-107.7-1.7-215.06-4.73-322.65-9.85-30.93-1.47-62.27-3.46-93.5-5.67-46.84-3.32-93.45-7.14-138.09-10.45-40.43-2.99-81.37-5.52-122.69-7.76-61.83-3.35-124.48-6.05-187.34-8.76-84.91-3.64-170.93-5.18-257.37-6.01-128.87-1.24-258.65-.92-387.07-3.78-53.25-1.19-106.27-2.92-158.9-5.53-.84-.04-1.69.06-1.9.23-.21.17.3.35,1.14.39,52.64,2.75,105.73,4.62,159.09,5.93,128.36,3.15,258.26,3.12,387.17,4.61,85.85.99,171.27,2.65,255.49,6.4,62.59,2.78,124.93,5.57,186.49,8.96,40.92,2.26,81.51,4.77,121.56,7.75,44.71,3.31,91.39,7.13,138.32,10.44,31.68,2.23,63.47,4.23,94.84,5.7,108.3,5.04,216.3,8,324.62,9.56,162.43,2.34,325.54,1.55,491.39.16,1.79-.01,3.18-.32,3.11-.68-.07-.36-1.57-.65-3.35-.64h0Z" fill="#9d6e2f" fill-rule="evenodd" stroke="#e5d2bf" stroke-miterlimit="10"/>
        <path d="M1953.05,25.33c-95.74-.13-191.8.11-287.87.26-63.94.1-127.89.14-191.76-.01-68.51-.16-136.93-.52-205.15-1.35-49.06-.54-99.54-1.56-149.92-2.86-50.31-1.3-100.52-2.87-149.08-4.6-30.96-1.1-59.92-3.21-90-4.69-12.98-.64-26.17-1.16-39.79-1.45-20.79-.43-41.72-.65-62.71-.76-48.58-.25-97.52.09-146.02-.32-.86,0-1.6.13-1.64.3-.04.18.62.33,1.49.34,48.46.59,97.42.44,145.97.87,20.82.19,41.55.48,62.14.98,13.27.33,26.09.89,38.7,1.55,30.16,1.6,59.16,3.81,90.23,5.01,48.6,1.87,98.85,3.61,149.25,5.03,50.59,1.42,101.33,2.51,150.65,3.15,36.53.44,73.11.76,109.73.97,54.81.3,109.71.37,164.64.29,137.13-.19,274.44-1.21,411.14-1.39,1.79,0,3.24-.3,3.24-.66,0-.36-1.45-.66-3.24-.66h0Z" fill="#9d6e2f" fill-rule="evenodd" stroke="#e5d2bf" stroke-miterlimit="10"/>
        <path d="M1961.47,39.13c-25.02.49-49.39.33-73.63-.08-36.76-.62-73.19-1.84-110.95-2.49-18-.29-36.11-.51-54.29-.64-18.04-.13-36.16-.19-54.31-.18-33.66.02-67.45.25-101.2.52-50.82.41-101.49.97-151.48,1.19-.87,0-1.57.14-1.57.32s.7.32,1.57.32c50.03.22,100.8.17,151.69.12,33.67-.03,67.37-.03,100.93.06,18.04.05,36.03.11,53.96.22,18.03.11,35.99.26,53.86.49,37.82.45,74.37,1.5,111.19,1.9,24.73.26,49.57.23,74.96-.44,1.78-.04,3.05-.37,2.86-.73-.2-.36-1.8-.62-3.58-.58h0Z" fill="#9d6e2f" fill-rule="evenodd" stroke="#e5d2bf" stroke-miterlimit="10"/>
        <path d="M-183.5-.33C-59.1.64,67,2.55,192.94,3.28c84.13.49,168.18.44,251.61-.71,54.34-.77,110.6-2,166.59-2.42,37.13-.28,74.15-.21,110.41.62,52.94,1.18,105.6,2.6,158.23,4,52.78,1.41,105.54,2.81,158.48,4.01,45.31,1.02,90.76,1.88,136.49,2.46,119.04,1.47,236.58-.23,354.61.31,50.24.23,100.57.86,151.15,2.33.86.03,1.65-.09,1.78-.27.13-.17-.46-.34-1.32-.36-50.64-1.61-101.08-2.39-151.47-2.75-117.84-.84-235.33.58-354.13-1.18-45.54-.67-90.78-1.62-135.88-2.72-52.82-1.29-105.44-2.79-158.11-4.25-52.68-1.47-105.42-2.91-158.44-4.13-36.89-.83-74.53-.91-112.28-.61-56.13.45-112.5,1.74-166.96,2.56-83.03,1.27-166.73,1.41-250.52,1.07C67.26.7-58.88-.93-183.28-1.65c-1.79-.01-3.28.27-3.34.64-.06.36,1.34.67,3.13.68h0Z" fill="#9d6e2f" fill-rule="evenodd" stroke="#e5d2bf" stroke-miterlimit="10"/>
      </g>
      <polygon points="1936.87 379.11 1936.87 -252.86 -127.91 -252.86 -127.91 379.11 1936.87 379.11 1936.87 379.11" fill="none" fill-rule="evenodd" stroke="#e5d2bf" stroke-miterlimit="10"/>
      <rect x="-128.03" y="-252.86" width="2064.7" height="631.97" fill="none" stroke="#e5d2bf" stroke-miterlimit="10"/>
    </g>
    <g>
      <path d="M-146.23,361.09c28.72-.74,57.44-1.07,86.2-1.28,16.13-.12,32.26-.18,48.41-.24,10.77-.04,21.54-.1,32.32-.15,16.19-.08,32.37-.17,48.58-.26,24.34-.13,48.64-.3,73-.5.87,0,1.57-.14,1.57-.32s-.7-.32-1.57-.32c-17.39-.15-34.71-.34-52.08-.51-17.4-.17-34.76-.33-52.14-.44-11.62-.07-23.22-.12-34.83-.12-11.63,0-23.26.07-34.87.17-15.51.13-30.99.35-46.45.66-23.15.46-46.17,1.13-69.16,2.01-1.76.06-2.97.39-2.7.75.28.36,1.93.61,3.7.55h0Z" fill="none" fill-rule="evenodd" stroke="#e5d2bf" stroke-miterlimit="10"/>
      <polygon points="1936.87 379.11 1936.87 -252.86 -127.91 -252.86 -127.91 379.11 1936.87 379.11 1936.87 379.11" fill="none" fill-rule="evenodd" stroke="#e5d2bf" stroke-miterlimit="10"/>
    </g>
  </g>
  <path d="M237.25,26.35c-.98.54-1.85,1.22-2.6,2.03-.42.45-.52.39-.33-.18.71-2.01,2.65-3.15,4.51-4.2.15-.08.26-.19.35-.32.05-.08.03-.1-.06-.07-2.04.76-3.78,1.31-5.37,2.84-.01.02-.02.01-.03-.01,0,0,0-.01,0-.02,0-.02,0-.03,0-.04.86-.96,1.82-1.8,2.89-2.53,1.38-.94,2.28-1.99,3.52-2.88,1.23-.88,2.61-1.48,4.12-1.81.01,0,.02-.01.02-.02,0-.01-.01-.02-.02-.02h0c-1.67.01-3.3.29-4.87.83-.06.02-.11.02-.14,0-.05-.03-.04-.06,0-.09,1.54-.73,3.18-1.12,4.91-1.18h0c.07,0,.12-.05.12-.12,0-.06-.04-.11-.1-.12-.94-.2-1.89-.26-2.84-.15-.36.04-.38-.01-.04-.16,2.09-.92,4.46-.07,6.55.62.59.19.67.08.23-.35l-1.04-1.02s-.03-.05-.03-.08c0-.06.05-.11.12-.11.02,0,.04,0,.06.01,1.21.7,2.53.87,3.99.51,3.84-.96,7.29-1.87,11.53-2.18,6.08-.45,11.48,1.1,16.18,4.65.67.5,1.62.49,2.14,1.08.58.68,1.21,1.15,1.76,1.83,0,0,.01.02.02.02.1.1.27.1.37,0,0,0,.02-.02.02-.02l.23-.29c.1-.12.15-.11.15.05.05,1.94-.51,3.8,1.4,5.22,2.33,1.74,5.72,1.89,8.62,2.2,3.1.33,6.15,1.08,9.3,1.37,4.66.44,2.09,5.11,1.59,7.51-.63,3-2.13,5.56-4.49,7.68-.34.3-.67.62-1,.95-.06.06-.08.13-.08.2.15,2.5-.79,4.32-2.81,5.49-1.74,1-3.99.78-5.84,1.66-.63.3-1.24.66-1.9.85-1.87.53-3.72.57-5.65.64-1.27.05-3.35.37-3.75,1.8-1.36,4.81,2.67,5.98,5.02,8.98.96,1.23,1.68,2.57,2.16,4.03.04.12.02.12-.05.02-.48-.74-1.1-1.35-1.86-1.85-.02,0-.04-.02-.05-.02-.05,0-.1.04-.1.09,0,.02,0,.04.02.05,1.47,2.02,3.15,4.19,3.34,6.6.08.95-.03.97-.32.05-.26-.82-.72-1.51-1.38-2.08-.01-.01-.03-.02-.05-.02-.04,0-.08.03-.08.08,0,.01,0,.02,0,.03.49,1.02.85,2.08,1.08,3.18,0,0,0,0,0,.01,0,.04-.03.06-.07.06-.02,0-.04,0-.05-.03-1.14-1.39-2.52-2.53-4.12-3.42-.01,0-.03-.01-.04-.01-.05,0-.08.04-.08.08,0,.01,0,.03,0,.04.77,1.4,2.31,2.4,3.29,3.71.09.11.06.14-.07.08-1.19-.52-2.3-1.18-3.31-1.98-.02-.02-.04-.02-.07-.02-.06,0-.1.04-.1.1,0,.01,0,.03,0,.04,1.09,2.54,3.69,4.62,6.27,5.97.15.08.14.11-.03.09-1.9-.18-3.68-.7-5.35-1.58-.01,0-.03,0-.05,0-.06,0-.1.05-.1.1,0,.02,0,.04.02.06,2.46,2.64,4.84,4.39,8.65,4.76.04,0,.06.02.07.04.01.02.02.04,0,.07,0,0,0,.01-.01.01l-1.86.23s-.08.04-.08.09c0,.03.02.06.04.07.67.42,1.9.29,2.67.28,0,0,0,0,0,0,.04,0,.08.03.08.07,0,.03-.02.06-.05.07-1.98.89-4.23.72-6.31.46-.01,0-.03,0-.04,0-.02.02-.03.05-.01.07,0,0,.02.02.03.02l1.33.34c.14.03.14.06,0,.09-.84.15-2.42-.12-3.44-.19-.03,0-.05,0-.08.02-.06.03-.08.11-.05.17.01.02.03.04.06.05,1.6.74,3.26.83,5,1.19.03,0,.05.02.06.04.04.05.03.12-.02.15-.02.02-.05.02-.07.02l-2.66-.03c-.1,0-.11.03-.03.09,1.52,1.12,3.69,3.06,3.8,4.99.1,1.68.8,2.39,1.72,3.71,0,.01.01.02.01.04,0,.04-.03.07-.07.07-.02,0-.03,0-.04-.01-1.53-1.11-3.02-.99-4.83-.75-.03,0-.06.03-.06.07,0,.02,0,.04.02.05,1.3,1.21,2.7,2.29,4.21,3.24.04.03.07.06.1.1.03.05.06.08.09.1,0,0,.02.02.02.04,0,.03-.03.05-.06.05,0,0-.01,0-.02,0l-3.61-1.47s-.03,0-.05,0c-.07,0-.13.06-.13.13,0,.04.02.07.04.09,1.07.85,2.22,1.57,3.47,2.16.03,0,.05.03.05.06,0,.04-.03.07-.07.07,0,0-.02,0-.02,0-1.71-.39-3.26-1.1-4.65-2.11-.02-.02-.05-.02-.07-.03-.07,0-.14.05-.14.12,0,.02,0,.05.01.07,1.4,2.54,3.11,4.87,5.15,6.98,0,0,0,.01,0,.02,0,.02-.01.03-.03.03,0,0-.01,0-.02,0-1.93-1.17-3.46-2.85-5.02-4.42-.07-.08-.11-.06-.1.04.35,3.15.93,6.02,2.52,8.81,1.87,3.28,5.17,5.61,6.24,9.25.15.52.05.57-.3.15-1.79-2.15-4.17-3.95-7.09-4.11h0c-.06,0-.11.05-.11.11,0,.03.01.06.04.08,2.67,2.36,4.77,5.32,5.07,8.87.07.85-.03.87-.31.06-.43-1.27-2.15-3.95-3.72-4.53-.01,0-.03,0-.04,0-.07,0-.13.06-.13.12,0,.03,0,.05.02.07,2.21,2.88,2.92,6.64,2.94,10.12,0,.02,0,.04-.02.06-.04.04-.1.05-.15.01-.02-.01-.03-.03-.04-.06-.55-2.6-2.07-6.37-4.21-8.1,0,0-.02-.01-.03-.01-.04-.01-.08.01-.09.05,0,0,0,.02,0,.03.28,1.67.31,3.34.09,5.01-.42,3.1,1.39,7.79,2.85,10.55,0,0,0,0,0,.01,0,0,0,.02-.02.02-.02,0-.04.01-.06.02-.01,0-.03,0-.04-.02-1.56-2.07-2.86-4.29-3.89-6.65-.02-.04-.06-.06-.1-.06-.05,0-.1.04-.11.09-.23,1.88.49,3.62,1.35,5.43.96,2.01,1.83,4.06,2.61,6.15.15.4.09.43-.17.08-1.61-2.12-3.18-4.27-4.69-6.46-.07-.09-.1-.09-.11.03-.02.45.03.82.16,1.13,1.08,2.62,2.45,5.34,2.87,8.13.15,1,.04,1.03-.31.07-.79-2.09-1.96-3.96-3.51-5.61-.02-.01-.04-.02-.06-.02-.04,0-.08.03-.08.08,0,0,0,.02,0,.03.96,2.22,1.59,4.27,1.9,6.16.44,2.72.34,2.75-.32.07-.66-2.7-2.86-5.91-4.24-8.48-.02-.04-.06-.06-.11-.06-.07,0-.13.05-.13.12.02,3,1.26,5.62,2.26,8.36,0,.01,0,.02,0,.04,0,.05-.04.09-.09.09-.03,0-.07-.02-.08-.05l-3.18-4.94s-.05-.05-.09-.05c-.06,0-.11.05-.11.1,0,0,0,.01,0,.02.28,1.86.44,3.54.29,5.51-.44,5.79-.61,11.55-.63,15.36-.02,2.92.16,6.12.56,9.6.53,4.77,1.76,9.43,2.18,14.2.26,2.97.31,6.24.96,8.91.5,2.05,1.2,3.91,2.11,5.58,1.44,2.66,2.39,4.33,2.87,5.03.24.35,2.71,3.62,3.78,3.72,2.61.25,4.76.56,6.81,2.09,2.35,1.75,5.37,4.74,5.47,7.78h0c0,.08-.06.14-.14.14-.05,0-.09-.02-.12-.06l-1.23-1.65s-.05-.04-.08-.04c-.04,0-.08.03-.1.07-.67,1.79-1.2,3.05-3.41,3.27-3.73.37-7.67.18-11.43.19-3.69,0-7.43-.58-8.43-4.41-.79-3.04-.71-5.76-3.33-7.81-.1-.08-.14-.05-.11.06.19.99.53,1.93,1.01,2.82,0,.01.01.03.01.04,0,.05-.04.08-.09.08-.03,0-.05-.01-.07-.03-1.3-1.47-2.12-3.16-2.48-5.06-.17-.9.04-2.31-.56-3.19-.93-1.36-1.58-2.45-1.69-3.99,0-.03-.03-.06-.07-.06-.03,0-.05.01-.06.04-.41.91-.92,1.45-1.81,2.08-.71.51-1.95,1.15-1.89,2.15.05.73.19,1.42.44,2.08,0,0,0,.01,0,.02,0,.03-.03.06-.06.06-.02,0-.03,0-.04-.02-1.07-1.05-2.03-2.45-.74-3.83,1.08-1.16,2.14-2.14,2.61-3.66,0,0,0-.02,0-.02,0-.05-.05-.1-.1-.1-.03,0-.05.01-.07.03-1.21,1.32-2.44,2.63-3.69,3.92-.74.76-1.09,1.57-1.59,2.47-.02.04-.06.06-.1.06-.06,0-.11-.05-.11-.11,0-.01,0-.02,0-.03.34-1.23.42-2.22.14-3.54-.3-1.42.08-2.49.17-3.78.01-.17-.03-.19-.14-.05-.83,1.07-1.4,2.27-1.7,3.59-.01.04-.05.07-.09.07s-.09-.03-.09-.07c-.5-2.86-.84-6.54.64-9.08.81-1.39,1.62-2.48,1.75-4.1,0,0,0,0,0,0,0-.04-.03-.07-.07-.07-.02,0-.04,0-.05.02-1,1.05-2.17,1.87-3.52,2.46-.14.06-.17.02-.1-.1.9-1.66,1.65-2.96,1.9-4.8,0,0,0,0,0,0,0-.04-.03-.07-.07-.07-.03,0-.05.01-.06.04-.73,1.71-1.77,3.24-3.11,4.57,0,0-.02.02-.04.02-.03,0-.05-.02-.05-.05,0,0,0-.01,0-.02.95-2.06,1.57-4.2,1.85-6.43,0,0,0,0,0,0,0-.04-.04-.07-.08-.07-.03,0-.05.01-.07.03-.77,1.27-1.72,2.41-2.84,3.41-.02.02-.04.03-.07.03-.05,0-.09-.04-.09-.09,0-.02,0-.04.02-.06,1.19-1.62,2.39-4.26,1.68-6.24-.01-.03-.05-.05-.08-.05-.04,0-.08.03-.08.06l-.82,3.4c-.01.06-.07.1-.13.1-.05,0-.1-.03-.12-.07l-1.61-3.25s-.02-.03-.04-.04c-.05-.03-.11-.01-.14.03,0,.02-.02.03-.02.05,0,1.35.23,2.66.72,3.93,0,0,0,.01,0,.02,0,.03-.03.05-.06.05-.01,0-.03,0-.04-.01l-2.69-2.35c-.14-.13-.2-.1-.17.09.44,2.77,1.37,5.34,1.6,8.17.44,5.58,1.97,10.31,4.11,15.2.15.35.42.51.81.5,1.49-.04,3.14-.15,4.52.22,3.03.83,4.39,2.38,6.31,4.62.84.98,1.81,1.58,2.86,2.3.02.01.04.04.04.07,0,.04-.03.07-.07.08l-1.1.2c-.06,0-.11.04-.13.09-.57.97-1.42,1.61-2.54,1.92,0,0,0,0,0,0-.06.02-.09.09-.07.15,0,0,0,0,0,0,.78,1.69,2.37,5.01,1.35,6.58-1.32,2.03-7.14,1.97-9.35,1.96-2.04,0-3.9.32-5.88.55-.92.1-2.33.26-3-.52-.92-1.07-2.47-2.17-3.31-3.41-.67-1-.29-2.02-.5-3.1-.49-2.62-3.03-2.54-5.2-2.74-.09,0-.12.03-.09.11.46,1.49,1.75,2.76,2.74,3.96,1.39,1.68,1.25,3.45-.84,4.39-1.58.71-3.31,1.52-5.09.99-.08-.02-.15-.01-.21.03-2.14,1.52-5.85,1.09-8.34.81-3.19-.35-6.38-.26-9.58-.17-.52.01-1.2.1-2.03.25-1.4.26-3.02.23-4.21.35-2.85.27-5.46.38-8.43.02-3.17-.37-6.34-.71-9.52-1.01-.08,0-.15.02-.19.09-1.09,1.56-3.56,1.51-5.58,1.69-1.84.17-4.07.7-6.69,1.61-3.4,1.18-6.81,2.31-10.25,3.39-.03,0-.05,0-.06-.03,0-.02-.01-.05-.02-.07-.01-.03,0-.05.03-.06,2.51-1.18,4.99-3.44,5.68-6.12,0,0,0-.01,0-.02,0-.05-.04-.09-.09-.09-.02,0-.04,0-.06.02-2.29,1.67-4.61,3.34-7.5,3.87-2.8.51-5.6.87-8.39,1.07-.04,0-.07-.03-.07-.07,0-.03.02-.05.04-.06l8.77-2.58s.02-.01.02-.03c0-.01-.01-.03-.03-.03h0c-4.01.42-8.01.95-12.01,1.6-.17.03-.31.04-.42.03-.13-.01-.15-.06-.04-.14,2.62-1.91,5.53-3.27,8.73-4.08.02,0,.03-.01.04-.02.02-.03.02-.07-.02-.09-.01,0-.03-.01-.04-.01-2.51.06-4.93.31-7.25.74-2.47.46-4.9.97-7.31,1.55,0,0,0,0,0,0-.01,0-.02,0-.02-.02,0,0,0-.01.01-.01l3.56-1.69c.28-.14.27-.17-.04-.12-1.8.33-3.42.62-5.32,1.08-4.29,1.03-8.67,1.56-13.12,1.57-.03,0-.03,0,0,0,1.18-.33,2.37-.6,3.58-.8.45-.08.44-.12-.01-.12-3.25-.02-6.51-.45-9.96.18-2.72.5-5.14.77-7.51-.51-.34-.18-.68-.29-1.04-.32-3.37-.32-5.99-.83-8.49-3.09-.14-.12-.11-.17.07-.14,1.86.33,3.73.46,5.62.4,2.1-.07,3.35-.7,4.62-2.18.26-.3.18-.43-.22-.39l-4.98.47s0,0,0,0c0,0-.02,0-.02-.02,0,0,0-.01.01-.02.8-.35,1.56-.77,2.26-1.27.14-.1.13-.13-.05-.1-.69.14-1.34.36-1.95.67-.05.03-.09.03-.12.01-.03-.02-.03-.04,0-.06,1.97-1.01,4.16-2.51,4.65-4.81.31-1.45.51-2.56,1.46-3.71.97-1.17,2.11-2.17,3.33-2.79.02-.01.04-.04.04-.06,0-.04-.03-.07-.08-.07,0,0-.01,0-.02,0-1.52.3-2.94.83-4.28,1.59,0,0-.02,0-.03,0-.03,0-.06-.02-.06-.05,0-.01,0-.03.01-.04,3.9-4.03,10.5-5.28,15.98-5.65,1.57-.1,3.16-.21,4.76-.32h0s.05-.02.05-.05-.02-.05-.05-.05l-2.53-.3c-.28-.03-.28-.06,0-.09.45-.04.96-.05,1.55,0,2.88.19,5.76.24,8.64.17,1.44-.04,2.75.17,4.14.37,0,0,.01,0,.02,0,.04,0,.06-.03.06-.06,0-.03-.02-.05-.05-.06l-2.12-.7c-.33-.11-.32-.16.03-.17,2.91,0,5.11,1.09,8.01,2.09.12.04.17,0,.14-.12l-.42-2c-.02-.07-.06-.11-.14-.11l-1.65-.04s-.06,0-.09.01c-.06.02-.12.03-.19.02-.12-.01-.12-.04-.01-.08,3.06-1.26,3.16-3.58,3.73-6.31.38-1.83,1.04-3.92,1.3-5.96h0s-.02-.05-.05-.05c-.01,0-.03,0-.04.01l-2.22,2.62s-.05.03-.07.03c-.05,0-.1-.04-.1-.09,0-.02,0-.03.01-.05,1.91-3.23,3.91-6.22,3.54-10.12-.09-.95-.11-1.56.1-2.36,0,0,0-.01,0-.02,0-.04-.04-.08-.09-.08-.03,0-.05.01-.07.03-.69.99-1.37,1.96-2.03,2.93-.02.03-.04.03-.06.02-.03-.01-.04-.03-.02-.06l2.4-4.64c.35-.68.26-.75-.29-.19l-3.7,3.75s-.08.04-.11-.01c-.03-.06-.03-.1,0-.14,1.32-1.69,2.43-3.49,3.34-5.4.75-1.59,1.99-2.73,2.83-4.25.78-1.42,1.29-2.55,1.55-3.38.83-2.79,1.21-4.48,2.98-6.28,3.06-3.12,5.44-5.39,6.63-9.37,1.02-3.41,3.47-5.94,5.35-8.74.3-.44.52-.94.67-1.48.54-2,1.02-3.85,1.72-5.94,1.32-3.92,1.97-7.64,2.71-11.52.11-.55.46-1.23,1.06-2.03,1.16-1.54,2.51-3.46,2.95-5.32.95-4,3.55-6.5,6.09-9.31.28-.31.49-.67.63-1.06,1.09-3.14,2.11-7.14,4.46-9.65,3.25-3.49,8.21-6.16,9.67-10.83,0,0,0-.01,0-.02,0-.04-.04-.08-.08-.08-.02,0-.03,0-.04.01l-3.11,1.9c-.23.14-.27.1-.13-.12,1.49-2.36,3.07-4.41,5.43-5.97.44-.29.77-.53.99-.72.02-.02.04-.05.04-.08,0-.06-.05-.1-.11-.1-.01,0-.02,0-.03,0l-2.36.72c-.08.03-.1,0-.04-.06l1.06-1.15c.11-.13.14-.29.06-.38-.02-.02-.07,0-.16.06-.75.48-1.49.94-2.24,1.38,0,0-.02,0-.03,0-.03,0-.06-.03-.06-.06,0,0,0-.02,0-.02.67-1.45,1.72-2.57,3.13-3.37.03-.01.05-.04.05-.08,0-.05-.04-.09-.09-.09-.01,0-.03,0-.04,0l-1.45.45s-.02,0-.03,0c-.05,0-.08-.04-.08-.08,0-.02,0-.04.03-.06,1.01-.91,2.38-2.15,3.7-2.57.08-.02.09-.07.06-.14-.25-.46-1.47-.23-1.95-.24-.15,0-.17-.05-.05-.14.14-.11.29-.19.46-.23.02,0,.03-.01.04-.02l1.69-1.61c.06-.05.09-.12.09-.19,0-.11-.08-.22-.19-.26l-.34-.12c-.06-.02-.09-.07-.09-.12,0-.07.05-.12.12-.13l1.1-.15c.08-.01.12-.06.11-.13-.04-.3-.23-.47-.57-.51-.75-.08-1.41-.26-2-.55-.05-.03-.09-.08-.09-.14,0-.07.05-.14.13-.15l3.84-.88c.1-.02.13-.08.08-.17-.34-.6-.84-.99-1.51-1.17-.17-.05-.17-.09,0-.14.65-.19,1.32-.32,2-.38.72-.07.74-.25.09-.53-.73-.32-1.49-.33-2.27-.04,0,0-.02,0-.03,0-.03,0-.06-.03-.06-.06,0-.02.01-.04.03-.05,1.15-.76,2.39-1.4,3.72-1.92.25-.1.83-.58.99-.81.63-.9,1.42-1.64,2.37-2.22.04-.02.07-.06.07-.11l.49-4.92s0,0,0,0c0-.02-.01-.03-.03-.03-.01,0-.03,0-.03.02-.67,1.12-1.03,2.32-1.07,3.61,0,.03-.03.05-.06.05-.03,0-.05-.02-.06-.04-.64-2.83-.12-5.08.75-7.93.05-.16.01-.17-.1-.06-1.59,1.59-2.56,3.47-2.91,5.65,0,.01-.01.03-.03.03-.02,0-.03-.01-.03-.03h0c-.12-1.28.01-2.51.4-3.71.57-1.77,2.08-3.39,2.56-5.31,0,0,0-.02,0-.03,0-.05-.04-.09-.09-.09-.03,0-.06.01-.07.04-.98,1.18-1.88,2.41-2.7,3.69-.01.02-.02.02-.03,0,0-.03-.02-.05-.03-.06-.01-.02-.01-.04,0-.06,1.1-2.09,2.12-4.2,3.05-6.34,0,0,0-.02,0-.03,0-.04-.04-.08-.08-.08-.02,0-.04,0-.06.02-.83.86-1.72,1.67-2.67,2.41-.26.21-.32.17-.17-.12.07-.14.23-.36.45-.67.61-.81,1.08-1.67,1.41-2.57,0-.02,0-.04,0-.06-.01-.06-.07-.1-.14-.09-.02,0-.04.01-.05.02-.83.62-1.56,1.33-2.2,2.13-.02.02-.05.03-.08.03-.06,0-.1-.04-.1-.1,0-.01,0-.03,0-.04l2.25-4.02s0-.01,0-.02c0-.03-.02-.05-.05-.05-.01,0-.02,0-.03,0-1.18.88-2.12,1.95-2.79,3.24-.01.03-.04.04-.07.03-.02,0-.03-.03-.02-.06.5-1.4.99-2.8,1.48-4.2,1.32-3.83,1.93-5.88,4.43-8.31.02-.02.03-.04.03-.06,0-.05-.04-.09-.1-.09-.01,0-.03,0-.04,0-1.04.48-1.91,1.15-2.62,2.02-.04.05-.06.1-.05.16,0,.04-.02.08-.06.1-.06.03-.08.02-.06-.04.55-2.84,2.51-4.07,3.9-6.54.41-.74.76-1.54,1.05-2.38.26-.77.16-.81-.28-.13l-.83,1.28s-.03.02-.04.02c-.03,0-.05-.02-.05-.05,0,0,0,0,0-.01.34-1,.54-2.09,1.22-2.95.67-.85,1.29-1.72,1.88-2.62.06-.09.04-.11-.06-.06h0Z" fill="#a67b5b" stroke-width="0"/>
</svg>