<?xml version="1.0" encoding="UTF-8"?>
<svg id="uuid-724a1b2e-6cc9-496b-aa76-ece1822c1ff8" data-name="Layer 2" xmlns="http://www.w3.org/2000/svg" viewBox="0 0 78.32 83.37">
  <g id="uuid-cd2c3d66-4611-42c5-a31f-046046cb47f1" data-name="Layer 1">
    <path d="M22.15,35.75c-.39-1.05-.22-1.07,.63-1.95h0c.34-.34,.73-.68,1.14-1.02,.44-.37,.9-.73,1.36-1.07,.1-.07,.27-.19,.44-.34,.17-.1,.34-.22,.49-.34h.02c3.07-2.19,5.48-3.9,3.77-9.06h0L23.91,3.44h0c-.19-.61-.49-1.12-.83-1.56-.37-.46-.8-.83-1.29-1.12h0c-.49-.29-1-.49-1.53-.61-.58-.15-1.17-.17-1.78-.15-1.61,.12-3.09,.34-4.46,.68-1.39,.34-2.68,.8-3.85,1.39-1.97,.95-3.6,2.19-4.97,3.65-1.46,1.56-2.58,3.38-3.41,5.38h0c-.73,1.85-1.24,3.85-1.53,5.94C-.02,19.27-.07,21.6,.1,23.99c.22,3.36,.88,6.84,1.85,10.3,1.02,3.63,2.39,7.21,4.02,10.59h0c.58,1.22,1.27,2.48,2.04,3.8,.8,1.34,1.7,2.73,2.68,4.14,.97,1.39,2,2.8,3.09,4.21,1.1,1.41,2.26,2.82,3.46,4.19l.02,.02,.02,.02c1.22,1.34,2.46,2.65,3.75,3.92,1.27,1.27,2.53,2.46,3.82,3.58h0c1.27,1.12,2.51,2.17,3.75,3.12,1.22,.95,2.41,1.8,3.58,2.53,3.14,2.02,6.55,3.8,10.03,5.26,3.34,1.36,6.72,2.43,10.01,3.04,2.36,.46,4.67,.68,6.91,.66,2.12-.05,4.16-.29,6.06-.83,2.09-.58,4.02-1.46,5.75-2.73,1.63-1.17,3.07-2.68,4.24-4.5h0c.71-1.12,1.31-2.34,1.83-3.7,.49-1.31,.9-2.73,1.19-4.28,.12-.61,.15-1.22,.1-1.78-.05-.56-.19-1.1-.41-1.61-.24-.51-.56-1-.97-1.41h0c-.39-.39-.88-.73-1.44-1l-17.7-8.3c-4.92-2.29-6.89-.1-9.42,2.7h0c-.1,.1-.19,.22-.32,.34-.12,.15-.27,.29-.49,.51-.39,.44-.83,.88-1.24,1.27-1.53,1.44-1.9,2.19-3.68,1.07l-.05-.02c-.54-.34-1.22-.85-1.97-1.48-.8-.68-1.73-1.48-2.7-2.43h0c-1.02-.95-2.09-2.02-3.16-3.16-1.05-1.1-2.12-2.24-3.14-3.43h-.02l-.02-.02c-1.07-1.22-2.12-2.43-3.12-3.63-.97-1.19-1.9-2.36-2.7-3.43h0c-.78-1.05-1.46-2.02-2.02-2.9-.56-.85-1-1.63-1.29-2.24-.12-.22-.2-.41-.27-.61h0Zm-3.87,1.27c.15,.37,.29,.73,.44,1.07h.02c.34,.73,.85,1.61,1.46,2.56,.63,1,1.41,2.09,2.29,3.26h0c.85,1.14,1.78,2.34,2.78,3.55,1.02,1.27,2.12,2.53,3.24,3.8l.07,.07h0c1.1,1.22,2.22,2.43,3.31,3.6h0c1.09,1.12,2.17,2.22,3.19,3.19,1.05,1,2.04,1.87,2.95,2.63,.9,.73,1.7,1.34,2.41,1.75,.32,.22,.63,.41,1,.61,.34,.15,.68,.29,1.02,.41h0c.41,.12,.85,.22,1.27,.24,.41,.05,.83,0,1.24-.1h0c.41-.1,.85-.27,1.29-.51,.46-.24,.95-.58,1.41-.95h0c.46-.34,.92-.75,1.39-1.17,.51-.49,1-.97,1.46-1.46,.05-.07,.15-.17,.24-.29,.17-.17,.39-.41,.61-.66,.68-.75,1.29-1.44,2.02-1.8,.73-.39,1.56-.44,2.65,.07l17.7,8.3h0c.1,.05,.19,.1,.24,.17,.07,.07,.15,.15,.2,.22h0c.05,.15,.07,.29,.07,.46,0,.15,0,.32-.05,.51h0c-.24,1.31-.58,2.48-.97,3.58-.41,1.1-.9,2.09-1.46,2.95-.9,1.41-2,2.56-3.24,3.46-1.31,.95-2.8,1.63-4.41,2.07-1.61,.46-3.33,.68-5.16,.68-1.92,.02-3.92-.2-5.99-.58-3.04-.56-6.18-1.56-9.28-2.82-3.21-1.34-6.38-3.02-9.32-4.89-1.05-.68-2.17-1.46-3.29-2.34-1.17-.88-2.36-1.87-3.56-2.92-1.22-1.1-2.43-2.24-3.65-3.43-1.22-1.22-2.41-2.46-3.58-3.75h0c-1.12-1.29-2.22-2.63-3.26-3.99-1.07-1.34-2.07-2.7-2.99-4.07-.9-1.29-1.73-2.58-2.48-3.82-.73-1.24-1.39-2.43-1.95-3.58h0c-1.51-3.14-2.8-6.5-3.75-9.86-.9-3.21-1.51-6.45-1.73-9.54h0c-.12-2.09-.1-4.11,.15-6.04,.24-1.8,.66-3.48,1.29-4.99,.63-1.56,1.48-2.95,2.58-4.14,1.05-1.12,2.31-2.07,3.8-2.8h0c.95-.46,2-.83,3.14-1.12,1.12-.27,2.34-.46,3.65-.54h0c.19-.02,.39,0,.54,.02,.17,.02,.29,.07,.41,.12,.07,.05,.15,.12,.2,.19,.07,.07,.1,.17,.15,.29l6.11,18.53h0c.78,2.31-.56,3.26-2.26,4.46h0c-.12,.1-.27,.2-.44,.32l-.58,.41c-.51,.39-1.05,.8-1.56,1.24-.49,.41-.97,.85-1.39,1.27-.41,.44-.78,.85-1.1,1.27-.29,.41-.54,.83-.68,1.24h0c-.15,.41-.22,.83-.24,1.24-.02,.44,.02,.85,.1,1.29h0c.07,.34,.17,.71,.29,1.05h0Z" fill="#fff" fill-rule="evenodd"/>
  </g>
</svg>