<?xml version="1.0" encoding="UTF-8"?>
<svg id="uuid-87f51ba9-ed9f-4947-a368-cbd30b10c902" data-name="Ñëîé_1" xmlns="http://www.w3.org/2000/svg" viewBox="0 0 3277.7 2869.15">
  <rect x="-737.62" y="-931.96" width="4752.94" height="4752.94" fill="none"/>
  <g>
    <path d="M3195.36,1362.18H1072.96c5.85,26.54,9.02,54.07,9.02,82.33s-3.17,55.8-9.02,82.34h2122.41c45.48,0,82.34-36.86,82.34-82.34s-36.86-82.33-82.34-82.33Z"/>
    <path d="M325.92,1362.18H82.33c-45.47,0-82.33,36.86-82.33,82.33s36.87,82.34,82.33,82.34h243.58c-5.85-26.54-9.02-54.07-9.02-82.34s3.17-55.8,9.02-82.33Z"/>
    <path d="M3195.36,368.79h-205.51c5.85,26.54,9.02,54.06,9.02,82.33s-3.17,55.8-9.02,82.33h205.51c45.48,0,82.34-36.86,82.34-82.33s-36.86-82.33-82.34-82.33Z"/>
    <path d="M2242.82,368.79H82.33c-45.47,0-82.33,36.86-82.33,82.33s36.87,82.33,82.33,82.33h2160.48c-5.85-26.54-9.02-54.06-9.02-82.33s3.17-55.8,9.02-82.33Z"/>
    <path d="M3195.36,2355.56h-896.9c5.84,26.54,9.02,54.06,9.02,82.33s-3.18,55.8-9.02,82.34h896.9c45.48,0,82.34-36.86,82.34-82.34s-36.86-82.33-82.34-82.33Z"/>
    <path d="M1551.43,2355.56H82.33c-45.47,0-82.33,36.86-82.33,82.33s36.87,82.34,82.33,82.34h1469.09c-5.85-26.54-9.02-54.06-9.02-82.34s3.17-55.8,9.02-82.33Z"/>
    <path d="M2989.85,368.79c-37.77-171.48-190.85-300.21-373.52-300.21s-335.74,128.73-373.52,300.21c-5.85,26.54-9.02,54.06-9.02,82.33s3.17,55.8,9.02,82.33c37.77,171.48,190.85,300.21,373.52,300.21s335.74-128.73,373.52-300.21c5.85-26.54,9.02-54.06,9.02-82.33s-3.17-55.8-9.02-82.33ZM2616.33,668.99c-120.13,0-217.87-97.74-217.87-217.87s97.74-217.87,217.87-217.87,217.87,97.74,217.87,217.87-97.73,217.87-217.87,217.87Z"/>
    <path d="M1072.96,1362.18c-37.77-171.48-190.85-300.2-373.52-300.2s-335.74,128.72-373.52,300.2c-5.85,26.54-9.02,54.07-9.02,82.33s3.17,55.8,9.02,82.34c37.77,171.48,190.85,300.2,373.52,300.2s335.74-128.73,373.52-300.2c5.85-26.54,9.02-54.07,9.02-82.34s-3.17-55.8-9.02-82.33ZM699.44,1662.38c-120.13,0-217.87-97.74-217.87-217.87s97.74-217.87,217.87-217.87,217.87,97.74,217.87,217.87-97.74,217.87-217.87,217.87Z"/>
    <path d="M2298.46,2355.56c-37.78-171.48-190.85-300.2-373.52-300.2s-335.74,128.73-373.52,300.2c-5.85,26.54-9.02,54.06-9.02,82.33s3.17,55.8,9.02,82.34c37.77,171.48,190.85,300.2,373.52,300.2s335.74-128.73,373.52-300.2c5.84-26.54,9.02-54.06,9.02-82.34s-3.18-55.8-9.02-82.33ZM1924.94,2655.76c-120.13,0-217.87-97.74-217.87-217.87s97.74-217.87,217.87-217.87,217.88,97.74,217.88,217.87-97.74,217.87-217.88,217.87Z"/>
  </g>
</svg>