<?xml version="1.0" encoding="UTF-8"?>
<svg xmlns="http://www.w3.org/2000/svg" xmlns:xlink="http://www.w3.org/1999/xlink" viewBox="0 0 1252.76 1176.83">
  <defs>
    <clipPath id="uuid-49bdc8ff-0115-4c02-a08b-a04283d8b266">
      <polygon points="1256.99 1178.76 1256.99 0 0 0 0 1178.76 1256.99 1178.76 1256.99 1178.76" clip-rule="evenodd" fill="none" stroke="#e4d1bd" stroke-miterlimit="10"/>
    </clipPath>
    <clipPath id="uuid-354544a8-644f-42dc-854b-b7ceea30d886">
      <rect x="-.08" y="0" width="1256.94" height="1178.76" clip-path="url(#uuid-49bdc8ff-0115-4c02-a08b-a04283d8b266)" fill="none" stroke="#e4d1bd" stroke-miterlimit="10"/>
    </clipPath>
    <clipPath id="uuid-05bdfc97-95e5-4eed-b5dc-9d5ab69264fb">
      <path d="M-11.15,1145.15c17.48-1.39,34.97-2,52.48-2.39,9.82-.22,19.64-.34,29.47-.46,6.56-.08,13.12-.18,19.68-.28,9.86-.15,19.71-.32,29.58-.48,14.82-.25,29.61-.56,44.44-.94.53,0,.95-.27.95-.6s-.43-.6-.95-.6c-10.59-.28-21.13-.64-31.71-.95-10.59-.31-21.16-.62-31.74-.81-7.07-.13-14.14-.23-21.2-.22-7.08,0-14.16.12-21.23.31-9.44.25-18.87.66-28.28,1.22-14.09.85-28.11,2.11-42.1,3.75-1.07.1-1.81.74-1.64,1.41.17.67,1.18,1.13,2.25,1.03h0Z" clip-rule="evenodd" fill="none" stroke="#e4d1bd" stroke-miterlimit="10"/>
    </clipPath>
    <clipPath id="uuid-8b64263e-9536-42f7-9ee4-dafbb08a03c3">
      <polygon points="1256.99 1178.76 1256.99 0 0 0 0 1178.76 1256.99 1178.76 1256.99 1178.76" clip-path="url(#uuid-05bdfc97-95e5-4eed-b5dc-9d5ab69264fb)" clip-rule="evenodd" fill="none" stroke="#e4d1bd" stroke-miterlimit="10"/>
    </clipPath>
  </defs>
  <g id="uuid-ad4a3d59-ec34-416e-b466-9dc90c95501f" data-name="Layer 1">
    <g opacity=".1">
      <g>
        <g clip-path="url(#uuid-354544a8-644f-42dc-854b-b7ceea30d886)">
          <path d="M1269.47,1121.28c-43.2-2.7-86.62-3.94-130.13-4.45-65.09-.76-130.35.09-195.3-.07-47.21-.08-94.42.12-141.63.6-47.19.47-94.38,1.17-141.57,2.04-35.22.65-70.45,1.4-105.66,2.2-52.82,1.2-105.64,2.52-158.44,3.79-132.15,3.19-264.22,6.14-396.17,6.58-.53,0-.95.27-.95.6s.43.6.95.6c94.32.34,188.71-.53,283.16-1.96,55.02-.83,110.06-1.84,165.11-2.91,55.02-1.07,110.04-2.16,165.07-3.21,55.02-1.05,110.04-2.05,165.06-2.8,55.03-.74,110.05-1.29,165.07-1.37,64.92-.16,130.15-1.29,195.22-.87,43.39.28,86.71,1.24,129.83,3.68,1.08.06,2.05-.43,2.15-1.11.1-.68-.69-1.28-1.77-1.34h0Z" fill="#9c6d2e" fill-rule="evenodd" stroke="#e4d1bd" stroke-miterlimit="10"/>
          <path d="M1257.4,1063.04c-186.19-.25-372.09-5.78-558.09-7.85-79.76-.89-159.55-1.12-239.37-.06-61.87.84-124,.28-186.02.57-26.64.12-53.27.4-79.84,1.01-22.61.52-53.22,4.26-80.52,4.41-12.02.06-23.38-.57-33.02-2.58-1.87-.39-3.21-1.27-4.2-2.38-1.63-1.83-2.33-4.25-2.45-6.73-.2-4.45,1.46-9.16,4.26-11.34,9.16-7.09,22.77-11.52,37.78-14.5,22.94-4.56,49.18-5.72,69.02-7.16,16.85-1.23,33.79-1.87,50.79-2.16,68.16-1.16,137.28,3.45,205.13.2,51.41-2.48,102.44-5.77,153.31-9.58,76.43-5.72,152.49-12.6,228.87-19.54,85.65-7.8,171.39-12.93,256.93-19.85,36.65-2.96,73.27-6.26,109.82-10.23,23.74-2.58,74.84-4.32,115.09-7.85,20.72-1.82,38.57-4.12,48.44-7.23.47-.15.66-.51.43-.8-.24-.29-.81-.41-1.28-.27-9.77,3.03-27.43,5.21-47.89,6.92-40.32,3.38-91.49,4.93-115.28,7.42-36.54,3.83-73.14,6.99-109.77,9.82-85.62,6.62-171.43,11.45-257.19,18.96-76.39,6.7-152.45,13.33-228.87,18.84-50.81,3.66-101.77,6.82-153.1,9.16-67.76,3.11-136.75-1.66-204.82-.63-17.23.26-34.39.9-51.47,2.12-20.27,1.45-47.04,2.65-70.48,7.29-16.51,3.27-31.36,8.25-41.44,16.05-4.24,3.28-7.06,11.01-5.58,17.46,1.16,5.05,4.96,9.2,11.51,10.57,10.38,2.16,22.59,2.89,35.53,2.82,27.37-.16,58.07-3.93,80.73-4.46,26.5-.63,53.05-.92,79.62-1.07,62.05-.35,124.22.1,186.12-.82,79.74-1.21,159.43-1.11,239.11-.41,186.03,1.63,371.98,6.59,558.19,6.34,1.09,0,1.97-.55,1.97-1.23,0-.68-.88-1.23-1.97-1.23h0Z" fill="#9c6d2e" fill-rule="evenodd" stroke="#e4d1bd" stroke-miterlimit="10"/>
          <path d="M-29.16,1061.87c15.01-.32,28.33,1.24,40.91,3.7,31.06,6.07,57.7,17.46,93.36,20.03,26.46,1.9,53.57,2.69,80.96,2.87,62.96.41,127.36-2.42,188.6-2.29,86.43.08,173.62-.87,261.04-1.74,43.45-.43,86.95-.86,130.45-1.08,43.5-.22,86.99-.25,130.42.09,116.47.92,232.46,4.5,346.76,14.09,24.95,2.08,54.51,2.87,82.06,6.3,18.63,2.32,36.33,5.85,51.04,11.85.44.18,1.03.11,1.32-.17.29-.27.17-.65-.27-.83-14.81-6.2-32.71-9.92-51.58-12.4-27.54-3.62-57.14-4.6-82.1-6.85-114.34-10.26-230.47-14.62-347.12-16.1-43.47-.55-87.02-.7-130.57-.6-43.53.1-87.06.44-130.53.88-87.38.89-174.52,2.15-260.91,2.24-61.23.12-125.6,3.2-188.56,3.06-27.2-.06-54.13-.72-80.43-2.48-35.35-2.36-61.83-13.57-92.66-19.42-13.03-2.47-26.83-4.01-42.33-3.6-1.09.03-1.94.6-1.89,1.28.04.68.96,1.21,2.04,1.18h0Z" fill="#9c6d2e" fill-rule="evenodd" stroke="#e4d1bd" stroke-miterlimit="10"/>
          <path d="M1306.51,908.27c-118.85,25.12-243.8,41.26-370.78,52.79-56.43,5.12-113.26,9.33-170.14,13.02-56.99,3.69-114.03,6.82-170.77,9.83-76.83,4.08-153.1,7.95-227.93,12.31-11.49.68-23.04,1.01-34.62,1.13-46.54.47-93.61-2.44-139.83.09-23.09,1.27-45.28,4.31-66.9,8.48-32.38,6.25-63.49,15.02-94.46,24.07-13.39,3.91-26.45,8.98-40.16,12.69-5.86,1.58-11.83,2.92-18,3.79-9.59,1.36-19.79,1.99-30.23,2.2-24.02.49-49.35-1.18-71.67-1.1-.53,0-.95.27-.95.6s.43.6.95.6c22.35.08,47.68,1.92,71.74,1.59,10.63-.15,21.02-.72,30.8-2.05,6.37-.86,12.54-2.2,18.6-3.79,13.79-3.63,26.96-8.62,40.43-12.46,30.94-8.81,62-17.34,94.28-23.36,21.35-3.98,43.24-6.87,65.99-7.99,46.14-2.29,93.05.88,139.47.63,11.75-.06,23.47-.34,35.14-.98,74.86-4.15,151.15-7.65,227.98-11.65,56.79-2.96,113.88-6.19,170.9-9.98,56.96-3.79,113.86-8.18,170.34-13.52,127.18-12.02,252.22-28.87,371.08-54.59,1.03-.22,1.58-.92,1.23-1.56-.35-.64-1.47-.99-2.5-.77h0Z" fill="#9c6d2e" fill-rule="evenodd" stroke="#e4d1bd" stroke-miterlimit="10"/>
          <path d="M642.99,1031.26c2.53-1.23,5.98-2.4,10.1-3.56,10.98-3.1,26.62-5.83,44.39-8.27,56.44-7.75,134.12-12.42,155.3-14.93,20.64-2.46,41.75-4.41,63.02-6.09,31.79-2.51,63.93-4.42,95.35-6.45,60.2-3.91,119.05-10.35,178.61-13.94,25.42-1.53,50.97-2.55,76.81-2.62,1.09,0,1.97-.55,1.97-1.23,0-.68-.88-1.23-1.97-1.23-25.98-.07-51.67.81-77.23,2.22-59.61,3.29-118.53,9.45-178.78,13.07-31.5,1.9-63.71,3.66-95.57,6.06-21.43,1.61-42.7,3.5-63.5,5.9-21.22,2.46-99.06,6.93-155.63,14.6-22.1,3-40.99,6.52-52.26,10.54-5.72,2.04-9.6,4.28-11.43,6.57-.93,1.16-.63,1.93-.39,2.36.42.76,1.23,1.28,2.4,1.57.59.14,1.6.17,2.42.17,4.8,0,9.51.17,14.21.41,7.19.38,14.34.95,21.66,1.4,14.52.9,29.04,1.64,43.57,2.28,33.86,1.51,67.72,2.55,101.52,4.26,68.79,3.41,137.81,5.36,206.96,6.38,103.43,1.52,207.12,1.01,310.65.68,4.8-.02,7.05.42,8.52,1.49,1.61,1.17,2.34,2.99,4.35,5.46.24.29.81.41,1.28.27.47-.15.66-.51.43-.8-2.65-3.36-3.29-5.53-6.25-6.7-1.71-.67-4.2-1.04-8.32-1.05-103.49-.34-207.13-.59-310.5-2.71-69.01-1.41-137.9-3.64-206.53-7.39-33.81-1.82-67.69-3.01-101.56-4.6-14.46-.68-28.91-1.42-43.36-2.34-7.36-.46-14.54-1.03-21.77-1.42-2.81-.15-5.62-.27-8.45-.35h0Z" fill="#9c6d2e" fill-rule="evenodd" stroke="#e4d1bd" stroke-miterlimit="10"/>
          <path d="M-51.19,987.67c32.96.08,66.69,1.01,100.12,1.01,14.43,0,28.8-.17,43.02-.66,8.67-.3,17.33-.84,25.97-1.54,34.07-2.73,67.99-7.78,102.36-9.05,57.25-2.13,114.06-4.29,170.9-6.74,37.89-1.63,75.8-3.4,113.87-5.34,31.59-1.62,63.24-4.17,94.89-7.2,36.58-3.51,73.18-7.66,109.72-11.72,36.6-4.08,73.15-8.09,109.61-11.25,38.2-3.33,76.46-6.81,114.73-10.39,89.11-8.35,178.31-17.21,267.29-25.64,29.26-2.78,58.48-6.13,87.86-8.64,19.54-1.67,39.16-2.98,58.89-3.49,11.17-.3,28.29-2.03,43.59-1.59,10.64.3,20.4,1.64,26.52,5.35.38.23.98.23,1.35,0,.37-.24.36-.61-.01-.84-4.94-3.06-12.17-4.68-20.38-5.43-16.94-1.55-38.1.58-51.16.84-19.83.4-39.55,1.59-59.21,3.15-29.43,2.34-58.73,5.51-88.04,8.11-89.09,7.95-178.42,16.28-267.62,24.21-38.29,3.41-76.55,6.75-114.76,9.93-36.58,3.07-73.26,6.96-109.97,10.99-36.51,4.01-73.04,8.15-109.56,11.68-31.47,3.04-62.93,5.64-94.34,7.3-38.03,2.03-75.89,3.87-113.75,5.62-56.8,2.62-113.56,5.03-170.78,7.37-34.49,1.42-68.5,6.62-102.67,9.51-8.51.72-17.04,1.3-25.58,1.63-14.13.55-28.41.8-42.75.87-33.41.17-67.15-.6-100.1-.52-1.09,0-1.97.55-1.97,1.23s.88,1.23,1.97,1.23h0Z" fill="#9c6d2e" fill-rule="evenodd" stroke="#e4d1bd" stroke-miterlimit="10"/>
          <path d="M1291.11,838.87c-38.23,2.74-76.77,6.72-115.26,9.88-16.49,1.35-32.97,2.56-49.41,3.45-31.21,1.69-62.66,2.29-94.21,2.4-73.56.26-147.68-2.28-220.71-1.06-49.51.94-99.24,1.9-149.03,3.24-74.41,1.99-148.99,4.71-223.3,8.63-82.78,4.37-165.22,10.34-246.75,18.64-.52.05-.88.36-.8.68.08.33.57.55,1.09.5,81.61-7.63,164.09-12.82,246.86-16.6,74.3-3.39,148.84-5.55,223.19-7.27,49.78-1.15,99.47-2.15,148.96-3.03,72.96-1.46,147.05.91,220.54.33,31.71-.25,63.31-1.08,94.66-2.95,16.51-.99,33.06-2.29,49.61-3.75,38.42-3.4,76.87-7.64,115.03-10.64,1.08-.08,1.85-.7,1.72-1.37-.13-.68-1.11-1.16-2.19-1.08h0Z" fill="#9c6d2e" fill-rule="evenodd" stroke="#e4d1bd" stroke-miterlimit="10"/>
          <path d="M1303.95,802.23c-19.31.31-38.08,1.45-56.59,3.01-43.56,3.67-85.74,9.64-130.45,12.31-44.6,2.68-89.22,5.35-133.91,7.81-29.74,1.64-59.5,3.19-89.33,4.57-22.51,1.05-45.26,1.44-68.11,1.49-53.22.12-107-1.64-159.61-1.66-69.83.13-140.4-1.38-210.6-1.06-30.22.14-60.36.63-90.36,1.7-8.61.31-17.21.77-25.81,1.31-34.13,2.16-68.18,5.73-102.4,7.03-48.13,1.84-95.42,1.46-143.07,3.12-20.3.71-40.66,1.79-61.18,3.56-.52.04-.89.34-.82.67.07.33.55.56,1.07.51,20.49-1.61,40.81-2.53,61.06-3.08,47.69-1.31,94.99-.61,143.17-2.11,34.3-1.08,68.46-4.42,102.68-6.36,8.53-.48,17.06-.88,25.59-1.14,29.91-.9,59.97-1.19,90.09-1.19,70.21,0,140.75,1.7,210.58,1.83,52.62-.02,106.41,1.74,159.64,1.52,23.02-.09,45.94-.57,68.62-1.69,29.84-1.49,59.63-3.14,89.38-4.9,44.68-2.65,89.28-5.55,133.86-8.45,44.75-2.92,86.92-9.11,130.51-13.03,18.35-1.65,36.95-2.9,56.1-3.32,1.09-.02,1.94-.59,1.91-1.27-.03-.68-.94-1.21-2.03-1.19h0Z" fill="#9c6d2e" fill-rule="evenodd" stroke="#e4d1bd" stroke-miterlimit="10"/>
          <path d="M-51.3,882.03c18.11-.42,36.21-1.1,54.32-2,14.45-.72,28.89-1.53,43.32-2.45,14.4-.91,28.81-1.87,43.19-2.89,17.26-1.22,34.48-2.53,51.73-3.64,25.92-1.67,51.84-3.04,77.86-3.46.53,0,.95-.27.95-.6s-.43-.6-.95-.6c-18.15-.31-36.28-.22-54.42.21-18.12.44-36.22,1.17-54.32,2.11-8.67.45-17.33.94-25.99,1.5-12.97.84-25.91,1.81-38.86,2.77-12.94.96-25.86,1.96-38.79,2.89-19.42,1.41-38.82,2.73-58.27,3.67-1.09.04-1.92.62-1.85,1.3.06.68.99,1.2,2.08,1.16h0Z" fill="#9c6d2e" fill-rule="evenodd" stroke="#e4d1bd" stroke-miterlimit="10"/>
          <path d="M-35.22,801.53c42.67-7.39,87.25-11.22,132.4-13.28,67.51-3.08,136.29-2.2,201.91-3.23,58.93-.97,174.32-5.11,260.89-26.12,64.04-15.54,112.17-40.36,112.2-79.15,0-4.15,1.38-9.84.96-14.86-.21-2.56-.88-4.96-2.28-6.98-4.76-6.91-18.9-14.06-35.79-20.28-22.78-8.4-50.39-15.29-64.15-18.34-16.34-3.62-33.81-5.74-51.62-7.17-26.14-2.1-53.03-2.73-78.07-4.57-71.4-5.22-142.97-8.81-214.2-14.4-30.48-2.39-60.89-5.14-91.2-8.56-35.57-4.01-72.93-5.3-108.84-9.82-15.38-1.94-30.5-4.46-45.09-8.05-.49-.12-1.04.03-1.24.33-.2.31.04.65.53.78,14.64,3.72,29.84,6.36,45.31,8.41,35.84,4.74,73.19,6.26,108.7,10.48,30.32,3.6,60.76,6.55,91.27,9.12,71.15,5.98,142.68,9.92,214.02,15.51,25,1.95,51.84,2.7,77.93,4.91,17.31,1.46,34.28,3.57,50.14,7.14,13.47,3.03,40.47,9.89,62.74,18.19,15.23,5.67,28.33,11.91,32.6,18.17,1.41,2.07,1.74,4.65,1.71,7.34-.04,4.42-1.09,9.1-1.09,12.64.02,36.84-46.52,59.92-107.28,74.78-85.69,20.95-199.96,25.41-258.34,26.53-65.69,1.31-134.56.7-202.11,4.09-45.42,2.28-90.23,6.36-133.09,14.01-1.05.18-1.66.86-1.36,1.52.29.65,1.38,1.04,2.43.85h0Z" fill="#9c6d2e" fill-rule="evenodd" stroke="#e4d1bd" stroke-miterlimit="10"/>
          <path d="M-19.99,779.28s.06-.09.07-.16c0-.02,0-.05,0-.07v.07c-.02.06-.04.11-.08.16,0,0-.02,0-.03-.02-.57-.91,5.8.09,6.89-.02,18.31-1.83,36.22-5.27,54.59-7.67,4.53-.59,9.08-1.12,13.67-1.54,4.87-.45,9.78-.73,14.71-.92,19.83-.73,40.05.17,59.73-1.4,22.41-1.79,44.86-2.79,67.31-3.44,52.65-1.51,105.38-1,157.99-3.58,11.26-.56,22.52-1.96,33.74-3.82,25.37-4.21,50.54-10.79,75.09-14.91,21.07-3.55,45.48-5.85,66.95-11.36,14.86-3.81,28.3-9.14,38.48-17.28,3.18-2.55,4.67-6.17,4.96-10.06.38-5.11-1.26-10.7-2.88-14.43-4.11-9.42-12.21-17.25-22.66-23.81-15.28-9.6-35.6-16.46-55.36-21.67-8.43-2.22-16.92-3.57-25.48-4.45-19.63-2.01-39.53-1.48-59.39-3.79-5.63-.65-11.21-1.41-16.76-2.23-22.52-3.34-44.58-7.74-67.3-10.54-12.63-1.55-25.48-2.75-38.39-3.72-19.26-1.45-38.67-2.43-57.78-3.42-30.8-1.6-61.59-3.5-92.25-5.93-30.68-2.43-61.24-5.37-91.53-9.07-16.36-2-31.66-5.27-47.81-7.69-4.01-.6-8.07-1.15-12.21-1.61-1.07-.12-2.1.32-2.29.99-.2.67.51,1.31,1.58,1.43,4.06.48,8.04,1.04,11.96,1.65,16.18,2.52,31.5,5.9,47.89,7.99,30.35,3.88,60.97,7.02,91.73,9.62,30.7,2.59,61.55,4.65,92.41,6.4,19.01,1.08,38.34,2.14,57.5,3.68,12.74,1.02,25.41,2.24,37.87,3.83,22.62,2.87,44.55,7.34,66.96,10.74,5.66.86,11.35,1.65,17.09,2.33,19.89,2.36,39.83,1.89,59.5,3.95,7.97.84,15.9,2.1,23.76,4.18,18.86,5,38.28,11.54,52.86,20.71,9.51,5.98,16.95,13.1,20.7,21.68,1.46,3.35,2.97,8.36,2.65,12.95-.2,2.83-1.03,5.51-3.33,7.36-9.3,7.51-21.69,12.37-35.31,15.92-21.14,5.5-45.21,7.86-65.95,11.44-24.51,4.24-49.6,10.93-74.92,15.28-10.83,1.86-21.7,3.29-32.59,3.89-52.5,2.9-105.17,2.69-157.72,4.55-22.55.8-45.08,1.98-67.57,3.94-19.56,1.7-39.71.94-59.43,1.81-5.02.22-10,.54-14.95,1.04-4.64.46-9.24,1.03-13.81,1.66-18.3,2.53-36.11,6.1-54.35,8.08-.96.1-4.4-.17-6.28,0-1.39.12-2.09.58-2.09,1.06,0,.33.43.6.95.6.39,0,.73-.15.88-.36h0Z" fill="#9c6d2e" fill-rule="evenodd" stroke="#e4d1bd" stroke-miterlimit="10"/>
          <path d="M-30.74,640.83c7.96,1.93,15.94,3.82,23.93,5.69,31.96,7.47,64.07,14.53,95.91,22.19,6.93,1.66,13.72,3.56,20.46,5.56,15.87,4.72,31.4,10.04,47.39,14.46,11.03,3.04,22.82,4.62,34.06,7.23,2.68.62,5.33,1.3,7.92,2.08,11.42,3.42,30.34,8.16,44.05,14.82,8.84,4.3,15.58,9.35,15.58,15.6.02,3.88-3.17,6.96-8.42,9.49-6.72,3.24-16.62,5.57-28.18,7.35-41.28,6.36-103.11,5.4-124.45,7.52-9.08.91-18.08,2.04-27.03,3.29-20.79,2.9-41.32,6.43-62.19,9.19-10.46,1.39-24.48,1.43-36.7,2.76-5.7.62-11.02,1.52-15.44,2.94-.47.15-.66.51-.43.8.24.29.81.41,1.28.27,4.3-1.3,9.45-2.08,14.95-2.6,12.33-1.16,26.4-1.01,36.95-2.25,20.97-2.47,41.63-5.71,62.51-8.34,8.89-1.12,17.82-2.13,26.84-2.92,21.52-1.9,83.71-.26,125.36-6.3,12.76-1.85,23.64-4.45,31.08-7.97,7.33-3.47,11.48-7.84,11.51-13.23,0-7.67-7.66-14.13-18.53-19.39-14.18-6.87-33.74-11.74-45.56-15.23-2.82-.83-5.68-1.56-8.59-2.21-11.15-2.52-22.84-4-33.79-6.94-16.02-4.28-31.58-9.48-47.49-14.05-6.93-1.99-13.92-3.85-21.04-5.48-32.06-7.33-64.36-14.09-96.54-21.21-8.02-1.78-16.04-3.57-24.04-5.41-1.02-.24-2.16.08-2.54.72-.38.64.13,1.35,1.15,1.59h0Z" fill="#9c6d2e" fill-rule="evenodd" stroke="#e4d1bd" stroke-miterlimit="10"/>
          <path d="M-14.12,752.86c10.37-1.06,65.15-4.98,105.36-9.46,15.02-1.67,28.02-3.45,36.04-5.11,5.38-1.11,8.76-2.41,9.92-3.42,1.84-1.6,3.56-5.47,3.84-9.02.22-2.84-.6-5.44-2.21-6.77-1.22-1.01-2.63-1.82-4.16-2.51-2.83-1.28-6.15-2.08-8.89-3.55-13.24-7-27.84-17.08-43.32-24.61-7.18-3.49-14.55-6.44-22.02-8.35-10.33-2.63-21.94-4.36-33.9-5.57-17.49-1.77-35.73-2.44-51.71-3.34-.52-.04-1,.2-1.05.53-.06.33.32.62.84.66,15.83,1.31,33.91,2.46,51.2,4.65,11.51,1.46,22.66,3.38,32.51,6.16,6.92,1.94,13.66,4.89,20.26,8.29,15.08,7.78,29.29,18,42.22,25.17,2.88,1.57,6.34,2.47,9.33,3.84.92.42,1.79.9,2.53,1.52.37.31.47.81.58,1.38.2,1.04.16,2.26-.05,3.48-.36,2.16-1.12,4.32-2.21,5.29-.24.21-.81.35-1.53.57-1.21.38-2.76.76-4.6,1.16-7.77,1.67-20.38,3.46-34.93,5.29-40,5.02-94.46,10.08-104.76,11.32-1.07.12-1.79.76-1.6,1.43.19.67,1.21,1.12,2.29,1h0Z" fill="#9c6d2e" fill-rule="evenodd" stroke="#e4d1bd" stroke-miterlimit="10"/>
          <path d="M916.72,689.38c24.47,22.98-.07,40.86-43.05,55.02-82.81,27.28-234.27,40.33-270,43.73-33.33,3.18-65.29,10.57-97.93,15.5-13.86,2.09-27.84,3.74-42.11,4.4-52.26,2.44-104.66,4.53-157.11,6.37-52.42,1.84-104.88,3.44-157.27,4.87-46.95,1.28-93.69,6.83-140.44,10.11-20.09,1.41-40.18,2.4-60.29,2.45-.53,0-.95.27-.95.6s.43.6.95.6c20.19.05,40.36-.85,60.54-2.17,46.72-3.06,93.44-8.4,140.32-9.47,52.42-1.2,104.91-2.56,157.37-4.18,52.49-1.63,104.95-3.52,157.26-5.75,14.58-.62,28.88-2.24,43.06-4.33,32.51-4.78,64.36-12.04,97.53-15.1,36.05-3.33,188.91-16.11,272.55-43.47,47.97-15.69,73.2-36.26,45.89-61.9-.81-.76-2.94-1.81-6.42-2.86-4.89-1.46-12.88-3.26-22.64-5.22-36.85-7.38-99.59-17.17-112.96-20.75-45.52-12.16-84.01-30.19-126.63-44.43-10.74-3.59-21.73-6.94-33.16-9.9-72.59-18.81-145.71-32.31-220.14-42.61-74.2-10.27-149.71-17.37-227.27-23.47-49.37-3.87-97.45-9.99-146.23-14.3-20.9-1.85-41.92-3.37-63.23-4.24-1.08-.05-2.03.47-2.1,1.15-.07.68.75,1.27,1.83,1.31,21.2.94,42.11,2.53,62.89,4.44,48.77,4.49,96.82,10.79,146.19,14.83,77.33,6.32,152.59,13.65,226.55,24.1,73.98,10.45,146.66,24.03,218.76,42.91,11.2,2.93,21.96,6.24,32.48,9.77,42.76,14.38,81.39,32.51,127.07,44.79,13.44,3.61,76.53,13.55,113.6,20.98,9.34,1.87,17,3.57,21.67,4.97,1.54.46,3.23,1.17,3.41,1.25h0Z" fill="#9c6d2e" fill-rule="evenodd" stroke="#e4d1bd" stroke-miterlimit="10"/>
          <path d="M1297.35,729.57c-33.55-.17-68.08.06-102.25,1.77-22.88,1.15-45.6,2.97-67.77,5.76-26.65,3.38-52.95,7.79-79.05,12.72-30.26,5.71-60.29,12.06-90.39,18.19-30.05,6.12-60.14,12.07-90.73,16.72-31.73,4.9-63.24,8.6-94.78,11.69-47.67,4.68-95.4,7.97-144.06,11.67-.52.04-.9.33-.84.66.06.33.53.56,1.05.53,48.83-3.06,96.72-5.66,144.58-9.77,31.8-2.73,63.57-6.14,95.6-10.73,35.23-5.14,69.92-11.8,104.45-18.85,34.35-7.01,68.56-14.35,103.19-20.53,17.32-3.09,34.74-5.92,52.33-8.28,21.87-2.95,44.31-4.94,66.92-6.29,33.98-2.04,68.35-2.64,101.76-2.81,1.09,0,1.97-.55,1.97-1.23s-.88-1.23-1.97-1.23h0Z" fill="#9c6d2e" fill-rule="evenodd" stroke="#e4d1bd" stroke-miterlimit="10"/>
          <path d="M1271.83,670.58c-38.16,1.35-78.79,2.8-118.93,2.9-26.86.07-53.5-.47-79.04-2.07-15.4-.96-30.79-2.51-46.17-4.37-35.92-4.34-71.71-10.38-107.02-14.88-20.39-2.58-42.84-4.51-64.48-7.43-14.39-1.94-28.42-4.32-41.21-7.66-10.63-2.76-21.03-5.91-31.31-9.27-41.15-13.45-80.19-30.51-122.41-42.58-12.53-3.56-25.44-6.36-38.53-8.8-19.45-3.62-39.3-6.44-58.89-9.86-48.17-8.38-94.16-17.9-141.38-25.57-31.24-5.07-63.03-9.34-96.33-11.95-.52-.04-1,.19-1.07.51-.07.33.3.63.82.67,33.12,2.92,64.68,7.49,95.7,12.83,47.03,8.1,92.8,18,140.76,26.79,19.48,3.56,39.24,6.53,58.59,10.28,12.76,2.48,25.34,5.3,37.54,8.87,41.98,12.23,80.66,29.51,121.63,43.04,10.46,3.45,21.07,6.65,31.91,9.48,13.21,3.43,27.7,5.9,42.57,7.88,21.69,2.89,44.2,4.76,64.64,7.28,35.38,4.34,71.25,10.26,107.25,14.41,15.59,1.8,31.21,3.26,46.81,4.15,25.76,1.45,52.61,1.83,79.67,1.58,40.23-.37,80.91-2.14,119.13-3.78,1.09-.04,1.91-.63,1.84-1.31-.07-.68-1-1.2-2.09-1.15h0Z" fill="#9c6d2e" fill-rule="evenodd" stroke="#e4d1bd" stroke-miterlimit="10"/>
          <path d="M1269.69,601.86c-100.79,2.08-199.9,2.96-298.53-1.8-65.56-3.17-130.92-8.81-196.42-18.38-18.83-2.73-37.91-6.46-56.92-10.58-28.52-6.19-56.89-13.31-84.07-19.5-24.61-5.57-49.54-10.3-74.69-14.48-37.64-6.25-75.78-11.29-114.05-16.34-51.69-6.78-104.06-9.66-156.68-11.21-78.45-2.31-157.46-1.71-235.64-7.05-32.42-2.21-64.7-5.44-96.73-10.32-.51-.08-1.03.11-1.16.43-.13.32.18.64.69.72,32.05,5.13,64.36,8.61,96.85,11.06,78.14,5.88,157.22,5.82,235.7,8.59,52.26,1.85,104.26,4.93,155.54,11.94,38.1,5.18,76.05,10.39,113.53,16.72,24.91,4.21,49.62,8.9,74,14.46,27.22,6.18,55.63,13.3,84.21,19.47,19.28,4.16,38.64,7.89,57.74,10.63,65.93,9.4,131.68,14.92,197.62,17.82,98.88,4.36,198.18,2.89,299.15.29,1.09-.03,1.94-.6,1.9-1.28-.04-.68-.96-1.21-2.04-1.19h0Z" fill="#9c6d2e" fill-rule="evenodd" stroke="#e4d1bd" stroke-miterlimit="10"/>
          <path d="M1266.84,518.89c-58.28-.25-116.76.21-175.25.48-38.93.18-77.86.25-116.74-.02-41.71-.29-83.36-.97-124.89-2.52-29.87-1.02-60.6-2.92-91.27-5.34-30.63-2.42-61.2-5.35-90.76-8.59-18.85-2.05-36.48-5.99-54.79-8.75-7.9-1.19-15.93-2.17-24.23-2.7-12.66-.81-25.4-1.22-38.18-1.42-29.58-.47-59.37.16-88.89-.59-.53-.02-.97.24-1,.57-.03.33.38.61.91.63,29.5,1.09,59.31.82,88.87,1.63,12.67.35,25.3.89,37.83,1.83,8.08.61,15.88,1.65,23.56,2.9,18.36,2.98,36.02,7.1,54.93,9.35,29.59,3.49,60.18,6.74,90.86,9.38,30.8,2.65,61.69,4.68,91.71,5.87,22.24.82,44.51,1.42,66.8,1.8,33.37.56,66.79.69,100.23.55,83.48-.35,167.07-2.26,250.3-2.58,1.09,0,1.97-.55,1.97-1.23,0-.68-.88-1.23-1.97-1.23h0Z" fill="#9c6d2e" fill-rule="evenodd" stroke="#e4d1bd" stroke-miterlimit="10"/>
          <path d="M1271.97,544.63c-15.23.9-30.07.61-44.82-.15-22.38-1.16-44.56-3.43-67.54-4.64-10.96-.53-21.98-.95-33.05-1.19-10.98-.24-22.01-.35-33.07-.33-20.49.04-41.06.46-61.61.97-30.94.76-61.78,1.81-92.22,2.21-.53,0-.95.27-.95.6s.43.6.95.6c30.46.4,61.36.31,92.35.23,20.5-.05,41.01-.06,61.44.11,10.98.09,21.94.2,32.85.41,10.98.21,21.91.48,32.79.92,23.02.84,45.27,2.81,67.69,3.54,15.06.49,30.18.43,45.63-.82,1.08-.08,1.86-.69,1.74-1.36-.12-.68-1.1-1.16-2.18-1.09h0Z" fill="#9c6d2e" fill-rule="evenodd" stroke="#e4d1bd" stroke-miterlimit="10"/>
          <path d="M-33.84,471.03c75.73,1.81,152.5,5.36,229.17,6.73,51.21.91,102.39.82,153.17-1.33,33.08-1.44,67.33-3.73,101.42-4.51,22.6-.52,45.14-.39,67.22,1.15,32.23,2.2,64.29,4.85,96.33,7.47,32.13,2.63,64.25,5.24,96.48,7.47,27.58,1.91,55.25,3.51,83.09,4.58,72.47,2.75,144.03-.42,215.88.58,30.59.43,61.23,1.6,92.02,4.34.52.05,1.01-.18,1.08-.5.08-.33-.28-.63-.8-.68-30.83-3-61.54-4.46-92.21-5.13-71.74-1.57-143.26,1.09-215.59-2.2-27.72-1.24-55.26-3.03-82.72-5.08-32.16-2.4-64.19-5.2-96.26-7.94-32.07-2.74-64.18-5.42-96.45-7.7-22.45-1.55-45.37-1.7-68.36-1.14-34.17.84-68.49,3.25-101.64,4.77-50.55,2.37-101.5,2.63-152.51,1.99-76.66-.96-153.45-4-229.18-5.35-1.09-.02-2,.51-2.04,1.19-.04.68.82,1.25,1.9,1.27h0Z" fill="#9c6d2e" fill-rule="evenodd" stroke="#e4d1bd" stroke-miterlimit="10"/>
          <path d="M1300.14,428.36c-37.36,1.82-74.44,3.92-111.39,6.2-55.73,3.44-111.16,7.27-166.77,10.97-29.74,2-60.1,2.75-90.72,2.83-35.25.1-70.85-.71-106.25-1.51-35.91-.82-71.61-1.63-106.54-1.62-79.44.22-160.45-4.53-240.91-5.01-34.65-.21-69.2.4-103.48,2.48-39.13,2.39-76.22,6.98-114.66,9.59-16.12,1.09-32.48,1.84-49.33,1.91-.53,0-.95.27-.95.6s.43.6.95.6c16.93.08,33.38-.52,49.6-1.48,38.47-2.27,75.62-6.57,114.77-8.63,34.15-1.81,68.54-2.11,103.02-1.67,40.07.51,80.26,2.06,120.33,3.5,40.43,1.44,80.74,2.76,120.67,2.85,34.84.01,70.45.89,106.27,1.68,35.51.78,71.22,1.47,106.57,1.25,30.86-.19,61.46-1.09,91.41-3.23,55.55-4.02,110.91-8.12,166.57-11.9,36.88-2.5,73.89-4.87,111.18-6.94,1.08-.06,1.89-.65,1.8-1.33-.09-.68-1.04-1.18-2.13-1.13h0Z" fill="#9c6d2e" fill-rule="evenodd" stroke="#e4d1bd" stroke-miterlimit="10"/>
          <path d="M122.04,436.12c50.54-1.22,102.76-4.38,155.65-7.86,22.07-1.46,44.26-2.97,66.48-4.42,24.61-1.6,49.27-3.11,73.87-4.39,24.74-1.29,49.42-2.32,73.96-2.96,53.8-1.41,106.89-.86,158.26,3.84,34.56,3.1,71.09-.41,106.44.47,15.14.38,30.06,1.56,44.51,4.46.5.1,1.04-.06,1.21-.38.17-.31-.1-.65-.6-.75-14.55-3.15-29.63-4.57-44.97-5.16-35.11-1.35-71.55,1.72-105.81-1.8-51.64-5.21-105.11-6.49-159.32-5.36-24.66.51-49.47,1.55-74.32,2.87-24.66,1.32-49.36,2.96-74,4.71-22.21,1.57-44.38,3.24-66.42,4.88-52.7,3.92-104.72,7.67-155.11,9.39-1.09.03-1.93.61-1.88,1.29.05.68.97,1.21,2.06,1.17h0Z" fill="#9c6d2e" fill-rule="evenodd" stroke="#e4d1bd" stroke-miterlimit="10"/>
          <path d="M21.68,451.33c10.81,1,21.53,1.89,32.31,2.43,7.21.36,14.43.6,21.65.69,2.89.04,5.78.01,8.66-.02,4.33-.05,8.65-.15,12.99-.27,10.79-.32,21.53-.82,32.4-1.25.53,0,.95-.27.95-.6s-.43-.6-.95-.6c-10.86-.44-21.58-.93-32.35-1.35-4.31-.17-8.61-.33-12.91-.47-2.87-.09-5.73-.19-8.6-.24-7.16-.13-14.32-.19-21.49-.26-10.72-.11-21.44-.15-32.26-.51-1.08-.07-2.05.43-2.16,1.1-.11.68.68,1.28,1.76,1.35h0Z" fill="#9c6d2e" fill-rule="evenodd" stroke="#e4d1bd" stroke-miterlimit="10"/>
          <path d="M1262.41,373.29c-39.88-.12-80.76-1.28-121.38-1.41-27.27-.08-54.43.3-81.11,1.74-49.38,2.69-98.38,8.85-147.68,12.81-12.27.99-24.55,1.84-36.87,2.46-43.14,2.2-86.9,1.71-130.83.65-43.78-1.06-87.72-2.72-131.36-3.05-37.95-.28-75.68.48-112.86,3.47-55.61,4.52-112.06,7.61-168.81,9.76-84.68,3.21-170.06,4.31-254.42,4.64-.53,0-.95.27-.95.6s.43.6.95.6c84.43.32,169.89-.06,254.7-2.69,56.93-1.77,113.55-4.56,169.37-8.74,24.64-1.87,49.51-2.72,74.52-2.98,49.61-.53,99.77,1.37,149.81,2.72,50.53,1.36,100.93,2.13,150.49-.5,12.42-.67,24.82-1.56,37.18-2.61,49.18-4.15,98.03-10.58,147.3-13.5,19.9-1.18,40.09-1.77,60.39-2.02,47.22-.58,95.08.65,141.58.51,1.09,0,1.97-.55,1.97-1.23s-.88-1.23-1.97-1.23h0Z" fill="#9c6d2e" fill-rule="evenodd" stroke="#e4d1bd" stroke-miterlimit="10"/>
          <path d="M-36.27,339.71c81.02-3.49,162.53-4.98,244.26-5.42,68.36-.37,136.87.03,205.37.66,45.67.42,91.33.95,136.94,1.43,30.47.32,60.91.61,91.32.83,45.78.33,91.47.47,137.02.38,45.42-.13,91.73,1.07,137.64.81,19.81-.11,39.54-.51,59.1-1.38,5.7-.26,11.28-.84,16.8-1.59,12.66-1.73,24.98-4.33,37.7-5.6,25.8-2.58,52.5-3.64,79.44-4.01,40.22-.55,80.97.44,120,.29.53,0,.95-.27.95-.6s-.43-.6-.95-.6c-39.06-.15-79.8-1.45-120.05-1.19-27.12.17-54.02,1.06-80.04,3.47-12.82,1.19-25.26,3.71-38.03,5.36-5.31.69-10.67,1.22-16.15,1.43-19.46.75-39.1,1.01-58.8,1-45.91,0-92.19-1.45-137.61-1.58-64.97-.1-130.22-.81-195.61-1.5-48.86-.51-97.8-1.01-146.75-1.38-48.94-.37-97.89-.59-146.8-.5-109.15.21-218.05,2.01-326.04,7.23-1.08.05-1.9.64-1.82,1.32.08.68,1.02,1.19,2.11,1.14h0Z" fill="#9c6d2e" fill-rule="evenodd" stroke="#e4d1bd" stroke-miterlimit="10"/>
          <path d="M-4.39,296.75c75.37-1.31,151.81-1.41,227.81-3.96,50.8-1.7,101.4-4.51,151.35-9.47,58.47-5.82,115.27-15.21,173.13-22.31,24.57-3.01,49.33-5.61,74.5-7.33,77.7-5.33,154.8-6.29,230.07-13.81,50.39-5.03,99.95-13.01,148.34-27.1,13.78-4.02,28.89-9.91,35.97-18.1,4.8-5.55,6.13-12.14,1.13-19.94-1.36-2.13-4.21-3.88-8.29-5.19-3.81-1.23-8.77-2.11-14.35-2.7-18.58-1.98-44.5-.88-54-1.58-61.8-4.49-121.93-11-182.77-14.42-40.51-2.28-81.34-3.19-123.16-1.27-31.43,1.45-62.43,4.12-93.16,7.49-71.91,7.87-142.42,19.51-213.91,28.01-40.9,4.87-81.95,7.82-123.14,9.62-61.88,2.71-124.05,2.82-186.44,2.94-33.6.07-69.09,1.42-103.92.69-23.37-.49-46.45-1.91-68.45-5.3-.51-.08-1.03.11-1.16.43-.13.32.18.64.69.72,22.1,3.51,45.31,5.04,68.82,5.64,34.85.88,70.38-.33,104.01-.26,62.48.12,124.74.26,186.73-2.21,41.39-1.65,82.65-4.46,123.78-9.2,71.53-8.26,142.1-19.65,214.03-27.29,30.56-3.24,61.36-5.81,92.59-7.15,41.46-1.8,81.9-.78,122.04,1.56,60.76,3.55,120.8,10.13,182.52,14.72,9.44.7,35.16-.4,53.6,1.57,4.71.5,8.91,1.2,12.12,2.24,2.21.71,3.93,1.55,4.67,2.7,3.97,6.2,3.05,11.45-.76,15.86-6.34,7.33-20.11,12.44-32.45,16.04-47.7,13.94-96.58,21.81-146.28,26.84-75.12,7.61-152.09,8.72-229.64,14.18-25.35,1.79-50.28,4.46-75.02,7.55-57.75,7.23-114.41,16.79-172.78,22.75-49.73,5.09-100.12,8.01-150.72,9.86-75.93,2.78-152.33,3.14-227.64,4.69-1.09.02-1.94.59-1.91,1.27.03.68.94,1.21,2.03,1.19h0Z" fill="#9c6d2e" fill-rule="evenodd" stroke="#e4d1bd" stroke-miterlimit="10"/>
          <path d="M-28.85,326.02c44.08-.83,88.3-.26,132.44-.45,18.97-.08,37.93-.31,56.85-.85,22.66-.64,45.25-1.75,67.81-3.1,52.57-3.15,104.92-7.62,157.44-10.54,5.26-.29,10.54-.43,15.85-.46,21.44-.14,43.14,1.32,64.47.56,96.51-3.45,196.06-4.91,292.85-13.97,65-6.08,128.75-15.6,189.52-31.38,54.55-14.18,156.3-25.67,223.29-51.23,32.8-12.51,57.32-28.4,64.76-49.35,1.42-3.98,5.81-15.6,5.9-24.25.03-3.19-.55-6-1.88-8.03-1.06-1.62-2.62-2.81-4.57-3.55-4.24-1.59-9.75-2.35-15.8-2.59-11.62-.46-25.37,1.02-34.2.72-18.25-.63-35.89-4.14-53.93-5.94-4.66-.46-9.35-.82-14.08-.99-16.4-.59-32.81-.77-49.23-.69-65.29.31-130.6,4.66-195.7,2.46-11.84-.4-23.67-1.93-35.46-4.03-27.59-4.91-54.91-12.94-81.4-17.42-14.02-2.37-28.44-4.12-43.01-5.44-21.72-1.97-43.75-3-65.26-3.77-25.55-.9-54.1-1.98-81.94-1.75-18.96.16-37.58.92-54.73,2.73-25.31,2.68-51.13,8.07-76.78,11.64-11.05,1.54-22.08,2.73-33.02,3.2-49.67,2.15-99.19,1.9-148.61.2-74.2-2.55-148.18-8.38-222.11-14.28-32.26-2.57-65.04-4.23-97.26-7.45-21.49-2.14-42.73-4.98-63.41-9.25-.5-.1-1.04.06-1.21.38-.17.31.1.65.6.75,20.75,4.37,42.07,7.3,63.65,9.53,32.22,3.33,65,5.11,97.26,7.8,73.97,6.15,147.98,12.23,222.25,15.02,49.58,1.87,99.28,2.27,149.15.28,11.18-.45,22.46-1.63,33.76-3.17,25.59-3.48,51.35-8.79,76.6-11.38,16.89-1.74,35.25-2.42,53.92-2.52,27.71-.15,56.11.99,81.53,1.96,21.33.81,43.18,1.89,64.71,3.9,14.31,1.34,28.47,3.09,42.24,5.45,26.44,4.54,53.68,12.63,81.22,17.61,12.26,2.21,24.59,3.81,36.92,4.25,65.23,2.33,130.7-1.87,196.13-2.08,16.25-.05,32.5.14,48.74.75,18.29.68,35.94,4.22,53.94,6.01,4.67.47,9.36.82,14.1.98,8.81.31,22.53-1.16,34.13-.69,4.71.19,9.04.68,12.34,1.92,1.34.5,1.81,1.67,2.22,3.08.62,2.13.6,4.8.27,7.62-.92,7.74-4.32,16.63-5.5,19.97-7.01,19.72-30.39,34.5-61.25,46.3-66.62,25.46-167.88,36.92-222.12,51.08-60.18,15.73-123.34,25.22-187.73,31.36-96.55,9.21-195.88,10.89-292.17,14.53-21.23.81-42.84-.6-64.19-.42-5.45.05-10.88.2-16.29.51-52.52,3.05-104.86,7.63-157.42,10.92-22.46,1.4-44.97,2.57-67.54,3.27-18.86.59-37.76.86-56.67.99-44.16.31-88.42-.15-132.52.8-1.09.02-1.94.59-1.91,1.27.04.68.95,1.21,2.03,1.19h0Z" fill="#9c6d2e" fill-rule="evenodd" stroke="#e4d1bd" stroke-miterlimit="10"/>
          <path d="M-44.09,229.06c17.19-1.45,33.49-1.83,49.78-1.47,16.29.37,32.57,1.48,49.73,3.05,21.17,1.93,41.9,3.14,62.69,3.89,20.75.74,41.56,1.01,62.89,1.08l66.18.16c9.57,0,44.41-2.45,67.95-.22,6.2.59,11.57,1.47,15.28,2.92,2.51.98,4.17,2.21,4.17,3.92,0,1.32-.14,2.03-1.07,2.53-1.32.72-3.29,1.2-5.9,2.11-30.86,10.87-81.59,16.07-136.53,18.67-76.69,3.63-161.57,2.07-213.11,2.37-.53,0-.95.27-.95.6s.43.6.95.6c37.5.23,92.58,1.71,149.39,1.39,33.73-.19,68.07-1.02,99.69-3.11,42.05-2.78,79.32-7.84,104.23-16.38,4.37-1.51,7.17-2.32,8.83-3.76,1.29-1.12,2.09-2.59,2.1-5.02.01-3.39-2.76-6.03-7.73-7.98-4.42-1.74-10.79-2.91-18.21-3.61-23.94-2.25-59.36.3-69.1.31l-66.18.16c-21.22.07-41.92-.06-62.58-.64-20.63-.58-41.22-1.6-62.26-3.34-17.38-1.43-33.87-2.41-50.34-2.63-16.54-.22-33.07.34-50.47,1.98-1.08.1-1.83.72-1.67,1.39.15.67,1.15,1.14,2.23,1.05h0Z" fill="#9c6d2e" fill-rule="evenodd" stroke="#e4d1bd" stroke-miterlimit="10"/>
          <path d="M1293.02,90.98c-46.4.84-113.65,2.94-176.66,3.22-44.04.19-86-.5-117.23-3.18-71.78-6.1-143.42-13.78-215.43-20.3-30.83-2.79-61.72-5.36-92.72-7.53-33.06-2.28-66.41-3.09-99.89-3.1-77.43-.03-155.53,3.98-232.35,2.06-63.9-1.54-128-4.19-191.98-7.71-64-3.51-127.89-7.89-191.33-12.95-.52-.04-1,.19-1.07.51-.07.33.3.63.82.67,63.39,5.51,127.23,10.36,191.21,14.3,64,3.94,128.15,6.96,192.1,8.9,76.88,2.25,155.09-1.29,232.59-1.06,33.21.1,66.28.86,99.07,3.15,30.92,2.13,61.74,4.67,92.51,7.39,72.07,6.36,143.81,13.74,215.65,19.61,31.5,2.55,73.77,3.07,118.13,2.65,63.04-.6,130.31-3.08,176.73-4.17,1.09-.02,1.94-.59,1.9-1.27-.04-.68-.95-1.21-2.04-1.19h0Z" fill="#9c6d2e" fill-rule="evenodd" stroke="#e4d1bd" stroke-miterlimit="10"/>
          <path d="M-32.63,19.79c34.15-3.57,66.3-3.97,97.98-2.95,48.45,1.57,95.8,6.47,147.47,8.64,36.1,1.49,72.32,2.25,108.61,2.53,54.19.42,108.54-.15,162.88-.71,30.14-.31,60.28-.62,90.39-.76,30.15-.14,60.26-.11,90.32.29,37.66.5,75.23,1.57,112.67,3.6,38.99,2.09,77.74,7.38,116.62,10.53,9.82.79,19.64,1.45,29.48,1.89,29.33,1.3,58.81,1.79,88.34,1.88,44.16.14,88.42-.59,132.43-.76.53,0,.95-.27.95-.6s-.43-.6-.95-.6c-43.99-.18-88.25.19-132.38-.29-29.44-.33-58.82-1.03-88.03-2.55-9.74-.5-19.46-1.22-29.17-2.07-38.93-3.42-77.68-8.95-116.73-11.3-56.27-3.33-112.88-4.58-169.65-4.78-26.37-.1-52.78.03-79.2.26-39.55.34-79.13.91-118.68,1.27-66.03.61-131.96.71-197.52-1.72-51.71-1.88-99.14-6.54-147.63-7.83-32-.85-64.45-.23-98.88,3.59-1.07.12-1.79.75-1.61,1.42.18.67,1.2,1.12,2.28,1h0Z" fill="#9c6d2e" fill-rule="evenodd" stroke="#e4d1bd" stroke-miterlimit="10"/>
          <path d="M1307.78,225.62c-23.26,1.96-43.55,5.8-62.4,10.71-23.54,6.13-44.84,13.88-66.86,21.65-20.71,7.3-42.06,14.64-66.73,20.49-12,2.9-24.15,5.29-36.38,7.36-12.38,2.09-24.85,3.84-37.4,5.34-29.43,3.51-59.27,5.64-89.1,7.89-29.93,2.26-59.83,4.67-89.28,8.65-.52.06-.85.38-.75.7.1.32.61.53,1.12.47,29.55-3.4,59.47-5.15,89.4-6.88,30.07-1.74,60.14-3.42,89.83-6.57,12.79-1.36,25.51-2.99,38.11-5.03,12.53-2.04,24.93-4.5,37.21-7.44,24.96-6.09,46.59-13.59,67.44-21.2,21.64-7.89,42.44-15.88,65.56-22.27,18.32-5.06,38.06-9.16,60.8-11.42,1.08-.1,1.82-.73,1.66-1.4-.16-.67-1.16-1.14-2.24-1.04h0Z" fill="#9c6d2e" fill-rule="evenodd" stroke="#e4d1bd" stroke-miterlimit="10"/>
          <path d="M-22.27,348.26c18.18,2.3,36.46,2.83,54.78,2.53,13.66-.23,27.33-.9,40.97-1.65,13.57-.74,27.12-1.57,40.61-2,15.54-.58,31.13-1.05,46.74-1.6,23.35-.81,46.73-1.66,70.12-2.33,26.04-.75,52.05-1.4,78-1.75.53,0,.95-.27.95-.6s-.43-.6-.95-.6c-32.47-.43-65.08-.55-97.68-.22-19.55.2-39.1.51-58.6,1.03-13.03.35-26.04.85-39.02,1.33-13.57.57-27.2,1.49-40.84,2.43-13.5.93-27.01,1.86-40.53,2.34-17.94.64-35.89.54-53.82-1.34-1.07-.12-2.1.32-2.3.99-.2.67.51,1.31,1.58,1.44h0Z" fill="#9c6d2e" fill-rule="evenodd" stroke="#e4d1bd" stroke-miterlimit="10"/>
          <path d="M-11.15,1145.15c17.48-1.39,34.97-2,52.48-2.39,9.82-.22,19.64-.34,29.47-.46,6.56-.08,13.12-.18,19.68-.28,9.86-.15,19.71-.32,29.58-.48,14.82-.25,29.61-.56,44.44-.94.53,0,.95-.27.95-.6s-.43-.6-.95-.6c-10.59-.28-21.13-.64-31.71-.95-10.59-.31-21.16-.62-31.74-.81-7.07-.13-14.14-.23-21.2-.22-7.08,0-14.16.12-21.23.31-9.44.25-18.87.66-28.28,1.22-14.09.85-28.11,2.11-42.1,3.75-1.07.1-1.81.74-1.64,1.41.17.67,1.18,1.13,2.25,1.03h0Z" fill="#9c6d2e" fill-rule="evenodd" stroke="#e4d1bd" stroke-miterlimit="10"/>
        </g>
        <polygon points="1256.99 1178.76 1256.99 0 0 0 0 1178.76 1256.99 1178.76 1256.99 1178.76" fill="none" fill-rule="evenodd" stroke="#e4d1bd" stroke-miterlimit="10"/>
        <rect x="-.08" y="0" width="1256.94" height="1178.76" fill="none" stroke="#e4d1bd" stroke-miterlimit="10"/>
      </g>
      <g>
        <g clip-path="url(#uuid-8b64263e-9536-42f7-9ee4-dafbb08a03c3)">
          <path d="M113.92,1141.03c-.39.02-.86,0-1.37-.01-.92-.04-1.96-.13-2.96-.2-1.22-.09-2.37-.15-3.15-.13-.77.02-1.3.16-1.54.31-.39.25-.57.73.19,1.25.49.34,1.44.79,2.49,1.24,1.44.61,3.07,1.22,3.68,1.53,0,0,.03.02.05.04h-.07c-.51.07-1.2.11-1.97.13-2.46.06-5.69-.03-6.95.09-.13,0-.23.08-.21.17.02.08.14.14.27.13,1.45-.06,5.42.3,7.91.3,1.09,0,1.92-.11,2.29-.27.26-.11.38-.31.27-.58-.1-.25-.59-.62-.69-.67-.82-.46-3.6-1.62-5.05-2.45,1.68.06,4.27.32,6.05.33.63,0,1.17-.02,1.57-.09.43-.07.74-.18.95-.31.21-.13.34-.3.34-.52,0-.18-.13-.45-.43-.75-.57-.57-1.78-1.36-2.35-1.72,1.76.08,2.87-.16,3.33-.59.24-.22.36-.5.29-.84-.08-.38-.41-.86-1.05-1.42-.15-.14-.46-.19-.69-.09-.23.09-.3.29-.14.43.38.39.61.72.7,1,.07.2.05.36-.09.47-.14.11-.4.16-.74.19-.46.04-1.03.02-1.73-.05-.18-.02-.72-.17-1.19-.23-.32-.04-.63-.04-.86-.01-.56.08-.69.31-.72.51-.02.11.04.26.21.41.21.19.89.49,1.13.69.1.08,1.6,1.06,2.26,1.73h0ZM106.2,1141.84c-.1,0-.15.02-.13.06.02.04.1-.04.13-.06h0ZM106.44,1141.48c0-.06,0-.1-.07-.08-.04.01.02.05.07.08h0ZM111.88,1138.22c.04-.13.04-.24-.1-.17-.09.05-.03.11.1.17h0Z" fill="#ab6027" fill-rule="evenodd" stroke="#e4d1bd" stroke-miterlimit="10"/>
          <path d="M39.77,1137.48c-.39.02-.86,0-1.37-.01-.91-.04-1.96-.13-2.96-.2-1.22-.09-2.37-.15-3.15-.13-.77.02-1.3.16-1.54.31-.39.25-.57.73.19,1.25.49.34,1.44.79,2.49,1.24,1.44.61,3.07,1.22,3.69,1.53,0,0,.03.02.05.04h-.07c-.51.07-1.2.11-1.97.13-2.46.06-5.69-.03-6.95.09-.13,0-.23.08-.21.17.01.08.13.14.27.13,1.45-.06,5.42.3,7.91.3,1.09,0,1.92-.11,2.29-.27.26-.11.38-.31.27-.58-.1-.25-.59-.62-.69-.67-.83-.46-3.6-1.62-5.06-2.45,1.68.06,4.27.32,6.05.33.63,0,1.17-.02,1.57-.09.43-.07.74-.18.95-.31.21-.13.34-.3.34-.52,0-.18-.13-.45-.43-.75-.57-.57-1.78-1.36-2.35-1.72,1.76.08,2.87-.16,3.33-.59.24-.22.36-.5.29-.84-.08-.38-.41-.86-1.05-1.42-.15-.14-.46-.19-.69-.09-.23.09-.3.29-.14.43.38.39.61.72.7,1,.07.2.05.36-.09.47-.14.11-.4.16-.74.19-.46.04-1.03.02-1.73-.05-.18-.02-.72-.17-1.19-.23-.32-.04-.63-.04-.86-.01-.56.08-.69.31-.72.5-.02.11.04.26.21.41.21.19.89.49,1.13.69.1.08,1.6,1.06,2.26,1.73h0ZM32.04,1138.29c-.1,0-.15.02-.13.06.02.04.1-.04.13-.06h0ZM32.28,1137.92c0-.06,0-.1-.07-.08-.04.01.02.05.07.08h0ZM37.73,1134.67c.04-.13.04-.24-.1-.17-.09.05-.03.11.1.17h0Z" fill="#ab6027" fill-rule="evenodd" stroke="#e4d1bd" stroke-miterlimit="10"/>
          <path d="M101.55,1138.28c-.19,0-.38,0-.52,0-.57.05-1.09.15-1.39.29-.4.2-.64.47-.67.83-.03.37.17.85.34,1.26.04.1.09.24.11.31-.16.06-.33.09-.5.13-.31.07-.6.14-.84.27-.27.14-.5.32-.6.62-.11.35-.02.71.22,1.06.26.4.67.8.84,1.18.12.25.13.5-.17.72-.09.06-.09.16,0,.21.09.06.25.06.34,0,.35-.19.5-.41.55-.66.08-.4-.19-.85-.43-1.31-.18-.35-.35-.69-.17-1,.05-.08.13-.12.21-.16.18-.07.4-.07.62-.1.38-.05.75-.13,1.08-.28.25-.11.4-.29.45-.54.06-.28-.1-.74-.19-1.17-.04-.17-.2-.51,0-.47.03,0-.01.04-.05.05-.03,0-.05,0-.04.02,0,0,.02,0,.02-.01h.01s.1,0,.14-.01c.14-.02.3-.03.46-.04.43-.03.89-.05,1.23-.11.56-.09.92-.28,1.08-.49.11-.15.19-.43-.08-.77-.22-.28-.75-.73-1.13-1.16-.11-.13-.22-.25-.28-.37-.02-.04-.06-.08-.05-.12.09-.49.83-.57,1.49-.67.87-.12,1.72-.22,2.17-.47.52-.29.82-.77-.06-1.68-.13-.15-.43-.21-.68-.13-.24.08-.34.27-.21.42.16.22.24.4.28.54.03.11-.01.18-.11.23-.16.07-.4.08-.67.11-.47.04-1,.06-1.51.12-1.17.14-2.13.49-2.42,1.34-.1.32.08.76.41,1.2.21.28.49.56.71.79h0ZM101.8,1138.55c-.03.08-.03.13.08.11.02,0-.01-.02-.02-.03-.02-.02-.04-.05-.06-.08h0ZM102,1138.27c.14-.01.22-.03.17-.09-.04-.05-.12.02-.17.09h0Z" fill="#ab6027" fill-rule="evenodd" stroke="#e4d1bd" stroke-miterlimit="10"/>
          <path d="M27.4,1134.72c-.19,0-.38,0-.52,0-.57.05-1.09.15-1.39.29-.4.2-.64.47-.67.83-.03.37.17.85.34,1.26.04.1.09.24.11.31-.16.06-.33.09-.5.13-.31.07-.6.14-.84.27-.27.14-.5.32-.6.62-.11.35-.02.71.22,1.06.26.4.67.8.84,1.18.12.25.13.5-.17.72-.09.06-.09.16,0,.21.09.06.25.06.34,0,.35-.19.5-.41.55-.66.08-.4-.19-.85-.43-1.31-.18-.35-.35-.69-.17-1,.05-.08.13-.12.21-.16.18-.07.4-.07.62-.11.38-.05.75-.13,1.08-.28.25-.11.4-.29.45-.54.06-.28-.1-.74-.19-1.17-.04-.17-.2-.51,0-.47.03,0-.01.04-.05.05-.03,0-.05,0-.04.02,0,0,.02,0,.03-.01h.01s.1,0,.14-.01c.14-.02.3-.03.46-.04.43-.03.89-.05,1.23-.11.56-.09.92-.28,1.08-.49.11-.15.19-.43-.08-.77-.22-.28-.75-.72-1.13-1.16-.11-.13-.22-.25-.28-.37-.02-.04-.06-.08-.05-.12.09-.49.82-.57,1.49-.67.87-.12,1.72-.22,2.17-.47.52-.29.82-.77-.06-1.68-.13-.15-.43-.21-.68-.13-.24.08-.34.27-.21.42.16.22.25.4.28.54.03.11-.01.18-.11.23-.16.07-.4.09-.67.11-.47.04-1,.06-1.51.12-1.17.14-2.13.49-2.42,1.34-.1.32.08.76.41,1.2.21.28.49.56.71.79h0ZM27.64,1135c-.03.08-.03.13.08.11.02,0-.01-.02-.02-.03-.02-.02-.04-.05-.06-.08h0ZM27.84,1134.72c.14-.01.22-.03.17-.09-.04-.05-.12.02-.17.09h0Z" fill="#ab6027" fill-rule="evenodd" stroke="#e4d1bd" stroke-miterlimit="10"/>
          <path d="M97.16,1149.14c-.19,0-.38,0-.52,0-.57.05-1.09.15-1.39.29-.4.2-.64.47-.67.83-.03.37.17.85.34,1.26.04.1.09.24.11.31-.16.06-.33.09-.5.13-.31.07-.6.14-.84.27-.27.14-.5.32-.6.62-.12.35-.02.71.22,1.06.26.4.67.8.84,1.18.12.25.13.5-.17.72-.09.06-.09.16,0,.21.09.06.25.06.34,0,.35-.19.5-.41.55-.66.08-.4-.19-.85-.43-1.31-.18-.35-.35-.69-.17-1,.05-.08.13-.12.21-.16.18-.07.4-.08.62-.11.38-.05.75-.13,1.08-.28.25-.11.4-.29.45-.54.06-.28-.1-.74-.19-1.17-.04-.17-.2-.51,0-.47.03,0-.01.04-.05.05-.03,0-.05,0-.04.02,0,0,.02,0,.02-.01h.01s.1,0,.14-.01c.14-.02.3-.03.46-.04.43-.03.89-.05,1.23-.11.56-.09.92-.28,1.08-.49.11-.15.19-.43-.08-.77-.22-.28-.75-.72-1.13-1.16-.11-.13-.22-.25-.28-.37-.02-.04-.06-.08-.05-.12.09-.49.83-.57,1.49-.67.87-.12,1.72-.22,2.17-.47.52-.29.82-.77-.06-1.68-.13-.15-.43-.21-.68-.13-.24.08-.34.27-.21.42.16.22.25.4.28.54.03.11-.01.18-.11.23-.16.07-.4.09-.67.11-.47.04-1,.06-1.51.12-1.17.14-2.13.49-2.42,1.34-.1.32.08.76.41,1.2.21.28.49.56.71.79h0ZM97.41,1149.42c-.03.08-.03.13.08.11.02,0-.01-.02-.02-.03-.02-.03-.04-.05-.06-.08h0ZM97.61,1149.13c.14-.01.22-.03.17-.09-.04-.05-.12.02-.17.09h0Z" fill="#ab6027" fill-rule="evenodd" stroke="#e4d1bd" stroke-miterlimit="10"/>
          <path d="M97.98,1133.07l.35.78.43,1,.12.66c.01.12-.01.21-.07.27,0,0-.02-.01-.03-.01-.03,0-.06,0-.09.01-.12.02-.25.02-.38.02-.59.02-1.23.02-1.75.16-.47.12-.85.34-1.1.71-.13.19-.21.39-.27.6-.09.34-.1.69-.12,1.04-.01.26-.02.52-.16.76-.05.1-.2.15-.33.2-.23.1-.47.2-.66.31-.18.11-.34.22-.46.36-.24.31-.56,1.24-.75,2.29-.24,1.29-.35,2.75-.28,3.29,0,.08.11.15.24.15s.24-.07.24-.15c.07-.53.57-1.92,1.08-3.14.36-.87.71-1.65.97-1.9.11-.11.34-.15.53-.22.28-.1.54-.21.76-.35.19-.12.33-.26.44-.42.13-.19.21-.39.26-.6.08-.33.07-.68.09-1.03.01-.26.02-.52.17-.76.06-.1.19-.14.33-.16.15-.02.3-.04.46-.05.59-.04,1.18-.08,1.58-.23.53-.2.98-.53.79-1.26-.04-.14-.09-.31-.15-.47-.05-.12-.1-.23-.15-.33l-.63-.99-.51-.75c-.09-.16-.38-.25-.64-.19-.26.06-.4.24-.31.4h0Z" fill="#ab6027" fill-rule="evenodd" stroke="#e4d1bd" stroke-miterlimit="10"/>
          <path d="M23.83,1129.52l.35.78.43,1,.12.66c.01.12-.01.21-.07.27,0,0-.02-.01-.03-.01-.03,0-.06,0-.09.01-.12.02-.25.02-.38.02-.59.02-1.23.02-1.76.16-.47.12-.85.34-1.1.71-.13.19-.21.39-.27.6-.09.34-.1.69-.12,1.04-.01.26-.02.52-.16.76-.05.1-.2.14-.33.2-.23.1-.46.2-.66.31-.18.11-.35.22-.46.36-.24.31-.56,1.24-.75,2.29-.24,1.29-.35,2.75-.28,3.29,0,.08.11.15.24.15s.24-.07.24-.15c.07-.53.57-1.92,1.08-3.14.36-.87.71-1.65.97-1.9.11-.11.34-.15.53-.22.28-.1.54-.21.76-.35.19-.12.33-.26.44-.42.13-.19.21-.39.26-.6.08-.33.07-.68.09-1.03.01-.26.02-.52.17-.76.06-.1.19-.14.33-.16.15-.02.3-.04.46-.05.59-.04,1.18-.08,1.58-.23.53-.2.98-.53.79-1.26-.04-.14-.09-.31-.15-.47-.05-.12-.1-.23-.15-.33l-.63-.99-.51-.75c-.09-.16-.38-.25-.64-.19-.26.06-.4.24-.31.4h0Z" fill="#ab6027" fill-rule="evenodd" stroke="#e4d1bd" stroke-miterlimit="10"/>
          <path d="M93.59,1143.93l.35.78.43,1,.12.66c.01.12-.01.21-.07.27,0,0-.02-.01-.03-.01-.03,0-.06,0-.09.01-.12.02-.25.02-.38.02-.59.02-1.23.02-1.75.16-.47.12-.85.34-1.1.71-.13.19-.21.39-.27.6-.09.34-.1.69-.12,1.04-.01.26-.02.52-.16.76-.05.1-.2.14-.33.2-.23.1-.47.2-.66.31-.18.11-.34.22-.46.36-.24.31-.56,1.24-.75,2.29-.24,1.29-.35,2.75-.28,3.29,0,.08.11.15.24.15s.24-.07.24-.15c.07-.53.57-1.92,1.08-3.14.36-.87.71-1.65.97-1.9.11-.11.34-.15.53-.22.28-.1.54-.21.76-.35.19-.12.33-.26.44-.42.13-.19.21-.39.26-.6.08-.33.07-.68.09-1.03.01-.26.02-.52.17-.76.06-.1.19-.14.33-.16.15-.02.3-.04.46-.05.59-.04,1.18-.08,1.58-.23.53-.2.98-.53.79-1.26-.04-.14-.09-.31-.15-.47-.05-.12-.1-.23-.15-.33l-.63-.99-.51-.75c-.09-.16-.38-.25-.64-.19-.26.06-.4.24-.31.4h0Z" fill="#ab6027" fill-rule="evenodd" stroke="#e4d1bd" stroke-miterlimit="10"/>
          <path d="M164.92,1133.07s.01-.03.03-.03c.01,0,0,.02,0,.03h0s0,0,0,0h0s0,.02,0,.02h0s.01,0,0,0c0,0,0,0-.01,0-.21.36-.71.77-.56,1.52.03.16.12.33.27.49.17.18.4.36.58.54.04.05.09.09.12.14.01.02.05.04.04.07.03-.05.17-.16.2-.1.11.24-1.02,0-1.38.1-.32.09-.56.22-.61.46-.05.22.04.44.26.65.28.26.79.5.99.74-.16.01-.38.02-.47.08-.11.08-.19.19-.2.32-.02.18.07.41.08.53,0,.08.11.15.24.15s.24-.07.24-.15c.01-.1-.01-.27.02-.42.01-.05.03-.1.08-.13.02,0,.04,0,.07,0,.06,0,.12,0,.17,0,.14,0,.27-.03.36-.07.17-.07.3-.18.18-.43-.13-.28-.63-.6-.89-.92-.04-.05-.06-.09-.06-.14.08,0,.21.03.3.04.27.02.55.03.78.02.42-.02.71-.15.88-.34.17-.19.2-.38.16-.58-.04-.21-.2-.43-.39-.64-.15-.17-.34-.32-.35-.48-.02-.37.24-.58.41-.77.24-.25.38-.48.39-.72,0-.07,0-.14-.03-.22.52.02,1.08.03,1.58-.01.72-.06,1.31-.22,1.64-.47.23-.17.39-.4.43-.67.06-.37-.07-.81-.08-1.06-.05-.8-.25-1.32-.68-1.78-.4-.43-.99-.8-1.86-1.3-.19-.12-.51-.13-.71,0-.2.12-.2.32,0,.44.68.49,1.15.84,1.43,1.23.27.37.34.78.28,1.4-.02.17.02.44,0,.71,0,.12,0,.24-.1.31-.05.03-.15.03-.25.04-.28.03-.61.03-.95.02-.73-.03-1.48-.11-1.88-.15-.31-.03-1.04-.21-1.25-.23-.57-.07-.88.13-.97.2-.2.14-.3.32-.21.55.02.06.08.23.47.4l1.01.47c.08.04.15.08.2.12.01,0,.03.02.04.02h0ZM164.44,1132.53c-.23-.05-.4-.08-.42-.02-.05.17.18.12.42.02h0ZM164.61,1136.51s-.06,0-.05.03c.01.02.03,0,.05-.03h0ZM164.87,1137.7c.1-.01.17-.03.15-.08-.02-.03-.09.03-.11.06,0,0-.02.01-.03.02h0Z" fill="#ab6027" fill-rule="evenodd" stroke="#e4d1bd" stroke-miterlimit="10"/>
          <path d="M161.93,1143.94s.01-.03.03-.03c.01,0,0,.02,0,.03h0s0,0,0,0h0s0,.02,0,.02h0s.01,0,0,0c0,0,0,0-.01,0-.21.36-.71.77-.56,1.52.03.16.12.33.27.49.17.18.4.36.58.54.04.05.09.09.12.14.01.02.05.04.04.07.03-.05.17-.16.2-.1.11.24-1.02,0-1.38.1-.32.09-.56.22-.61.46-.05.22.04.44.26.65.28.26.79.5.99.74-.16.01-.38.02-.47.08-.11.08-.19.19-.2.32-.02.18.07.41.08.53,0,.08.11.15.24.15s.24-.07.24-.15c.01-.1-.01-.27.02-.42.01-.05.03-.1.08-.13.02,0,.04,0,.07,0,.06,0,.12,0,.17,0,.15,0,.27-.03.36-.07.17-.07.29-.18.18-.43-.13-.28-.63-.6-.89-.92-.04-.05-.06-.09-.06-.14.08,0,.21.03.3.04.27.02.55.03.78.02.42-.02.71-.15.88-.34.17-.19.2-.38.16-.58-.04-.21-.2-.43-.39-.64-.15-.17-.34-.32-.35-.48-.02-.37.24-.58.41-.77.24-.25.38-.48.39-.72,0-.07,0-.14-.03-.22.52.02,1.08.03,1.58,0,.72-.06,1.31-.22,1.64-.47.23-.17.39-.4.43-.67.06-.37-.07-.81-.08-1.06-.05-.8-.25-1.32-.68-1.78-.4-.43-.99-.8-1.86-1.3-.19-.12-.51-.13-.71,0-.2.12-.2.32,0,.44.68.49,1.15.84,1.43,1.23.27.37.34.78.28,1.4-.02.17.02.44,0,.71,0,.12,0,.24-.1.31-.05.03-.15.03-.25.04-.28.03-.61.03-.95.02-.73-.03-1.48-.11-1.88-.15-.31-.03-1.04-.21-1.25-.23-.57-.07-.88.13-.97.2-.2.14-.3.32-.21.55.02.06.08.23.47.4l1.01.47c.08.05.15.08.2.12.01,0,.03.02.04.02h0ZM161.44,1143.4c-.23-.05-.4-.08-.42-.02-.05.17.18.12.42.02h0ZM161.61,1147.38s-.06,0-.05.03c.01.02.03,0,.05-.03h0ZM161.88,1148.56c.1-.01.17-.03.15-.08-.02-.03-.09.03-.11.06,0,0-.02.01-.03.02h0Z" fill="#ab6027" fill-rule="evenodd" stroke="#e4d1bd" stroke-miterlimit="10"/>
          <path d="M88.28,1137.41s.01-.03.03-.03c.01,0,0,.02,0,.03h0s-.01,0-.01,0h0s0,.02,0,.02h0s.01,0,0,0c0,0,0,0-.01,0-.21.36-.71.77-.56,1.52.03.16.12.33.27.49.17.18.4.36.58.54.04.05.09.09.12.14.01.02.05.04.04.07.03-.05.17-.16.2-.1.11.24-1.02,0-1.38.1-.32.09-.56.22-.62.46-.05.22.04.44.26.65.28.26.79.5.99.74-.16.01-.38.02-.47.08-.11.08-.19.19-.2.32-.02.18.07.41.08.53,0,.08.11.15.24.15s.24-.07.24-.15c.01-.1-.01-.27.02-.42.01-.05.03-.1.08-.13.02,0,.04,0,.07,0,.06,0,.12,0,.17,0,.14,0,.27-.03.36-.07.17-.07.3-.18.18-.43-.13-.28-.63-.6-.89-.93-.04-.05-.06-.09-.06-.14.08,0,.21.03.3.04.27.02.55.03.78.02.42-.02.71-.15.88-.34.17-.19.2-.38.16-.58-.04-.21-.2-.43-.39-.64-.15-.17-.35-.32-.35-.48-.02-.37.24-.58.41-.77.24-.25.38-.48.39-.72,0-.07,0-.14-.03-.22.52.02,1.09.03,1.58,0,.72-.06,1.31-.22,1.64-.47.23-.17.39-.4.43-.67.06-.37-.07-.81-.08-1.06-.05-.8-.25-1.32-.68-1.78-.4-.43-.99-.8-1.86-1.3-.19-.12-.51-.13-.71,0-.2.12-.2.32,0,.44.68.49,1.15.84,1.43,1.23.27.37.34.78.28,1.4-.02.17.02.44,0,.71,0,.12,0,.24-.1.31-.05.03-.15.03-.25.04-.28.04-.61.03-.95.02-.73-.03-1.48-.11-1.88-.15-.31-.03-1.04-.21-1.25-.23-.57-.07-.88.13-.97.2-.2.14-.3.32-.21.55.02.06.08.23.47.4l1.01.47c.08.05.15.08.2.12.01,0,.03.02.04.02h0ZM87.8,1136.87c-.23-.05-.4-.08-.42-.02-.05.17.18.12.42.02h0ZM87.97,1140.85s-.06,0-.05.03c.01.02.03,0,.05-.03h0ZM88.23,1142.03c.1-.01.17-.03.15-.08-.02-.03-.09.03-.11.05,0,0-.02.01-.03.02h0Z" fill="#ab6027" fill-rule="evenodd" stroke="#e4d1bd" stroke-miterlimit="10"/>
          <path d="M14.13,1133.86s.01-.03.03-.03c.01,0,0,.02,0,.03h0s0,0,0,0h0s0,.02,0,.02h0s.01,0,0,0c0,0,0,0-.01,0-.21.36-.71.77-.56,1.52.03.16.12.33.27.49.17.18.4.36.58.54.04.05.09.09.12.14.01.02.05.04.04.07.03-.05.17-.16.2-.1.11.24-1.02,0-1.38.1-.32.09-.56.22-.61.46-.05.22.04.44.26.65.28.26.79.5.99.74-.16.01-.38.02-.47.08-.11.08-.19.19-.2.32-.02.18.07.41.08.53,0,.08.11.15.24.15s.24-.07.24-.15c.01-.1-.01-.27.02-.42.01-.05.03-.1.08-.13.02,0,.04,0,.07,0,.06,0,.12,0,.17,0,.15,0,.27-.03.36-.07.17-.06.3-.18.18-.43-.13-.28-.63-.6-.89-.92-.04-.05-.06-.09-.06-.14.08,0,.21.03.3.04.27.02.55.03.78.02.42-.02.71-.15.88-.34.17-.19.2-.38.16-.58-.04-.21-.2-.43-.39-.64-.15-.17-.34-.32-.35-.48-.02-.37.24-.58.41-.77.24-.25.38-.48.39-.72,0-.07,0-.14-.03-.22.52.02,1.08.03,1.58,0,.72-.06,1.31-.22,1.64-.47.23-.17.39-.4.43-.67.06-.37-.07-.81-.08-1.06-.05-.8-.25-1.32-.68-1.78-.4-.43-.99-.8-1.86-1.3-.19-.12-.51-.13-.71,0-.2.12-.2.32,0,.44.68.49,1.15.84,1.43,1.23.27.37.34.78.28,1.4-.02.17.02.44,0,.71,0,.12,0,.24-.1.31-.05.03-.15.03-.25.04-.28.03-.61.03-.95.02-.73-.03-1.48-.11-1.88-.15-.31-.03-1.04-.21-1.25-.23-.57-.07-.88.13-.97.2-.2.14-.3.32-.21.55.02.06.08.23.47.4l1.01.47c.08.05.15.08.2.12.01,0,.03.02.04.02h0ZM13.64,1133.31c-.23-.05-.4-.08-.42-.02-.05.17.18.12.42.02h0ZM13.82,1137.3s-.06,0-.05.03c.01.02.03,0,.05-.03h0ZM14.08,1138.48c.1-.01.17-.03.15-.08-.02-.03-.09.03-.11.05,0,0-.02.01-.03.02h0Z" fill="#ab6027" fill-rule="evenodd" stroke="#e4d1bd" stroke-miterlimit="10"/>
          <path d="M83.89,1148.27s.01-.03.03-.03c.01,0,0,.02,0,.03h0s-.01,0-.01,0h0s0,.02,0,.02h0s.01,0,0,0c0,0,0,0-.01,0-.21.36-.71.77-.56,1.52.03.16.12.33.27.49.17.18.4.36.58.54.04.05.09.09.12.14.01.02.05.04.04.07.03-.05.17-.16.2-.1.11.24-1.02,0-1.38.1-.32.09-.56.22-.61.46-.05.22.04.44.26.65.28.26.79.5.99.74-.16.01-.38.02-.47.08-.11.08-.19.19-.2.32-.02.18.07.41.08.53,0,.08.11.15.24.15s.24-.07.24-.15c.01-.1-.01-.27.02-.42.01-.05.03-.1.08-.13.02,0,.04,0,.07,0,.06,0,.12,0,.17,0,.14,0,.27-.03.36-.07.17-.06.3-.18.18-.43-.13-.28-.63-.6-.89-.93-.04-.05-.06-.09-.06-.14.08,0,.21.03.3.04.27.02.55.03.78.02.42-.02.71-.15.88-.34.17-.19.2-.38.16-.58-.04-.21-.2-.43-.39-.64-.15-.17-.35-.32-.35-.48-.02-.37.24-.58.41-.77.24-.25.38-.48.39-.72,0-.07,0-.14-.03-.22.52.02,1.09.03,1.58-.01.72-.06,1.31-.22,1.64-.47.23-.17.39-.4.43-.67.06-.37-.07-.81-.08-1.06-.05-.8-.25-1.32-.68-1.78-.4-.43-.99-.8-1.86-1.3-.19-.12-.51-.13-.71,0-.2.12-.2.32,0,.44.68.49,1.15.84,1.43,1.23.27.37.34.78.28,1.4-.02.17.02.44,0,.71,0,.12,0,.24-.1.31-.05.04-.15.03-.25.04-.28.03-.61.03-.95.02-.73-.03-1.48-.11-1.88-.15-.31-.03-1.04-.21-1.25-.23-.57-.07-.88.13-.97.2-.2.14-.3.32-.21.55.02.06.08.23.47.4l1.01.47c.08.05.15.08.2.12.01,0,.03.02.04.02h0ZM83.41,1147.73c-.23-.05-.41-.08-.42-.02-.05.18.18.12.42.02h0ZM83.58,1151.71s-.06,0-.05.03c.01.02.03,0,.05-.03h0ZM83.84,1152.9c.1-.01.17-.03.15-.08-.02-.03-.09.03-.11.06,0,0-.02.01-.03.02h0Z" fill="#ab6027" fill-rule="evenodd" stroke="#e4d1bd" stroke-miterlimit="10"/>
          <path d="M161.55,1129.35s.02,0,.02,0c0,0-.01,0-.02,0-.02,0-.04,0-.05,0-.05,0-.1,0-.16,0-.29,0-.59-.04-.88-.05-.87-.03-1.55.15-1.88.71-.17.3-.21.59-.17.89.07.46.36.92.63,1.38.15.26.33.52.35.78-.22-.02-.48-.05-.61-.02-.3.06-.53.15-.66.29-.28.3-.34.64-.16.99.14.28.41.58.64.86.12.15.25.28.27.41,0,.04.04.07.02.09-.08.06-.19.09-.29.13-.23.09-.44.19-.51.36-.04.09-.07.21-.01.36.06.16.15.32.28.47.17.2.39.39.59.57.07.07.21.1.33.06.12-.04.16-.13.09-.21-.14-.19-.28-.38-.39-.59-.06-.12-.1-.24-.12-.37,0-.1.09-.12.17-.14.07-.02.14-.03.2-.05.24-.06.43-.16.59-.3.09-.09.15-.22.17-.38.05-.4-.46-.98-.6-1.48,0-.03-.01-.06-.01-.08.09.02.18.04.25.04.28.01.53,0,.74-.05.42-.08.68-.27.79-.57.1-.28.09-.57.02-.85-.11-.45-.4-.89-.63-1.32-.16-.3-.33-.59-.18-.9-.02.04-.13.1-.14.06-.07-.14.5-.02.78-.02.74,0,1.41-.08,1.8-.41.25-.22.46-.56.31-1.15-.05-.17-.06-.27-.12-.37-.05-.09-.11-.17-.23-.28-.1-.09-.25-.2-.41-.32-.24-.17-.51-.34-.62-.41l-1.02-.63c-.18-.13-.5-.14-.71-.03-.21.11-.23.31-.05.44l.86.7.78.71s.03.04.04.06c.03.06,0,.11.01.22.02.21.01.47-.1.41,0,0,0-.01,0-.02h0ZM159.3,1134.01c-.08-.01-.14-.01-.13.02,0,.05.07.02.13-.02h0ZM159.52,1133.07c.18,0,.31,0,.29-.09-.03-.1-.18-.02-.29.09h0Z" fill="#ab6027" fill-rule="evenodd" stroke="#e4d1bd" stroke-miterlimit="10"/>
          <path d="M158.56,1140.22s.02,0,.02,0c0,0,0,0-.02,0-.01,0-.04,0-.05,0-.05,0-.1,0-.16,0-.29,0-.59-.04-.88-.05-.87-.03-1.55.15-1.88.71-.17.3-.21.59-.17.89.07.46.36.92.63,1.38.15.26.33.52.35.78-.22-.02-.48-.05-.61-.02-.3.06-.53.15-.66.29-.28.3-.34.64-.16.99.14.28.41.58.64.86.12.15.25.28.27.41,0,.04.04.07.02.09-.08.06-.19.09-.29.13-.23.09-.44.19-.51.36-.04.09-.07.21-.01.36.06.16.15.32.28.47.17.2.39.39.59.57.07.07.21.1.33.06.12-.04.16-.13.09-.21-.14-.19-.28-.38-.39-.59-.06-.12-.1-.24-.12-.37,0-.1.09-.11.17-.14.07-.02.14-.03.2-.05.24-.06.43-.16.59-.3.1-.09.15-.22.17-.38.05-.4-.46-.98-.6-1.48,0-.03-.01-.06-.01-.08.09.02.18.04.25.04.28.01.53,0,.74-.05.42-.08.68-.27.79-.57.1-.28.09-.57.02-.85-.11-.45-.4-.89-.63-1.32-.16-.3-.33-.59-.17-.9-.02.04-.13.1-.14.06-.07-.14.5-.02.78-.02.74,0,1.41-.08,1.8-.41.25-.22.46-.56.31-1.15-.05-.17-.06-.27-.12-.37-.05-.09-.11-.17-.23-.28-.1-.09-.25-.2-.41-.32-.24-.17-.51-.34-.62-.41l-1.02-.63c-.18-.13-.5-.14-.71-.03-.21.11-.23.31-.04.44l.86.7.78.71s.03.04.04.06c.03.06,0,.11.01.22.02.21.01.47-.1.41,0,0,0-.01,0-.02h0ZM156.31,1144.87c-.08-.01-.14-.01-.13.02,0,.05.07.02.13-.02h0ZM156.52,1143.94c.18,0,.31,0,.29-.09-.03-.1-.18-.02-.29.09h0Z" fill="#ab6027" fill-rule="evenodd" stroke="#e4d1bd" stroke-miterlimit="10"/>
          <path d="M84.91,1133.69s.02,0,.02,0c0,0,0,0-.02,0-.02,0-.04,0-.05,0-.05,0-.1,0-.16,0-.29,0-.59-.04-.88-.05-.87-.03-1.55.15-1.88.71-.17.3-.21.59-.17.89.07.46.36.92.63,1.38.15.26.33.52.35.78-.22-.02-.48-.05-.61-.02-.3.06-.53.15-.66.29-.28.3-.34.64-.16.99.14.28.41.58.64.86.12.15.25.28.27.41,0,.04.04.07.02.09-.08.06-.19.09-.29.13-.23.09-.44.19-.51.36-.04.09-.07.21-.01.36.06.16.15.32.28.47.17.2.39.39.59.57.07.07.21.1.33.06s.16-.13.09-.21c-.14-.19-.28-.38-.39-.59-.06-.12-.1-.24-.12-.37,0-.1.09-.11.17-.14.07-.02.14-.03.2-.05.24-.06.43-.16.58-.3.1-.09.15-.22.17-.38.05-.4-.46-.98-.6-1.48,0-.03-.01-.06-.01-.08.09.02.18.04.25.04.27.01.53,0,.74-.05.42-.08.68-.27.79-.57.1-.28.09-.57.02-.85-.11-.45-.4-.89-.63-1.32-.16-.3-.33-.59-.17-.9-.02.04-.13.1-.14.06-.07-.14.5-.02.78-.02.74,0,1.41-.08,1.8-.41.25-.22.46-.56.31-1.15-.05-.17-.06-.27-.12-.37-.05-.09-.11-.17-.24-.28-.1-.09-.25-.2-.41-.32-.24-.17-.51-.34-.62-.41l-1.02-.63c-.18-.13-.5-.14-.71-.03-.21.11-.23.31-.05.44l.86.7.78.71s.03.04.04.06c.03.06,0,.11.01.22.02.21.01.47-.1.41,0,0,0-.01,0-.02h0ZM82.67,1138.35c-.08-.01-.14-.01-.13.02,0,.05.07.02.13-.02h0ZM82.88,1137.41c.18,0,.31,0,.29-.09-.03-.1-.18-.02-.29.09h0Z" fill="#ab6027" fill-rule="evenodd" stroke="#e4d1bd" stroke-miterlimit="10"/>
          <path d="M10.76,1130.14s.02,0,.02,0c0,0-.01,0-.02,0-.01,0-.04,0-.05,0-.05,0-.1,0-.16,0-.29,0-.59-.04-.88-.05-.87-.03-1.55.15-1.88.71-.17.3-.21.59-.17.89.07.46.36.92.63,1.38.15.26.33.52.35.78-.22-.02-.48-.05-.61-.02-.3.06-.53.15-.66.29-.28.3-.34.64-.16.99.14.28.41.58.64.86.12.15.25.28.27.41,0,.04.04.07.02.09-.08.06-.19.09-.29.13-.23.09-.44.19-.51.36-.04.09-.07.21-.01.36.06.16.15.32.28.47.17.2.39.39.59.57.07.07.21.1.33.06.12-.04.16-.13.09-.21-.14-.19-.28-.38-.39-.59-.06-.12-.1-.24-.12-.37,0-.1.09-.11.17-.14.07-.02.14-.03.2-.05.24-.06.43-.16.59-.3.1-.09.15-.22.17-.38.05-.4-.46-.98-.6-1.48,0-.03-.01-.06-.01-.08.09.02.18.04.25.04.28.01.53,0,.74-.05.42-.08.68-.27.79-.57.1-.28.09-.57.02-.85-.11-.45-.4-.89-.63-1.32-.16-.3-.33-.6-.17-.9-.02.04-.13.1-.14.06-.07-.14.5-.02.78-.02.74,0,1.41-.08,1.8-.41.25-.22.46-.56.31-1.15-.05-.17-.06-.27-.12-.37-.05-.09-.11-.17-.23-.28-.1-.09-.25-.2-.41-.32-.24-.17-.51-.34-.62-.41l-1.02-.63c-.18-.13-.5-.14-.71-.03s-.23.31-.04.44l.86.7.78.71s.03.04.04.06c.03.06,0,.11.01.22.02.21.01.47-.1.41,0,0,0-.01,0-.02h0ZM8.51,1134.79c-.08-.01-.14-.01-.13.02,0,.05.07.02.13-.02h0ZM8.72,1133.86c.18,0,.31,0,.29-.09-.03-.1-.18-.02-.29.09h0Z" fill="#ab6027" fill-rule="evenodd" stroke="#e4d1bd" stroke-miterlimit="10"/>
          <path d="M80.52,1144.56s.02,0,.02,0c0,0,0,0-.02,0-.02,0-.04,0-.05,0-.05,0-.1,0-.16,0-.29,0-.59-.04-.88-.05-.87-.03-1.55.15-1.88.71-.17.3-.21.59-.17.89.07.46.36.92.63,1.38.15.26.33.52.35.78-.22-.02-.48-.05-.61-.02-.3.06-.53.15-.66.29-.28.3-.34.64-.16.99.14.28.41.58.64.86.12.15.25.28.27.41,0,.04.04.07.02.09-.08.06-.19.09-.29.13-.23.09-.44.19-.51.36-.04.09-.07.21-.01.36.06.16.15.32.28.47.17.2.39.39.59.57.07.07.21.1.33.06.12-.04.16-.13.09-.21-.14-.19-.28-.38-.39-.59-.06-.12-.1-.24-.12-.37,0-.1.09-.11.17-.14.07-.02.14-.03.2-.05.24-.06.43-.16.58-.3.1-.09.15-.22.17-.38.05-.4-.46-.98-.6-1.48,0-.03-.01-.05-.01-.08.09.02.18.03.25.04.27.01.53,0,.74-.05.42-.08.68-.27.79-.57.1-.28.09-.57.02-.85-.11-.45-.4-.89-.63-1.32-.16-.3-.33-.59-.17-.9-.02.04-.13.1-.14.06-.07-.14.5-.02.78-.02.74,0,1.41-.08,1.8-.41.25-.22.46-.56.31-1.15-.05-.17-.06-.27-.12-.37-.05-.09-.11-.17-.24-.28-.1-.09-.25-.2-.41-.32-.24-.17-.51-.34-.62-.41l-1.02-.63c-.18-.13-.5-.14-.71-.03-.21.11-.23.31-.05.44l.86.7.78.71s.03.04.04.06c.03.06,0,.11.01.22.02.21.01.47-.1.41,0,0,0-.01,0-.02h0ZM78.27,1149.21c-.08-.01-.14-.01-.13.02,0,.05.07.02.13-.02h0ZM78.49,1148.27c.18,0,.31,0,.29-.09-.03-.1-.18-.02-.29.09h0Z" fill="#ab6027" fill-rule="evenodd" stroke="#e4d1bd" stroke-miterlimit="10"/>
          <path d="M123.84,1130.43h0s-.03.03-.05.05c-.1.02-.32,0-.44.02-.44.06-.91.13-1.32.29-.39.15-.72.37-.95.71-.24.36-.38.74-.39,1.13,0,.39.11.79.35,1.15.04.06.24.29.43.54-.1,0-.19-.01-.24,0-.4.05-.61.18-.67.29-.22.38-.23.78-.09,1.18.15.46.46.92.38,1.37-.03.17-.1.33-.27.49-.09.06-.07.16.03.21.1.05.26.04.34-.02.45-.28.61-.6.67-.94.07-.36-.02-.73-.04-1.11-.01-.21,0-.42.09-.62.19.03.42.09.56.1.27.02.48-.01.58-.03.28-.06.59-.25.55-.64-.03-.32-.53-1.11-.59-1.23-.12-.23-.14-.47-.13-.71.02-.24.09-.48.24-.71.16-.26.54-.29.85-.35.4-.07.77-.14,1.03-.25.21-.09.38-.18.5-.31.45-.51.61-1.04.55-1.58-.08-.7-.49-1.4-.79-2.06-.06-.17-.32-.28-.59-.24-.27.04-.45.2-.39.37.13.62.36,1.29.3,1.94-.03.34-.17.66-.49.95h0ZM121.52,1135.15c-.1-.01-.16,0-.16.04,0,.05.1,0,.16-.04h0ZM121.73,1134.63c-.05.06-.08.11,0,.1.06,0,.04-.05,0-.1h0ZM122.05,1134.37c.19,0,.33,0,.32-.07,0-.05-.13.01-.17.02-.05.02-.1.03-.15.05h0ZM123.79,1130.47s.07-.02.05-.05l-.05.05h0s0,0,0,0h0Z" fill="#ab6027" fill-rule="evenodd" stroke="#e4d1bd" stroke-miterlimit="10"/>
          <path d="M119.45,1141.3h0s-.03.03-.05.04c-.1.02-.32,0-.44.02-.44.05-.91.13-1.32.29-.39.15-.72.37-.95.71-.24.36-.38.74-.39,1.13,0,.39.11.79.35,1.15.04.06.24.3.43.54-.1,0-.19-.01-.24,0-.4.05-.61.18-.67.29-.22.38-.22.78-.09,1.18.15.46.46.92.38,1.37-.03.17-.1.33-.27.49-.09.06-.07.16.03.21.1.05.26.04.34-.02.45-.27.61-.6.67-.94.06-.36-.02-.73-.04-1.11-.01-.21,0-.42.09-.62.19.03.42.09.56.1.27.02.48-.01.58-.03.28-.06.59-.25.55-.64-.03-.32-.53-1.11-.59-1.23-.12-.23-.14-.47-.13-.71.02-.24.09-.48.24-.71.16-.26.54-.29.85-.35.4-.07.77-.14,1.03-.25.21-.09.38-.18.5-.31.45-.51.61-1.04.55-1.58-.08-.7-.49-1.4-.79-2.06-.06-.17-.32-.28-.59-.24-.27.04-.44.2-.39.37.13.62.36,1.29.3,1.94-.03.34-.17.66-.49.95h0ZM117.13,1146.02c-.1-.01-.16,0-.16.04,0,.05.1,0,.16-.04h0ZM117.34,1145.5c-.05.06-.08.11,0,.1.06,0,.04-.05,0-.1h0ZM117.66,1145.24c.19.01.33,0,.32-.07,0-.05-.13.01-.17.02-.05.02-.1.03-.15.05h0ZM119.4,1141.34s.07-.02.05-.04l-.05.04h0s0,0,0,0h0Z" fill="#ab6027" fill-rule="evenodd" stroke="#e4d1bd" stroke-miterlimit="10"/>
          <path d="M45.29,1137.74h0s-.03.03-.05.04c-.1.02-.32,0-.44.02-.44.05-.91.13-1.32.29-.39.15-.72.37-.95.71-.24.36-.38.74-.39,1.13,0,.39.11.79.35,1.15.04.06.24.3.43.54-.1,0-.19-.01-.24,0-.4.05-.61.18-.67.29-.22.38-.22.78-.09,1.18.15.46.46.92.38,1.37-.03.17-.1.33-.27.49-.09.06-.07.16.03.21.1.05.26.04.34-.02.45-.28.61-.6.67-.94.06-.36-.02-.73-.04-1.11-.01-.21,0-.42.09-.62.19.03.42.09.56.1.27.02.48-.01.58-.03.28-.06.59-.25.55-.64-.03-.32-.53-1.11-.59-1.23-.12-.23-.14-.47-.13-.71.02-.24.09-.48.24-.71.16-.26.54-.29.85-.35.4-.07.77-.14,1.03-.25.21-.09.38-.18.5-.31.45-.51.61-1.04.55-1.58-.08-.7-.49-1.4-.78-2.06-.06-.17-.32-.28-.59-.24-.27.03-.44.2-.39.37.13.62.36,1.29.3,1.94-.03.34-.17.66-.49.95h0ZM42.98,1142.46c-.1-.01-.16,0-.16.04,0,.05.1,0,.16-.04h0ZM43.18,1141.94c-.05.06-.08.11,0,.1.06,0,.04-.05,0-.1h0ZM43.5,1141.69c.19,0,.33,0,.32-.07,0-.05-.13.01-.17.02-.05.02-.1.03-.15.05h0ZM45.24,1137.79s.07-.02.05-.04l-.05.04h0s0,0,0,0h0Z" fill="#ab6027" fill-rule="evenodd" stroke="#e4d1bd" stroke-miterlimit="10"/>
          <path d="M125.35,1135.02c-.16.07-.42.16-.55.24-.29.18-.53.36-.59.57-.1.35-.14.71-.12,1.07.03.51.16,1.01.24,1.5,0,.08.11.15.24.15s.24-.07.24-.15c.08-.48.14-.97.27-1.46.08-.3.2-.6.38-.88.01-.02.07-.02.1-.04.08-.04.17-.07.26-.11.33-.13.67-.25.85-.36.19-.12.26-.25.3-.37.06-.21.09-.42.1-.63.02-.37-.03-.75-.08-1.13-.03-.31-.08-.62,0-.93.02-.08.11-.11.21-.15.19-.07.39-.13.6-.19.56-.17,1.1-.35,1.41-.64.37-.36.57-.89-.19-1.77l-1.05-1.05c-.13-.15-.43-.21-.68-.13-.24.08-.33.27-.2.42l.72,1.09c.25.43.28.67.08.82-.12.09-.31.11-.49.16-.31.08-.65.14-.95.23-.69.2-1.19.51-1.36,1-.09.32-.12.64-.08.96.04.33.13.65.21.97.06.27.14.54.12.81h0ZM125.35,1135.02c.12-.05.19-.1.12-.14-.08-.04-.11.07-.12.14h0Z" fill="#ab6027" fill-rule="evenodd" stroke="#e4d1bd" stroke-miterlimit="10"/>
          <path d="M120.96,1145.89c-.16.07-.42.16-.55.24-.29.18-.53.36-.59.57-.1.35-.14.71-.12,1.07.03.51.16,1.01.24,1.5,0,.08.11.15.24.15s.24-.07.24-.15c.08-.48.14-.97.27-1.46.08-.3.2-.6.38-.88.01-.02.07-.02.1-.04.08-.04.17-.07.26-.11.33-.13.67-.25.85-.36.19-.12.26-.25.3-.37.06-.21.09-.42.1-.63.01-.37-.04-.75-.08-1.13-.03-.31-.08-.62,0-.93.02-.08.11-.11.21-.15.19-.07.39-.13.6-.19.56-.17,1.1-.35,1.41-.64.37-.36.57-.89-.19-1.77l-1.05-1.05c-.13-.15-.43-.21-.68-.13-.24.08-.34.27-.21.42l.72,1.09c.25.43.28.67.08.82-.12.09-.31.11-.49.16-.31.08-.65.14-.95.23-.69.2-1.19.51-1.36,1-.09.32-.12.64-.08.96.04.33.13.65.21.97.06.27.14.54.12.81h0ZM120.96,1145.89c.12-.05.19-.1.12-.14-.08-.04-.11.07-.12.14h0Z" fill="#ab6027" fill-rule="evenodd" stroke="#e4d1bd" stroke-miterlimit="10"/>
          <path d="M46.8,1142.34c-.16.07-.42.16-.55.24-.29.18-.53.36-.59.57-.1.35-.14.71-.12,1.07.03.51.16,1.01.24,1.5,0,.08.11.15.24.15s.24-.07.24-.15c.08-.48.14-.97.27-1.46.08-.3.2-.6.38-.88.01-.02.07-.02.1-.04.08-.04.17-.07.26-.11.33-.13.67-.25.85-.36.19-.12.26-.25.3-.37.07-.21.09-.42.1-.63.01-.37-.03-.75-.08-1.13-.03-.31-.08-.62,0-.93.02-.08.11-.11.21-.15.19-.07.39-.13.6-.19.56-.17,1.1-.35,1.41-.64.37-.36.57-.89-.19-1.77l-1.05-1.05c-.13-.15-.43-.21-.68-.13-.24.08-.34.27-.21.42l.73,1.09c.25.43.28.67.08.82-.12.09-.31.11-.49.16-.31.08-.65.14-.95.23-.69.2-1.19.51-1.36,1-.09.32-.12.64-.08.96.04.33.13.65.21.97.06.27.14.54.12.81h0ZM46.8,1142.34c.12-.05.19-.1.12-.14-.08-.04-.11.07-.12.14h0Z" fill="#ab6027" fill-rule="evenodd" stroke="#e4d1bd" stroke-miterlimit="10"/>
          <path d="M154.14,1138.82s-.06-.01-.08-.01c-.3-.04-.57-.06-.76-.05-.59,0-.82.25-.89.48-.07.2-.01.4.1.6.09.18.26.35.42.52-.11.01-.21.03-.3.05-.31.08-.5.22-.6.4-.07.12-.1.28-.11.45,0,.22.04.49.04.63,0,.03.02.06.04.1-.37-.02-.79-.06-1.02,0-.45.12-.75.3-.83.56-.12.4-.05.75.17,1.07.21.3.54.57.87.85.16.14.34.27.46.41-.03,0-.05,0-.07,0-.29.04-.52.13-.56.33-.02.09-.01.21.07.34.08.14.22.31.32.45.03.04.06.1.07.12-.23.15-.43.14-.56.23-.08.06-.16.13-.2.27-.04.08.04.16.17.19.13.02.26-.02.3-.1.04-.06.07-.09.11-.11.05-.03.12-.02.19-.03.16-.02.33-.07.55-.18.14-.07.19-.21.16-.39-.02-.1-.08-.28-.14-.43.13.01.25,0,.36,0,.17-.02.29-.09.4-.16.12-.08.19-.21.15-.44-.1-.61-.86-1.12-1.14-1.7-.04-.08-.05-.17-.04-.26.18.02.42.06.56.07.32.01.6,0,.74-.01.48-.06.74-.25.86-.51.05-.11.06-.25.03-.4-.02-.09-.08-.19-.08-.27l-.03-.33c.22,0,.4-.03.54-.07.28-.09.48-.21.56-.39.11-.24.11-.47-.03-.7-.13-.23-.39-.46-.65-.68.36.01.7,0,.91-.05.31-.08.52-.2.59-.37.04-.1.06-.23-.05-.4-.06-.09-.14-.17-.24-.24-.15-.11-.34-.2-.51-.3l-.61-.36c-.19-.13-.5-.14-.71-.02s-.22.31-.04.44l.5.4h0ZM151.73,1143.01c-.11,0-.17,0-.15.05.03.06.09.01.15-.05h0ZM151.97,1145.36s0-.02,0-.02v.02h0ZM152.09,1142.17c-.09.08-.17.17-.04.16.11,0,.09-.08.04-.16h0ZM152.3,1142c.24,0,.41-.02.4-.12,0-.01-.03,0-.04,0-.15.02-.27.06-.36.12h0ZM153.47,1141.51c-.17-.03-.33-.05-.32.02,0,.13.16.08.32-.02h0ZM153.24,1140.72l-.02.03s0,.02,0,.02c.04,0,.03-.02.01-.05h0ZM153.66,1140.43c.12.02.21.03.21-.03,0-.06-.11-.02-.21.03h0ZM154.69,1138.93c.06,0,.1,0,.1-.05,0-.04-.05,0-.1.05h0Z" fill="#ab6027" fill-rule="evenodd" stroke="#e4d1bd" stroke-miterlimit="10"/>
          <path d="M80.49,1132.29s-.06-.01-.08-.01c-.3-.04-.57-.06-.76-.06-.59,0-.82.25-.89.48-.07.2-.01.4.1.6.09.18.26.35.42.52-.11.01-.21.03-.3.05-.31.08-.5.22-.6.4-.07.12-.1.28-.11.45,0,.22.04.49.04.63,0,.03.02.06.04.1-.37-.02-.79-.06-1.02,0-.45.12-.75.3-.83.56-.12.4-.05.75.17,1.07.21.3.54.57.87.85.16.14.33.27.46.41-.03,0-.05,0-.07,0-.29.04-.52.13-.56.33-.02.09-.01.21.07.34.08.14.22.31.32.45.03.04.06.1.07.12-.23.15-.43.14-.56.23-.08.06-.16.13-.2.27-.04.08.04.16.17.19.13.02.26-.02.3-.1.03-.06.07-.09.11-.11.06-.03.12-.02.2-.03.16-.02.33-.07.55-.18.14-.07.19-.21.16-.39-.02-.1-.08-.28-.14-.43.13.01.25,0,.36,0,.17-.02.29-.08.4-.16.12-.08.19-.21.15-.44-.1-.61-.86-1.12-1.14-1.7-.04-.08-.05-.17-.04-.26.18.02.42.06.56.07.32.01.6,0,.73-.01.48-.06.74-.25.86-.51.05-.11.06-.25.03-.4-.02-.09-.08-.19-.08-.27l-.03-.33c.22,0,.4-.03.54-.07.28-.09.48-.21.56-.39.11-.24.11-.47-.03-.7-.13-.23-.39-.46-.65-.68.36.01.7,0,.91-.05.31-.08.52-.2.59-.37.04-.1.06-.24-.05-.4-.06-.09-.14-.17-.24-.24-.15-.11-.34-.2-.51-.3l-.61-.36c-.19-.13-.5-.14-.71-.02-.2.12-.22.31-.04.44l.5.4h0ZM78.09,1136.48c-.11,0-.17,0-.15.05.03.06.09.01.15-.05h0ZM78.33,1138.83s0-.02,0-.02v.02h0ZM78.45,1135.64c-.09.08-.17.17-.04.16.11,0,.09-.08.04-.16h0ZM78.66,1135.48c.24,0,.41-.02.4-.12,0-.01-.03,0-.04,0-.15.02-.27.06-.36.12h0ZM79.82,1134.98c-.17-.03-.33-.05-.32.02,0,.13.16.08.32-.02h0ZM79.6,1134.19l-.02.03s0,.02,0,.02c.04,0,.03-.02.01-.05h0ZM80.02,1133.9c.12.02.21.03.21-.03,0-.06-.11-.02-.21.03h0ZM81.05,1132.4c.06,0,.1,0,.1-.05,0-.04-.05,0-.1.05h0Z" fill="#ab6027" fill-rule="evenodd" stroke="#e4d1bd" stroke-miterlimit="10"/>
          <path d="M76.1,1143.16s-.06-.01-.08-.01c-.3-.04-.57-.06-.76-.06-.59,0-.82.25-.89.48-.07.2-.01.4.1.6.09.18.26.35.42.52-.11.01-.21.03-.3.05-.31.08-.5.22-.6.4-.07.12-.1.28-.11.45,0,.22.04.49.04.63,0,.03.02.06.04.1-.37-.02-.79-.06-1.02,0-.45.12-.75.3-.83.56-.12.4-.05.75.17,1.07.21.3.54.57.87.85.16.14.34.27.46.41-.03,0-.05,0-.07,0-.29.04-.52.13-.56.33-.02.09-.01.21.07.34.08.14.22.3.32.45.03.04.06.1.07.12-.23.15-.43.14-.56.23-.08.06-.16.13-.2.27-.04.08.04.16.17.19.13.02.26-.02.3-.1.03-.06.07-.09.11-.11.06-.03.12-.02.2-.03.16-.02.33-.07.55-.18.14-.07.19-.21.16-.39-.02-.1-.08-.28-.14-.43.13.01.25,0,.36,0,.17-.02.29-.08.4-.16.12-.08.19-.21.15-.44-.1-.61-.86-1.12-1.14-1.7-.04-.08-.05-.17-.04-.26.18.02.42.06.56.07.32.01.6,0,.73-.01.48-.06.74-.25.86-.51.05-.11.06-.25.03-.4-.02-.09-.08-.19-.08-.27l-.03-.33c.22,0,.4-.03.54-.07.28-.09.48-.21.56-.39.11-.24.11-.47-.03-.7-.13-.23-.39-.46-.65-.68.36.01.7,0,.91-.05.31-.08.52-.2.59-.37.04-.1.06-.24-.05-.4-.06-.09-.14-.17-.24-.24-.15-.11-.34-.2-.51-.3l-.61-.36c-.19-.13-.5-.14-.71-.02-.2.12-.22.31-.04.44l.5.4h0ZM73.7,1147.35c-.11,0-.17,0-.15.05.03.06.09.01.15-.05h0ZM73.94,1149.69s0-.02,0-.02v.02h0ZM74.06,1146.5c-.09.08-.17.17-.04.16.11,0,.09-.08.04-.16h0ZM74.26,1146.34c.24,0,.41-.02.4-.12,0-.01-.03,0-.04,0-.15.02-.27.06-.36.12h0ZM75.43,1145.85c-.17-.03-.33-.05-.32.02,0,.13.16.08.32-.02h0ZM75.21,1145.06l-.02.03s0,.02,0,.02c.04,0,.03-.02.01-.05h0ZM75.62,1144.77c.12.02.21.03.21-.03,0-.06-.11-.02-.21.03h0ZM76.66,1143.27c.06,0,.1-.01.1-.05,0-.04-.05,0-.1.05h0Z" fill="#ab6027" fill-rule="evenodd" stroke="#e4d1bd" stroke-miterlimit="10"/>
          <path d="M149.42,1138.91c-.11-.01-.24-.03-.34-.03-.67-.03-1.42-.07-1.83-.04-.55.05-.82.25-.95.41-.19.25-.2.56-.06.9.15.39.54.85.79,1.26.02.03.05.07.09.11-.08-.01-.15-.03-.2-.03-.29,0-.56.02-.76.08-.39.11-.75.36-.65.79.04.18.2.46.41.75l.32.43c-.65,0-1.35-.08-1.9.01-.3.05-1.02.53-.16.85.32.12,1.25.38,1.28.39.27.08.92.25,1.41.46.16.07.31.14.41.21.01,0,.02.02.03.02-.41,0-1.2-.1-1.55-.04-.32.06-.53.18-.5.39,0,.08.11.15.24.15s.24-.07.24-.15c0-.03.06-.03.11-.04.1-.01.23,0,.37,0,.52.03,1.16.14,1.48.11.36-.03.5-.17.52-.35.02-.21-.18-.44-.51-.66-.2-.13-.45-.26-.7-.38.25-.03.49-.08.71-.15.27-.09.54-.33.43-.73-.05-.18-.42-.57-.67-.9.22,0,.43,0,.61-.04.33-.06.6-.18.8-.37.26-.26.33-.61.14-1.01-.17-.37-.58-.83-.86-1.24-.06-.09-.12-.17-.15-.25.4.02.97.09,1.32.08.56-.02,1.02-.09,1.25-.19.11-.05.33-.17.37-.4.02-.16-.05-.55-.05-.62-.04-.53-.3-.95-.72-1.31-.54-.46-1.34-.83-2.11-1.24-.2-.12-.52-.12-.71,0-.19.12-.19.32.01.44.63.42,1.29.79,1.72,1.24.23.25.36.52.33.86v.21h0ZM146.95,1142.68c-.08-.01-.14-.01-.15.03,0,.03.09-.02.13-.03h.02ZM147.24,1141.69s-.09.08-.04.08c.06,0,.07-.03.04-.08h0ZM147.32,1142.5c.2-.13.34-.27.09-.26-.16,0-.17.11-.09.26h0ZM147.39,1141.58c.12.02.21.02.2-.04,0-.06-.11-.02-.2.04h0ZM147.4,1145.5c.12,0,.18-.03.15-.08-.04-.05-.11.01-.15.08h0ZM147.85,1139.83c-.2,0-.33.03-.3.11.04.11.19,0,.3-.11h0ZM149.68,1138.93c.07,0,.11-.01.1-.04,0-.02-.04.02-.06.03,0,0-.02,0-.03.02h0Z" fill="#ab6027" fill-rule="evenodd" stroke="#e4d1bd" stroke-miterlimit="10"/>
          <path d="M75.78,1132.39c-.11-.01-.24-.03-.34-.03-.67-.03-1.42-.07-1.83-.04-.55.05-.82.25-.95.41-.19.25-.2.56-.06.9.15.39.53.86.79,1.27.02.03.05.07.09.11-.08-.01-.15-.03-.2-.03-.29,0-.56.02-.76.08-.39.11-.75.36-.65.79.04.18.2.46.41.75l.32.43c-.65,0-1.35-.08-1.9.01-.3.05-1.02.53-.16.85.33.12,1.25.38,1.28.39.27.08.92.25,1.41.46.16.07.31.14.41.22.01,0,.02.02.03.02-.41,0-1.2-.1-1.54-.04-.32.06-.53.17-.5.39,0,.08.11.15.24.15s.24-.07.24-.15c0-.03.06-.03.11-.04.1-.01.23,0,.37,0,.52.03,1.16.14,1.48.11.36-.03.5-.17.52-.35.02-.21-.18-.44-.51-.66-.2-.13-.45-.26-.7-.38.25-.03.49-.08.71-.15.27-.09.54-.33.43-.73-.05-.18-.42-.57-.67-.89.22,0,.43,0,.61-.04.33-.06.6-.18.8-.37.26-.26.33-.61.14-1.01-.17-.37-.58-.83-.86-1.24-.06-.09-.12-.17-.15-.25.4.02.97.09,1.32.08.56-.02,1.02-.09,1.25-.19.11-.05.33-.17.37-.4.02-.16-.05-.55-.05-.62-.04-.53-.3-.95-.72-1.31-.54-.46-1.34-.83-2.11-1.24-.2-.12-.52-.12-.71,0-.19.12-.19.32.01.44.63.42,1.29.79,1.72,1.24.23.25.36.52.33.86v.21h0ZM73.3,1136.15c-.08-.01-.15-.01-.15.03,0,.03.09-.02.13-.03h.02ZM73.6,1135.17s-.09.08-.04.08c.06,0,.07-.03.04-.08h0ZM73.67,1135.97c.2-.13.34-.27.09-.26-.16,0-.17.11-.09.26h0ZM73.74,1135.05c.12.02.21.02.2-.04,0-.06-.11-.02-.2.04h0ZM73.76,1138.97c.12,0,.18-.03.15-.08-.03-.05-.11.01-.15.08h0ZM74.21,1133.31c-.2,0-.33.03-.3.11.04.11.19,0,.3-.11h0ZM76.04,1132.41c.07,0,.11-.01.1-.04,0-.02-.04.02-.06.03,0,0-.02,0-.03.02h0Z" fill="#ab6027" fill-rule="evenodd" stroke="#e4d1bd" stroke-miterlimit="10"/>
          <path d="M71.39,1143.25c-.11-.01-.24-.03-.34-.03-.67-.03-1.42-.07-1.83-.04-.55.05-.82.25-.95.41-.19.25-.2.56-.06.9.15.39.53.85.79,1.26.02.03.05.07.09.11-.08-.01-.15-.03-.2-.03-.29,0-.56.02-.76.08-.39.11-.75.36-.65.79.04.18.2.46.41.75l.32.43c-.65,0-1.35-.08-1.9.01-.3.05-1.02.53-.16.85.33.12,1.25.38,1.28.39.27.08.92.25,1.41.46.16.07.31.14.41.21.01,0,.02.02.03.02-.41,0-1.2-.1-1.54-.04-.32.06-.53.17-.5.39,0,.08.11.15.24.15s.24-.07.24-.15c0-.03.06-.03.11-.04.1-.01.23,0,.37,0,.52.03,1.16.14,1.48.11.36-.03.5-.17.52-.35.02-.21-.18-.44-.51-.66-.2-.13-.45-.26-.7-.38.25-.03.49-.08.71-.15.27-.09.54-.33.43-.73-.05-.18-.42-.57-.67-.89.22,0,.43,0,.61-.04.33-.06.6-.18.8-.37.26-.26.33-.61.14-1.01-.17-.37-.58-.83-.86-1.24-.06-.09-.12-.17-.15-.25.4.02.97.09,1.32.08.56-.02,1.02-.09,1.25-.19.11-.05.33-.17.37-.4.02-.16-.05-.55-.05-.62-.04-.53-.3-.95-.72-1.31-.54-.46-1.34-.83-2.11-1.24-.2-.12-.52-.12-.71,0-.19.12-.19.32.01.44.63.42,1.29.79,1.72,1.24.23.25.36.52.33.86v.21h0ZM68.91,1147.02c-.08-.01-.15-.01-.15.03,0,.03.09-.02.13-.03h.02ZM69.21,1146.03s-.09.08-.04.08c.06,0,.07-.03.04-.08h0ZM69.28,1146.84c.2-.13.34-.27.09-.26-.16,0-.17.11-.09.26h0ZM69.35,1145.92c.12.02.21.02.2-.04,0-.06-.11-.02-.2.04h0ZM69.37,1149.84c.12,0,.18-.03.15-.08-.03-.05-.11.01-.15.08h0ZM69.82,1144.17c-.2,0-.33.03-.3.11.04.11.19,0,.3-.11h0ZM71.65,1143.27c.07,0,.11-.01.1-.04,0-.02-.04.02-.06.03,0,0-.02,0-.03.02h0Z" fill="#ab6027" fill-rule="evenodd" stroke="#e4d1bd" stroke-miterlimit="10"/>
          <path d="M130.29,1134.99c-.2,0-.37.02-.5.06-.3.08-.52.2-.61.38-.1.19-.15.39-.14.61,0,.25.08.52.13.76-.5.02-1.19.03-1.54.04-.46.02-.71.16-.72.18-.18.22-.2.56,0,.93.23.43.65.91.88,1.21.04.05.1.11.13.14h0s0,0,0,0h-.01s0,0,0,0c-.04.02-.06.04-.03.04,0-.01.02-.03.03-.04.02.02.02.04,0,.04-.01,0-.02,0-.03,0,0,.01-.01.03-.01.05,0,.08.11.15.24.15.16,0,.25-.05.29-.15.02-.05,0-.14-.04-.26-.1-.27-.39-.75-.53-1.19-.05-.14-.09-.27-.08-.38.68.04,1.97.12,2.31.09.14-.02.27-.07.39-.15.13-.08.23-.35.23-.39.04-.27,0-.6.02-.91,0-.04,0-.08.02-.12.25.05.56.13.72.13.52-.01.84-.19,1.01-.38.19-.22.22-.48.07-.78-.18-.37-.81-.87-1.33-1.39-.17-.17-.33-.34-.42-.51-.06-.11-.11-.22-.04-.33.17-.27.62-.32,1.01-.4.59-.12,1.15-.24,1.51-.48.48-.31.81-.81.17-1.79l-.78-1.06c-.1-.16-.39-.24-.65-.17-.26.06-.38.25-.28.41l.54,1.07c.22.48.24.72-.02.85-.12.06-.3.08-.47.11-.26.04-.54.07-.81.12-.78.13-1.47.37-1.87.88-.34.45-.27.93.05,1.42.28.42.76.85,1.16,1.22h0ZM130.54,1136.04c-.14-.02-.24,0-.25.07,0,.06.15-.04.21-.05.01,0,.03,0,.04-.01h0ZM130.71,1135.34s-.08.1-.01.09c.06-.01.06-.04.01-.09h0ZM131,1135.08c.18.02.31.03.31-.05,0-.11-.16-.05-.31.05h0Z" fill="#ab6027" fill-rule="evenodd" stroke="#e4d1bd" stroke-miterlimit="10"/>
          <path d="M125.9,1145.86c-.2,0-.37.02-.5.06-.3.08-.52.2-.61.38-.1.19-.15.39-.14.61,0,.25.08.52.13.76-.5.02-1.19.03-1.54.04-.46.02-.71.16-.72.18-.18.22-.2.56,0,.93.23.43.65.91.88,1.21.04.05.1.11.13.14h0s0,0,0,0h-.01s0,0,0,0c-.04.02-.06.04-.03.04,0-.01.02-.03.03-.04.02.02.02.04,0,.04-.01,0-.02,0-.03,0,0,.01-.01.03-.01.05,0,.08.11.15.24.15.16,0,.25-.05.29-.15.02-.05,0-.14-.04-.26-.1-.27-.39-.75-.53-1.19-.05-.14-.09-.27-.08-.38.67.04,1.97.12,2.31.09.14-.02.27-.07.39-.15.13-.08.23-.35.23-.39.04-.27,0-.6.02-.91,0-.04,0-.08.02-.12.25.05.56.13.72.13.52-.01.84-.19,1.01-.38.19-.22.22-.48.07-.78-.18-.37-.81-.87-1.33-1.39-.17-.17-.33-.34-.42-.51-.06-.11-.11-.22-.04-.33.17-.27.62-.32,1.01-.4.59-.12,1.15-.24,1.51-.48.48-.31.81-.81.17-1.79l-.78-1.06c-.1-.16-.39-.24-.65-.17-.26.06-.38.25-.28.41l.54,1.07c.22.48.24.72-.02.85-.12.06-.3.08-.47.11-.26.04-.54.07-.81.12-.78.13-1.47.37-1.87.88-.34.45-.27.93.05,1.42.28.42.76.85,1.16,1.22h0ZM126.15,1146.9c-.14-.02-.24,0-.25.07,0,.06.15-.04.21-.05.01,0,.03,0,.04-.01h0ZM126.32,1146.2s-.08.1-.01.09c.06-.01.06-.04.01-.09h0ZM126.61,1145.94c.18.02.31.03.31-.05,0-.11-.16-.05-.31.05h0Z" fill="#ab6027" fill-rule="evenodd" stroke="#e4d1bd" stroke-miterlimit="10"/>
          <path d="M51.74,1142.3c-.2,0-.37.02-.5.06-.3.08-.52.2-.61.38-.1.19-.15.39-.14.61,0,.25.08.52.13.76-.5.02-1.19.03-1.54.04-.47.02-.71.16-.72.18-.18.22-.2.56,0,.93.23.43.65.91.88,1.21.04.05.1.11.13.14h0s0,0,0,0h-.01s0,0,0,0c-.04.02-.06.04-.03.04,0-.01.02-.03.03-.04.02.02.02.04,0,.04-.01,0-.02,0-.03,0,0,.01-.01.03-.01.05,0,.08.11.15.24.15.16,0,.25-.05.29-.15.02-.05,0-.14-.04-.26-.1-.27-.39-.75-.53-1.19-.05-.14-.09-.27-.08-.38.67.04,1.97.12,2.31.09.14-.02.27-.07.39-.15.13-.08.23-.35.23-.39.04-.27,0-.6.02-.91,0-.04,0-.08.02-.12.25.05.56.13.72.13.52-.01.84-.19,1.01-.38.19-.22.22-.48.07-.78-.18-.37-.81-.87-1.33-1.39-.17-.17-.33-.34-.42-.51-.06-.11-.11-.22-.04-.33.17-.27.61-.32,1.01-.4.59-.12,1.15-.24,1.51-.47.48-.31.81-.81.17-1.79l-.78-1.06c-.1-.16-.39-.24-.65-.17-.26.06-.38.25-.28.41l.54,1.07c.22.48.24.72-.02.85-.12.06-.3.08-.47.11-.26.04-.54.07-.81.12-.78.13-1.47.37-1.87.88-.34.45-.27.93.05,1.42.28.42.76.85,1.16,1.22h0ZM51.99,1143.35c-.14-.02-.24,0-.25.07,0,.06.15-.04.21-.05.01,0,.03,0,.04-.01h0ZM52.17,1142.65s-.08.1-.01.09c.06-.01.06-.04.01-.09h0ZM52.45,1142.39c.18.02.31.03.31-.05,0-.11-.16-.05-.31.05h0Z" fill="#ab6027" fill-rule="evenodd" stroke="#e4d1bd" stroke-miterlimit="10"/>
          <path d="M136.03,1132.22s-.08,0-.11,0c-.16,0-.34-.01-.53-.02-.64-.02-1.32.02-1.82.24-.34.15-.6.39-.74.76-.14.37-.13.7-.03,1.03.14.45.5.86.96,1.29.03.03.19.13.38.25-.16.04-.28.1-.37.17-.25.2-.4.44-.41.72,0,.34.18.75.3,1.11.03.09.06.17.06.24,0,.01.01.03.01.04-.09,0-.22-.01-.31-.03-.27-.05-.54-.11-.78-.13-.33-.04-.61-.03-.82.05-.14.05-.37.18-.26.4.08.17.49.57.52.65,0,0,0-.03.02-.03.09.01-.13.1-.23.15-.2.1-.4.19-.48.29-.07.07-.04.16.07.21.11.05.26.03.34-.04.07-.05.21-.08.35-.13.2-.06.39-.14.51-.22.13-.09.18-.19.17-.31,0-.03-.06-.17-.13-.31l.06.02c.38.12.78.22,1.13.23.36.02.67-.07.94-.24.26-.16.36-.4.39-.68.03-.27-.06-.59-.1-.9,0-.06-.03-.13-.03-.19.11.03.22.05.29.06.23.01.42-.01.54-.03.32-.06.94-.37.56-.93-.2-.31-1.02-1.03-1.14-1.14-.29-.24-.54-.47-.69-.71-.13-.21-.21-.44-.15-.7.02-.07,0-.13.07-.17.1-.06.22-.09.36-.1.21-.02.43-.03.64-.04.67-.03,1.23-.11,1.47-.34.19-.17.33-.44.04-.88l-.37-.54c-.09-.16-.37-.25-.63-.2-.26.06-.4.23-.31.4l.23.56s.02.09.02.13h0ZM134.69,1136.18v.03s-.13.25.02.21c.12-.03.09-.12-.02-.24h0ZM134.94,1136.82c-.13-.02-.23-.03-.23.03,0,.09.11.04.23-.03h0ZM135.17,1135.77c.19.02.34.01.34-.06,0-.05-.14.01-.19.02-.05.01-.1.02-.15.04h0ZM136.07,1132.22s.04,0,.03-.01c0-.01-.02,0-.03.01h0Z" fill="#ab6027" fill-rule="evenodd" stroke="#e4d1bd" stroke-miterlimit="10"/>
          <path d="M131.64,1143.08s-.08,0-.11,0c-.16,0-.34,0-.53-.02-.64-.02-1.32.02-1.82.24-.34.15-.6.39-.74.76-.14.37-.13.7-.03,1.03.14.45.5.86.96,1.29.03.03.19.13.38.25-.16.04-.28.1-.37.17-.25.2-.4.44-.41.72,0,.34.18.75.3,1.11.03.09.06.17.06.24,0,.01.01.03.01.04-.09,0-.22-.01-.31-.03-.27-.05-.54-.11-.78-.13-.33-.04-.61-.03-.82.05-.14.05-.37.18-.26.4.08.17.49.57.52.65,0,0,0-.03.02-.03.09.01-.13.1-.23.15-.2.1-.4.19-.48.29-.07.07-.04.16.07.21.11.05.26.03.34-.04.07-.05.21-.08.35-.13.2-.06.39-.14.51-.22.13-.09.18-.19.17-.31,0-.04-.06-.17-.13-.31l.06.02c.38.12.78.22,1.13.23.36.02.67-.07.94-.24.26-.16.36-.4.39-.68.03-.27-.06-.59-.1-.9,0-.06-.03-.13-.03-.19.11.03.22.05.29.06.23.01.42-.01.54-.03.32-.06.94-.37.56-.93-.2-.31-1.02-1.03-1.14-1.13-.29-.24-.54-.47-.69-.71-.13-.21-.21-.44-.15-.7.02-.07,0-.13.07-.16.1-.06.22-.09.36-.1.21-.02.43-.03.64-.04.67-.03,1.23-.11,1.47-.34.19-.17.33-.44.04-.88l-.37-.54c-.09-.16-.37-.25-.63-.2-.26.06-.4.23-.31.4l.23.56s.02.09.02.13h0ZM130.3,1147.04v.03s-.13.25.02.21c.12-.03.09-.12-.02-.24h0ZM130.55,1147.68c-.13-.02-.23-.03-.23.03,0,.08.11.04.23-.03h0ZM130.78,1146.63c.19.02.34.01.34-.06,0-.05-.14.01-.19.02-.05.01-.1.03-.15.04h0ZM131.68,1143.09s.04,0,.03-.01c0-.01-.02,0-.03.01h0Z" fill="#ab6027" fill-rule="evenodd" stroke="#e4d1bd" stroke-miterlimit="10"/>
          <path d="M57.49,1139.53s-.08,0-.11,0c-.16,0-.34,0-.53-.02-.64-.02-1.32.02-1.82.24-.34.15-.6.39-.74.76-.14.37-.13.71-.03,1.03.14.45.5.86.96,1.29.03.03.19.13.38.25-.16.04-.28.1-.37.17-.25.2-.4.44-.41.72,0,.34.18.75.3,1.11.03.09.06.17.06.24,0,.01.01.03.01.04-.09,0-.22-.01-.3-.03-.27-.05-.54-.11-.78-.13-.33-.04-.61-.03-.82.05-.14.05-.37.18-.26.4.08.17.49.57.52.65,0,0,0-.03.02-.03.09.01-.13.1-.23.15-.2.1-.4.19-.48.29-.07.07-.04.16.07.21.11.05.26.03.34-.04.07-.05.21-.08.35-.13.2-.06.39-.14.51-.22.13-.09.17-.19.17-.31,0-.03-.06-.17-.13-.31l.06.02c.38.12.78.22,1.13.23.36.02.67-.07.94-.24.26-.16.36-.4.39-.68.03-.27-.06-.59-.1-.9,0-.06-.03-.13-.03-.19.11.03.22.05.29.06.23.01.42-.01.54-.03.32-.06.94-.37.57-.93-.2-.31-1.02-1.03-1.14-1.13-.29-.24-.54-.47-.69-.71-.13-.21-.21-.44-.15-.7.02-.07,0-.13.07-.17.1-.06.22-.09.36-.1.21-.02.43-.03.64-.04.67-.03,1.23-.11,1.47-.34.19-.17.33-.44.04-.88l-.37-.54c-.09-.16-.37-.25-.63-.2-.26.06-.4.23-.31.4l.23.56s.02.09.02.13h0ZM56.15,1143.49v.03s-.13.25.02.21c.12-.03.09-.12-.02-.24h0ZM56.39,1144.13c-.13-.02-.23-.03-.23.03,0,.08.11.04.23-.03h0ZM56.62,1143.08c.19.02.34.01.34-.06,0-.05-.14.01-.19.02-.05.01-.1.02-.15.04h0ZM57.53,1139.53s.04,0,.03-.01c0-.01-.02,0-.03.01h0Z" fill="#ab6027" fill-rule="evenodd" stroke="#e4d1bd" stroke-miterlimit="10"/>
          <path d="M144.96,1138.06c-.21-.02-.41-.01-.59,0-.47.04-.77.22-.93.5-.09.16-.12.37-.11.61,0,.26.06.57.08.86,0,.09.05.24.04.32l-.03.02h-.02c-.15.01-.39-.02-.52-.02-.39.03-.74.1-1,.24-.25.13-.46.31-.52.6-.04.2-.04.4.02.61.08.31.26.62.4.92.09.19.2.38.17.56-.16,0-.39-.03-.51-.02-.32.01-.59.05-.76.15-.23.13-.39.33-.31.6.11.36.67.9.75,1.1.02.06-.04.1-.09.15-.12.11-.27.22-.33.37-.03.07-.05.15-.04.24,0,.08.11.15.24.15s.24-.07.24-.15c.02-.12.15-.19.26-.26.14-.08.27-.16.36-.25.09-.09.13-.19.12-.31-.01-.13-.17-.4-.3-.69-.04-.1-.07-.22-.08-.32.06.01.12.03.17.03.35.03.7.04.97,0,.33-.06.55-.2.69-.42.12-.19.15-.4.16-.6,0-.26-.08-.53-.16-.8-.07-.24-.16-.48-.12-.7.16.01.36.04.48.03.44-.03.84-.13,1.13-.31.28-.18.47-.43.51-.76.04-.28-.02-.64-.1-.98-.04-.17-.1-.34-.11-.47.26.02.58.08.72.04.44-.1.78-.26.76-.63-.02-.27-.03-.4-.1-.51-.06-.11-.16-.21-.39-.41l-.74-.62-1.06-.84c-.15-.14-.47-.18-.69-.08-.23.1-.29.29-.14.43l.85.93.58.65.07.08h0ZM141.36,1144.01s-.06,0-.05.02c0,.02.03,0,.05-.02h0ZM141.98,1143.29c.12,0,.21,0,.17-.06-.03-.04-.12,0-.17.06h0ZM143.14,1141.51c-.11,0-.18,0-.15.06.02.05.09,0,.15-.06h0ZM143.45,1140.39c.07,0,.11-.02.09-.06-.01-.02-.05,0-.08.03,0,.01,0,.02,0,.03h-.04s0,0,0,0c-.03.01-.06.03-.04.04.05.01.07,0,.08-.04h0ZM145,1139.02c-.19-.01-.32,0-.3.09.02.1.19.02.3-.09h0ZM145.31,1138.12c.07.01.12.01.12-.02,0-.04-.06-.02-.12.02h0Z" fill="#ab6027" fill-rule="evenodd" stroke="#e4d1bd" stroke-miterlimit="10"/>
          <path d="M71.32,1131.53c-.21-.02-.41-.01-.59,0-.47.04-.77.22-.93.5-.09.16-.12.37-.11.61,0,.26.06.57.08.86,0,.09.05.24.04.32l-.03.02h-.02c-.15.01-.39-.02-.52-.01-.39.03-.74.1-1,.24-.25.13-.46.31-.52.6-.04.2-.03.41.02.61.08.31.26.62.4.92.09.19.2.38.17.56-.16,0-.39-.03-.51-.02-.32.01-.59.05-.76.15-.23.13-.39.33-.31.6.11.36.67.9.75,1.1.02.06-.04.1-.09.15-.12.11-.27.22-.33.37-.03.07-.05.15-.04.24,0,.08.11.15.24.15s.24-.07.24-.15c.02-.12.15-.19.26-.26.14-.08.27-.16.36-.25.09-.09.13-.19.12-.31-.01-.13-.17-.4-.3-.69-.04-.1-.07-.23-.09-.32.06.01.12.03.17.03.35.03.7.04.97,0,.34-.06.55-.2.69-.42.12-.19.15-.39.16-.6,0-.26-.08-.53-.16-.8-.07-.24-.16-.47-.12-.7.16.01.36.04.48.03.44-.03.84-.13,1.13-.31.28-.18.47-.43.51-.76.04-.28-.02-.64-.1-.98-.04-.17-.1-.34-.11-.47.26.02.58.08.72.04.44-.1.78-.26.76-.63-.02-.27-.03-.4-.1-.51-.06-.11-.16-.21-.39-.41l-.74-.62-1.06-.84c-.15-.14-.47-.18-.69-.08-.23.1-.29.29-.14.43l.85.93.58.65.07.08h0ZM67.72,1137.48s-.06,0-.05.02c0,.02.03,0,.05-.02h0ZM68.34,1136.76c.12,0,.21,0,.17-.06-.03-.04-.12,0-.17.06h0ZM69.5,1134.99c-.11,0-.18,0-.15.06.02.05.09,0,.15-.06h0ZM69.81,1133.86c.07,0,.11-.02.09-.06-.01-.02-.05,0-.08.03,0,.01,0,.02,0,.03h-.04s0,0,0,0c-.03.01-.06.03-.04.04.05.01.07,0,.08-.04h0ZM71.36,1132.5c-.19-.01-.32,0-.3.09.02.1.19.02.3-.09h0ZM71.67,1131.59c.07.01.12.01.12-.02,0-.04-.06-.02-.12.02h0Z" fill="#ab6027" fill-rule="evenodd" stroke="#e4d1bd" stroke-miterlimit="10"/>
          <path d="M66.93,1142.4c-.21-.02-.41-.01-.59,0-.47.04-.77.22-.93.5-.09.16-.12.37-.11.61,0,.26.06.57.08.86,0,.09.05.24.04.32l-.03.02h-.02c-.15.01-.39-.02-.52-.02-.39.03-.74.1-1,.24-.25.13-.46.31-.52.6-.04.2-.03.4.02.61.08.31.26.62.4.92.09.19.2.38.17.56-.16,0-.39-.03-.51-.02-.32.01-.59.05-.76.15-.23.13-.39.33-.31.6.11.36.67.9.75,1.1.02.06-.04.1-.09.15-.12.11-.27.22-.33.37-.03.07-.05.15-.04.24,0,.08.11.15.24.15s.24-.07.24-.15c.02-.12.15-.19.26-.26.14-.08.27-.16.36-.25.09-.09.13-.19.12-.31-.01-.13-.17-.4-.3-.69-.04-.1-.07-.23-.09-.32.06.01.12.03.17.03.35.03.7.04.97,0,.33-.06.55-.2.69-.42.12-.19.15-.4.16-.6,0-.26-.08-.53-.16-.8-.07-.24-.16-.48-.12-.7.16.01.36.04.48.03.44-.03.84-.13,1.13-.31.28-.18.47-.43.51-.76.04-.28-.02-.64-.1-.98-.04-.17-.1-.34-.11-.47.26.02.58.08.72.04.44-.1.78-.26.76-.63-.02-.27-.03-.4-.1-.51-.06-.11-.16-.21-.39-.41l-.74-.62-1.06-.84c-.15-.14-.47-.18-.69-.08-.23.1-.29.29-.14.43l.85.93.58.65.07.08h0ZM63.33,1148.35s-.06,0-.05.02c0,.02.03,0,.05-.02h0ZM63.95,1147.63c.12,0,.21,0,.17-.06-.03-.04-.12,0-.17.06h0ZM65.11,1145.85c-.11,0-.18,0-.15.06.02.05.09,0,.15-.06h0ZM65.41,1144.72c.07,0,.11-.02.09-.06-.01-.02-.05,0-.08.03,0,.01,0,.02,0,.03h-.04s0,0,0,0c-.03.01-.06.03-.04.04.05.01.07,0,.08-.04h0ZM66.97,1143.36c-.19-.01-.32,0-.3.09.02.1.19.02.3-.09h0ZM67.28,1142.46c.07.01.12.01.12-.02,0-.04-.06-.02-.12.02h0Z" fill="#ab6027" fill-rule="evenodd" stroke="#e4d1bd" stroke-miterlimit="10"/>
          <path d="M139.44,1138.24c-.22-.01-.5-.02-.65,0-.46.07-.86.25-.92.76-.02.15-.04.27-.04.41,0,.08.01.16.03.24.03.15.36.66.69,1.18.12.19.37.46.48.65-.09.01-.19.02-.29.02-.39.02-.79.01-1.16.05-.28.02-.54.06-.78.13-.36.1-.69.33-.65.72.02.16.12.49.18.66-.57.15-1.46.36-1.76.69-.23.25-.32.56.13.92.17.14.37.25.61.35.39.15.84.25,1.27.35.38.09.75.18.99.37.07.07.22.09.34.04.11-.05.14-.14.07-.21-.12-.14-.3-.25-.5-.36-.6-.31-1.54-.45-1.94-.9-.05-.05-.06-.1-.06-.14,0-.02.04-.02.06-.03.07-.04.17-.07.27-.09.51-.14,1.19-.2,1.47-.26.31-.07.52-.26.58-.56.03-.13-.13-.39-.18-.59.17,0,.35,0,.53.01.44.01.9.02,1.31-.02.3-.03.58-.1.84-.2.27-.1.48-.28.55-.53.04-.15.03-.35-.05-.59-.13-.36-.44-.83-.72-1.24-.21-.29-.42-.53-.44-.61v-.13c.12,0,.25,0,.32,0,.42-.05.75-.18.88-.48.24-.58.17-1.14-.13-1.68-.38-.69-1.08-1.34-1.6-1.96-.11-.16-.41-.23-.66-.16-.25.07-.37.26-.25.41.37.62.91,1.28,1.15,1.95.1.28.13.56.04.84h0ZM137.66,1142.57c.17-.08.33-.18.14-.19-.14,0-.17.08-.14.19h0ZM139.07,1141.56l-.02.02s-.15.12-.07.12c.11,0,.12-.06.09-.14h0Z" fill="#ab6027" fill-rule="evenodd" stroke="#e4d1bd" stroke-miterlimit="10"/>
          <path d="M65.79,1131.71c-.22-.01-.5-.02-.65,0-.46.07-.86.25-.91.76-.02.15-.04.28-.05.41,0,.08.01.16.03.24.04.15.36.66.69,1.18.12.19.37.46.48.65-.09.01-.19.02-.29.02-.39.02-.79.01-1.16.05-.28.02-.54.06-.78.13-.36.1-.69.33-.65.72.02.16.12.49.18.66-.57.15-1.46.36-1.76.69-.23.25-.32.56.13.92.17.14.38.25.61.35.39.15.84.25,1.27.35.38.09.75.19.99.37.07.07.23.09.34.04.11-.05.14-.14.07-.21-.12-.14-.3-.25-.5-.36-.6-.31-1.54-.45-1.94-.9-.05-.05-.06-.1-.06-.14,0-.02.04-.02.06-.03.07-.04.17-.07.27-.09.51-.14,1.19-.2,1.47-.26.31-.07.52-.26.58-.56.03-.13-.13-.39-.18-.59.17,0,.35,0,.53.01.44.01.9.02,1.31-.02.3-.03.58-.1.84-.2.27-.1.48-.28.55-.53.04-.15.03-.35-.05-.59-.13-.36-.44-.83-.72-1.24-.2-.29-.42-.53-.44-.61v-.13c.12,0,.25,0,.32,0,.42-.05.75-.18.88-.48.24-.58.17-1.14-.13-1.68-.38-.69-1.08-1.34-1.6-1.96-.11-.16-.41-.23-.66-.16-.25.07-.37.26-.25.41.37.62.91,1.28,1.15,1.95.1.28.13.56.04.84h0ZM64.02,1136.05c.17-.08.33-.18.14-.19-.14,0-.17.08-.14.19h0ZM65.43,1135.03l-.02.02s-.15.12-.07.12c.11,0,.12-.06.09-.14h0Z" fill="#ab6027" fill-rule="evenodd" stroke="#e4d1bd" stroke-miterlimit="10"/>
          <path d="M61.4,1142.57c-.22-.01-.5-.02-.65,0-.46.07-.86.25-.91.76-.02.15-.04.28-.05.41,0,.08.01.16.03.24.04.15.36.66.69,1.18.12.19.37.46.48.65-.09.01-.19.02-.29.02-.39.02-.79.01-1.16.05-.28.02-.54.06-.78.13-.36.1-.69.33-.65.72.02.16.12.49.18.66-.57.15-1.46.36-1.76.69-.23.25-.32.56.13.92.17.14.38.25.61.35.39.15.84.25,1.27.35.38.09.75.18.99.37.07.07.22.09.34.04.11-.05.14-.14.07-.21-.12-.14-.3-.25-.5-.36-.6-.31-1.54-.45-1.94-.9-.05-.05-.06-.1-.06-.14,0-.02.04-.02.06-.03.07-.04.17-.07.27-.09.51-.14,1.19-.2,1.47-.26.31-.07.52-.26.58-.56.03-.13-.13-.39-.18-.59.17,0,.35,0,.53.01.44.01.9.02,1.31-.02.3-.03.58-.1.84-.2.27-.1.48-.28.55-.53.04-.15.03-.35-.05-.59-.13-.36-.44-.83-.72-1.24-.2-.29-.42-.53-.44-.61v-.13c.12,0,.25,0,.32,0,.42-.05.75-.18.88-.48.24-.58.17-1.14-.13-1.68-.38-.69-1.08-1.34-1.6-1.96-.11-.16-.41-.23-.66-.16-.25.07-.37.26-.25.41.37.62.91,1.28,1.15,1.95.1.28.13.56.04.84h0ZM59.63,1146.91c.17-.08.33-.18.14-.19-.14,0-.17.08-.14.19h0ZM61.04,1145.9l-.02.02s-.15.12-.07.12c.11,0,.12-.06.09-.14h0Z" fill="#ab6027" fill-rule="evenodd" stroke="#e4d1bd" stroke-miterlimit="10"/>
          <path d="M104.81,1139.44c-.76,0-1.8-.09-2.33-.06-.74.03-1.08.3-1.17.45-.22.38-.09.77.46,1.11.42.27,1.17.52,1.76.78-.41-.02-.85-.05-1.12-.02-.41.05-.72.15-.87.26-.32.25-.34.52,0,.79.18.15.52.31.82.46.08.04.19.11.24.14-.05.01-.11.01-.17.02-.28.03-.58.04-.82.09-.21.05-.39.11-.51.21-.08.07-.17.2-.06.38.16.26.81.79.85,1.18,0,.08.11.15.24.15s.24-.07.24-.15c.04-.39-.42-.96-.57-1.27.09-.02.22,0,.33,0,.31,0,.64,0,.89-.06.24-.05.43-.15.57-.29.19-.2.14-.41-.05-.62-.11-.13-.48-.3-.74-.44.08,0,.17,0,.24,0,.6.01,1.29.05,1.66.03.63-.04.85-.31.92-.49.11-.32-.08-.63-.49-.93-.26-.19-.63-.37-1.01-.55.39.01.77.03,1.08.02.65-.01,1.11-.15,1.29-.26.21-.14.42-.39.28-.76-.09-.23-.35-.59-.54-.95-.06-.12-.12-.24-.15-.35-.01-.05-.05-.1-.02-.13.06-.01.2-.04.29-.05.21-.01.43-.01.66,0,.52.01,1.04.04,1.46,0,.38-.03.69-.09.91-.2.43-.22.77-.65.1-1.48l-.78-.88-.65-.69c-.13-.15-.43-.21-.67-.13-.25.08-.34.27-.21.42l.53.72.61.89c.13.21.36.49.18.48-.05,0,.06-.06.06-.06,0,0-.2,0-.33,0-.24,0-.52-.03-.8-.06-.66-.05-1.34-.08-1.84,0-.45.07-.79.24-1.02.48-.29.3-.31.72-.16,1.16.07.19.28.44.44.64h0ZM102.59,1142.45c.06-.08.07-.19-.03-.16-.11.03-.07.09.03.16h0ZM103.14,1140.19c.02-.06.02-.13-.05-.11-.07.02-.04.06.05.11h0ZM103.99,1141.96s-.01.02,0,.02c.01,0,.01-.01,0-.02h0ZM104.13,1141.74c.21,0,.35-.04.32-.13-.05-.14-.2,0-.32.13h0ZM104.96,1139.66c-.13.11-.26.25-.07.23.14-.02.14-.1.07-.23h0Z" fill="#ab6027" fill-rule="evenodd" stroke="#e4d1bd" stroke-miterlimit="10"/>
          <path d="M30.65,1135.89c-.76-.01-1.8-.09-2.33-.06-.74.03-1.08.3-1.17.45-.22.38-.09.77.46,1.11.42.27,1.17.52,1.76.79-.41-.02-.85-.05-1.12-.02-.41.05-.72.15-.87.26-.32.25-.34.52,0,.78.19.15.52.31.82.46.08.04.19.11.25.14-.05.01-.11.01-.17.02-.28.03-.58.04-.82.09-.21.05-.39.11-.51.21-.08.07-.17.2-.06.38.16.26.81.79.85,1.18,0,.08.11.15.24.15s.24-.07.24-.15c.04-.39-.42-.96-.57-1.27.09-.02.22,0,.33,0,.31,0,.64,0,.89-.06.24-.05.43-.15.57-.29.19-.2.14-.41-.05-.62-.11-.13-.48-.3-.74-.44.08,0,.17,0,.24,0,.6.01,1.29.05,1.66.03.63-.04.85-.31.92-.49.11-.32-.08-.63-.49-.93-.26-.19-.63-.37-1.01-.55.39.01.77.03,1.08.02.65-.01,1.11-.15,1.29-.26.21-.14.42-.39.28-.76-.09-.23-.35-.59-.55-.95-.06-.12-.12-.24-.15-.35-.01-.05-.05-.1-.02-.13.06-.01.2-.04.29-.05.21-.01.43-.01.66,0,.52.01,1.04.04,1.46,0,.38-.03.69-.09.91-.2.43-.22.77-.65.1-1.48l-.77-.88-.65-.69c-.13-.15-.43-.21-.68-.13-.25.08-.34.27-.21.42l.53.72.61.89c.13.21.36.49.18.48-.05,0,.06-.06.06-.06,0,0-.2,0-.32,0-.24,0-.52-.03-.8-.06-.66-.05-1.34-.08-1.84,0-.45.07-.79.24-1.02.48-.29.3-.31.72-.16,1.16.07.19.28.44.44.64h0ZM28.44,1138.9c.06-.08.07-.19-.03-.16-.11.03-.07.09.03.16h0ZM28.98,1136.64c.02-.06.02-.13-.05-.11-.07.02-.04.06.05.11h0ZM29.84,1138.41s-.01.02,0,.02c.01,0,.01-.01,0-.02h0ZM29.97,1138.19c.21,0,.35-.04.32-.13-.05-.14-.2,0-.32.13h0ZM30.81,1136.11c-.13.11-.26.25-.07.23.14-.02.14-.1.07-.23h0Z" fill="#ab6027" fill-rule="evenodd" stroke="#e4d1bd" stroke-miterlimit="10"/>
        </g>
        <path d="M-11.15,1145.15c17.48-1.39,34.97-2,52.48-2.39,9.82-.22,19.64-.34,29.47-.46,6.56-.08,13.12-.18,19.68-.28,9.86-.15,19.71-.32,29.58-.48,14.82-.25,29.61-.56,44.44-.94.53,0,.95-.27.95-.6s-.43-.6-.95-.6c-10.59-.28-21.13-.64-31.71-.95-10.59-.31-21.16-.62-31.74-.81-7.07-.13-14.14-.23-21.2-.22-7.08,0-14.16.12-21.23.31-9.44.25-18.87.66-28.28,1.22-14.09.85-28.11,2.11-42.1,3.75-1.07.1-1.81.74-1.64,1.41.17.67,1.18,1.13,2.25,1.03h0Z" fill="none" fill-rule="evenodd" stroke="#e4d1bd" stroke-miterlimit="10"/>
        <polygon points="1256.99 1178.76 1256.99 0 0 0 0 1178.76 1256.99 1178.76 1256.99 1178.76" fill="none" fill-rule="evenodd" stroke="#e4d1bd" stroke-miterlimit="10"/>
      </g>
    </g>
  </g>
  <g id="uuid-f332dddc-61d4-441b-8b50-1227acb40e64" data-name="Layer 2">
    <rect x=".51" y="2.18" width="1256.48" height="1174.39" fill="#a57b5b" opacity=".5" stroke-width="0"/>
  </g>
</svg>