<?xml version="1.0" encoding="UTF-8"?>
<svg id="uuid-5f0c099a-da17-4479-8539-471d678534e0" data-name="Layer 2" xmlns="http://www.w3.org/2000/svg" viewBox="0 0 160.43 124.28">
  <g id="uuid-e2d9a566-6079-4d3e-9855-12fafe0c7474" data-name="Layer 1">
    <path d="M134.43,36.68c1.51-1.47,2.67-3.18,3.5-5.13.57-1.33.34-3.15.42-4.26.04-.58.14-1.15.3-1.71,0-.01.02-.02.03-.02.02,0,.03.01.03.03h0c-.13,1.34.07,2.86,1.43,3.58.06.03.09.01.09-.06.01-1.02-.41-2.06-.26-3.03.15-.99.58-2.09.93-2.98.17-.42.21-.4.12.04-.26,1.38-.22,2.75.26,4.16,0,.01.01.03.02.04.04.03.09.03.12,0,0-.01.02-.02.02-.04.59-2.72,1.31-5.51,2.79-7.91.01-.02.02-.02.04-.02.02,0,.03.01.05.02,0,0,.01,0,.01.02,0,0,0,0,0,0-.2.44-.35.91-.45,1.39-.12.56-.03.59.25.1.94-1.6,2.87-3.57,4.82-4.22,0,0,.02,0,.03,0,.02,0,.03.03.02.05,0,0,0,.02-.02.02-.62.4-1.11.93-1.47,1.58-.08.14-.05.15.06.05,2.35-2.15,4.34-2.82,7.58-2.13,1.82.39,3.86.96,5.21,2.29,0,0,.01.02.01.02,0,.02-.02.03-.03.03,0,0,0,0-.01,0l-1.12-.41s-.04-.01-.06-.01c-.08,0-.15.07-.15.14,0,.05.03.1.08.13.53.32.96.74,1.28,1.27.06.09.04.11-.05.06-.8-.45-1.47-.35-2.24.1-.07.04-.09.1-.07.17l.14.56s0,0,0,0c0,.04-.02.08-.05.08,0,0,0,0,0,0-.35.07-.6.26-.74.57,0,.01,0,.02,0,.04,0,.04.03.07.07.08l.24.06s.06.04.06.07-.02.06-.06.07l-.27.07s-.07.05-.07.09c0,.01,0,.03,0,.04.29.65,1.48.88,2.1,1.1.09.03.09.06,0,.07-1.01.18-1.97.49-2.89.92-1.33.63-2.17.92-3.43,1.14-.04,0-.08.04-.08.09,0,.04.03.07.06.08.92.27,2.4,0,3.32-.25.09-.03.1,0,.04.06-.3.29-.62.54-.98.74-1.46.85-4.88,2.68-3.74,4.88.02.04.08.06.12.05.79-.29,1.61-.48,2.45-.57.02,0,.04,0,.04.03,0,.02.01.04,0,.05,0,0,0,.02-.02.02-.89.22-1.66.6-2.3,1.14-.02.02-.03.04-.03.07,0,.05.04.1.1.1.01,0,.02,0,.03,0,1.18-.48,2.42-.73,3.7-.76.36,0,.36.02.01.09-1.48.28-2.76.95-3.84,1.99,0,.01-.02.02-.02.04,0,.03.03.06.06.06,0,0,.02,0,.02,0,1.73-.82,3.56-1.21,5.5-1.16.03,0,.05.02.07.05.02.04,0,.06-.04.07-3,.19-4.56,2.16-6.96,3.58-.02,0-.03.03-.03.05,0,.03.03.06.06.06,0,0,0,0,0,0,2.09-.22,4.32-.14,6.48-.4.44-.05.85,0,1.23.18.02,0,.03.02.03.04,0,.02-.02.04-.04.04-1.76.05-3.3.65-4.61,1.79-.02.02-.03.04-.03.06,0,.04.04.08.08.08,0,0,.01,0,.02,0,1.41-.43,2.85-.64,4.33-.61h0s.04.02.04.04-.02.04-.04.04c-2.26.44-3.45,1.24-5.52,2.67-1.13.78-2.33,1.43-3.62,1.94-.01,0-.02.02-.02.03,0,.02.01.03.03.03h0c1.56-.11,2.83-.9,4.18-1.6,1.47-.76,2.95-1.17,4.43-1.23.45-.02.46.03.02.13-1.92.48-3.64,1.35-5.16,2.61,0,0-.01.02-.01.03,0,.02.02.03.03.03h0c1.52-.22,2.98-.04,4.39.54.02,0,.03.02.03.04,0,.03-.02.05-.05.05,0,0,0,0,0,0-1.43-.1-2.54-.24-3.84.52-.69.4-1.39.86-2.1,1.36-.02.01-.03.04-.03.06,0,.04.03.07.07.07,0,0,0,0,.01,0,2.07-.4,4.12-.33,6.15.21.03,0,.05.03.05.07,0,.04-.03.07-.07.07,0,0,0,0,0,0-1.6-.01-4.36-.09-5.51,1.08-.07.07-.06.1.04.08.92-.17,1.83-.11,2.73.18.27.09.26.12-.02.11-2.76-.1-4.36.95-6.84,1.99-.14.06-.13.1.02.12.94.14,2.24.01,3.1.33.1.04.1.07,0,.09-1.11.22-2.07.58-2.88,1.1-1.69,1.08-3.09,1.7-5.06.79-.01,0-.03,0-.04,0-.06,0-.11.05-.11.11,0,.03.01.06.04.08,1.58,1.28,3.1,2.64,4.56,4.06,0,0,0,0,0,0,0,0,0,.02-.01.02,0,0,0,0,0,0-.89-.55-1.83-1.27-2.79-1.68-.01,0-.03,0-.04,0-.04,0-.06.05-.06.08,0,.01,0,.03.02.04.54.55,1.06,1.09,1.56,1.63.02.02.03.04.03.06s0,.03-.02.05c0,0-.01.01-.02.01,0,0-.01,0-.02,0-.6-.47-1.2-.94-1.81-1.4-.92-.69-2.9-.37-3.98-.07-.08.02-.08.05-.01.09.63.37,1.61.33,2.33.42.7.09,1.26.33,1.85.67.01,0,.02.02.02.03,0,.02-.01.03-.03.03-.9.02-1.8.04-2.7.05-.65,0-1.17.04-1.69-.33-.02-.01-.04-.02-.06-.02-.06,0-.11.05-.11.11,0,.01,0,.03,0,.04.22.56.09,1-.39,1.33-.06.05-.15.04-.21-.02l-.79-.85s-.05-.03-.08,0c-1.04.66-.62,2.06-.09,2.97,0,0,0,.02,0,.02,0,.03-.02.05-.05.05,0,0-.01,0-.02,0l-.17-.07s-.02,0-.03,0c-.04,0-.08.03-.08.08,0,0,0,.02,0,.03.97,3.02,1.16,5.53,1.48,8.42.23,1.98.97,2.41,2.46,3.49.54.39.97.91,1.27,1.54,0,0,0,.01,0,.02,0,.02-.02.04-.04.04-.01,0-.03,0-.03-.02-.78-1.02-2.13-1.56-3.33-1.91,0,0,0,0-.01,0-.02,0-.03.01-.03.03,0,.01,0,.02.01.03,1.64,1.29,2.62,2.64,3.04,4.79,0,0,0,0,0,.01,0,.04-.04.08-.08.08-.03,0-.06-.02-.07-.05-.33-.74-.82-1.34-1.47-1.82,0,0-.01,0-.02,0-.02,0-.03.01-.03.03,0,0,0,0,0,.01.51.77,1.1,1.84,1.12,2.75,0,.11-.02.12-.07.02-.37-.68-.76-1.6-1.41-2.05-.1-.07-.12-.06-.05.05.52.79.6,1.8.79,2.71,0,0,0,0,0,0,0,.02-.02.04-.04.04-.01,0-.03,0-.03-.02-.22-.46-.45-.92-.68-1.37-.07-.14-.15-.17-.24-.09-.03.03-.04.07-.03.11.52,1.6,1.16,3.16,1.94,4.66,0,.01,0,.02,0,.03,0,.04-.03.07-.07.07-.01,0-.02,0-.03,0-.57-.27-1.08-.63-1.51-1.08-.02-.02-.05-.04-.08-.04-.05,0-.09.03-.1.07-1.01,2.41.14,4.28,2.27,5.38.76.39.73.44-.07.15-.95-.34-1.82-.81-2.63-1.41-.01,0-.03-.01-.04-.01-.04,0-.07.03-.07.07,0,0,0,.01,0,.02.31,1.1,1.16,2.16,2.23,2.55.89.32.87.38-.06.18-.64-.14-1.26-.37-1.87-.71-.36-.2-.42-.13-.17.2.37.5.82.93,1.33,1.28.01,0,.02.02.02.04,0,.03-.02.05-.05.05,0,0,0,0-.01,0-.85-.22-1.54-.67-2.06-1.36,0-.01-.02-.02-.04-.02-.03,0-.05.02-.05.05,0,0,0,0,0,.01.27.96.81,1.73,1.62,2.29.02.01.03.04.03.06,0,.04-.03.08-.08.08,0,0,0,0,0,0-.76-.08-1.43-.37-2.01-.86-.07-.06-.1-.04-.09.05.09,1.2,3.11,2.46,4.1,2.73.02,0,.03.03.03.05,0,.03-.02.05-.05.05-.99.01-1.94-.17-2.86-.54-.08-.03-.1-.01-.05.06.59.97,1.06,1.52,1.07,2.73,0,0,0,0,0,0,0,.03-.02.05-.05.05-.02,0-.04-.02-.05-.04-.42-1.18-1.17-2.08-2.27-2.7,0,0-.01,0-.02,0-.02,0-.04.02-.04.04,0,0,0,.01,0,.02.91,1.69.66,3.33,1.13,5.19.12.47.27.94.44,1.41,0,0,0,0,0,.02,0,.02-.02.03-.03.03-.01,0-.02,0-.03-.02-.85-1.21-1.52-2.51-2-3.9-.02-.06-.06-.11-.1-.16-.56-.52-1.2-.71-1.74-1.32,0-.01-.02-.02-.04-.02-.03,0-.05.02-.05.05,0,0,0,.01,0,.02.6,2,1.52,3.75,2.95,5.28,1.24,1.31,2.37,2.72,3.39,4.21.05.07.18.16.38.26.11.05.25.1.44.14.93.2,1.66.7,2.18,1.51,0,0,0,.01,0,.02,0,.03-.02.05-.05.05,0,0-.02,0-.02,0l-1.14-.76s-.03-.02-.05-.02c-.05,0-.09.04-.09.09,0,.02,0,.04.02.06.9,1.19,1.57,2,1.91,3.56.06.28.02.3-.12.05-.28-.49-.61-.94-1-1.36-.01-.01-.03-.02-.05-.02-.05,0-.09.02-.1.07,0,.02,0,.04,0,.05.58,1.18,1,2.42,1.25,3.71,0,.04,0,.07-.04.09l-.05.03s-.03,0-.04-.01l-.61-1.36s-.04-.05-.07-.05c-.04,0-.08.03-.08.08h0s.09,2.61.09,2.61c0,.07-.01.07-.05.01-.2-.36-.33-.75-.4-1.16,0-.02-.02-.04-.04-.04s-.04.02-.04.04h0c-.04.78-.16,2.28-.96,2.67-.05.02-.09.06-.11.11-.12.27-.23.59-.32.97-.52,2.18-.74,2.23-.99,4.37-.25,2.15-1.18,6.31-2.21,5.97-.05-.02-.07,0-.06.05.17,1.78-.92,2.39-2.5,2.45-3.66.16-6.89.13-9.68-.09-1.32-.1-2.37-1.16-2.03-2.54.06-.24.27-.63.65-1.19.42-.62.7-1.4,1.2-1.87.7-.65,1.58-1.01,2.55-.82.42.08.87.23,1.28.12,3.17-.79,1.66-9.55,1.28-11.81-.21-1.27-.86-2.18-1.95-2.74-.02-.01-.04-.02-.07-.02-.08,0-.15.07-.15.15,0,.02,0,.04.01.06.24.56.98,1.65.67,2.2-.03.05-.04.1-.03.16.07.44,0,.86-.2,1.26-.03.07-.06.06-.07,0-.04-.16-.06-.33-.08-.54,0-.05-.03-.1-.07-.13-.05-.04-.08-.03-.08.04l-.17,3.79s-.03.05-.06.05c-.02,0-.04-.01-.05-.03l-.58-1.29c-.03-.07-.06-.07-.09,0-.29.81-.57,1.44-.83,1.9-.55.95-1.58,2.25-2.09,3.3-.68,1.39-.92,2.84-1.2,4.35-.12.66-.47,1.31-1.04,1.94-.92,1.02-.64,2.21-2.13,2.71-.57.19-1.5.29-2.77.31-2.22.02-4.43-.01-6.65-.08-1.12-.04-2.87,0-4.07-.27-1.41-.32-1.01-2.47-.41-3.24.74-.95,1.42-2.07,2.71-2.23,1.48-.18,3.26,1.18,4.35-.46,1.19-1.8,2.14-3.5,2.88-5.09.29-.63.44-1.47.43-2.21-.04-4.07-2.29-7.44-5.32-9.97-1.59-1.32-3.63-2.75-5.01-4.17-2.26-2.31-4.23-5.11-5.35-8.19-.01-.04-.05-.06-.09-.06-.02,0-.04,0-.06.02-1.05.78-1.29,1.71-1.7,2.88,0,.01-.01.02-.03.02-.02,0-.03-.01-.03-.03,0,0,0,0,0,0,.13-1.13.45-2.2.95-3.22,0,0,0-.01,0-.02,0-.03-.02-.05-.05-.05-.01,0-.03,0-.03.01-1.29,1.2-2.64,2.63-3.1,4.39,0,.04-.04.06-.08.06-.04,0-.08-.03-.08-.07-.14-1.2.06-2.34.61-3.41,0,0,0-.01,0-.02,0-.02-.02-.04-.04-.04,0,0-.02,0-.03,0-1.27,1.18-2.58,2.23-3.41,3.82-.03.05-.06.05-.09,0-.03-.05-.03-.09-.01-.14.41-1.11.87-2.19,1.39-3.25.02-.03.02-.06.02-.09,0-.02-.01-.03-.02-.05-.01-.02-.02-.02-.04,0l-2.72,3.79c-.09.13-.13.12-.09-.04.05-.24.14-.47.27-.71,1.02-1.85,1.59-2.82,1.82-4.67.13-1.02.17-2.41.13-4.17-.01-.46.08-.96.09-1.39,0-.32-.06-.33-.19-.04-.8,1.9-1.55,3.86-2.21,5.86-.27.82-.61,1.61-1.03,2.39-.23.43-.27.41-.14-.06.59-1.99.76-4.1,1.1-6.15,0,0,0,0,0,0,0-.03-.02-.05-.05-.05-.02,0-.03,0-.04.02-.78,1.06-1.28,2.54-1.47,3.71,0,.05-.02.06-.05,0-.69-1.63-.16-4.79.35-6.43,0,0,0-.01,0-.02,0-.03-.03-.06-.06-.06-.02,0-.04,0-.05.03-1.28,1.78-2,3.81-3.32,5.57-.64.86-1.53,1.84-1.9,2.82-.26.69-.34.68-.23-.05.13-.93.29-1.86.46-2.79,0-.02,0-.03,0-.04-.02-.04-.06-.06-.1-.04-.01,0-.03.02-.03.03-.84,1.37-1.59,2.79-2.23,4.25-.04.1-.07.1-.08-.01-.05-.42.09-1.09.2-1.47,0,0,0-.01,0-.02,0-.03-.02-.05-.05-.05-.02,0-.04.01-.04.03-.59.84-1.11,1.73-1.54,2.67,0,0-.01.02-.02.02-.02.02-.06,0-.07-.02,0,0,0-.02,0-.03.02-1.54.94-2.88,1.54-4.17.77-1.66.88-3.44.31-5.17-.08-.23-.12-.22-.12.02-.03,1.26-.33,2.44-.92,3.56-.06.12-.08.11-.04-.02.41-1.43.69-2.86.31-4.35,0,0,0-.02-.02-.02-.02-.02-.05-.01-.07,0,0,0,0,.02-.01.03-.1,2.13-.65,4.13-1.65,6.01,0,.01-.02.02-.03.02-.02,0-.04-.02-.04-.04,0,0,0,0,0-.01.65-2.42.85-5.13-.08-7.42-.01-.03-.04-.05-.07-.05-.04,0-.07.03-.08.06-.22,1.29-.5,2.4-1.21,3.35-1.52,2.02-2.71,3.82-3.44,6.18-.02.07-.05.08-.09.01-.02-.03-.02-.07-.02-.11.22-1.17.49-2.31.82-3.41,0,0,0-.02,0-.02,0-.04-.03-.08-.08-.08-.03,0-.05.02-.07.04-1.11,2.06-2.44,3.94-3.99,5.64-.44.48-.85.86-1.24,1.12-.11.08-.13.05-.07-.06,1.54-3.01,2.38-5.71,2.18-9.12,0-.03-.02-.05-.05-.05-.02,0-.04.01-.05.03-.88,2.73-2.28,6.4-4.34,8.36-.01.01-.03.02-.04.02-.04,0-.07-.03-.07-.07,0-.01,0-.02,0-.03,1.07-1.81,1.41-4.05,1.4-6.11,0,0,0,0,0,0,0-.04-.03-.06-.06-.06-.03,0-.06.03-.06.06-.36,1.76-1.07,3.1-2.32,4.44-1.47,1.58-2.3,2.59-2.11,4.86,0,.08-.02.09-.08.04-.04-.04-.08-.1-.09-.2-.44-2.22-.49-4.4-.61-6.64,0-.03-.03-.06-.06-.06-.02,0-.05.02-.06.04-.63,1.55-1.24,3.2-1.24,4.88,0,.04-.04.08-.08.08-.04,0-.07-.02-.08-.06-.26-1.11-.33-2.23-.21-3.37h0s-.01-.03-.03-.03c0,0-.02,0-.02.01-.46.84-.78,1.73-.96,2.67,0,.02-.02.03-.04.03-.02,0-.04-.02-.04-.04h0c-.1-1.24.01-2.46.33-3.65,0,0,0-.02,0-.02,0-.04-.03-.07-.07-.07-.03,0-.05.02-.06.04-.47.9-.83,1.85-1.08,2.83,0,.02-.02.04-.05.04-.03,0-.05-.02-.05-.05-.14-1.75-.06-3.49.23-5.23,0-.03,0-.05-.04-.07,0,0,0,0,0,0-.02,0-.04,0-.04.01,0,0,0,0,0,0-1.3,2.61-1.83,5.37-1.6,8.28,0,0,0,0,0,0,0,.02-.02.03-.03.03-.02,0-.03-.01-.03-.03-.46-1.51-.8-3.04-1.03-4.59-.01-.09-.06-.11-.13-.07-.01,0-.03.03-.05.07-.01.02-.02.05-.02.08,0,.36,0,.7,0,1.03,0,.03-.03.05-.06.05-.03,0-.05-.02-.05-.04-.32-1.4-.71-2.3-1.95-3.08-.01,0-.02-.01-.04-.01-.04,0-.07.03-.07.07,0,.01,0,.03.01.04,1.54,2.18,1.54,5.41.57,7.77-.16.4-.2.38-.12-.04.46-2.25.06-4.25-1.49-6.01,0,0-.01,0-.02-.01-.03-.02-.07,0-.09.02,0,0,0,.01,0,.02-.41,1.9-.59,3.84-.52,5.82.06,1.71,1.02,3.35,1.67,4.93,0,0,0,.01,0,.02,0,.03-.02.05-.05.05-.02,0-.03,0-.04-.02-1.23-1.89-2.81-3.53-4.2-5.33-.1-.13-.18-.22-.23-.27-.16-.14-.21-.1-.17.1.38,1.96,1.5,3.45,2.41,5.23.05.09.03.11-.06.06-.98-.6-2.15-1.17-2.94-2-.01-.01-.02-.02-.04-.02-.03,0-.05.02-.05.05h0c.17,1.93.98,3.71,2.62,4.79,0,0,.01.01.01.02,0,.01-.01.02-.02.02,0,0,0,0,0,0-.97-.36-1.82-.91-2.55-1.64-.01-.01-.03-.02-.05-.02-.04,0-.06.03-.06.06,0,0,0,0,0,0,.17,1.41,1.72,2.72,2.94,3.31.03.01.04.04.04.06,0,.04-.03.07-.07.07,0,0,0,0-.01,0-1.2-.17-2.32-.57-3.36-1.18,0,0-.01,0-.02,0-.02,0-.03.01-.03.03,0,0,0,.01,0,.02.49.66,1.12,1.13,1.91,1.39.07.02.08.06.03.11-.02.03-.05.04-.09.03-1.18-.25-2.19-.63-3.04-1.16-.38-.23-.48-.15-.3.26.73,1.66,1.64,2.23,3.13,3.1.11.06.1.09-.03.1-1.6.04-3.23-1.03-4.21-2.22-.03-.04-.05-.03-.06.02-.27,2.06-.15,4.56,1.1,6.23.05.06.04.08-.03.04-.47-.25-.81-.87-1.14-1.28,0,0-.01-.01-.02-.02-.03-.01-.06,0-.08.03,0,0,0,.02,0,.03.13,1.01.49,2.09.89,3.03,0,0,0,0,0,.02,0,.02-.02.04-.04.04-.01,0-.02,0-.03-.01-.66-.73-1.21-1.54-1.64-2.43-.1-.2-.16-.19-.2.03-.3,2.02.19,3.86.36,5.85,0,.1-.02.11-.08.03-.14-.17-.24-.37-.3-.58-.01-.04-.05-.07-.09-.07-.05,0-.09.03-.09.08-.18,1.01-.56,1.94-1.15,2.78,0,0-.01.01-.02.02-.02,0-.05,0-.06-.03,0,0,0-.02,0-.03.4-.98.61-1.93-.32-2.7-2.39-1.99-5.4,5.71-6,7.01-.4.87-1.17,1.19-2.15,1.23-2.28.08-5.02.08-8.22,0-1.26-.03-2.35-.23-3.27-1.08-.56-.51-.99-1-1.79-1.25-.35-.11-.54-.41-.59-.9-.12-1.45.55-2.35,1.46-3.36.38-.43.75-.72,1.09-.87,1.88-.81,4.08,1.51,5.18-1.28,1.11-2.83,2.52-5.56,2.22-8.67-.37-3.83-.61-7.67-.72-11.52-.06-2.21-.27-4.42-.63-6.63,0-.04-.04-.06-.07-.06s-.07.03-.07.06c-.03.3-.08.62-.15.95,0,.05-.03.09-.06.11-.05.05-.07.04-.06-.03.09-.86.11-2.23-.33-3-.02-.04-.07-.07-.12-.07-.05,0-.09.02-.11.06-.42.59-.95,1.07-1.59,1.42,0,0-.02,0-.03,0-.03,0-.06-.03-.06-.06,0-.01,0-.03.01-.04,1.15-1.28,1.94-3.51.78-5.05,0-.01-.03-.02-.04-.02-.03,0-.05.02-.05.05,0,0,0,0,0,0,.14,1.16-.04,2.28-.54,3.36-.02.04-.03.04-.04,0-.19-1.99-1.2-3.65-1.19-5.6h0s-.03-.06-.06-.06c-.02,0-.04.01-.05.03-.69,1.12-1.08,2.34-1.18,3.66,0,.1-.03.1-.08.02-.99-1.78-.9-3.18-.39-5.08,0,0,0-.02,0-.03,0-.03-.04-.05-.07-.05,0,0-.02,0-.03.01-.63.52-1.17,1.12-1.64,1.79-.03.04-.05.04-.05-.01-.11-1.14-.1-2.65.63-3.6,0-.01.01-.03.01-.04,0-.04-.03-.07-.07-.07,0,0,0,0-.01,0-1.17.22-2.1.77-2.71,1.82,0,.01-.02.02-.04.02-.02,0-.04-.02-.04-.04h0c.06-.92.67-2.02,1.09-2.79.24-.43.15-.52-.27-.26-.96.6-1.97,1.07-3.04,1.4-.17.05-.19.02-.05-.1,1.23-1.08,1.89-3.28.22-4.32-.01,0-.02-.01-.04-.01-.04,0-.07.03-.07.07,0,0,0,.02,0,.03.29.7.38,1.43.25,2.18-.02.1-.05.11-.11.03-1.84-2.48-2.17-4.83-2.72-7.86,0-.04-.02-.06-.04-.08-.02-.01-.03-.02-.06-.01-.03,0-.05.02-.05.06.04.94-.2,1.79-.72,2.56,0,.01-.02.02-.04.02-.02,0-.04-.02-.04-.04,0,0,0,0,0,0,.26-1.15.26-2.29,0-3.43-.02-.11-.06-.11-.09,0-.15.43-.31,1.11-.66,1.41-.09.08-.11.06-.07-.05.48-1.29.76-2.63.84-4.01,0-.01,0-.02,0-.03-.01-.02-.05-.03-.07-.01,0,0-.02.01-.02.02l-.49,1.28s-.03.03-.05.03c-.03,0-.05-.02-.05-.05,0,0,0,0,0,0,.12-.41.3-.83.35-1.25.14-1.2.25-2.36.56-3.54.2-.77.41-1.57.63-2.39.06-.23,0-.27-.2-.14-.97.69-1.65,1.59-2.03,2.71-.01.03-.03.05-.07.05-.06,0-.09-.02-.08-.08.14-.8.42-1.64.83-2.53.02-.04.02-.09,0-.13-.47-.96-.66-1.97-.55-3.04h0s-.02-.05-.05-.05c-.02,0-.04.01-.05.03l-1.18,2.98c-.14.34-.2.33-.19-.04.04-1.57.26-3.11.67-4.63,0,0,0-.02,0-.03,0-.06-.05-.11-.11-.11-.03,0-.05.01-.07.03l-.87.79s-.03.02-.05.02c-.04,0-.06-.03-.06-.06,0-.01,0-.02,0-.03.91-1.66,1.86-3.06.91-5.02-.04-.09-.07-.08-.07.01-.06,1.71-.39,2.83-1.16,4.33,0,.02-.02.03-.04.03-.03,0-.05-.02-.05-.05,0,0,0,0,0-.01.38-2,.41-4.19-.42-6.08,0,0,0-.01-.01-.02-.02-.02-.06-.02-.08,0,0,0,0,.01-.01.02-.5,1.45-1.34,2.66-2.52,3.62-.01,0-.03.02-.04.02-.04,0-.06-.03-.06-.06,0-.01,0-.03.01-.04,1.49-1.84,1.51-3.31,1.43-5.89-.04-1.36-.04-2.71.02-4.07.02-.54.23-1.22.24-1.85,0-.03-.02-.05-.05-.05-.02,0-.03,0-.04.02l-.82,1.07s-.01.01-.02.02c-.03.01-.06,0-.07-.03,0,0,0-.02,0-.03.21-1.32,1.24-2.77,1.83-3.99.79-1.63.97-4.52-.98-5.45-.5-.24-1.12-.22-1.68-.23-1.21-.02-2.42-.12-3.62-.29-1.35-.19-3.99-1.17-3.35-2.92.08-.21.28-1.36,0-1.13-.61.5-1.4.75-2.05.74-.49,0-.77-.29-.84-.6-.74-3.29,3.83-3.75,6.24-4.58.35-.12.62-.33.8-.62.02-.02.02-.05.02-.08,0-.08-.06-.14-.13-.15-2.63-.44-5.04-.84-6.59-3.16-1.04-1.56-1.31-3.18-1.84-4.96-.02-.05-.02-.11,0-.17.29-1.11-.2-1.65-.3-2.52-.1-.87.33-1.37,1.28-1.5,1.87-.25,4.28-.09,6.22-.22,1.52-.1,2.55-.16,3.07-.19,1.87-.09,2.18-1.41,2.18-2.97,0-.06.03-.11.09-.14l.2-.11c.05-.03.1-.07.14-.11,1.32-1.59,3.05-2.68,5.19-3.26,6.38-1.73,12.92-1.38,18.15,2.94.05.04.1.04.15,0,1.23-.88,2.61-1.31,4.14-1.28,0,0,0,0,0,0,0,0,0,0,0,0l-1.74.57s-.03.02-.03.04c0,.02.02.04.04.04,0,0,0,0,0,0,.96-.12,1.9-.06,2.84.17.03,0,.06.04.06.07,0,.04-.03.07-.07.08-.56.06-1.1.18-1.63.36-.06.02-.06.04,0,.05,1.49.36,3.68,1.2,4.7,2.4.17.2.15.23-.08.09-1.04-.64-2.17-.95-3.4-.92-.03,0-.06.03-.06.06,0,.03.02.05.04.05.87.25,2.8.74,2.26,2.06-.06.15,0,.32.14.4,1.46.76,2.5,1.11,3.61,2.43,0,0,0,.01,0,.02,0,.02-.01.03-.03.03,0,0-.01,0-.02,0-.68-.45-1.49-1.05-2.32-1.17,0,0,0,0-.01,0-.04,0-.07.03-.07.07,0,.02.01.05.03.06,1.67,1.01,3.33,2.1,4.31,3.92.03.06.02.07-.04.03l-1.28-.95s-.02-.01-.03-.01c-.03,0-.06.03-.06.06,0,.01,0,.02.01.04.49.7.92,1.43,1.3,2.2.13.26.1.28-.09.06-.58-.68-1.18-1.33-1.81-1.95-.39-.39-.46-.33-.22.16.9,1.82,1.76,3.86,2.93,5.69.01.02.01.04,0,.06-.02.02-.03.02-.05,0l-1.72-1.75s-.03-.02-.04-.02c-.03,0-.06.03-.06.06,0,0,0,.02,0,.02.16.44.45,1.38.3,1.85-.04.11-.06.1-.06,0-.03-.49-.16-.96-.39-1.41-.06-.11-.09-.11-.09.02,0,1.02.31,2.67,1.01,3.45.11.12.18.22.2.3.06.18.02.2-.1.07-.68-.7-1.11-1.53-1.29-2.49,0-.02-.02-.03-.03-.03-.02,0-.03.02-.03.03h0c-.12,1.4.59,3.22,1.11,4.35.03.07.09.1.18.09.05,0,.1.02.13.06.71.82,1.19,1.62,1.45,2.39.51,1.51,1.33,2.65,3.11,2.88,2.97.39,8.36,4.15,11.18,4.32,1.13.07,1.93.25,3.03.78.78.38,1.49.6,2.41.58,2.43-.05,4.87-.06,7.3-.03,4.3.05,8.71.98,12.95.53,7.33-.77,14.9-1.37,22.15.08,2.97.6,5.44,1.92,8.14,3.25,2.58,1.27,5.72,1.16,8.56.35,2.7-.76,4.65-1.67,5.03-4.57.03-.2.06-.2.09,0,.17.88.1,1.73-.21,2.57-.04.12-.02.13.07.04h0Z" fill="#a57b5b" stroke-width="0"/>
  </g>
</svg>