<?xml version="1.0" encoding="UTF-8"?>
<svg id="uuid-2220402c-8944-451e-aee3-b6700cdbe3a3" data-name="Ñëîé 1" xmlns="http://www.w3.org/2000/svg" viewBox="0 0 3464 2886.5">
  <path d="M1892.2,1183.67s73.7-5.04,120.52-11.92,175.75-22.7,211.09-26.81c35.34-4.12,147.71-20.43,190.27-23.3,42.56-2.87,142.76-9.07,177.1-14.25,34.34-5.18,113.7-9.02,143.05-3.48,29.36,5.54,64.87,12.82,97.43,15.35,32.55,2.53,51.18,3.09,91.26,13.62,40.08,10.53,63.18,17.43,94.7,2.84,31.51-14.59,104.21-107.19,135.34-160.64,31.13-53.45,68.89-122.62,77.43-200.07,8.54-77.44,26.3-151.5,7.92-263.95-18.38-112.44-51.64-247.08-62.1-312.67-10.46-65.58-3.88-77.82,6.27-105.49,10.15-27.67,28.51-17.79,52.79,1.58,24.28,19.38,55.57,100.73,75.06,123.27,17.49,20.21,49.02,91.8,75.57,139.22,26.55,47.42,31.18,100.39,33.19,240.31,2.02,139.92-24.76,238.83-61.71,330.96-36.95,92.13-103.93,217.3-129.7,247.61-25.77,30.31-44.26,95.24-55.67,130.12s8.69,124.57,32.91,146.01,28.25,94.08,33.59,123.25c5.34,29.17-43.3,131.3-65,163.79-21.69,32.5-61.19,105.9-66.57,147.17-5.38,41.27-6.75,86.81,18.61,139.37,11.67,24.2,22.25,41.11,30.26,52.33,6.95,9.72,15.23,18.41,24.54,25.91,14.08,11.34,40.27,32.48,50.39,40.94,14.15,11.82,43.45,36.52,60.76,46.37,17.32,9.84,42.79,24.07,52.64,40.94,9.85,16.87,13.37,37.69,5.26,66.46-8.11,28.76-25.29,83.15-25.97,105.92-.68,22.77-3.24,73.45-10.6,111.56-7.36,38.11-19.27,55.36-17.28,92.71,1.99,37.35-6.28,71.29.4,90.14,6.69,18.85,10.68,58.33,6.29,66.49-4.39,8.16-7.54,11.94-15.05,18.19-13.81,11.5-19.19.98-34.87,5.69-15.68,4.71-22.98,14.85-42.63,5.2-13.82-6.79-34.04,2.91-43.86,3.09-16.07.29-37.06-10.02-45.12-6.53-11.53,4.99-33.98,10.38-45.18,3.82s-22.66-13.11-22.34-23.46c.31-10.35-23.9-12.9-19.42-25.96,3.69-10.77-11.51-13.55,1.41-29.74,12.92-16.19,40.39-25.46,62.59-40.34,22.2-14.87,22.14-12.8,29.16-39.53,7.02-26.72,19.61-66.75,24.25-83.18,4.64-16.44,16.32-60.63,11.35-102.21-4.97-41.59-7.79-50.99-20.72-68.99-12.93-18-30.18-29.91-47.12-52.17-16.94-22.26-22.53-43.15-37.87-49.82-15.34-6.68,1.07-1-40.81-20.91-41.88-19.9-95.95-47.42-103.89-59.06-7.94-11.63-7.28.82-6.58,12.23s7.93,81.04,16.5,106.16c8.57,25.12,22.82,68.02,28.66,80.62,5.84,12.61,7.01,42.68-2.93,63.1-9.94,20.42-23.83,34.51-43.83,45.3-20.01,10.79-49.48,26.48-68.45,37.31s-67.82,50.8-78.51,61.87c-10.69,11.07-69.11,59.04-79.7,67.01-10.6,7.97-38.04,24.76-50.86,37.84s-27.51,38.54-26.53,47.89c.98,9.35-8.07,34.98-15.63,45.11-7.56,10.13-47.23,20.34-62.72,18.84-15.49-1.5-28.51-5-40.11,1.9-11.6,6.9-13.31,12.21-48.53,6.14-27.87-4.8-26.18-18.01-40.51-30.91-15.87-14.28-33.16.39-48.7-17.04-10.5-11.77-9.85-22.7-28.29-29.47-18.44-6.77-9.54-27.22-5.03-39.52s16.15-20.23,31.79-23.91c15.65-3.67,29.23-7.41,45.13-19.36,15.9-11.95,33.86-23.85,60.99-30.28,27.13-6.44,58.86-28.28,91.75-54.22,32.89-25.95,58.29-43.83,74.28-58.89s31.67-19.77,41.61-40.19,8.93-21.49,20.75-35.63c11.82-14.15,9.84-17.32,10.56-41.12.71-23.8,6.98-59.87.66-91.14-6.31-31.27-17.49-73.04-29.32-93.08-11.83-20.04-34.13-85.97-39.27-114.09-5.15-28.12-8.68-46.81-20.31-73.57-11.63-26.76-33.28-81.8-26.05-115.76,7.23-33.97,15.83-61.68,19.87-92.63,4.04-30.95-.57-32.65-.06-49.72.51-17.08-10.63-8.09-18.72,2.55s-59.3,60.37-102.01,85.5c-42.71,25.13-99.64,58.5-135.61,66.3-35.97,7.8-84.79,29.64-115.08,55.15-30.29,25.51-43.31,45.31-74.87,61.46-22.8,11.66-39.02,20.28-46.27,24.16-2.51,1.34-3.73,4.26-2.92,6.99,1.57,5.28,4.68,15.09,10.06,29.83,8.62,23.57,21.1,73.66,38.09,128.55,17,54.89,33.67,120.65,46.94,144.36,13.27,23.71,19.96,59.64,24.11,76.86,4.14,17.22,18.69,50.28,36.81,67.92,18.12,17.64,14.22,43.93,10.7,57.81s-20.74,18.02-27.42,33.36c-6.68,15.34-8.88,37.02-6.57,63.51,2.31,26.48,4.67,51.42,10.46,65.57,1.94,4.75,4.08,8.81,6.1,12.92,8.73,17.8,9.33,38.66.93,56.62-3.76,8.04-9.34,15.41-17.48,17.65-20.37,5.6-37.17-4.22-46.57-1.4s-25.5,12.7-43.05,10.62c-16.1-1.91-33.08-10.93-61.21-5.46-28.13,5.47-32.39,9.29-50.84,2.62-18.45-6.67-18.64-15.03-31.06-15.41s-13.37-20.6-13.18-26.81c.19-6.21-17.84-12.31-20.97-22.76-2.53-8.41,13.38-34.96,32.29-43.71,16-7.41,18.43-7.44,33.33-20.96,4.78-4.34,10.15-8.03,16.06-10.63,5.86-2.58,13.96-8.84,16.95-23.95,4.89-24.72,9.01-92.96-11.01-116.35-20.02-23.39-73.42-107.87-84.85-141.36-11.43-33.49-42-119.35-72.24-147.2-30.24-27.84-82.2-91.55-87.91-108.3-5.71-16.75-28.54-15.36-65.93-12.34-37.38,3.02-140.82-2.15-165.41-11.18s-100.87-21.67-115.05-32.46c-14.18-10.78-15.3,26.47-17.86,42.97-2.57,16.5-24.94,71.76-61.19,105.9-36.25,34.13-74.81,76.48-119.58,118.65-44.77,42.16-117.14,106.29-130.24,128.69-13.1,22.4-38.69,46.49-70.79,80.75-32.11,34.26-55.62,58.41-71.1,91.1-15.48,32.68-29.79,26.04-48.79,37.9-19,11.86-35.62,13.43-46.35,25.54-10.72,12.11-33.74,19.71-48.54,29.62-14.8,9.91-6.58,12.23-29.91,30.18-23.33,17.95-56.82,29.37-87.93,30.51-31.11,1.14-26.47-15.3-62.1-1.86-35.62,13.43-58.28,8.97-78.66-2.18-20.38-11.15-24.03-27.84-36.26-34.42-12.23-6.58-6.53-24.02,1.02-34.15s2.54-15.46-.32-23.84c-2.86-8.37-4.71-15.68,5.86-22.61,10.57-6.93,12.85-14.12,45.09-18.33,32.24-4.21,44.5,1.34,74.8-7.08,30.29-8.41,34.22-1.05,46.88-8.95,12.67-7.91,55.97-35.61,89.36-78.12,33.39-42.51,53.64-61.58,66.9-89.15,13.26-27.57,35.2-68.35,59.81-94.54,24.61-26.2,70.95-85.92,85.06-107.25,14.11-21.33,26.84-31.31,44.39-63.93s29.59-54.02,32.53-82.93c2.94-28.92-.32-23.84,3.41-44.44,3.73-20.61,4.69-52.69,3.08-68.28-1.6-15.59-19.01-22.32-26.41-17.37-7.4,4.96-42.08,21.53-52.93,37.78-10.85,16.25-22.79,34.54-44.8,43.2-22.01,8.66-38.92,19.55-48.57,30.66-9.66,11.11-25.4,17.88-41.14,24.66-15.74,6.78-25.65,26.16-28.91,31.25-3.26,5.08-14.92,14.05-31.67,19.77-16.75,5.71-20.98,8.69-27.56,20.93-6.58,12.23-13.83,12.02-14.04,19.26-.22,7.24,18.86,27.5,16.64,66.8-2.22,39.3-25.53,91.43-47.07,118.75-21.54,27.32-48.65,59.14-66.62,71.03-16.29,10.78-32.42,27.51-65.02,43.63-30.12,14.89-80.99,32.27-104.67,27.42-23.68-4.85-38.96-13.6-48.4-9.74s-25.16,21.34-30.97,30.84c-5.81,9.49-19.96,20.81-22.26,28.34s-18.69,24.3-29.22,30.2-19.71,12.53-49.38,11.64c-29.67-.89-68.83-7.59-84.07-5.98-15.24,1.61-58.97-14.2-66.43-18.57-7.47-4.37-25.54-23.56-36.39-30.1-10.85-6.54-29.11-19.52-36.35-31.48-7.24-11.96-48.5-40.82-58.66-47.34-10.16-6.52-18.62-24.04-18.1-41.29.52-17.25,15.73-40.96,25.66-49.64,9.93-8.68,16.26-12.63,24.41-31.04,8.15-18.4,47.11-73.86,58.46-83.88,11.35-10.02,41.01-54.71,49.05-69.66,8.05-14.95,8.9-20.45,9.58-43.22.68-22.77-3.57-42.23-10.09-54.86-6.53-12.63-21.98-26.9-23.6-42.14-1.61-15.24,6.05-40.56,16.88-56.12,10.83-15.56,21-32.52,27.1-51.67,6.1-19.15,20.24-53.26,31.72-67.42,11.47-14.16,17.55-32.62,27.5-41.99,9.95-9.37,20.49-15.27,25.69-27.54,5.2-12.27,8.8-17,14.52-23.74,5.73-6.73,12.39-21.73,16.84-31.95,4.45-10.23,10.91-18.32,19.33-22.9,8.42-4.58,15.99-3.66,27.79-5.38,11.79-1.72,26.39-4.73,32.74-9.38,6.35-4.64,24.36-6.18,48.06-13.75,23.71-7.58,61.32-18.19,82.43-31.37,21.11-13.18,22.6-16.59,26.36-26.83,3.76-10.25,34.42-42.48,54.24-58.45,19.82-15.98,54.45-42.56,72.47-67.58s66.93-67.05,88.67-78.14c21.74-11.09,32.06-9.74,46.2-32.11s18.46-28.45,42.77-44.3c24.3-15.85,51.58-27.46,71.31-28.94,19.73-1.48,44.47,2.37,66.55-8.36s14.89-13.02,43.24-25.64c28.35-12.62,54.44-19.08,93.42-40.7,38.98-21.62,80.18-48.35,98.27-64.39,18.09-16.03,38.19-29.93,65.47-41.54,27.28-11.61,54.32-14.94,79.16-14.2,24.84.75,100.58-3.2,127.67-8.6,27.1-5.4,147.71-20.43,182.84-17.3s71.44,1.11,97.44-2.26c26-3.36,75.02-2.72,87.12-3.6Z" fill="#a57b5b" stroke-width="0"/>
</svg>